%TF.GenerationSoftware,KiCad,Pcbnew,7.0.8*%
%TF.CreationDate,2024-06-06T10:31:46+02:00*%
%TF.ProjectId,BeerBoard,42656572-426f-4617-9264-2e6b69636164,rev?*%
%TF.SameCoordinates,Original*%
%TF.FileFunction,Legend,Bot*%
%TF.FilePolarity,Positive*%
%FSLAX46Y46*%
G04 Gerber Fmt 4.6, Leading zero omitted, Abs format (unit mm)*
G04 Created by KiCad (PCBNEW 7.0.8) date 2024-06-06 10:31:46*
%MOMM*%
%LPD*%
G01*
G04 APERTURE LIST*
%ADD10C,0.150000*%
%ADD11C,0.120000*%
G04 APERTURE END LIST*
D10*
X125868094Y-74114819D02*
X125868094Y-73114819D01*
X125868094Y-73114819D02*
X125629999Y-73114819D01*
X125629999Y-73114819D02*
X125487142Y-73162438D01*
X125487142Y-73162438D02*
X125391904Y-73257676D01*
X125391904Y-73257676D02*
X125344285Y-73352914D01*
X125344285Y-73352914D02*
X125296666Y-73543390D01*
X125296666Y-73543390D02*
X125296666Y-73686247D01*
X125296666Y-73686247D02*
X125344285Y-73876723D01*
X125344285Y-73876723D02*
X125391904Y-73971961D01*
X125391904Y-73971961D02*
X125487142Y-74067200D01*
X125487142Y-74067200D02*
X125629999Y-74114819D01*
X125629999Y-74114819D02*
X125868094Y-74114819D01*
X124915713Y-73210057D02*
X124868094Y-73162438D01*
X124868094Y-73162438D02*
X124772856Y-73114819D01*
X124772856Y-73114819D02*
X124534761Y-73114819D01*
X124534761Y-73114819D02*
X124439523Y-73162438D01*
X124439523Y-73162438D02*
X124391904Y-73210057D01*
X124391904Y-73210057D02*
X124344285Y-73305295D01*
X124344285Y-73305295D02*
X124344285Y-73400533D01*
X124344285Y-73400533D02*
X124391904Y-73543390D01*
X124391904Y-73543390D02*
X124963332Y-74114819D01*
X124963332Y-74114819D02*
X124344285Y-74114819D01*
X144078094Y-96704819D02*
X144078094Y-95704819D01*
X144078094Y-95704819D02*
X143839999Y-95704819D01*
X143839999Y-95704819D02*
X143697142Y-95752438D01*
X143697142Y-95752438D02*
X143601904Y-95847676D01*
X143601904Y-95847676D02*
X143554285Y-95942914D01*
X143554285Y-95942914D02*
X143506666Y-96133390D01*
X143506666Y-96133390D02*
X143506666Y-96276247D01*
X143506666Y-96276247D02*
X143554285Y-96466723D01*
X143554285Y-96466723D02*
X143601904Y-96561961D01*
X143601904Y-96561961D02*
X143697142Y-96657200D01*
X143697142Y-96657200D02*
X143839999Y-96704819D01*
X143839999Y-96704819D02*
X144078094Y-96704819D01*
X142649523Y-95704819D02*
X142839999Y-95704819D01*
X142839999Y-95704819D02*
X142935237Y-95752438D01*
X142935237Y-95752438D02*
X142982856Y-95800057D01*
X142982856Y-95800057D02*
X143078094Y-95942914D01*
X143078094Y-95942914D02*
X143125713Y-96133390D01*
X143125713Y-96133390D02*
X143125713Y-96514342D01*
X143125713Y-96514342D02*
X143078094Y-96609580D01*
X143078094Y-96609580D02*
X143030475Y-96657200D01*
X143030475Y-96657200D02*
X142935237Y-96704819D01*
X142935237Y-96704819D02*
X142744761Y-96704819D01*
X142744761Y-96704819D02*
X142649523Y-96657200D01*
X142649523Y-96657200D02*
X142601904Y-96609580D01*
X142601904Y-96609580D02*
X142554285Y-96514342D01*
X142554285Y-96514342D02*
X142554285Y-96276247D01*
X142554285Y-96276247D02*
X142601904Y-96181009D01*
X142601904Y-96181009D02*
X142649523Y-96133390D01*
X142649523Y-96133390D02*
X142744761Y-96085771D01*
X142744761Y-96085771D02*
X142935237Y-96085771D01*
X142935237Y-96085771D02*
X143030475Y-96133390D01*
X143030475Y-96133390D02*
X143078094Y-96181009D01*
X143078094Y-96181009D02*
X143125713Y-96276247D01*
X147024285Y-128224819D02*
X147024285Y-127224819D01*
X147024285Y-127224819D02*
X146786190Y-127224819D01*
X146786190Y-127224819D02*
X146643333Y-127272438D01*
X146643333Y-127272438D02*
X146548095Y-127367676D01*
X146548095Y-127367676D02*
X146500476Y-127462914D01*
X146500476Y-127462914D02*
X146452857Y-127653390D01*
X146452857Y-127653390D02*
X146452857Y-127796247D01*
X146452857Y-127796247D02*
X146500476Y-127986723D01*
X146500476Y-127986723D02*
X146548095Y-128081961D01*
X146548095Y-128081961D02*
X146643333Y-128177200D01*
X146643333Y-128177200D02*
X146786190Y-128224819D01*
X146786190Y-128224819D02*
X147024285Y-128224819D01*
X145500476Y-128224819D02*
X146071904Y-128224819D01*
X145786190Y-128224819D02*
X145786190Y-127224819D01*
X145786190Y-127224819D02*
X145881428Y-127367676D01*
X145881428Y-127367676D02*
X145976666Y-127462914D01*
X145976666Y-127462914D02*
X146071904Y-127510533D01*
X145119523Y-127320057D02*
X145071904Y-127272438D01*
X145071904Y-127272438D02*
X144976666Y-127224819D01*
X144976666Y-127224819D02*
X144738571Y-127224819D01*
X144738571Y-127224819D02*
X144643333Y-127272438D01*
X144643333Y-127272438D02*
X144595714Y-127320057D01*
X144595714Y-127320057D02*
X144548095Y-127415295D01*
X144548095Y-127415295D02*
X144548095Y-127510533D01*
X144548095Y-127510533D02*
X144595714Y-127653390D01*
X144595714Y-127653390D02*
X145167142Y-128224819D01*
X145167142Y-128224819D02*
X144548095Y-128224819D01*
X148664285Y-153794819D02*
X148664285Y-152794819D01*
X148664285Y-152794819D02*
X148426190Y-152794819D01*
X148426190Y-152794819D02*
X148283333Y-152842438D01*
X148283333Y-152842438D02*
X148188095Y-152937676D01*
X148188095Y-152937676D02*
X148140476Y-153032914D01*
X148140476Y-153032914D02*
X148092857Y-153223390D01*
X148092857Y-153223390D02*
X148092857Y-153366247D01*
X148092857Y-153366247D02*
X148140476Y-153556723D01*
X148140476Y-153556723D02*
X148188095Y-153651961D01*
X148188095Y-153651961D02*
X148283333Y-153747200D01*
X148283333Y-153747200D02*
X148426190Y-153794819D01*
X148426190Y-153794819D02*
X148664285Y-153794819D01*
X147140476Y-153794819D02*
X147711904Y-153794819D01*
X147426190Y-153794819D02*
X147426190Y-152794819D01*
X147426190Y-152794819D02*
X147521428Y-152937676D01*
X147521428Y-152937676D02*
X147616666Y-153032914D01*
X147616666Y-153032914D02*
X147711904Y-153080533D01*
X146807142Y-152794819D02*
X146188095Y-152794819D01*
X146188095Y-152794819D02*
X146521428Y-153175771D01*
X146521428Y-153175771D02*
X146378571Y-153175771D01*
X146378571Y-153175771D02*
X146283333Y-153223390D01*
X146283333Y-153223390D02*
X146235714Y-153271009D01*
X146235714Y-153271009D02*
X146188095Y-153366247D01*
X146188095Y-153366247D02*
X146188095Y-153604342D01*
X146188095Y-153604342D02*
X146235714Y-153699580D01*
X146235714Y-153699580D02*
X146283333Y-153747200D01*
X146283333Y-153747200D02*
X146378571Y-153794819D01*
X146378571Y-153794819D02*
X146664285Y-153794819D01*
X146664285Y-153794819D02*
X146759523Y-153747200D01*
X146759523Y-153747200D02*
X146807142Y-153699580D01*
X120948094Y-105224819D02*
X120948094Y-104224819D01*
X120948094Y-104224819D02*
X120709999Y-104224819D01*
X120709999Y-104224819D02*
X120567142Y-104272438D01*
X120567142Y-104272438D02*
X120471904Y-104367676D01*
X120471904Y-104367676D02*
X120424285Y-104462914D01*
X120424285Y-104462914D02*
X120376666Y-104653390D01*
X120376666Y-104653390D02*
X120376666Y-104796247D01*
X120376666Y-104796247D02*
X120424285Y-104986723D01*
X120424285Y-104986723D02*
X120471904Y-105081961D01*
X120471904Y-105081961D02*
X120567142Y-105177200D01*
X120567142Y-105177200D02*
X120709999Y-105224819D01*
X120709999Y-105224819D02*
X120948094Y-105224819D01*
X119805237Y-104653390D02*
X119900475Y-104605771D01*
X119900475Y-104605771D02*
X119948094Y-104558152D01*
X119948094Y-104558152D02*
X119995713Y-104462914D01*
X119995713Y-104462914D02*
X119995713Y-104415295D01*
X119995713Y-104415295D02*
X119948094Y-104320057D01*
X119948094Y-104320057D02*
X119900475Y-104272438D01*
X119900475Y-104272438D02*
X119805237Y-104224819D01*
X119805237Y-104224819D02*
X119614761Y-104224819D01*
X119614761Y-104224819D02*
X119519523Y-104272438D01*
X119519523Y-104272438D02*
X119471904Y-104320057D01*
X119471904Y-104320057D02*
X119424285Y-104415295D01*
X119424285Y-104415295D02*
X119424285Y-104462914D01*
X119424285Y-104462914D02*
X119471904Y-104558152D01*
X119471904Y-104558152D02*
X119519523Y-104605771D01*
X119519523Y-104605771D02*
X119614761Y-104653390D01*
X119614761Y-104653390D02*
X119805237Y-104653390D01*
X119805237Y-104653390D02*
X119900475Y-104701009D01*
X119900475Y-104701009D02*
X119948094Y-104748628D01*
X119948094Y-104748628D02*
X119995713Y-104843866D01*
X119995713Y-104843866D02*
X119995713Y-105034342D01*
X119995713Y-105034342D02*
X119948094Y-105129580D01*
X119948094Y-105129580D02*
X119900475Y-105177200D01*
X119900475Y-105177200D02*
X119805237Y-105224819D01*
X119805237Y-105224819D02*
X119614761Y-105224819D01*
X119614761Y-105224819D02*
X119519523Y-105177200D01*
X119519523Y-105177200D02*
X119471904Y-105129580D01*
X119471904Y-105129580D02*
X119424285Y-105034342D01*
X119424285Y-105034342D02*
X119424285Y-104843866D01*
X119424285Y-104843866D02*
X119471904Y-104748628D01*
X119471904Y-104748628D02*
X119519523Y-104701009D01*
X119519523Y-104701009D02*
X119614761Y-104653390D01*
X128428094Y-92374819D02*
X128428094Y-91374819D01*
X128428094Y-91374819D02*
X128189999Y-91374819D01*
X128189999Y-91374819D02*
X128047142Y-91422438D01*
X128047142Y-91422438D02*
X127951904Y-91517676D01*
X127951904Y-91517676D02*
X127904285Y-91612914D01*
X127904285Y-91612914D02*
X127856666Y-91803390D01*
X127856666Y-91803390D02*
X127856666Y-91946247D01*
X127856666Y-91946247D02*
X127904285Y-92136723D01*
X127904285Y-92136723D02*
X127951904Y-92231961D01*
X127951904Y-92231961D02*
X128047142Y-92327200D01*
X128047142Y-92327200D02*
X128189999Y-92374819D01*
X128189999Y-92374819D02*
X128428094Y-92374819D01*
X127523332Y-91374819D02*
X126856666Y-91374819D01*
X126856666Y-91374819D02*
X127285237Y-92374819D01*
X139820594Y-71834819D02*
X139820594Y-70834819D01*
X139820594Y-70834819D02*
X139582499Y-70834819D01*
X139582499Y-70834819D02*
X139439642Y-70882438D01*
X139439642Y-70882438D02*
X139344404Y-70977676D01*
X139344404Y-70977676D02*
X139296785Y-71072914D01*
X139296785Y-71072914D02*
X139249166Y-71263390D01*
X139249166Y-71263390D02*
X139249166Y-71406247D01*
X139249166Y-71406247D02*
X139296785Y-71596723D01*
X139296785Y-71596723D02*
X139344404Y-71691961D01*
X139344404Y-71691961D02*
X139439642Y-71787200D01*
X139439642Y-71787200D02*
X139582499Y-71834819D01*
X139582499Y-71834819D02*
X139820594Y-71834819D01*
X138392023Y-71168152D02*
X138392023Y-71834819D01*
X138630118Y-70787200D02*
X138868213Y-71501485D01*
X138868213Y-71501485D02*
X138249166Y-71501485D01*
X124278094Y-128484819D02*
X124278094Y-127484819D01*
X124278094Y-127484819D02*
X124039999Y-127484819D01*
X124039999Y-127484819D02*
X123897142Y-127532438D01*
X123897142Y-127532438D02*
X123801904Y-127627676D01*
X123801904Y-127627676D02*
X123754285Y-127722914D01*
X123754285Y-127722914D02*
X123706666Y-127913390D01*
X123706666Y-127913390D02*
X123706666Y-128056247D01*
X123706666Y-128056247D02*
X123754285Y-128246723D01*
X123754285Y-128246723D02*
X123801904Y-128341961D01*
X123801904Y-128341961D02*
X123897142Y-128437200D01*
X123897142Y-128437200D02*
X124039999Y-128484819D01*
X124039999Y-128484819D02*
X124278094Y-128484819D01*
X123230475Y-128484819D02*
X123039999Y-128484819D01*
X123039999Y-128484819D02*
X122944761Y-128437200D01*
X122944761Y-128437200D02*
X122897142Y-128389580D01*
X122897142Y-128389580D02*
X122801904Y-128246723D01*
X122801904Y-128246723D02*
X122754285Y-128056247D01*
X122754285Y-128056247D02*
X122754285Y-127675295D01*
X122754285Y-127675295D02*
X122801904Y-127580057D01*
X122801904Y-127580057D02*
X122849523Y-127532438D01*
X122849523Y-127532438D02*
X122944761Y-127484819D01*
X122944761Y-127484819D02*
X123135237Y-127484819D01*
X123135237Y-127484819D02*
X123230475Y-127532438D01*
X123230475Y-127532438D02*
X123278094Y-127580057D01*
X123278094Y-127580057D02*
X123325713Y-127675295D01*
X123325713Y-127675295D02*
X123325713Y-127913390D01*
X123325713Y-127913390D02*
X123278094Y-128008628D01*
X123278094Y-128008628D02*
X123230475Y-128056247D01*
X123230475Y-128056247D02*
X123135237Y-128103866D01*
X123135237Y-128103866D02*
X122944761Y-128103866D01*
X122944761Y-128103866D02*
X122849523Y-128056247D01*
X122849523Y-128056247D02*
X122801904Y-128008628D01*
X122801904Y-128008628D02*
X122754285Y-127913390D01*
X139120594Y-81794819D02*
X139120594Y-80794819D01*
X139120594Y-80794819D02*
X138882499Y-80794819D01*
X138882499Y-80794819D02*
X138739642Y-80842438D01*
X138739642Y-80842438D02*
X138644404Y-80937676D01*
X138644404Y-80937676D02*
X138596785Y-81032914D01*
X138596785Y-81032914D02*
X138549166Y-81223390D01*
X138549166Y-81223390D02*
X138549166Y-81366247D01*
X138549166Y-81366247D02*
X138596785Y-81556723D01*
X138596785Y-81556723D02*
X138644404Y-81651961D01*
X138644404Y-81651961D02*
X138739642Y-81747200D01*
X138739642Y-81747200D02*
X138882499Y-81794819D01*
X138882499Y-81794819D02*
X139120594Y-81794819D01*
X138215832Y-80794819D02*
X137596785Y-80794819D01*
X137596785Y-80794819D02*
X137930118Y-81175771D01*
X137930118Y-81175771D02*
X137787261Y-81175771D01*
X137787261Y-81175771D02*
X137692023Y-81223390D01*
X137692023Y-81223390D02*
X137644404Y-81271009D01*
X137644404Y-81271009D02*
X137596785Y-81366247D01*
X137596785Y-81366247D02*
X137596785Y-81604342D01*
X137596785Y-81604342D02*
X137644404Y-81699580D01*
X137644404Y-81699580D02*
X137692023Y-81747200D01*
X137692023Y-81747200D02*
X137787261Y-81794819D01*
X137787261Y-81794819D02*
X138072975Y-81794819D01*
X138072975Y-81794819D02*
X138168213Y-81747200D01*
X138168213Y-81747200D02*
X138215832Y-81699580D01*
X118428094Y-83232319D02*
X118428094Y-82232319D01*
X118428094Y-82232319D02*
X118189999Y-82232319D01*
X118189999Y-82232319D02*
X118047142Y-82279938D01*
X118047142Y-82279938D02*
X117951904Y-82375176D01*
X117951904Y-82375176D02*
X117904285Y-82470414D01*
X117904285Y-82470414D02*
X117856666Y-82660890D01*
X117856666Y-82660890D02*
X117856666Y-82803747D01*
X117856666Y-82803747D02*
X117904285Y-82994223D01*
X117904285Y-82994223D02*
X117951904Y-83089461D01*
X117951904Y-83089461D02*
X118047142Y-83184700D01*
X118047142Y-83184700D02*
X118189999Y-83232319D01*
X118189999Y-83232319D02*
X118428094Y-83232319D01*
X116904285Y-83232319D02*
X117475713Y-83232319D01*
X117189999Y-83232319D02*
X117189999Y-82232319D01*
X117189999Y-82232319D02*
X117285237Y-82375176D01*
X117285237Y-82375176D02*
X117380475Y-82470414D01*
X117380475Y-82470414D02*
X117475713Y-82518033D01*
X123794285Y-153924819D02*
X123794285Y-152924819D01*
X123794285Y-152924819D02*
X123556190Y-152924819D01*
X123556190Y-152924819D02*
X123413333Y-152972438D01*
X123413333Y-152972438D02*
X123318095Y-153067676D01*
X123318095Y-153067676D02*
X123270476Y-153162914D01*
X123270476Y-153162914D02*
X123222857Y-153353390D01*
X123222857Y-153353390D02*
X123222857Y-153496247D01*
X123222857Y-153496247D02*
X123270476Y-153686723D01*
X123270476Y-153686723D02*
X123318095Y-153781961D01*
X123318095Y-153781961D02*
X123413333Y-153877200D01*
X123413333Y-153877200D02*
X123556190Y-153924819D01*
X123556190Y-153924819D02*
X123794285Y-153924819D01*
X122270476Y-153924819D02*
X122841904Y-153924819D01*
X122556190Y-153924819D02*
X122556190Y-152924819D01*
X122556190Y-152924819D02*
X122651428Y-153067676D01*
X122651428Y-153067676D02*
X122746666Y-153162914D01*
X122746666Y-153162914D02*
X122841904Y-153210533D01*
X121651428Y-152924819D02*
X121556190Y-152924819D01*
X121556190Y-152924819D02*
X121460952Y-152972438D01*
X121460952Y-152972438D02*
X121413333Y-153020057D01*
X121413333Y-153020057D02*
X121365714Y-153115295D01*
X121365714Y-153115295D02*
X121318095Y-153305771D01*
X121318095Y-153305771D02*
X121318095Y-153543866D01*
X121318095Y-153543866D02*
X121365714Y-153734342D01*
X121365714Y-153734342D02*
X121413333Y-153829580D01*
X121413333Y-153829580D02*
X121460952Y-153877200D01*
X121460952Y-153877200D02*
X121556190Y-153924819D01*
X121556190Y-153924819D02*
X121651428Y-153924819D01*
X121651428Y-153924819D02*
X121746666Y-153877200D01*
X121746666Y-153877200D02*
X121794285Y-153829580D01*
X121794285Y-153829580D02*
X121841904Y-153734342D01*
X121841904Y-153734342D02*
X121889523Y-153543866D01*
X121889523Y-153543866D02*
X121889523Y-153305771D01*
X121889523Y-153305771D02*
X121841904Y-153115295D01*
X121841904Y-153115295D02*
X121794285Y-153020057D01*
X121794285Y-153020057D02*
X121746666Y-152972438D01*
X121746666Y-152972438D02*
X121651428Y-152924819D01*
X151014285Y-103574819D02*
X151014285Y-102574819D01*
X151014285Y-102574819D02*
X150776190Y-102574819D01*
X150776190Y-102574819D02*
X150633333Y-102622438D01*
X150633333Y-102622438D02*
X150538095Y-102717676D01*
X150538095Y-102717676D02*
X150490476Y-102812914D01*
X150490476Y-102812914D02*
X150442857Y-103003390D01*
X150442857Y-103003390D02*
X150442857Y-103146247D01*
X150442857Y-103146247D02*
X150490476Y-103336723D01*
X150490476Y-103336723D02*
X150538095Y-103431961D01*
X150538095Y-103431961D02*
X150633333Y-103527200D01*
X150633333Y-103527200D02*
X150776190Y-103574819D01*
X150776190Y-103574819D02*
X151014285Y-103574819D01*
X149490476Y-103574819D02*
X150061904Y-103574819D01*
X149776190Y-103574819D02*
X149776190Y-102574819D01*
X149776190Y-102574819D02*
X149871428Y-102717676D01*
X149871428Y-102717676D02*
X149966666Y-102812914D01*
X149966666Y-102812914D02*
X150061904Y-102860533D01*
X148538095Y-103574819D02*
X149109523Y-103574819D01*
X148823809Y-103574819D02*
X148823809Y-102574819D01*
X148823809Y-102574819D02*
X148919047Y-102717676D01*
X148919047Y-102717676D02*
X149014285Y-102812914D01*
X149014285Y-102812914D02*
X149109523Y-102860533D01*
X153038094Y-81024819D02*
X153038094Y-80024819D01*
X153038094Y-80024819D02*
X152799999Y-80024819D01*
X152799999Y-80024819D02*
X152657142Y-80072438D01*
X152657142Y-80072438D02*
X152561904Y-80167676D01*
X152561904Y-80167676D02*
X152514285Y-80262914D01*
X152514285Y-80262914D02*
X152466666Y-80453390D01*
X152466666Y-80453390D02*
X152466666Y-80596247D01*
X152466666Y-80596247D02*
X152514285Y-80786723D01*
X152514285Y-80786723D02*
X152561904Y-80881961D01*
X152561904Y-80881961D02*
X152657142Y-80977200D01*
X152657142Y-80977200D02*
X152799999Y-81024819D01*
X152799999Y-81024819D02*
X153038094Y-81024819D01*
X151561904Y-80024819D02*
X152038094Y-80024819D01*
X152038094Y-80024819D02*
X152085713Y-80501009D01*
X152085713Y-80501009D02*
X152038094Y-80453390D01*
X152038094Y-80453390D02*
X151942856Y-80405771D01*
X151942856Y-80405771D02*
X151704761Y-80405771D01*
X151704761Y-80405771D02*
X151609523Y-80453390D01*
X151609523Y-80453390D02*
X151561904Y-80501009D01*
X151561904Y-80501009D02*
X151514285Y-80596247D01*
X151514285Y-80596247D02*
X151514285Y-80834342D01*
X151514285Y-80834342D02*
X151561904Y-80929580D01*
X151561904Y-80929580D02*
X151609523Y-80977200D01*
X151609523Y-80977200D02*
X151704761Y-81024819D01*
X151704761Y-81024819D02*
X151942856Y-81024819D01*
X151942856Y-81024819D02*
X152038094Y-80977200D01*
X152038094Y-80977200D02*
X152085713Y-80929580D01*
D11*
%TO.C,D2*%
X123240000Y-74440000D02*
X126100000Y-74440000D01*
X123240000Y-76360000D02*
X123240000Y-74440000D01*
X126100000Y-76360000D02*
X123240000Y-76360000D01*
%TO.C,D6*%
X144290000Y-97020000D02*
X144290000Y-99880000D01*
X142370000Y-97020000D02*
X144290000Y-97020000D01*
X142370000Y-99880000D02*
X142370000Y-97020000D01*
%TO.C,D12*%
X147627500Y-130540000D02*
X144767500Y-130540000D01*
X147627500Y-128620000D02*
X147627500Y-130540000D01*
X144767500Y-128620000D02*
X147627500Y-128620000D01*
%TO.C,D13*%
X148470000Y-154240000D02*
X148470000Y-157100000D01*
X146550000Y-154240000D02*
X148470000Y-154240000D01*
X146550000Y-157100000D02*
X146550000Y-154240000D01*
%TO.C,D8*%
X119280000Y-109077500D02*
X119280000Y-106217500D01*
X121200000Y-109077500D02*
X119280000Y-109077500D01*
X121200000Y-106217500D02*
X121200000Y-109077500D01*
%TO.C,D7*%
X128740000Y-92732500D02*
X128740000Y-95592500D01*
X126820000Y-92732500D02*
X128740000Y-92732500D01*
X126820000Y-95592500D02*
X126820000Y-92732500D01*
%TO.C,D4*%
X137262500Y-72090000D02*
X140122500Y-72090000D01*
X137262500Y-74010000D02*
X137262500Y-72090000D01*
X140122500Y-74010000D02*
X137262500Y-74010000D01*
%TO.C,D9*%
X121732500Y-128620000D02*
X124592500Y-128620000D01*
X121732500Y-130540000D02*
X121732500Y-128620000D01*
X124592500Y-130540000D02*
X121732500Y-130540000D01*
%TO.C,D3*%
X136620000Y-82090000D02*
X139480000Y-82090000D01*
X136620000Y-84010000D02*
X136620000Y-82090000D01*
X139480000Y-84010000D02*
X136620000Y-84010000D01*
%TO.C,D1*%
X116680000Y-87137500D02*
X116680000Y-84277500D01*
X118600000Y-87137500D02*
X116680000Y-87137500D01*
X118600000Y-84277500D02*
X118600000Y-87137500D01*
%TO.C,D10*%
X123580000Y-154142500D02*
X123580000Y-157002500D01*
X121660000Y-154142500D02*
X123580000Y-154142500D01*
X121660000Y-157002500D02*
X121660000Y-154142500D01*
%TO.C,D11*%
X150770000Y-104052500D02*
X150770000Y-106912500D01*
X148850000Y-104052500D02*
X150770000Y-104052500D01*
X148850000Y-106912500D02*
X148850000Y-104052500D01*
%TO.C,D5*%
X153290000Y-81362500D02*
X153290000Y-84222500D01*
X151370000Y-81362500D02*
X153290000Y-81362500D01*
X151370000Y-84222500D02*
X151370000Y-81362500D01*
%TD*%
M02*
