M48
; DRILL file {KiCad 7.0.8} date Thu Jun  6 10:31:25 2024
; FORMAT={-:-/ absolute / metric / decimal}
; #@! TF.CreationDate,2024-06-06T10:31:25+02:00
; #@! TF.GenerationSoftware,Kicad,Pcbnew,7.0.8
; #@! TF.FileFunction,Plated,1,2,Blind
FMAT,2
METRIC
; #@! TA.AperFunction,Plated,Buried,ViaDrill
T1C0.400
%
G90
G05
T1
X116.6Y-114.0
X118.2Y-110.6
X118.95Y-116.332
X121.6Y-100.3
X127.1Y-93.2
X127.5Y-96.2
X127.7Y-94.5
X128.9Y-97.6
X131.5Y-129.7
X131.5Y-130.8
X131.5Y-131.9
X131.5Y-133.0
X131.9Y-125.1
X132.6Y-133.0
X133.7Y-133.0
X134.8Y-110.9
X134.8Y-133.0
X135.2Y-106.0
X135.9Y-133.0
X139.4Y-108.5
X143.1Y-127.6
X144.4Y-127.6
X148.9Y-117.8
X151.9Y-117.8
X152.9Y-114.0
T0
M30
