%TF.GenerationSoftware,KiCad,Pcbnew,7.0.8*%
%TF.CreationDate,2024-06-06T10:31:45+02:00*%
%TF.ProjectId,BeerBoard,42656572-426f-4617-9264-2e6b69636164,rev?*%
%TF.SameCoordinates,Original*%
%TF.FileFunction,Copper,L2,Inr*%
%TF.FilePolarity,Positive*%
%FSLAX46Y46*%
G04 Gerber Fmt 4.6, Leading zero omitted, Abs format (unit mm)*
G04 Created by KiCad (PCBNEW 7.0.8) date 2024-06-06 10:31:45*
%MOMM*%
%LPD*%
G01*
G04 APERTURE LIST*
G04 Aperture macros list*
%AMHorizOval*
0 Thick line with rounded ends*
0 $1 width*
0 $2 $3 position (X,Y) of the first rounded end (center of the circle)*
0 $4 $5 position (X,Y) of the second rounded end (center of the circle)*
0 Add line between two ends*
20,1,$1,$2,$3,$4,$5,0*
0 Add two circle primitives to create the rounded ends*
1,1,$1,$2,$3*
1,1,$1,$4,$5*%
%AMRotRect*
0 Rectangle, with rotation*
0 The origin of the aperture is its center*
0 $1 length*
0 $2 width*
0 $3 Rotation angle, in degrees counterclockwise*
0 Add horizontal line*
21,1,$1,$2,0,0,$3*%
G04 Aperture macros list end*
%TA.AperFunction,ComponentPad*%
%ADD10RotRect,3.000000X3.000000X315.000000*%
%TD*%
%TA.AperFunction,ComponentPad*%
%ADD11C,3.000000*%
%TD*%
%TA.AperFunction,ComponentPad*%
%ADD12HorizOval,0.750000X-0.372946X0.039198X0.372946X-0.039198X0*%
%TD*%
%TA.AperFunction,ComponentPad*%
%ADD13HorizOval,0.800000X-0.041811X-0.397809X0.041811X0.397809X0*%
%TD*%
%TA.AperFunction,ComponentPad*%
%ADD14R,1.700000X1.700000*%
%TD*%
%TA.AperFunction,ComponentPad*%
%ADD15O,1.700000X1.700000*%
%TD*%
%TA.AperFunction,ComponentPad*%
%ADD16C,1.676400*%
%TD*%
%TA.AperFunction,ViaPad*%
%ADD17C,0.800000*%
%TD*%
G04 APERTURE END LIST*
D10*
%TO.N,+BATT*%
%TO.C,BT1*%
X132200000Y-76400000D03*
D11*
%TO.N,GND*%
X146688618Y-90888618D03*
%TD*%
D12*
%TO.N,unconnected-(J3-Shield-Pad6)*%
%TO.C,J3*%
X117921933Y-94998388D03*
D13*
X120500000Y-96300000D03*
X119977358Y-101272610D03*
D12*
X117185007Y-102009768D03*
%TD*%
D14*
%TO.N,PA15*%
%TO.C,J5*%
X143500000Y-133300000D03*
D15*
%TO.N,PB3*%
X143500000Y-135840000D03*
%TO.N,PB4*%
X143500000Y-138380000D03*
%TO.N,PB5*%
X143500000Y-140920000D03*
%TO.N,PB6*%
X143500000Y-143460000D03*
%TO.N,PB7*%
X143500000Y-146000000D03*
%TO.N,I2C_SDA*%
X143500000Y-148540000D03*
%TO.N,I2C_SCL*%
X143500000Y-151080000D03*
%TO.N,PA12*%
X143500000Y-153620000D03*
%TO.N,PA11*%
X143500000Y-156160000D03*
%TD*%
D16*
%TO.N,+3.3V*%
%TO.C,SW3*%
X131960000Y-100200000D03*
%TO.N,VDD*%
X134500000Y-100200000D03*
%TO.N,+BATT*%
X137040000Y-100200000D03*
%TD*%
D14*
%TO.N,VDD*%
%TO.C,J1*%
X125720000Y-102820000D03*
D15*
%TO.N,GND*%
X125720000Y-105360000D03*
X125720000Y-107900000D03*
%TO.N,PA0*%
X125720000Y-110440000D03*
%TO.N,PA1*%
X125720000Y-112980000D03*
%TO.N,PA2*%
X125720000Y-115520000D03*
%TO.N,NRST*%
X125720000Y-118060000D03*
%TO.N,PA3*%
X125720000Y-120600000D03*
%TO.N,PA4*%
X125720000Y-123140000D03*
%TO.N,PA5*%
X125720000Y-125680000D03*
%TD*%
D14*
%TO.N,PC13*%
%TO.C,J4*%
X143500000Y-102820000D03*
D15*
%TO.N,PC14*%
X143500000Y-105360000D03*
%TO.N,PC15*%
X143500000Y-107900000D03*
%TO.N,PB9*%
X143500000Y-110440000D03*
%TO.N,PB8*%
X143500000Y-112980000D03*
%TO.N,BOOT0*%
X143500000Y-115520000D03*
%TO.N,VDD*%
X143500000Y-118060000D03*
%TO.N,SWCLK*%
X143500000Y-120600000D03*
%TO.N,SWDIO*%
X143500000Y-123140000D03*
%TO.N,GND*%
X143500000Y-125680000D03*
%TD*%
D14*
%TO.N,VDD*%
%TO.C,J6*%
X130800000Y-157770000D03*
D15*
%TO.N,PB13*%
X130800000Y-155230000D03*
%TO.N,PB15*%
X133340000Y-157770000D03*
%TO.N,PB14*%
X133340000Y-155230000D03*
%TO.N,PA9*%
X135880000Y-157770000D03*
%TO.N,PA8*%
X135880000Y-155230000D03*
%TO.N,GND*%
X138420000Y-157770000D03*
%TO.N,PA10*%
X138420000Y-155230000D03*
%TD*%
D14*
%TO.N,PA6*%
%TO.C,J2*%
X125720000Y-133300000D03*
D15*
%TO.N,PA7*%
X125720000Y-135840000D03*
%TO.N,PB0*%
X125720000Y-138380000D03*
%TO.N,PB1*%
X125720000Y-140920000D03*
%TO.N,PB2*%
X125720000Y-143460000D03*
%TO.N,PB10*%
X125720000Y-146000000D03*
%TO.N,PB11*%
X125720000Y-148540000D03*
%TO.N,PB12*%
X125720000Y-151080000D03*
%TO.N,GND*%
X125720000Y-153620000D03*
%TO.N,VDD*%
X125720000Y-156160000D03*
%TD*%
D17*
%TO.N,PA11*%
X135899024Y-118294609D03*
%TO.N,PB1*%
X133700000Y-118700000D03*
%TO.N,GND*%
X116200000Y-104800000D03*
X150000000Y-159300000D03*
X117600000Y-104600000D03*
X154700000Y-89500000D03*
X123000000Y-147400000D03*
X135100000Y-161300000D03*
X113500000Y-83300000D03*
X147300000Y-159100000D03*
X134800000Y-110900000D03*
X133800000Y-92600000D03*
X144600000Y-161300000D03*
X150200000Y-128500000D03*
X148900000Y-117800000D03*
X153400000Y-76600000D03*
X146500000Y-76800000D03*
X152700000Y-116900000D03*
X116000000Y-109000000D03*
X121100000Y-72500000D03*
X123000000Y-116800000D03*
X138200000Y-75800000D03*
X117600000Y-106800000D03*
X153400000Y-109600000D03*
X117900000Y-122600000D03*
X120300000Y-136100000D03*
X139400000Y-108500000D03*
X119900000Y-159300000D03*
X150800000Y-75600000D03*
X127100000Y-93200000D03*
X149000000Y-141500000D03*
X139200000Y-88400000D03*
X143700000Y-69900000D03*
X149200000Y-155200000D03*
X138200000Y-161300000D03*
X144800000Y-82200000D03*
X119200000Y-74900000D03*
X119900000Y-148900000D03*
X143000000Y-161300000D03*
X116400000Y-80000000D03*
X128600000Y-70400000D03*
X144200000Y-88600000D03*
X120000000Y-146900000D03*
X122100000Y-94200000D03*
X117100000Y-93500000D03*
X148900000Y-139800000D03*
X117900000Y-79300000D03*
X152900000Y-114000000D03*
X124000000Y-161300000D03*
X119300000Y-91600000D03*
X135200000Y-106000000D03*
X119100000Y-127600000D03*
X125600000Y-161300000D03*
X132000000Y-135700000D03*
X141600000Y-99000000D03*
X144700000Y-70900000D03*
X147000000Y-147300000D03*
X120300000Y-143000000D03*
X146100000Y-161300000D03*
X119500000Y-129300000D03*
X114100000Y-82100000D03*
X134800000Y-69700000D03*
X132500000Y-71700000D03*
X149800000Y-149900000D03*
X145400000Y-71900000D03*
X146900000Y-142200000D03*
X143100000Y-127600000D03*
X129000000Y-151000000D03*
X148900000Y-138300000D03*
X148400000Y-110400000D03*
X121200000Y-131700000D03*
X131800000Y-161300000D03*
X120000000Y-73500000D03*
X128700000Y-161300000D03*
X149400000Y-146600000D03*
X118700000Y-78000000D03*
X153100000Y-103100000D03*
X113100000Y-84700000D03*
X149600000Y-148300000D03*
X118700000Y-125900000D03*
X152900000Y-99700000D03*
X153600000Y-90300000D03*
X118950000Y-116332000D03*
X138300000Y-86100000D03*
X116100000Y-106300000D03*
X150900000Y-125500000D03*
X117400000Y-120700000D03*
X131900000Y-116300000D03*
X118800000Y-76400000D03*
X131500000Y-131900000D03*
X131400000Y-84200000D03*
X146100000Y-78200000D03*
X122300000Y-71500000D03*
X140500000Y-101800000D03*
X120300000Y-137900000D03*
X149100000Y-135000000D03*
X149000000Y-136700000D03*
X120300000Y-141200000D03*
X121000000Y-160400000D03*
X132400000Y-90400000D03*
X152000000Y-120700000D03*
X140400000Y-97600000D03*
X149900000Y-130000000D03*
X156900000Y-81100000D03*
X138100000Y-77300000D03*
X152500000Y-96600000D03*
X139800000Y-161300000D03*
X129000000Y-86000000D03*
X134800000Y-133000000D03*
X133100000Y-133900000D03*
X123000000Y-93400000D03*
X147100000Y-124500000D03*
X147600000Y-161100000D03*
X150000000Y-83600000D03*
X115900000Y-113100000D03*
X146400000Y-74400000D03*
X148000000Y-119400000D03*
X127100000Y-161300000D03*
X137400000Y-71200000D03*
X131500000Y-130800000D03*
X150600000Y-154900000D03*
X133600000Y-70700000D03*
X133500000Y-161300000D03*
X123700000Y-70700000D03*
X157200000Y-82700000D03*
X149100000Y-143100000D03*
X120800000Y-157200000D03*
X119600000Y-152000000D03*
X120300000Y-139500000D03*
X145400000Y-87000000D03*
X157100000Y-84300000D03*
X147900000Y-75500000D03*
X119700000Y-150600000D03*
X125300000Y-70200000D03*
X141000000Y-90300000D03*
X118200000Y-124300000D03*
X119200000Y-155100000D03*
X124000000Y-108500000D03*
X150700000Y-158000000D03*
X128900000Y-99500000D03*
X156400000Y-87100000D03*
X132600000Y-134800000D03*
X128800000Y-73500000D03*
X150400000Y-153200000D03*
X127500000Y-96200000D03*
X140900000Y-155100000D03*
X122400000Y-161200000D03*
X131900000Y-125100000D03*
X154600000Y-77500000D03*
X150500000Y-127100000D03*
X120200000Y-144900000D03*
X123200000Y-152300000D03*
X122800000Y-121800000D03*
X120100000Y-134300000D03*
X151900000Y-117800000D03*
X149400000Y-75500000D03*
X128900000Y-101300000D03*
X142100000Y-75400000D03*
X149600000Y-131600000D03*
X123000000Y-137200000D03*
X149200000Y-144900000D03*
X150800000Y-156500000D03*
X141700000Y-83000000D03*
X148500000Y-113500000D03*
X116200000Y-115400000D03*
X121700000Y-92700000D03*
X115900000Y-110500000D03*
X146000000Y-73000000D03*
X134000000Y-87400000D03*
X132000000Y-133900000D03*
X144400000Y-127600000D03*
X115600000Y-90600000D03*
X153200000Y-104700000D03*
X152200000Y-75900000D03*
X117200000Y-92300000D03*
X113300000Y-87300000D03*
X150100000Y-151500000D03*
X119100000Y-156600000D03*
X128500000Y-106600000D03*
X131500000Y-133000000D03*
X152100000Y-93500000D03*
X149400000Y-157300000D03*
X131500000Y-129700000D03*
X132600000Y-133000000D03*
X140900000Y-157700000D03*
X141000000Y-68600000D03*
X116800000Y-91100000D03*
X152500000Y-90900000D03*
X138600000Y-95300000D03*
X151300000Y-123800000D03*
X151600000Y-122300000D03*
X156900000Y-85800000D03*
X133700000Y-133000000D03*
X152300000Y-94900000D03*
X128900000Y-97600000D03*
X122900000Y-142200000D03*
X148900000Y-160300000D03*
X119300000Y-90400000D03*
X113000000Y-86000000D03*
X116300000Y-103400000D03*
X121600000Y-100300000D03*
X147100000Y-121900000D03*
X133900000Y-95400000D03*
X119300000Y-158200000D03*
X135900000Y-133000000D03*
X127700000Y-94500000D03*
X116600000Y-114000000D03*
X139300000Y-68400000D03*
X135900000Y-94300000D03*
X136100000Y-69000000D03*
X131200000Y-71600000D03*
X128900000Y-103700000D03*
X149300000Y-133300000D03*
X113700000Y-88500000D03*
X119700000Y-131000000D03*
X136600000Y-161300000D03*
X152700000Y-98200000D03*
X130000000Y-70900000D03*
X146800000Y-137200000D03*
X123000000Y-132100000D03*
X119500000Y-153500000D03*
X116500000Y-117200000D03*
X137700000Y-68500000D03*
X118200000Y-110600000D03*
X120100000Y-124300000D03*
X150200000Y-80600000D03*
X141300000Y-161300000D03*
X119900000Y-132700000D03*
X155500000Y-78500000D03*
X115100000Y-81000000D03*
X145900000Y-152300000D03*
X127000000Y-70100000D03*
X156400000Y-79800000D03*
X152300000Y-119200000D03*
X131900000Y-105000000D03*
X153000000Y-101400000D03*
X151900000Y-92100000D03*
X114600000Y-89600000D03*
X155700000Y-88400000D03*
X121800000Y-119200000D03*
X116000000Y-107700000D03*
X142500000Y-69100000D03*
X130300000Y-161300000D03*
X120500000Y-92700000D03*
X137500000Y-84600000D03*
X153800000Y-82200000D03*
X148200000Y-129200000D03*
X122600000Y-131100000D03*
X136700000Y-73100000D03*
X141800000Y-97700000D03*
X146000000Y-155100000D03*
X148300000Y-104800000D03*
X122700000Y-75400000D03*
X118700000Y-108300000D03*
X127700000Y-92200000D03*
X117600000Y-87700000D03*
X121100000Y-154900000D03*
%TO.N,PA9*%
X135908280Y-119294068D03*
%TO.N,PB15*%
X137380792Y-125030792D03*
%TO.N,PB12*%
X135350000Y-126100000D03*
%TO.N,VDD*%
X137100000Y-150200000D03*
X135200000Y-122500000D03*
X138500000Y-147100000D03*
X151200000Y-109600000D03*
X121200000Y-108200000D03*
%TO.N,PA15*%
X140600000Y-113550000D03*
%TO.N,PB3*%
X138585916Y-116419484D03*
%TO.N,PB4*%
X137450000Y-116050000D03*
%TO.N,PB5*%
X136225434Y-115549500D03*
%TO.N,PB6*%
X135200000Y-115650000D03*
%TO.N,PB7*%
X134799500Y-114650000D03*
%TO.N,PA3*%
X130100000Y-97700000D03*
X127600000Y-100600000D03*
X128800000Y-87800000D03*
X121600000Y-116800000D03*
%TO.N,PA5*%
X132700000Y-117800000D03*
%TO.N,PA7*%
X129300000Y-121200000D03*
%TO.N,PB10*%
X131700000Y-122700000D03*
%TO.N,/OSC_IN*%
X134439548Y-117329593D03*
X134254977Y-126104977D03*
%TO.N,/OSC_OUT*%
X133000000Y-126200000D03*
X133554977Y-116854977D03*
%TO.N,PC13*%
X132250000Y-110500000D03*
%TO.N,PC14*%
X135900000Y-110900000D03*
%TO.N,PC15*%
X135750000Y-113463329D03*
%TO.N,Net-(D1-A)*%
X138645000Y-94105000D03*
%TO.N,Net-(D2-A)*%
X143260000Y-94290000D03*
%TO.N,Net-(D3-A)*%
X145800000Y-93400000D03*
%TO.N,Net-(D4-A)*%
X148620000Y-88030000D03*
%TO.N,Net-(D5-A)*%
X151525000Y-88175000D03*
%TO.N,Net-(D6-A)*%
X137610000Y-102980000D03*
%TO.N,Net-(D7-A)*%
X122800000Y-99000000D03*
%TO.N,Net-(D8-A)*%
X121440000Y-104720000D03*
%TO.N,Net-(D9-A)*%
X126350000Y-128170000D03*
%TO.N,Net-(D10-A)*%
X122690000Y-158790000D03*
%TO.N,Net-(D11-A)*%
X148780000Y-125430000D03*
%TO.N,Net-(D12-A)*%
X142530000Y-129910000D03*
%TO.N,Net-(D13-A)*%
X145950000Y-157550000D03*
%TD*%
%TA.AperFunction,Conductor*%
%TO.N,GND*%
G36*
X125970000Y-107464498D02*
G01*
X125862315Y-107415320D01*
X125755763Y-107400000D01*
X125684237Y-107400000D01*
X125577685Y-107415320D01*
X125470000Y-107464498D01*
X125470000Y-105795501D01*
X125577685Y-105844680D01*
X125684237Y-105860000D01*
X125755763Y-105860000D01*
X125862315Y-105844680D01*
X125970000Y-105795501D01*
X125970000Y-107464498D01*
G37*
%TD.AperFunction*%
%TA.AperFunction,Conductor*%
G36*
X139191637Y-67697857D02*
G01*
X140260206Y-67759465D01*
X140263491Y-67759744D01*
X140305636Y-67764462D01*
X140609928Y-67802025D01*
X140729268Y-67820896D01*
X141029682Y-67878932D01*
X141072174Y-67887642D01*
X141074981Y-67888287D01*
X141112302Y-67897808D01*
X141368595Y-67966595D01*
X141392492Y-67973009D01*
X141418220Y-67980954D01*
X141500114Y-68006248D01*
X141774270Y-68102279D01*
X141811413Y-68115810D01*
X141811608Y-68115886D01*
X141811625Y-68115893D01*
X141811625Y-68115894D01*
X141871856Y-68140629D01*
X142101677Y-68237082D01*
X142164413Y-68263412D01*
X142296287Y-68322372D01*
X142582735Y-68458455D01*
X142641430Y-68486895D01*
X142641430Y-68486894D01*
X142641450Y-68486904D01*
X142689535Y-68512802D01*
X143138155Y-68759743D01*
X143140598Y-68761161D01*
X143310593Y-68865137D01*
X143639702Y-69079064D01*
X143803715Y-69192197D01*
X143805973Y-69193832D01*
X144212782Y-69502821D01*
X144213509Y-69503373D01*
X144255725Y-69536052D01*
X144258342Y-69538196D01*
X144296913Y-69571600D01*
X144298144Y-69572666D01*
X144681736Y-69911095D01*
X144683828Y-69913028D01*
X144826802Y-70051350D01*
X145100957Y-70331624D01*
X145191794Y-70429758D01*
X145236064Y-70477585D01*
X145237950Y-70479719D01*
X145423282Y-70699370D01*
X145567902Y-70870769D01*
X145601449Y-70911278D01*
X145603554Y-70913968D01*
X145634519Y-70955890D01*
X145685761Y-71026631D01*
X145930962Y-71365142D01*
X145932600Y-71367518D01*
X146040334Y-71531833D01*
X146243581Y-71861548D01*
X146341961Y-72031598D01*
X146343348Y-72034129D01*
X146575698Y-72482675D01*
X146599301Y-72529298D01*
X146600822Y-72532530D01*
X146620276Y-72577164D01*
X146814537Y-73035210D01*
X146815665Y-73038064D01*
X146881511Y-73217548D01*
X147002021Y-73578879D01*
X147057101Y-73761979D01*
X147057912Y-73764939D01*
X147177380Y-74247429D01*
X147189181Y-74297200D01*
X147304925Y-74859177D01*
X147304935Y-74859985D01*
X147309723Y-74882670D01*
X147309723Y-74882671D01*
X147309955Y-74883015D01*
X147310257Y-74883072D01*
X147310257Y-74883071D01*
X147310362Y-74883092D01*
X147310363Y-74883091D01*
X147322434Y-74885505D01*
X147340511Y-74876818D01*
X147626057Y-74817810D01*
X147680633Y-74808061D01*
X148050404Y-74745445D01*
X148053078Y-74745054D01*
X148211267Y-74725549D01*
X148501018Y-74697749D01*
X148660078Y-74686819D01*
X148662763Y-74686695D01*
X149038020Y-74677857D01*
X149091557Y-74677079D01*
X149094556Y-74677109D01*
X149103176Y-74677402D01*
X149162914Y-74679434D01*
X149556899Y-74695668D01*
X149735198Y-74709429D01*
X150041327Y-74739689D01*
X150141687Y-74751795D01*
X150218897Y-74761109D01*
X150430274Y-74794327D01*
X150608483Y-74822334D01*
X150677335Y-74833662D01*
X150747228Y-74848239D01*
X151142101Y-74933489D01*
X151319608Y-74978381D01*
X151623377Y-75062041D01*
X151798889Y-75114375D01*
X152181529Y-75243243D01*
X152249207Y-75266567D01*
X152249207Y-75266566D01*
X152249214Y-75266569D01*
X152265202Y-75272877D01*
X152310214Y-75290637D01*
X152566698Y-75394105D01*
X152678705Y-75439291D01*
X152839296Y-75511314D01*
X153118182Y-75644142D01*
X153207938Y-75689440D01*
X153275329Y-75723452D01*
X153622451Y-75915587D01*
X153635726Y-75923067D01*
X153678824Y-75947354D01*
X153681497Y-75948953D01*
X153704625Y-75963600D01*
X153709731Y-75966834D01*
X154080299Y-76208990D01*
X154107043Y-76226466D01*
X154231989Y-76315964D01*
X154605914Y-76608779D01*
X154631788Y-76629642D01*
X154634020Y-76631532D01*
X154671135Y-76664527D01*
X155058729Y-77015943D01*
X155189787Y-77141983D01*
X155556363Y-77515880D01*
X155590806Y-77551705D01*
X155591335Y-77552255D01*
X155591417Y-77552344D01*
X155625508Y-77590698D01*
X155971752Y-77987990D01*
X156087895Y-78129407D01*
X156409795Y-78545614D01*
X156410120Y-78546033D01*
X156413561Y-78550573D01*
X156440437Y-78586034D01*
X156442126Y-78588373D01*
X156462196Y-78617583D01*
X156731161Y-79020576D01*
X156813518Y-79155512D01*
X157048901Y-79578842D01*
X157065794Y-79610214D01*
X157067152Y-79612890D01*
X157086675Y-79653768D01*
X157179625Y-79853854D01*
X157219614Y-79947686D01*
X157299431Y-80152974D01*
X157315499Y-80195644D01*
X157316592Y-80198805D01*
X157556865Y-80958835D01*
X157557947Y-80962684D01*
X157759087Y-81778584D01*
X157760007Y-81782999D01*
X157890037Y-82545200D01*
X157890603Y-82549364D01*
X157899783Y-82639767D01*
X157937053Y-83027603D01*
X157937268Y-83030601D01*
X157946634Y-83228329D01*
X157955821Y-83522978D01*
X157954417Y-83737830D01*
X157944940Y-84020866D01*
X157931967Y-84235369D01*
X157903097Y-84528693D01*
X157880522Y-84725384D01*
X157880107Y-84728360D01*
X157817175Y-85111675D01*
X157801668Y-85203032D01*
X157801045Y-85206200D01*
X157779677Y-85301664D01*
X157691706Y-85685621D01*
X157691018Y-85688339D01*
X157636300Y-85885707D01*
X157551939Y-86173092D01*
X157482127Y-86383257D01*
X157384495Y-86654227D01*
X157304199Y-86860663D01*
X157185880Y-87135795D01*
X157102154Y-87322676D01*
X157100950Y-87325208D01*
X156924357Y-87675960D01*
X156879192Y-87764554D01*
X156877716Y-87767279D01*
X156828479Y-87852987D01*
X156628710Y-88196756D01*
X156627263Y-88199122D01*
X156515513Y-88373024D01*
X156348310Y-88624876D01*
X156218258Y-88806706D01*
X156043315Y-89038877D01*
X155904393Y-89214011D01*
X155708386Y-89444180D01*
X155572056Y-89599516D01*
X155570180Y-89601560D01*
X155294204Y-89888985D01*
X155225952Y-89959365D01*
X155223725Y-89961549D01*
X155152898Y-90027590D01*
X154861834Y-90296223D01*
X154859703Y-90298102D01*
X154703344Y-90429675D01*
X154470380Y-90619710D01*
X154294039Y-90753382D01*
X154059359Y-90922047D01*
X153876439Y-91046576D01*
X153622087Y-91206780D01*
X153447518Y-91313043D01*
X153445058Y-91314465D01*
X153095958Y-91505620D01*
X153020767Y-91546297D01*
X153019400Y-91546890D01*
X153011256Y-91551428D01*
X153011255Y-91551429D01*
X153011185Y-91551468D01*
X153010740Y-91551695D01*
X152980660Y-91567039D01*
X152968470Y-91575297D01*
X152853019Y-91639706D01*
X152847236Y-91641018D01*
X152809006Y-91664263D01*
X152803310Y-91667471D01*
X152800804Y-91669272D01*
X152787242Y-91677534D01*
X152787241Y-91677534D01*
X152746104Y-91707638D01*
X152721196Y-91729316D01*
X152717380Y-91731068D01*
X152677605Y-91772091D01*
X152656961Y-91800785D01*
X152653121Y-91808213D01*
X152644331Y-91825218D01*
X152644114Y-91825637D01*
X152642194Y-91827853D01*
X152635025Y-91848785D01*
X152626969Y-91872112D01*
X152627066Y-91872390D01*
X152626323Y-91893348D01*
X152626135Y-91894900D01*
X152626135Y-91894913D01*
X152628977Y-91926156D01*
X152630726Y-91931791D01*
X152630779Y-91932023D01*
X152633616Y-91941105D01*
X152642808Y-91974054D01*
X152680805Y-92118369D01*
X152695956Y-92188243D01*
X152721104Y-92335070D01*
X152724423Y-92356314D01*
X152726398Y-92368954D01*
X152726439Y-92369212D01*
X152972845Y-94354282D01*
X153209219Y-96383852D01*
X153385807Y-98111294D01*
X153563192Y-100123516D01*
X153693972Y-101871343D01*
X153797145Y-103626361D01*
X153890035Y-105661314D01*
X153964868Y-110503540D01*
X153962259Y-110619327D01*
X153935534Y-111614859D01*
X153916270Y-112012385D01*
X153869446Y-112774377D01*
X153839897Y-113171235D01*
X153744439Y-114163494D01*
X153733126Y-114275997D01*
X153732688Y-114279403D01*
X153078302Y-118451204D01*
X153077690Y-118454516D01*
X151702111Y-124911176D01*
X150819895Y-128899186D01*
X150819728Y-128899772D01*
X150819101Y-128902770D01*
X150819101Y-128902772D01*
X150819083Y-128902858D01*
X150819062Y-128902956D01*
X150819062Y-128902958D01*
X150818579Y-128905208D01*
X150818486Y-128905819D01*
X150305104Y-131453808D01*
X150304833Y-131454899D01*
X150304541Y-131456606D01*
X150303201Y-131463433D01*
X150302962Y-131466255D01*
X150149770Y-132402129D01*
X149978438Y-133448817D01*
X149978091Y-133450307D01*
X149977749Y-133453019D01*
X149976748Y-133459571D01*
X149976625Y-133462479D01*
X149745896Y-135402577D01*
X149744450Y-135405958D01*
X149739987Y-135452257D01*
X149739974Y-135452370D01*
X149739973Y-135452391D01*
X149725276Y-135604596D01*
X149694049Y-135927983D01*
X149628436Y-136881529D01*
X149589135Y-137836522D01*
X149576175Y-138792236D01*
X149582811Y-139266146D01*
X149582744Y-139267550D01*
X149582867Y-139270091D01*
X149583422Y-139309756D01*
X149585202Y-139321545D01*
X149704931Y-141958493D01*
X149783794Y-143695408D01*
X149792418Y-143885329D01*
X149792400Y-143887144D01*
X149792420Y-143887334D01*
X149792660Y-143890456D01*
X149792700Y-143891253D01*
X149793039Y-143893175D01*
X149925306Y-145128597D01*
X150321199Y-148826392D01*
X150321288Y-148828247D01*
X150321344Y-148828587D01*
X150321779Y-148831726D01*
X150321866Y-148832499D01*
X150322324Y-148834409D01*
X150503996Y-149905965D01*
X151138896Y-153650804D01*
X151138905Y-153650870D01*
X151596442Y-156332877D01*
X151596998Y-156336944D01*
X151601082Y-156376538D01*
X151638772Y-156790406D01*
X151638998Y-156794105D01*
X151643931Y-156952991D01*
X151642393Y-157271481D01*
X151635926Y-157430260D01*
X151635664Y-157433959D01*
X151593881Y-157848312D01*
X151589568Y-157886510D01*
X151588837Y-157891298D01*
X151580304Y-157935540D01*
X151533498Y-158165167D01*
X151532419Y-158169615D01*
X151531093Y-158174316D01*
X151502261Y-158276511D01*
X151448950Y-158444878D01*
X151447880Y-158447970D01*
X151406601Y-158557830D01*
X151405370Y-158560862D01*
X151334626Y-158722654D01*
X151286919Y-158822984D01*
X151284800Y-158827046D01*
X151169066Y-159030242D01*
X151145990Y-159069778D01*
X151143699Y-159073408D01*
X151113747Y-159117420D01*
X150879496Y-159455039D01*
X150877853Y-159457297D01*
X150774716Y-159592515D01*
X150575289Y-159839816D01*
X150464963Y-159969303D01*
X150463104Y-159971387D01*
X150183000Y-160271634D01*
X150144561Y-160312099D01*
X150103608Y-160351530D01*
X149879524Y-160563532D01*
X149779774Y-160653042D01*
X149544442Y-160853270D01*
X149501306Y-160889322D01*
X149501168Y-160889434D01*
X149467842Y-160915021D01*
X149234924Y-161089470D01*
X149140723Y-161154899D01*
X148895706Y-161312391D01*
X148861723Y-161333667D01*
X148859067Y-161335239D01*
X148826615Y-161353373D01*
X148588108Y-161482631D01*
X148492636Y-161529672D01*
X148244747Y-161640063D01*
X148210862Y-161654630D01*
X148207739Y-161655874D01*
X148176177Y-161667460D01*
X148096646Y-161695383D01*
X147924892Y-161755685D01*
X147827476Y-161785307D01*
X147629361Y-161836468D01*
X147569245Y-161851992D01*
X147562153Y-161853717D01*
X147537247Y-161859774D01*
X147533491Y-161860565D01*
X147506046Y-161865464D01*
X147341375Y-161892016D01*
X147338279Y-161892435D01*
X147270020Y-161899937D01*
X147266906Y-161900200D01*
X147100463Y-161910044D01*
X147070712Y-161911303D01*
X144127208Y-161932989D01*
X140255861Y-161944585D01*
X134684167Y-161938196D01*
X122355487Y-161910846D01*
X122300704Y-161897952D01*
X122288725Y-161892016D01*
X121437670Y-161470277D01*
X120964159Y-161215963D01*
X120961474Y-161214433D01*
X120913193Y-161185298D01*
X120804014Y-161118122D01*
X120728608Y-161068988D01*
X120713387Y-161058498D01*
X120623095Y-160996275D01*
X120575651Y-160962972D01*
X120527696Y-160926818D01*
X120424167Y-160847406D01*
X120352084Y-160789193D01*
X120252829Y-160704851D01*
X120207220Y-160665433D01*
X120207219Y-160665433D01*
X120207147Y-160665370D01*
X119789795Y-160270771D01*
X119787504Y-160268487D01*
X119746405Y-160225321D01*
X119516628Y-159980005D01*
X119507395Y-159969303D01*
X119416012Y-159863375D01*
X119396675Y-159839816D01*
X119249441Y-159660436D01*
X119154687Y-159539042D01*
X118958831Y-159265787D01*
X118924787Y-159217460D01*
X118922566Y-159214077D01*
X118904531Y-159184546D01*
X118752416Y-158927656D01*
X118750387Y-158923946D01*
X118724830Y-158873186D01*
X118696653Y-158817223D01*
X118684316Y-158790000D01*
X121784540Y-158790000D01*
X121804326Y-158978256D01*
X121804327Y-158978259D01*
X121862818Y-159158277D01*
X121862821Y-159158284D01*
X121957467Y-159322216D01*
X122028871Y-159401518D01*
X122084129Y-159462888D01*
X122237265Y-159574148D01*
X122237270Y-159574151D01*
X122410192Y-159651142D01*
X122410197Y-159651144D01*
X122595354Y-159690500D01*
X122595355Y-159690500D01*
X122784644Y-159690500D01*
X122784646Y-159690500D01*
X122969803Y-159651144D01*
X123142730Y-159574151D01*
X123295871Y-159462888D01*
X123422533Y-159322216D01*
X123517179Y-159158284D01*
X123575674Y-158978256D01*
X123595460Y-158790000D01*
X123575674Y-158601744D01*
X123517179Y-158421716D01*
X123422533Y-158257784D01*
X123295871Y-158117112D01*
X123247838Y-158082214D01*
X123142734Y-158005851D01*
X123142729Y-158005848D01*
X122969807Y-157928857D01*
X122969802Y-157928855D01*
X122824001Y-157897865D01*
X122784646Y-157889500D01*
X122595354Y-157889500D01*
X122562897Y-157896398D01*
X122410197Y-157928855D01*
X122410192Y-157928857D01*
X122237270Y-158005848D01*
X122237265Y-158005851D01*
X122084129Y-158117111D01*
X121957466Y-158257785D01*
X121862821Y-158421715D01*
X121862818Y-158421722D01*
X121817609Y-158560862D01*
X121804326Y-158601744D01*
X121784540Y-158790000D01*
X118684316Y-158790000D01*
X118601381Y-158607001D01*
X118580807Y-158556171D01*
X118556539Y-158496213D01*
X118555090Y-158492248D01*
X118543027Y-158455406D01*
X118462414Y-158209208D01*
X118451943Y-158175685D01*
X118450716Y-158171158D01*
X118441734Y-158132192D01*
X118388705Y-157889125D01*
X118372484Y-157814775D01*
X118371813Y-157811194D01*
X118360343Y-157738259D01*
X118351193Y-157680072D01*
X118320932Y-157430518D01*
X118309615Y-157298287D01*
X118309414Y-157294707D01*
X118300775Y-156969015D01*
X118300188Y-156929292D01*
X118300228Y-156925972D01*
X118302257Y-156874556D01*
X118309238Y-156731890D01*
X118336208Y-156180654D01*
X118337807Y-156160000D01*
X124364341Y-156160000D01*
X124384936Y-156395403D01*
X124384938Y-156395413D01*
X124446094Y-156623655D01*
X124446096Y-156623659D01*
X124446097Y-156623663D01*
X124496383Y-156731501D01*
X124545965Y-156837830D01*
X124545967Y-156837834D01*
X124637716Y-156968864D01*
X124681505Y-157031401D01*
X124848599Y-157198495D01*
X124945384Y-157266265D01*
X125042165Y-157334032D01*
X125042167Y-157334033D01*
X125042170Y-157334035D01*
X125256337Y-157433903D01*
X125484592Y-157495063D01*
X125672918Y-157511539D01*
X125719999Y-157515659D01*
X125720000Y-157515659D01*
X125720001Y-157515659D01*
X125759234Y-157512226D01*
X125955408Y-157495063D01*
X126183663Y-157433903D01*
X126397830Y-157334035D01*
X126591401Y-157198495D01*
X126758495Y-157031401D01*
X126894035Y-156837830D01*
X126993903Y-156623663D01*
X127055063Y-156395408D01*
X127075659Y-156160000D01*
X127055063Y-155924592D01*
X126993903Y-155696337D01*
X126894035Y-155482171D01*
X126882298Y-155465408D01*
X126758494Y-155288597D01*
X126699897Y-155230000D01*
X129444341Y-155230000D01*
X129464936Y-155465403D01*
X129464938Y-155465413D01*
X129526094Y-155693655D01*
X129526096Y-155693659D01*
X129526097Y-155693663D01*
X129530000Y-155702032D01*
X129625965Y-155907830D01*
X129625967Y-155907834D01*
X129658822Y-155954755D01*
X129761501Y-156101396D01*
X129761506Y-156101402D01*
X129883430Y-156223326D01*
X129916915Y-156284649D01*
X129911931Y-156354341D01*
X129870059Y-156410274D01*
X129839083Y-156427189D01*
X129707669Y-156476203D01*
X129707664Y-156476206D01*
X129592455Y-156562452D01*
X129592452Y-156562455D01*
X129506206Y-156677664D01*
X129506202Y-156677671D01*
X129455908Y-156812517D01*
X129449501Y-156872116D01*
X129449500Y-156872135D01*
X129449500Y-158667870D01*
X129449501Y-158667876D01*
X129455908Y-158727483D01*
X129506202Y-158862328D01*
X129506206Y-158862335D01*
X129592452Y-158977544D01*
X129592455Y-158977547D01*
X129707664Y-159063793D01*
X129707671Y-159063797D01*
X129842517Y-159114091D01*
X129842516Y-159114091D01*
X129849444Y-159114835D01*
X129902127Y-159120500D01*
X131697872Y-159120499D01*
X131757483Y-159114091D01*
X131892331Y-159063796D01*
X132007546Y-158977546D01*
X132093796Y-158862331D01*
X132142810Y-158730916D01*
X132184681Y-158674984D01*
X132250145Y-158650566D01*
X132318418Y-158665417D01*
X132346673Y-158686569D01*
X132468599Y-158808495D01*
X132565384Y-158876265D01*
X132662165Y-158944032D01*
X132662167Y-158944033D01*
X132662170Y-158944035D01*
X132876337Y-159043903D01*
X133104592Y-159105063D01*
X133281034Y-159120500D01*
X133339999Y-159125659D01*
X133340000Y-159125659D01*
X133340001Y-159125659D01*
X133398966Y-159120500D01*
X133575408Y-159105063D01*
X133803663Y-159043903D01*
X134017830Y-158944035D01*
X134211401Y-158808495D01*
X134378495Y-158641401D01*
X134508425Y-158455842D01*
X134563002Y-158412217D01*
X134632500Y-158405023D01*
X134694855Y-158436546D01*
X134711575Y-158455842D01*
X134841281Y-158641082D01*
X134841505Y-158641401D01*
X135008599Y-158808495D01*
X135105384Y-158876265D01*
X135202165Y-158944032D01*
X135202167Y-158944033D01*
X135202170Y-158944035D01*
X135416337Y-159043903D01*
X135644592Y-159105063D01*
X135821034Y-159120500D01*
X135879999Y-159125659D01*
X135880000Y-159125659D01*
X135880001Y-159125659D01*
X135938966Y-159120500D01*
X136115408Y-159105063D01*
X136343663Y-159043903D01*
X136557830Y-158944035D01*
X136751401Y-158808495D01*
X136918495Y-158641401D01*
X137048730Y-158455405D01*
X137103307Y-158411781D01*
X137172805Y-158404587D01*
X137235160Y-158436110D01*
X137251879Y-158455405D01*
X137381890Y-158641078D01*
X137548917Y-158808105D01*
X137742421Y-158943600D01*
X137956507Y-159043429D01*
X137956516Y-159043433D01*
X138170000Y-159100634D01*
X138170000Y-158205501D01*
X138277685Y-158254680D01*
X138384237Y-158270000D01*
X138455763Y-158270000D01*
X138562315Y-158254680D01*
X138670000Y-158205501D01*
X138670000Y-159100633D01*
X138883483Y-159043433D01*
X138883492Y-159043429D01*
X139097578Y-158943600D01*
X139291082Y-158808105D01*
X139458105Y-158641082D01*
X139593600Y-158447578D01*
X139693429Y-158233492D01*
X139693432Y-158233486D01*
X139750636Y-158020000D01*
X138853686Y-158020000D01*
X138879493Y-157979844D01*
X138920000Y-157841889D01*
X138920000Y-157698111D01*
X138879493Y-157560156D01*
X138872966Y-157550000D01*
X145044540Y-157550000D01*
X145064326Y-157738256D01*
X145064327Y-157738259D01*
X145122818Y-157918277D01*
X145122821Y-157918284D01*
X145217467Y-158082216D01*
X145318975Y-158194952D01*
X145344129Y-158222888D01*
X145497265Y-158334148D01*
X145497270Y-158334151D01*
X145670192Y-158411142D01*
X145670197Y-158411144D01*
X145855354Y-158450500D01*
X145855355Y-158450500D01*
X146044644Y-158450500D01*
X146044646Y-158450500D01*
X146229803Y-158411144D01*
X146402730Y-158334151D01*
X146555871Y-158222888D01*
X146682533Y-158082216D01*
X146777179Y-157918284D01*
X146835674Y-157738256D01*
X146855460Y-157550000D01*
X146835674Y-157361744D01*
X146777179Y-157181716D01*
X146682533Y-157017784D01*
X146555871Y-156877112D01*
X146549021Y-156872135D01*
X146402734Y-156765851D01*
X146402729Y-156765848D01*
X146229807Y-156688857D01*
X146229802Y-156688855D01*
X146084001Y-156657865D01*
X146044646Y-156649500D01*
X145855354Y-156649500D01*
X145822897Y-156656398D01*
X145670197Y-156688855D01*
X145670192Y-156688857D01*
X145497270Y-156765848D01*
X145497265Y-156765851D01*
X145344129Y-156877111D01*
X145217466Y-157017785D01*
X145122821Y-157181715D01*
X145122818Y-157181722D01*
X145073329Y-157334035D01*
X145064326Y-157361744D01*
X145044540Y-157550000D01*
X138872966Y-157550000D01*
X138853686Y-157520000D01*
X139750636Y-157520000D01*
X139750635Y-157519999D01*
X139693432Y-157306513D01*
X139693429Y-157306507D01*
X139593600Y-157092422D01*
X139593599Y-157092420D01*
X139458113Y-156898926D01*
X139458108Y-156898920D01*
X139291078Y-156731890D01*
X139105405Y-156601879D01*
X139061780Y-156547302D01*
X139054588Y-156477804D01*
X139086110Y-156415449D01*
X139105406Y-156398730D01*
X139110143Y-156395413D01*
X139291401Y-156268495D01*
X139399896Y-156160000D01*
X142144341Y-156160000D01*
X142164936Y-156395403D01*
X142164938Y-156395413D01*
X142226094Y-156623655D01*
X142226096Y-156623659D01*
X142226097Y-156623663D01*
X142276383Y-156731501D01*
X142325965Y-156837830D01*
X142325967Y-156837834D01*
X142417716Y-156968864D01*
X142461505Y-157031401D01*
X142628599Y-157198495D01*
X142725384Y-157266265D01*
X142822165Y-157334032D01*
X142822167Y-157334033D01*
X142822170Y-157334035D01*
X143036337Y-157433903D01*
X143264592Y-157495063D01*
X143452918Y-157511539D01*
X143499999Y-157515659D01*
X143500000Y-157515659D01*
X143500001Y-157515659D01*
X143539234Y-157512226D01*
X143735408Y-157495063D01*
X143963663Y-157433903D01*
X144177830Y-157334035D01*
X144371401Y-157198495D01*
X144538495Y-157031401D01*
X144674035Y-156837830D01*
X144773903Y-156623663D01*
X144835063Y-156395408D01*
X144855659Y-156160000D01*
X144835063Y-155924592D01*
X144773903Y-155696337D01*
X144674035Y-155482171D01*
X144662298Y-155465408D01*
X144538494Y-155288597D01*
X144371402Y-155121506D01*
X144371396Y-155121501D01*
X144185842Y-154991575D01*
X144142217Y-154936998D01*
X144135023Y-154867500D01*
X144166546Y-154805145D01*
X144185842Y-154788425D01*
X144229340Y-154757967D01*
X144371401Y-154658495D01*
X144538495Y-154491401D01*
X144674035Y-154297830D01*
X144773903Y-154083663D01*
X144835063Y-153855408D01*
X144855659Y-153620000D01*
X144835063Y-153384592D01*
X144773903Y-153156337D01*
X144674035Y-152942171D01*
X144538495Y-152748599D01*
X144538494Y-152748597D01*
X144371402Y-152581506D01*
X144371396Y-152581501D01*
X144185842Y-152451575D01*
X144142217Y-152396998D01*
X144135023Y-152327500D01*
X144166546Y-152265145D01*
X144185842Y-152248425D01*
X144208026Y-152232891D01*
X144371401Y-152118495D01*
X144538495Y-151951401D01*
X144674035Y-151757830D01*
X144773903Y-151543663D01*
X144835063Y-151315408D01*
X144855659Y-151080000D01*
X144835063Y-150844592D01*
X144773903Y-150616337D01*
X144674035Y-150402171D01*
X144538495Y-150208599D01*
X144538494Y-150208597D01*
X144371402Y-150041506D01*
X144371396Y-150041501D01*
X144185842Y-149911575D01*
X144142217Y-149856998D01*
X144135023Y-149787500D01*
X144166546Y-149725145D01*
X144185842Y-149708425D01*
X144243883Y-149667784D01*
X144371401Y-149578495D01*
X144538495Y-149411401D01*
X144674035Y-149217830D01*
X144773903Y-149003663D01*
X144835063Y-148775408D01*
X144855659Y-148540000D01*
X144835063Y-148304592D01*
X144773903Y-148076337D01*
X144674035Y-147862171D01*
X144538495Y-147668599D01*
X144538494Y-147668597D01*
X144371402Y-147501506D01*
X144371396Y-147501501D01*
X144185842Y-147371575D01*
X144142217Y-147316998D01*
X144135023Y-147247500D01*
X144166546Y-147185145D01*
X144185842Y-147168425D01*
X144283563Y-147100000D01*
X144371401Y-147038495D01*
X144538495Y-146871401D01*
X144674035Y-146677830D01*
X144773903Y-146463663D01*
X144835063Y-146235408D01*
X144855659Y-146000000D01*
X144835063Y-145764592D01*
X144773903Y-145536337D01*
X144674035Y-145322171D01*
X144538495Y-145128599D01*
X144538494Y-145128597D01*
X144371402Y-144961506D01*
X144371396Y-144961501D01*
X144185842Y-144831575D01*
X144142217Y-144776998D01*
X144135023Y-144707500D01*
X144166546Y-144645145D01*
X144185842Y-144628425D01*
X144208026Y-144612891D01*
X144371401Y-144498495D01*
X144538495Y-144331401D01*
X144674035Y-144137830D01*
X144773903Y-143923663D01*
X144835063Y-143695408D01*
X144855659Y-143460000D01*
X144835063Y-143224592D01*
X144773903Y-142996337D01*
X144674035Y-142782171D01*
X144538495Y-142588599D01*
X144538494Y-142588597D01*
X144371402Y-142421506D01*
X144371396Y-142421501D01*
X144185842Y-142291575D01*
X144142217Y-142236998D01*
X144135023Y-142167500D01*
X144166546Y-142105145D01*
X144185842Y-142088425D01*
X144208026Y-142072891D01*
X144371401Y-141958495D01*
X144538495Y-141791401D01*
X144674035Y-141597830D01*
X144773903Y-141383663D01*
X144835063Y-141155408D01*
X144855659Y-140920000D01*
X144835063Y-140684592D01*
X144773903Y-140456337D01*
X144674035Y-140242171D01*
X144538495Y-140048599D01*
X144538494Y-140048597D01*
X144371402Y-139881506D01*
X144371396Y-139881501D01*
X144185842Y-139751575D01*
X144142217Y-139696998D01*
X144135023Y-139627500D01*
X144166546Y-139565145D01*
X144185842Y-139548425D01*
X144208026Y-139532891D01*
X144371401Y-139418495D01*
X144538495Y-139251401D01*
X144674035Y-139057830D01*
X144773903Y-138843663D01*
X144835063Y-138615408D01*
X144855659Y-138380000D01*
X144835063Y-138144592D01*
X144773903Y-137916337D01*
X144674035Y-137702171D01*
X144574704Y-137560310D01*
X144538494Y-137508597D01*
X144371402Y-137341506D01*
X144371396Y-137341501D01*
X144185842Y-137211575D01*
X144142217Y-137156998D01*
X144135023Y-137087500D01*
X144166546Y-137025145D01*
X144185842Y-137008425D01*
X144208026Y-136992891D01*
X144371401Y-136878495D01*
X144538495Y-136711401D01*
X144674035Y-136517830D01*
X144773903Y-136303663D01*
X144835063Y-136075408D01*
X144855659Y-135840000D01*
X144835063Y-135604592D01*
X144773903Y-135376337D01*
X144674035Y-135162171D01*
X144538495Y-134968599D01*
X144416567Y-134846671D01*
X144383084Y-134785351D01*
X144388068Y-134715659D01*
X144429939Y-134659725D01*
X144460915Y-134642810D01*
X144592331Y-134593796D01*
X144707546Y-134507546D01*
X144793796Y-134392331D01*
X144844091Y-134257483D01*
X144850500Y-134197873D01*
X144850499Y-132402128D01*
X144844091Y-132342517D01*
X144793796Y-132207669D01*
X144793795Y-132207668D01*
X144793793Y-132207664D01*
X144707547Y-132092455D01*
X144707544Y-132092452D01*
X144592335Y-132006206D01*
X144592328Y-132006202D01*
X144457482Y-131955908D01*
X144457483Y-131955908D01*
X144397883Y-131949501D01*
X144397881Y-131949500D01*
X144397873Y-131949500D01*
X144397864Y-131949500D01*
X142602129Y-131949500D01*
X142602123Y-131949501D01*
X142542516Y-131955908D01*
X142407671Y-132006202D01*
X142407664Y-132006206D01*
X142292455Y-132092452D01*
X142292452Y-132092455D01*
X142206206Y-132207664D01*
X142206202Y-132207671D01*
X142155908Y-132342517D01*
X142149501Y-132402116D01*
X142149501Y-132402123D01*
X142149500Y-132402135D01*
X142149500Y-134197870D01*
X142149501Y-134197876D01*
X142155908Y-134257483D01*
X142206202Y-134392328D01*
X142206206Y-134392335D01*
X142292452Y-134507544D01*
X142292455Y-134507547D01*
X142407664Y-134593793D01*
X142407671Y-134593797D01*
X142539081Y-134642810D01*
X142595015Y-134684681D01*
X142619432Y-134750145D01*
X142604580Y-134818418D01*
X142583430Y-134846673D01*
X142461503Y-134968600D01*
X142325965Y-135162169D01*
X142325964Y-135162171D01*
X142226098Y-135376335D01*
X142226094Y-135376344D01*
X142164938Y-135604586D01*
X142164936Y-135604596D01*
X142144341Y-135839999D01*
X142144341Y-135840000D01*
X142164936Y-136075403D01*
X142164938Y-136075413D01*
X142226094Y-136303655D01*
X142226096Y-136303659D01*
X142226097Y-136303663D01*
X142325965Y-136517830D01*
X142325967Y-136517834D01*
X142461501Y-136711395D01*
X142461506Y-136711402D01*
X142628597Y-136878493D01*
X142628603Y-136878498D01*
X142814158Y-137008425D01*
X142857783Y-137063002D01*
X142864977Y-137132500D01*
X142833454Y-137194855D01*
X142814158Y-137211575D01*
X142628597Y-137341505D01*
X142461505Y-137508597D01*
X142325965Y-137702169D01*
X142325964Y-137702171D01*
X142226098Y-137916335D01*
X142226094Y-137916344D01*
X142164938Y-138144586D01*
X142164936Y-138144596D01*
X142144341Y-138379999D01*
X142144341Y-138380000D01*
X142164936Y-138615403D01*
X142164938Y-138615413D01*
X142226094Y-138843655D01*
X142226096Y-138843659D01*
X142226097Y-138843663D01*
X142325965Y-139057830D01*
X142325967Y-139057834D01*
X142461501Y-139251395D01*
X142461506Y-139251402D01*
X142628597Y-139418493D01*
X142628603Y-139418498D01*
X142814158Y-139548425D01*
X142857783Y-139603002D01*
X142864977Y-139672500D01*
X142833454Y-139734855D01*
X142814158Y-139751575D01*
X142628597Y-139881505D01*
X142461505Y-140048597D01*
X142325965Y-140242169D01*
X142325964Y-140242171D01*
X142226098Y-140456335D01*
X142226094Y-140456344D01*
X142164938Y-140684586D01*
X142164936Y-140684596D01*
X142144341Y-140919999D01*
X142144341Y-140920000D01*
X142164936Y-141155403D01*
X142164938Y-141155413D01*
X142226094Y-141383655D01*
X142226096Y-141383659D01*
X142226097Y-141383663D01*
X142325965Y-141597830D01*
X142325967Y-141597834D01*
X142461501Y-141791395D01*
X142461506Y-141791402D01*
X142628597Y-141958493D01*
X142628603Y-141958498D01*
X142814158Y-142088425D01*
X142857783Y-142143002D01*
X142864977Y-142212500D01*
X142833454Y-142274855D01*
X142814158Y-142291575D01*
X142628597Y-142421505D01*
X142461505Y-142588597D01*
X142325965Y-142782169D01*
X142325964Y-142782171D01*
X142226098Y-142996335D01*
X142226094Y-142996344D01*
X142164938Y-143224586D01*
X142164936Y-143224596D01*
X142144341Y-143459999D01*
X142144341Y-143460000D01*
X142164936Y-143695403D01*
X142164938Y-143695413D01*
X142226094Y-143923655D01*
X142226096Y-143923659D01*
X142226097Y-143923663D01*
X142325965Y-144137830D01*
X142325967Y-144137834D01*
X142461501Y-144331395D01*
X142461506Y-144331402D01*
X142628597Y-144498493D01*
X142628603Y-144498498D01*
X142814158Y-144628425D01*
X142857783Y-144683002D01*
X142864977Y-144752500D01*
X142833454Y-144814855D01*
X142814158Y-144831575D01*
X142628597Y-144961505D01*
X142461505Y-145128597D01*
X142325965Y-145322169D01*
X142325964Y-145322171D01*
X142226098Y-145536335D01*
X142226094Y-145536344D01*
X142164938Y-145764586D01*
X142164936Y-145764596D01*
X142144341Y-145999999D01*
X142144341Y-146000000D01*
X142164936Y-146235403D01*
X142164938Y-146235413D01*
X142226094Y-146463655D01*
X142226096Y-146463659D01*
X142226097Y-146463663D01*
X142274650Y-146567784D01*
X142325965Y-146677830D01*
X142325967Y-146677834D01*
X142461501Y-146871395D01*
X142461506Y-146871402D01*
X142628597Y-147038493D01*
X142628603Y-147038498D01*
X142814158Y-147168425D01*
X142857783Y-147223002D01*
X142864977Y-147292500D01*
X142833454Y-147354855D01*
X142814158Y-147371575D01*
X142628597Y-147501505D01*
X142461505Y-147668597D01*
X142325965Y-147862169D01*
X142325964Y-147862171D01*
X142226098Y-148076335D01*
X142226094Y-148076344D01*
X142164938Y-148304586D01*
X142164936Y-148304596D01*
X142144341Y-148539999D01*
X142144341Y-148540000D01*
X142164936Y-148775403D01*
X142164938Y-148775413D01*
X142226094Y-149003655D01*
X142226096Y-149003659D01*
X142226097Y-149003663D01*
X142325965Y-149217830D01*
X142325967Y-149217834D01*
X142461501Y-149411395D01*
X142461506Y-149411402D01*
X142628597Y-149578493D01*
X142628603Y-149578498D01*
X142814158Y-149708425D01*
X142857783Y-149763002D01*
X142864977Y-149832500D01*
X142833454Y-149894855D01*
X142814158Y-149911575D01*
X142628597Y-150041505D01*
X142461505Y-150208597D01*
X142325965Y-150402169D01*
X142325964Y-150402171D01*
X142226098Y-150616335D01*
X142226094Y-150616344D01*
X142164938Y-150844586D01*
X142164936Y-150844596D01*
X142144341Y-151079999D01*
X142144341Y-151080000D01*
X142164936Y-151315403D01*
X142164938Y-151315413D01*
X142226094Y-151543655D01*
X142226096Y-151543659D01*
X142226097Y-151543663D01*
X142325965Y-151757830D01*
X142325967Y-151757834D01*
X142461501Y-151951395D01*
X142461506Y-151951402D01*
X142628597Y-152118493D01*
X142628603Y-152118498D01*
X142814158Y-152248425D01*
X142857783Y-152303002D01*
X142864977Y-152372500D01*
X142833454Y-152434855D01*
X142814158Y-152451575D01*
X142628597Y-152581505D01*
X142461505Y-152748597D01*
X142325965Y-152942169D01*
X142325964Y-152942171D01*
X142226098Y-153156335D01*
X142226094Y-153156344D01*
X142164938Y-153384586D01*
X142164936Y-153384596D01*
X142144341Y-153619999D01*
X142144341Y-153620000D01*
X142164936Y-153855403D01*
X142164938Y-153855413D01*
X142226094Y-154083655D01*
X142226096Y-154083659D01*
X142226097Y-154083663D01*
X142276383Y-154191501D01*
X142325965Y-154297830D01*
X142325967Y-154297834D01*
X142461501Y-154491395D01*
X142461506Y-154491402D01*
X142628597Y-154658493D01*
X142628603Y-154658498D01*
X142814158Y-154788425D01*
X142857783Y-154843002D01*
X142864977Y-154912500D01*
X142833454Y-154974855D01*
X142814158Y-154991575D01*
X142628597Y-155121505D01*
X142461505Y-155288597D01*
X142325965Y-155482169D01*
X142325964Y-155482171D01*
X142232401Y-155682816D01*
X142227344Y-155693664D01*
X142226098Y-155696335D01*
X142226094Y-155696344D01*
X142164938Y-155924586D01*
X142164936Y-155924596D01*
X142144341Y-156159999D01*
X142144341Y-156160000D01*
X139399896Y-156160000D01*
X139458495Y-156101401D01*
X139594035Y-155907830D01*
X139693903Y-155693663D01*
X139755063Y-155465408D01*
X139775659Y-155230000D01*
X139774024Y-155211318D01*
X139755063Y-154994596D01*
X139755063Y-154994592D01*
X139693903Y-154766337D01*
X139594035Y-154552171D01*
X139588425Y-154544158D01*
X139458494Y-154358597D01*
X139291402Y-154191506D01*
X139291395Y-154191501D01*
X139097834Y-154055967D01*
X139097830Y-154055965D01*
X139097828Y-154055964D01*
X138883663Y-153956097D01*
X138883659Y-153956096D01*
X138883655Y-153956094D01*
X138655413Y-153894938D01*
X138655403Y-153894936D01*
X138420001Y-153874341D01*
X138419999Y-153874341D01*
X138184596Y-153894936D01*
X138184586Y-153894938D01*
X137956344Y-153956094D01*
X137956335Y-153956098D01*
X137742171Y-154055964D01*
X137742169Y-154055965D01*
X137548597Y-154191505D01*
X137381505Y-154358597D01*
X137251575Y-154544158D01*
X137196998Y-154587783D01*
X137127500Y-154594977D01*
X137065145Y-154563454D01*
X137048425Y-154544158D01*
X136918494Y-154358597D01*
X136751402Y-154191506D01*
X136751395Y-154191501D01*
X136557834Y-154055967D01*
X136557830Y-154055965D01*
X136557828Y-154055964D01*
X136343663Y-153956097D01*
X136343659Y-153956096D01*
X136343655Y-153956094D01*
X136115413Y-153894938D01*
X136115403Y-153894936D01*
X135880001Y-153874341D01*
X135879999Y-153874341D01*
X135644596Y-153894936D01*
X135644586Y-153894938D01*
X135416344Y-153956094D01*
X135416335Y-153956098D01*
X135202171Y-154055964D01*
X135202169Y-154055965D01*
X135008597Y-154191505D01*
X134841505Y-154358597D01*
X134711575Y-154544158D01*
X134656998Y-154587783D01*
X134587500Y-154594977D01*
X134525145Y-154563454D01*
X134508425Y-154544158D01*
X134378494Y-154358597D01*
X134211402Y-154191506D01*
X134211395Y-154191501D01*
X134017834Y-154055967D01*
X134017830Y-154055965D01*
X134017828Y-154055964D01*
X133803663Y-153956097D01*
X133803659Y-153956096D01*
X133803655Y-153956094D01*
X133575413Y-153894938D01*
X133575403Y-153894936D01*
X133340001Y-153874341D01*
X133339999Y-153874341D01*
X133104596Y-153894936D01*
X133104586Y-153894938D01*
X132876344Y-153956094D01*
X132876335Y-153956098D01*
X132662171Y-154055964D01*
X132662169Y-154055965D01*
X132468597Y-154191505D01*
X132301505Y-154358597D01*
X132171575Y-154544158D01*
X132116998Y-154587783D01*
X132047500Y-154594977D01*
X131985145Y-154563454D01*
X131968425Y-154544158D01*
X131838494Y-154358597D01*
X131671402Y-154191506D01*
X131671395Y-154191501D01*
X131477834Y-154055967D01*
X131477830Y-154055965D01*
X131477828Y-154055964D01*
X131263663Y-153956097D01*
X131263659Y-153956096D01*
X131263655Y-153956094D01*
X131035413Y-153894938D01*
X131035403Y-153894936D01*
X130800001Y-153874341D01*
X130799999Y-153874341D01*
X130564596Y-153894936D01*
X130564586Y-153894938D01*
X130336344Y-153956094D01*
X130336335Y-153956098D01*
X130122171Y-154055964D01*
X130122169Y-154055965D01*
X129928597Y-154191505D01*
X129761505Y-154358597D01*
X129625965Y-154552169D01*
X129625964Y-154552171D01*
X129526098Y-154766335D01*
X129526094Y-154766344D01*
X129464938Y-154994586D01*
X129464936Y-154994596D01*
X129444341Y-155229999D01*
X129444341Y-155230000D01*
X126699897Y-155230000D01*
X126591402Y-155121506D01*
X126591401Y-155121505D01*
X126405405Y-154991269D01*
X126361781Y-154936692D01*
X126354588Y-154867193D01*
X126386110Y-154804839D01*
X126405405Y-154788119D01*
X126591082Y-154658105D01*
X126758105Y-154491082D01*
X126893600Y-154297578D01*
X126993429Y-154083492D01*
X126993432Y-154083486D01*
X127050636Y-153870000D01*
X126153686Y-153870000D01*
X126179493Y-153829844D01*
X126220000Y-153691889D01*
X126220000Y-153548111D01*
X126179493Y-153410156D01*
X126153686Y-153370000D01*
X127050636Y-153370000D01*
X127050635Y-153369999D01*
X126993432Y-153156513D01*
X126993429Y-153156507D01*
X126893600Y-152942422D01*
X126893599Y-152942420D01*
X126758113Y-152748926D01*
X126758108Y-152748920D01*
X126591078Y-152581890D01*
X126405405Y-152451879D01*
X126361780Y-152397302D01*
X126354588Y-152327804D01*
X126386110Y-152265449D01*
X126405406Y-152248730D01*
X126405842Y-152248425D01*
X126591401Y-152118495D01*
X126758495Y-151951401D01*
X126894035Y-151757830D01*
X126993903Y-151543663D01*
X127055063Y-151315408D01*
X127075659Y-151080000D01*
X127055063Y-150844592D01*
X126993903Y-150616337D01*
X126894035Y-150402171D01*
X126758495Y-150208599D01*
X126758494Y-150208597D01*
X126749897Y-150200000D01*
X136194540Y-150200000D01*
X136214326Y-150388256D01*
X136214327Y-150388259D01*
X136272818Y-150568277D01*
X136272821Y-150568284D01*
X136367467Y-150732216D01*
X136468646Y-150844586D01*
X136494129Y-150872888D01*
X136647265Y-150984148D01*
X136647270Y-150984151D01*
X136820192Y-151061142D01*
X136820197Y-151061144D01*
X137005354Y-151100500D01*
X137005355Y-151100500D01*
X137194644Y-151100500D01*
X137194646Y-151100500D01*
X137379803Y-151061144D01*
X137552730Y-150984151D01*
X137705871Y-150872888D01*
X137832533Y-150732216D01*
X137927179Y-150568284D01*
X137985674Y-150388256D01*
X138005460Y-150200000D01*
X137985674Y-150011744D01*
X137927179Y-149831716D01*
X137832533Y-149667784D01*
X137705871Y-149527112D01*
X137705870Y-149527111D01*
X137552734Y-149415851D01*
X137552729Y-149415848D01*
X137379807Y-149338857D01*
X137379802Y-149338855D01*
X137234001Y-149307865D01*
X137194646Y-149299500D01*
X137005354Y-149299500D01*
X136972897Y-149306398D01*
X136820197Y-149338855D01*
X136820192Y-149338857D01*
X136647270Y-149415848D01*
X136647265Y-149415851D01*
X136494129Y-149527111D01*
X136367466Y-149667785D01*
X136272821Y-149831715D01*
X136272818Y-149831722D01*
X136214327Y-150011740D01*
X136214326Y-150011744D01*
X136194540Y-150200000D01*
X126749897Y-150200000D01*
X126591402Y-150041506D01*
X126591396Y-150041501D01*
X126405842Y-149911575D01*
X126362217Y-149856998D01*
X126355023Y-149787500D01*
X126386546Y-149725145D01*
X126405842Y-149708425D01*
X126463883Y-149667784D01*
X126591401Y-149578495D01*
X126758495Y-149411401D01*
X126894035Y-149217830D01*
X126993903Y-149003663D01*
X127055063Y-148775408D01*
X127075659Y-148540000D01*
X127055063Y-148304592D01*
X126993903Y-148076337D01*
X126894035Y-147862171D01*
X126758495Y-147668599D01*
X126758494Y-147668597D01*
X126591402Y-147501506D01*
X126591396Y-147501501D01*
X126405842Y-147371575D01*
X126362217Y-147316998D01*
X126355023Y-147247500D01*
X126386546Y-147185145D01*
X126405842Y-147168425D01*
X126503563Y-147100000D01*
X137594540Y-147100000D01*
X137614326Y-147288256D01*
X137614327Y-147288259D01*
X137672818Y-147468277D01*
X137672821Y-147468284D01*
X137767467Y-147632216D01*
X137894129Y-147772888D01*
X138047265Y-147884148D01*
X138047270Y-147884151D01*
X138220192Y-147961142D01*
X138220197Y-147961144D01*
X138405354Y-148000500D01*
X138405355Y-148000500D01*
X138594644Y-148000500D01*
X138594646Y-148000500D01*
X138779803Y-147961144D01*
X138952730Y-147884151D01*
X139105871Y-147772888D01*
X139232533Y-147632216D01*
X139327179Y-147468284D01*
X139385674Y-147288256D01*
X139405460Y-147100000D01*
X139385674Y-146911744D01*
X139327179Y-146731716D01*
X139232533Y-146567784D01*
X139105871Y-146427112D01*
X139105870Y-146427111D01*
X138952734Y-146315851D01*
X138952729Y-146315848D01*
X138779807Y-146238857D01*
X138779802Y-146238855D01*
X138634001Y-146207865D01*
X138594646Y-146199500D01*
X138405354Y-146199500D01*
X138372897Y-146206398D01*
X138220197Y-146238855D01*
X138220192Y-146238857D01*
X138047270Y-146315848D01*
X138047265Y-146315851D01*
X137894129Y-146427111D01*
X137767466Y-146567785D01*
X137672821Y-146731715D01*
X137672818Y-146731722D01*
X137627436Y-146871395D01*
X137614326Y-146911744D01*
X137594540Y-147100000D01*
X126503563Y-147100000D01*
X126591401Y-147038495D01*
X126758495Y-146871401D01*
X126894035Y-146677830D01*
X126993903Y-146463663D01*
X127055063Y-146235408D01*
X127075659Y-146000000D01*
X127055063Y-145764592D01*
X126993903Y-145536337D01*
X126894035Y-145322171D01*
X126758495Y-145128599D01*
X126758494Y-145128597D01*
X126591402Y-144961506D01*
X126591396Y-144961501D01*
X126405842Y-144831575D01*
X126362217Y-144776998D01*
X126355023Y-144707500D01*
X126386546Y-144645145D01*
X126405842Y-144628425D01*
X126428026Y-144612891D01*
X126591401Y-144498495D01*
X126758495Y-144331401D01*
X126894035Y-144137830D01*
X126993903Y-143923663D01*
X127055063Y-143695408D01*
X127075659Y-143460000D01*
X127055063Y-143224592D01*
X126993903Y-142996337D01*
X126894035Y-142782171D01*
X126758495Y-142588599D01*
X126758494Y-142588597D01*
X126591402Y-142421506D01*
X126591396Y-142421501D01*
X126405842Y-142291575D01*
X126362217Y-142236998D01*
X126355023Y-142167500D01*
X126386546Y-142105145D01*
X126405842Y-142088425D01*
X126428026Y-142072891D01*
X126591401Y-141958495D01*
X126758495Y-141791401D01*
X126894035Y-141597830D01*
X126993903Y-141383663D01*
X127055063Y-141155408D01*
X127075659Y-140920000D01*
X127055063Y-140684592D01*
X126993903Y-140456337D01*
X126894035Y-140242171D01*
X126758495Y-140048599D01*
X126758494Y-140048597D01*
X126591402Y-139881506D01*
X126591396Y-139881501D01*
X126405842Y-139751575D01*
X126362217Y-139696998D01*
X126355023Y-139627500D01*
X126386546Y-139565145D01*
X126405842Y-139548425D01*
X126428026Y-139532891D01*
X126591401Y-139418495D01*
X126758495Y-139251401D01*
X126894035Y-139057830D01*
X126993903Y-138843663D01*
X127055063Y-138615408D01*
X127075659Y-138380000D01*
X127055063Y-138144592D01*
X126993903Y-137916337D01*
X126894035Y-137702171D01*
X126794704Y-137560310D01*
X126758494Y-137508597D01*
X126591402Y-137341506D01*
X126591396Y-137341501D01*
X126405842Y-137211575D01*
X126362217Y-137156998D01*
X126355023Y-137087500D01*
X126386546Y-137025145D01*
X126405842Y-137008425D01*
X126428026Y-136992891D01*
X126591401Y-136878495D01*
X126758495Y-136711401D01*
X126894035Y-136517830D01*
X126993903Y-136303663D01*
X127055063Y-136075408D01*
X127075659Y-135840000D01*
X127055063Y-135604592D01*
X126993903Y-135376337D01*
X126894035Y-135162171D01*
X126758495Y-134968599D01*
X126636567Y-134846671D01*
X126603084Y-134785351D01*
X126608068Y-134715659D01*
X126649939Y-134659725D01*
X126680915Y-134642810D01*
X126812331Y-134593796D01*
X126927546Y-134507546D01*
X127013796Y-134392331D01*
X127064091Y-134257483D01*
X127070500Y-134197873D01*
X127070499Y-132402128D01*
X127064091Y-132342517D01*
X127013796Y-132207669D01*
X127013795Y-132207668D01*
X127013793Y-132207664D01*
X126927547Y-132092455D01*
X126927544Y-132092452D01*
X126812335Y-132006206D01*
X126812328Y-132006202D01*
X126677482Y-131955908D01*
X126677483Y-131955908D01*
X126617883Y-131949501D01*
X126617881Y-131949500D01*
X126617873Y-131949500D01*
X126617864Y-131949500D01*
X124822129Y-131949500D01*
X124822123Y-131949501D01*
X124762516Y-131955908D01*
X124627671Y-132006202D01*
X124627664Y-132006206D01*
X124512455Y-132092452D01*
X124512452Y-132092455D01*
X124426206Y-132207664D01*
X124426202Y-132207671D01*
X124375908Y-132342517D01*
X124369501Y-132402116D01*
X124369501Y-132402123D01*
X124369500Y-132402135D01*
X124369500Y-134197870D01*
X124369501Y-134197876D01*
X124375908Y-134257483D01*
X124426202Y-134392328D01*
X124426206Y-134392335D01*
X124512452Y-134507544D01*
X124512455Y-134507547D01*
X124627664Y-134593793D01*
X124627671Y-134593797D01*
X124759081Y-134642810D01*
X124815015Y-134684681D01*
X124839432Y-134750145D01*
X124824580Y-134818418D01*
X124803430Y-134846673D01*
X124681503Y-134968600D01*
X124545965Y-135162169D01*
X124545964Y-135162171D01*
X124446098Y-135376335D01*
X124446094Y-135376344D01*
X124384938Y-135604586D01*
X124384936Y-135604596D01*
X124364341Y-135839999D01*
X124364341Y-135840000D01*
X124384936Y-136075403D01*
X124384938Y-136075413D01*
X124446094Y-136303655D01*
X124446096Y-136303659D01*
X124446097Y-136303663D01*
X124545965Y-136517830D01*
X124545967Y-136517834D01*
X124681501Y-136711395D01*
X124681506Y-136711402D01*
X124848597Y-136878493D01*
X124848603Y-136878498D01*
X125034158Y-137008425D01*
X125077783Y-137063002D01*
X125084977Y-137132500D01*
X125053454Y-137194855D01*
X125034158Y-137211575D01*
X124848597Y-137341505D01*
X124681505Y-137508597D01*
X124545965Y-137702169D01*
X124545964Y-137702171D01*
X124446098Y-137916335D01*
X124446094Y-137916344D01*
X124384938Y-138144586D01*
X124384936Y-138144596D01*
X124364341Y-138379999D01*
X124364341Y-138380000D01*
X124384936Y-138615403D01*
X124384938Y-138615413D01*
X124446094Y-138843655D01*
X124446096Y-138843659D01*
X124446097Y-138843663D01*
X124545965Y-139057830D01*
X124545967Y-139057834D01*
X124681501Y-139251395D01*
X124681506Y-139251402D01*
X124848597Y-139418493D01*
X124848603Y-139418498D01*
X125034158Y-139548425D01*
X125077783Y-139603002D01*
X125084977Y-139672500D01*
X125053454Y-139734855D01*
X125034158Y-139751575D01*
X124848597Y-139881505D01*
X124681505Y-140048597D01*
X124545965Y-140242169D01*
X124545964Y-140242171D01*
X124446098Y-140456335D01*
X124446094Y-140456344D01*
X124384938Y-140684586D01*
X124384936Y-140684596D01*
X124364341Y-140919999D01*
X124364341Y-140920000D01*
X124384936Y-141155403D01*
X124384938Y-141155413D01*
X124446094Y-141383655D01*
X124446096Y-141383659D01*
X124446097Y-141383663D01*
X124545965Y-141597830D01*
X124545967Y-141597834D01*
X124681501Y-141791395D01*
X124681506Y-141791402D01*
X124848597Y-141958493D01*
X124848603Y-141958498D01*
X125034158Y-142088425D01*
X125077783Y-142143002D01*
X125084977Y-142212500D01*
X125053454Y-142274855D01*
X125034158Y-142291575D01*
X124848597Y-142421505D01*
X124681505Y-142588597D01*
X124545965Y-142782169D01*
X124545964Y-142782171D01*
X124446098Y-142996335D01*
X124446094Y-142996344D01*
X124384938Y-143224586D01*
X124384936Y-143224596D01*
X124364341Y-143459999D01*
X124364341Y-143460000D01*
X124384936Y-143695403D01*
X124384938Y-143695413D01*
X124446094Y-143923655D01*
X124446096Y-143923659D01*
X124446097Y-143923663D01*
X124545965Y-144137830D01*
X124545967Y-144137834D01*
X124681501Y-144331395D01*
X124681506Y-144331402D01*
X124848597Y-144498493D01*
X124848603Y-144498498D01*
X125034158Y-144628425D01*
X125077783Y-144683002D01*
X125084977Y-144752500D01*
X125053454Y-144814855D01*
X125034158Y-144831575D01*
X124848597Y-144961505D01*
X124681505Y-145128597D01*
X124545965Y-145322169D01*
X124545964Y-145322171D01*
X124446098Y-145536335D01*
X124446094Y-145536344D01*
X124384938Y-145764586D01*
X124384936Y-145764596D01*
X124364341Y-145999999D01*
X124364341Y-146000000D01*
X124384936Y-146235403D01*
X124384938Y-146235413D01*
X124446094Y-146463655D01*
X124446096Y-146463659D01*
X124446097Y-146463663D01*
X124494650Y-146567784D01*
X124545965Y-146677830D01*
X124545967Y-146677834D01*
X124681501Y-146871395D01*
X124681506Y-146871402D01*
X124848597Y-147038493D01*
X124848603Y-147038498D01*
X125034158Y-147168425D01*
X125077783Y-147223002D01*
X125084977Y-147292500D01*
X125053454Y-147354855D01*
X125034158Y-147371575D01*
X124848597Y-147501505D01*
X124681505Y-147668597D01*
X124545965Y-147862169D01*
X124545964Y-147862171D01*
X124446098Y-148076335D01*
X124446094Y-148076344D01*
X124384938Y-148304586D01*
X124384936Y-148304596D01*
X124364341Y-148539999D01*
X124364341Y-148540000D01*
X124384936Y-148775403D01*
X124384938Y-148775413D01*
X124446094Y-149003655D01*
X124446096Y-149003659D01*
X124446097Y-149003663D01*
X124545965Y-149217830D01*
X124545967Y-149217834D01*
X124681501Y-149411395D01*
X124681506Y-149411402D01*
X124848597Y-149578493D01*
X124848603Y-149578498D01*
X125034158Y-149708425D01*
X125077783Y-149763002D01*
X125084977Y-149832500D01*
X125053454Y-149894855D01*
X125034158Y-149911575D01*
X124848597Y-150041505D01*
X124681505Y-150208597D01*
X124545965Y-150402169D01*
X124545964Y-150402171D01*
X124446098Y-150616335D01*
X124446094Y-150616344D01*
X124384938Y-150844586D01*
X124384936Y-150844596D01*
X124364341Y-151079999D01*
X124364341Y-151080000D01*
X124384936Y-151315403D01*
X124384938Y-151315413D01*
X124446094Y-151543655D01*
X124446096Y-151543659D01*
X124446097Y-151543663D01*
X124545965Y-151757830D01*
X124545967Y-151757834D01*
X124681501Y-151951395D01*
X124681506Y-151951402D01*
X124848597Y-152118493D01*
X124848603Y-152118498D01*
X125034594Y-152248730D01*
X125078219Y-152303307D01*
X125085413Y-152372805D01*
X125053890Y-152435160D01*
X125034595Y-152451880D01*
X124848922Y-152581890D01*
X124848920Y-152581891D01*
X124681891Y-152748920D01*
X124681886Y-152748926D01*
X124546400Y-152942420D01*
X124546399Y-152942422D01*
X124446570Y-153156507D01*
X124446567Y-153156513D01*
X124389364Y-153369999D01*
X124389364Y-153370000D01*
X125286314Y-153370000D01*
X125260507Y-153410156D01*
X125220000Y-153548111D01*
X125220000Y-153691889D01*
X125260507Y-153829844D01*
X125286314Y-153870000D01*
X124389364Y-153870000D01*
X124446567Y-154083486D01*
X124446570Y-154083492D01*
X124546399Y-154297578D01*
X124681894Y-154491082D01*
X124848917Y-154658105D01*
X125034595Y-154788119D01*
X125078219Y-154842696D01*
X125085412Y-154912195D01*
X125053890Y-154974549D01*
X125034595Y-154991269D01*
X124848594Y-155121508D01*
X124681505Y-155288597D01*
X124545965Y-155482169D01*
X124545964Y-155482171D01*
X124452401Y-155682816D01*
X124447344Y-155693664D01*
X124446098Y-155696335D01*
X124446094Y-155696344D01*
X124384938Y-155924586D01*
X124384936Y-155924596D01*
X124364341Y-156159999D01*
X124364341Y-156160000D01*
X118337807Y-156160000D01*
X118353694Y-155954745D01*
X118356891Y-155924586D01*
X118426855Y-155264494D01*
X118432997Y-155211350D01*
X118432996Y-155211349D01*
X118433027Y-155211084D01*
X118438902Y-155166931D01*
X118439059Y-155162779D01*
X118475988Y-154867193D01*
X118890450Y-151549787D01*
X118891068Y-151547284D01*
X118892289Y-151535080D01*
X118893240Y-151527603D01*
X118893291Y-151525139D01*
X118940083Y-151061144D01*
X119218455Y-148300789D01*
X119219147Y-148297476D01*
X119219683Y-148289189D01*
X119219972Y-148285998D01*
X119220819Y-148278726D01*
X119220703Y-148274853D01*
X119248832Y-147884151D01*
X119448050Y-145117109D01*
X119448538Y-145114468D01*
X119449046Y-145103289D01*
X119449821Y-145092667D01*
X119449660Y-145089983D01*
X119455596Y-144961501D01*
X119609303Y-141634807D01*
X119609840Y-141630972D01*
X119609840Y-141624842D01*
X119609930Y-141621510D01*
X119610218Y-141616142D01*
X119609927Y-141612410D01*
X119642460Y-137610440D01*
X119643710Y-137606307D01*
X119642872Y-137559808D01*
X119642953Y-137552819D01*
X119642689Y-137550090D01*
X119635283Y-137154570D01*
X119598898Y-136344765D01*
X119541337Y-135536189D01*
X119462640Y-134729395D01*
X119413984Y-134337143D01*
X119413822Y-134333391D01*
X119413013Y-134328709D01*
X119412561Y-134325636D01*
X119408972Y-134296151D01*
X119404948Y-134279916D01*
X118804043Y-130639353D01*
X118803705Y-130635309D01*
X118802798Y-130631201D01*
X118802116Y-130627618D01*
X118801372Y-130622974D01*
X118800127Y-130618939D01*
X118646163Y-129910000D01*
X141624540Y-129910000D01*
X141644326Y-130098256D01*
X141644327Y-130098259D01*
X141702818Y-130278277D01*
X141702821Y-130278284D01*
X141797467Y-130442216D01*
X141924129Y-130582888D01*
X142077265Y-130694148D01*
X142077270Y-130694151D01*
X142250192Y-130771142D01*
X142250197Y-130771144D01*
X142435354Y-130810500D01*
X142435355Y-130810500D01*
X142624644Y-130810500D01*
X142624646Y-130810500D01*
X142809803Y-130771144D01*
X142982730Y-130694151D01*
X143135871Y-130582888D01*
X143262533Y-130442216D01*
X143357179Y-130278284D01*
X143415674Y-130098256D01*
X143435460Y-129910000D01*
X143415674Y-129721744D01*
X143357179Y-129541716D01*
X143262533Y-129377784D01*
X143135871Y-129237112D01*
X143135870Y-129237111D01*
X142982734Y-129125851D01*
X142982729Y-129125848D01*
X142809807Y-129048857D01*
X142809802Y-129048855D01*
X142664001Y-129017865D01*
X142624646Y-129009500D01*
X142435354Y-129009500D01*
X142402897Y-129016398D01*
X142250197Y-129048855D01*
X142250192Y-129048857D01*
X142077270Y-129125848D01*
X142077265Y-129125851D01*
X141924129Y-129237111D01*
X141797466Y-129377785D01*
X141702821Y-129541715D01*
X141702818Y-129541722D01*
X141644327Y-129721740D01*
X141644326Y-129721744D01*
X141624540Y-129910000D01*
X118646163Y-129910000D01*
X118268278Y-128170000D01*
X125444540Y-128170000D01*
X125464326Y-128358256D01*
X125464327Y-128358259D01*
X125522818Y-128538277D01*
X125522821Y-128538284D01*
X125617467Y-128702216D01*
X125744129Y-128842888D01*
X125897265Y-128954148D01*
X125897270Y-128954151D01*
X126070192Y-129031142D01*
X126070197Y-129031144D01*
X126255354Y-129070500D01*
X126255355Y-129070500D01*
X126444644Y-129070500D01*
X126444646Y-129070500D01*
X126629803Y-129031144D01*
X126802730Y-128954151D01*
X126955871Y-128842888D01*
X127082533Y-128702216D01*
X127177179Y-128538284D01*
X127235674Y-128358256D01*
X127255460Y-128170000D01*
X127235674Y-127981744D01*
X127177179Y-127801716D01*
X127082533Y-127637784D01*
X126955871Y-127497112D01*
X126955870Y-127497111D01*
X126802734Y-127385851D01*
X126802729Y-127385848D01*
X126629807Y-127308857D01*
X126629802Y-127308855D01*
X126484001Y-127277865D01*
X126444646Y-127269500D01*
X126255354Y-127269500D01*
X126222897Y-127276398D01*
X126070197Y-127308855D01*
X126070192Y-127308857D01*
X125897270Y-127385848D01*
X125897265Y-127385851D01*
X125744129Y-127497111D01*
X125617466Y-127637785D01*
X125522821Y-127801715D01*
X125522818Y-127801722D01*
X125464327Y-127981740D01*
X125464326Y-127981744D01*
X125444540Y-128170000D01*
X118268278Y-128170000D01*
X117727512Y-125680000D01*
X124364341Y-125680000D01*
X124384936Y-125915403D01*
X124384938Y-125915413D01*
X124446094Y-126143655D01*
X124446096Y-126143659D01*
X124446097Y-126143663D01*
X124514868Y-126291142D01*
X124545965Y-126357830D01*
X124545967Y-126357834D01*
X124623301Y-126468277D01*
X124681505Y-126551401D01*
X124848599Y-126718495D01*
X124868192Y-126732214D01*
X125042165Y-126854032D01*
X125042167Y-126854033D01*
X125042170Y-126854035D01*
X125256337Y-126953903D01*
X125256343Y-126953904D01*
X125256344Y-126953905D01*
X125283361Y-126961144D01*
X125484592Y-127015063D01*
X125672918Y-127031539D01*
X125719999Y-127035659D01*
X125720000Y-127035659D01*
X125720001Y-127035659D01*
X125759234Y-127032226D01*
X125955408Y-127015063D01*
X126183663Y-126953903D01*
X126397830Y-126854035D01*
X126591401Y-126718495D01*
X126758495Y-126551401D01*
X126894035Y-126357830D01*
X126967633Y-126200000D01*
X132094540Y-126200000D01*
X132114326Y-126388256D01*
X132114327Y-126388259D01*
X132172818Y-126568277D01*
X132172821Y-126568284D01*
X132267467Y-126732216D01*
X132344506Y-126817776D01*
X132394129Y-126872888D01*
X132547265Y-126984148D01*
X132547270Y-126984151D01*
X132720192Y-127061142D01*
X132720197Y-127061144D01*
X132905354Y-127100500D01*
X132905355Y-127100500D01*
X133094644Y-127100500D01*
X133094646Y-127100500D01*
X133279803Y-127061144D01*
X133452730Y-126984151D01*
X133605871Y-126872888D01*
X133605879Y-126872878D01*
X133608957Y-126870109D01*
X133671947Y-126839875D01*
X133741282Y-126848497D01*
X133764818Y-126861934D01*
X133802247Y-126889128D01*
X133975169Y-126966119D01*
X133975174Y-126966121D01*
X134160331Y-127005477D01*
X134160332Y-127005477D01*
X134349621Y-127005477D01*
X134349623Y-127005477D01*
X134534780Y-126966121D01*
X134707707Y-126889128D01*
X134733027Y-126870732D01*
X134798833Y-126847251D01*
X134866887Y-126863076D01*
X134878798Y-126870731D01*
X134897269Y-126884151D01*
X135070192Y-126961142D01*
X135070197Y-126961144D01*
X135255354Y-127000500D01*
X135255355Y-127000500D01*
X135444644Y-127000500D01*
X135444646Y-127000500D01*
X135629803Y-126961144D01*
X135802730Y-126884151D01*
X135955871Y-126772888D01*
X136082533Y-126632216D01*
X136177179Y-126468284D01*
X136235674Y-126288256D01*
X136255460Y-126100000D01*
X136235674Y-125911744D01*
X136177179Y-125731716D01*
X136082533Y-125567784D01*
X135955871Y-125427112D01*
X135940369Y-125415849D01*
X135802734Y-125315851D01*
X135802729Y-125315848D01*
X135629807Y-125238857D01*
X135629802Y-125238855D01*
X135468061Y-125204477D01*
X135444646Y-125199500D01*
X135255354Y-125199500D01*
X135231939Y-125204477D01*
X135070197Y-125238855D01*
X135070192Y-125238857D01*
X134897270Y-125315848D01*
X134897268Y-125315850D01*
X134871946Y-125334247D01*
X134806140Y-125357725D01*
X134738086Y-125341898D01*
X134726179Y-125334246D01*
X134707710Y-125320828D01*
X134707706Y-125320825D01*
X134534784Y-125243834D01*
X134534779Y-125243832D01*
X134388978Y-125212842D01*
X134349623Y-125204477D01*
X134160331Y-125204477D01*
X134127874Y-125211375D01*
X133975174Y-125243832D01*
X133975169Y-125243834D01*
X133802247Y-125320825D01*
X133802242Y-125320828D01*
X133649108Y-125432087D01*
X133646008Y-125434878D01*
X133583014Y-125465103D01*
X133513679Y-125456473D01*
X133490158Y-125443041D01*
X133452733Y-125415851D01*
X133452729Y-125415848D01*
X133279807Y-125338857D01*
X133279802Y-125338855D01*
X133134001Y-125307865D01*
X133094646Y-125299500D01*
X132905354Y-125299500D01*
X132872897Y-125306398D01*
X132720197Y-125338855D01*
X132720192Y-125338857D01*
X132547270Y-125415848D01*
X132547265Y-125415851D01*
X132394129Y-125527111D01*
X132267466Y-125667785D01*
X132172821Y-125831715D01*
X132172818Y-125831722D01*
X132114633Y-126010798D01*
X132114326Y-126011744D01*
X132094540Y-126200000D01*
X126967633Y-126200000D01*
X126993903Y-126143663D01*
X127055063Y-125915408D01*
X127075659Y-125680000D01*
X127055063Y-125444592D01*
X127001271Y-125243834D01*
X126993905Y-125216344D01*
X126993904Y-125216343D01*
X126993903Y-125216337D01*
X126907381Y-125030792D01*
X136475332Y-125030792D01*
X136495118Y-125219048D01*
X136495119Y-125219051D01*
X136553610Y-125399069D01*
X136553613Y-125399076D01*
X136648259Y-125563008D01*
X136774921Y-125703680D01*
X136928057Y-125814940D01*
X136928062Y-125814943D01*
X137100984Y-125891934D01*
X137100989Y-125891936D01*
X137286146Y-125931292D01*
X137286147Y-125931292D01*
X137475436Y-125931292D01*
X137475438Y-125931292D01*
X137660595Y-125891936D01*
X137833522Y-125814943D01*
X137986663Y-125703680D01*
X138113325Y-125563008D01*
X138207971Y-125399076D01*
X138266466Y-125219048D01*
X138286252Y-125030792D01*
X138266466Y-124842536D01*
X138207971Y-124662508D01*
X138113325Y-124498576D01*
X137986663Y-124357904D01*
X137986662Y-124357903D01*
X137833526Y-124246643D01*
X137833521Y-124246640D01*
X137660599Y-124169649D01*
X137660594Y-124169647D01*
X137514793Y-124138657D01*
X137475438Y-124130292D01*
X137286146Y-124130292D01*
X137253689Y-124137190D01*
X137100989Y-124169647D01*
X137100984Y-124169649D01*
X136928062Y-124246640D01*
X136928057Y-124246643D01*
X136774921Y-124357903D01*
X136648258Y-124498577D01*
X136553613Y-124662507D01*
X136553610Y-124662514D01*
X136495119Y-124842532D01*
X136495118Y-124842536D01*
X136475332Y-125030792D01*
X126907381Y-125030792D01*
X126894035Y-125002171D01*
X126820944Y-124897785D01*
X126758494Y-124808597D01*
X126591402Y-124641506D01*
X126591396Y-124641501D01*
X126405842Y-124511575D01*
X126362217Y-124456998D01*
X126355023Y-124387500D01*
X126386546Y-124325145D01*
X126405842Y-124308425D01*
X126428026Y-124292891D01*
X126591401Y-124178495D01*
X126758495Y-124011401D01*
X126894035Y-123817830D01*
X126993903Y-123603663D01*
X127055063Y-123375408D01*
X127075659Y-123140000D01*
X127055063Y-122904592D01*
X127000243Y-122700000D01*
X130794540Y-122700000D01*
X130814326Y-122888256D01*
X130814327Y-122888259D01*
X130872818Y-123068277D01*
X130872821Y-123068284D01*
X130967467Y-123232216D01*
X131014227Y-123284148D01*
X131094129Y-123372888D01*
X131247265Y-123484148D01*
X131247270Y-123484151D01*
X131420192Y-123561142D01*
X131420197Y-123561144D01*
X131605354Y-123600500D01*
X131605355Y-123600500D01*
X131794644Y-123600500D01*
X131794646Y-123600500D01*
X131979803Y-123561144D01*
X132152730Y-123484151D01*
X132305871Y-123372888D01*
X132432533Y-123232216D01*
X132527179Y-123068284D01*
X132585674Y-122888256D01*
X132605460Y-122700000D01*
X132585674Y-122511744D01*
X132581858Y-122500000D01*
X134294540Y-122500000D01*
X134314326Y-122688256D01*
X134314327Y-122688259D01*
X134372818Y-122868277D01*
X134372821Y-122868284D01*
X134467467Y-123032216D01*
X134594129Y-123172888D01*
X134747265Y-123284148D01*
X134747270Y-123284151D01*
X134920192Y-123361142D01*
X134920197Y-123361144D01*
X135105354Y-123400500D01*
X135105355Y-123400500D01*
X135294644Y-123400500D01*
X135294646Y-123400500D01*
X135479803Y-123361144D01*
X135652730Y-123284151D01*
X135805871Y-123172888D01*
X135835484Y-123140000D01*
X142144341Y-123140000D01*
X142164936Y-123375403D01*
X142164938Y-123375413D01*
X142226094Y-123603655D01*
X142226096Y-123603659D01*
X142226097Y-123603663D01*
X142325965Y-123817830D01*
X142325967Y-123817834D01*
X142434281Y-123972521D01*
X142461505Y-124011401D01*
X142628599Y-124178495D01*
X142725921Y-124246641D01*
X142814594Y-124308730D01*
X142858219Y-124363307D01*
X142865413Y-124432805D01*
X142833890Y-124495160D01*
X142814595Y-124511880D01*
X142628922Y-124641890D01*
X142628920Y-124641891D01*
X142461891Y-124808920D01*
X142461886Y-124808926D01*
X142326400Y-125002420D01*
X142326399Y-125002422D01*
X142226570Y-125216507D01*
X142226567Y-125216513D01*
X142169364Y-125429999D01*
X142169364Y-125430000D01*
X143066314Y-125430000D01*
X143040507Y-125470156D01*
X143000000Y-125608111D01*
X143000000Y-125751889D01*
X143040507Y-125889844D01*
X143066314Y-125930000D01*
X142169364Y-125930000D01*
X142226567Y-126143486D01*
X142226570Y-126143492D01*
X142326399Y-126357578D01*
X142461894Y-126551082D01*
X142628917Y-126718105D01*
X142822421Y-126853600D01*
X143036507Y-126953429D01*
X143036516Y-126953433D01*
X143250000Y-127010634D01*
X143250000Y-126115501D01*
X143357685Y-126164680D01*
X143464237Y-126180000D01*
X143535763Y-126180000D01*
X143642315Y-126164680D01*
X143750000Y-126115501D01*
X143750000Y-127010633D01*
X143963483Y-126953433D01*
X143963492Y-126953429D01*
X144177578Y-126853600D01*
X144371082Y-126718105D01*
X144538105Y-126551082D01*
X144673600Y-126357578D01*
X144773429Y-126143492D01*
X144773432Y-126143486D01*
X144830636Y-125930000D01*
X143933686Y-125930000D01*
X143959493Y-125889844D01*
X144000000Y-125751889D01*
X144000000Y-125608111D01*
X143959493Y-125470156D01*
X143933686Y-125430000D01*
X144830636Y-125430000D01*
X147874540Y-125430000D01*
X147894326Y-125618256D01*
X147894327Y-125618259D01*
X147952818Y-125798277D01*
X147952821Y-125798284D01*
X148047467Y-125962216D01*
X148171529Y-126100000D01*
X148174129Y-126102888D01*
X148327265Y-126214148D01*
X148327270Y-126214151D01*
X148500192Y-126291142D01*
X148500197Y-126291144D01*
X148685354Y-126330500D01*
X148685355Y-126330500D01*
X148874644Y-126330500D01*
X148874646Y-126330500D01*
X149059803Y-126291144D01*
X149232730Y-126214151D01*
X149385871Y-126102888D01*
X149512533Y-125962216D01*
X149607179Y-125798284D01*
X149665674Y-125618256D01*
X149685460Y-125430000D01*
X149665674Y-125241744D01*
X149607179Y-125061716D01*
X149512533Y-124897784D01*
X149385871Y-124757112D01*
X149385870Y-124757111D01*
X149232734Y-124645851D01*
X149232729Y-124645848D01*
X149059807Y-124568857D01*
X149059802Y-124568855D01*
X148914001Y-124537865D01*
X148874646Y-124529500D01*
X148685354Y-124529500D01*
X148652897Y-124536398D01*
X148500197Y-124568855D01*
X148500192Y-124568857D01*
X148327270Y-124645848D01*
X148327265Y-124645851D01*
X148174129Y-124757111D01*
X148047466Y-124897785D01*
X147952821Y-125061715D01*
X147952818Y-125061722D01*
X147895264Y-125238856D01*
X147894326Y-125241744D01*
X147874540Y-125430000D01*
X144830636Y-125430000D01*
X144830635Y-125429999D01*
X144773432Y-125216513D01*
X144773429Y-125216507D01*
X144673600Y-125002422D01*
X144673599Y-125002420D01*
X144538113Y-124808926D01*
X144538108Y-124808920D01*
X144371078Y-124641890D01*
X144185405Y-124511879D01*
X144141780Y-124457302D01*
X144134588Y-124387804D01*
X144166110Y-124325449D01*
X144185406Y-124308730D01*
X144185842Y-124308425D01*
X144371401Y-124178495D01*
X144538495Y-124011401D01*
X144674035Y-123817830D01*
X144773903Y-123603663D01*
X144835063Y-123375408D01*
X144855659Y-123140000D01*
X144835063Y-122904592D01*
X144780243Y-122700000D01*
X144773905Y-122676344D01*
X144773904Y-122676343D01*
X144773903Y-122676337D01*
X144674035Y-122462171D01*
X144582690Y-122331715D01*
X144538494Y-122268597D01*
X144371402Y-122101506D01*
X144371396Y-122101501D01*
X144185842Y-121971575D01*
X144142217Y-121916998D01*
X144135023Y-121847500D01*
X144166546Y-121785145D01*
X144185842Y-121768425D01*
X144237554Y-121732216D01*
X144371401Y-121638495D01*
X144538495Y-121471401D01*
X144674035Y-121277830D01*
X144773903Y-121063663D01*
X144835063Y-120835408D01*
X144855659Y-120600000D01*
X144835063Y-120364592D01*
X144788626Y-120191285D01*
X144773905Y-120136344D01*
X144773904Y-120136343D01*
X144773903Y-120136337D01*
X144674035Y-119922171D01*
X144606895Y-119826284D01*
X144538494Y-119728597D01*
X144371402Y-119561506D01*
X144371396Y-119561501D01*
X144185842Y-119431575D01*
X144142217Y-119376998D01*
X144135023Y-119307500D01*
X144166546Y-119245145D01*
X144185842Y-119228425D01*
X144360951Y-119105812D01*
X144371401Y-119098495D01*
X144538495Y-118931401D01*
X144674035Y-118737830D01*
X144773903Y-118523663D01*
X144835063Y-118295408D01*
X144855659Y-118060000D01*
X144835063Y-117824592D01*
X144773903Y-117596337D01*
X144674035Y-117382171D01*
X144639057Y-117332216D01*
X144538494Y-117188597D01*
X144371402Y-117021506D01*
X144371396Y-117021501D01*
X144185842Y-116891575D01*
X144142217Y-116836998D01*
X144135023Y-116767500D01*
X144166546Y-116705145D01*
X144185842Y-116688425D01*
X144231143Y-116656705D01*
X144371401Y-116558495D01*
X144538495Y-116391401D01*
X144674035Y-116197830D01*
X144773903Y-115983663D01*
X144835063Y-115755408D01*
X144855659Y-115520000D01*
X144835063Y-115284592D01*
X144773903Y-115056337D01*
X144674035Y-114842171D01*
X144620246Y-114765351D01*
X144538494Y-114648597D01*
X144371402Y-114481506D01*
X144371396Y-114481501D01*
X144185842Y-114351575D01*
X144142217Y-114296998D01*
X144135023Y-114227500D01*
X144166546Y-114165145D01*
X144185842Y-114148425D01*
X144280401Y-114082214D01*
X144371401Y-114018495D01*
X144538495Y-113851401D01*
X144674035Y-113657830D01*
X144773903Y-113443663D01*
X144835063Y-113215408D01*
X144855659Y-112980000D01*
X144852798Y-112947305D01*
X144836923Y-112765851D01*
X144835063Y-112744592D01*
X144773903Y-112516337D01*
X144674035Y-112302171D01*
X144538495Y-112108599D01*
X144538494Y-112108597D01*
X144371402Y-111941506D01*
X144371396Y-111941501D01*
X144185842Y-111811575D01*
X144142217Y-111756998D01*
X144135023Y-111687500D01*
X144166546Y-111625145D01*
X144185842Y-111608425D01*
X144236594Y-111572888D01*
X144371401Y-111478495D01*
X144538495Y-111311401D01*
X144674035Y-111117830D01*
X144773903Y-110903663D01*
X144835063Y-110675408D01*
X144855659Y-110440000D01*
X144835063Y-110204592D01*
X144788626Y-110031285D01*
X144773905Y-109976344D01*
X144773904Y-109976343D01*
X144773903Y-109976337D01*
X144674035Y-109762171D01*
X144641601Y-109715849D01*
X144560483Y-109600000D01*
X150294540Y-109600000D01*
X150314326Y-109788256D01*
X150314327Y-109788259D01*
X150372818Y-109968277D01*
X150372821Y-109968284D01*
X150467467Y-110132216D01*
X150552911Y-110227111D01*
X150594129Y-110272888D01*
X150747265Y-110384148D01*
X150747270Y-110384151D01*
X150920192Y-110461142D01*
X150920197Y-110461144D01*
X151105354Y-110500500D01*
X151105355Y-110500500D01*
X151294644Y-110500500D01*
X151294646Y-110500500D01*
X151479803Y-110461144D01*
X151652730Y-110384151D01*
X151805871Y-110272888D01*
X151932533Y-110132216D01*
X152027179Y-109968284D01*
X152085674Y-109788256D01*
X152105460Y-109600000D01*
X152085674Y-109411744D01*
X152027179Y-109231716D01*
X151932533Y-109067784D01*
X151805871Y-108927112D01*
X151805870Y-108927111D01*
X151652734Y-108815851D01*
X151652729Y-108815848D01*
X151479807Y-108738857D01*
X151479802Y-108738855D01*
X151334001Y-108707865D01*
X151294646Y-108699500D01*
X151105354Y-108699500D01*
X151072897Y-108706398D01*
X150920197Y-108738855D01*
X150920192Y-108738857D01*
X150747270Y-108815848D01*
X150747265Y-108815851D01*
X150594129Y-108927111D01*
X150467466Y-109067785D01*
X150372821Y-109231715D01*
X150372818Y-109231722D01*
X150317652Y-109401508D01*
X150314326Y-109411744D01*
X150294540Y-109600000D01*
X144560483Y-109600000D01*
X144538494Y-109568597D01*
X144371402Y-109401506D01*
X144371396Y-109401501D01*
X144185842Y-109271575D01*
X144142217Y-109216998D01*
X144135023Y-109147500D01*
X144166546Y-109085145D01*
X144185842Y-109068425D01*
X144208026Y-109052891D01*
X144371401Y-108938495D01*
X144538495Y-108771401D01*
X144674035Y-108577830D01*
X144773903Y-108363663D01*
X144835063Y-108135408D01*
X144855659Y-107900000D01*
X144835063Y-107664592D01*
X144773903Y-107436337D01*
X144674035Y-107222171D01*
X144538495Y-107028599D01*
X144538494Y-107028597D01*
X144371402Y-106861506D01*
X144371396Y-106861501D01*
X144185842Y-106731575D01*
X144142217Y-106676998D01*
X144135023Y-106607500D01*
X144166546Y-106545145D01*
X144185842Y-106528425D01*
X144253949Y-106480736D01*
X144371401Y-106398495D01*
X144538495Y-106231401D01*
X144674035Y-106037830D01*
X144773903Y-105823663D01*
X144835063Y-105595408D01*
X144855659Y-105360000D01*
X144835063Y-105124592D01*
X144784275Y-104935048D01*
X144773905Y-104896344D01*
X144773904Y-104896343D01*
X144773903Y-104896337D01*
X144674035Y-104682171D01*
X144568705Y-104531744D01*
X144538496Y-104488600D01*
X144491239Y-104441343D01*
X144416567Y-104366671D01*
X144383084Y-104305351D01*
X144388068Y-104235659D01*
X144429939Y-104179725D01*
X144460915Y-104162810D01*
X144592331Y-104113796D01*
X144707546Y-104027546D01*
X144793796Y-103912331D01*
X144844091Y-103777483D01*
X144850500Y-103717873D01*
X144850499Y-101922128D01*
X144844091Y-101862517D01*
X144832423Y-101831234D01*
X144793797Y-101727671D01*
X144793793Y-101727664D01*
X144707547Y-101612455D01*
X144707544Y-101612452D01*
X144592335Y-101526206D01*
X144592328Y-101526202D01*
X144457482Y-101475908D01*
X144457483Y-101475908D01*
X144397883Y-101469501D01*
X144397881Y-101469500D01*
X144397873Y-101469500D01*
X144397864Y-101469500D01*
X142602129Y-101469500D01*
X142602123Y-101469501D01*
X142542516Y-101475908D01*
X142407671Y-101526202D01*
X142407664Y-101526206D01*
X142292455Y-101612452D01*
X142292452Y-101612455D01*
X142206206Y-101727664D01*
X142206202Y-101727671D01*
X142155908Y-101862517D01*
X142149501Y-101922116D01*
X142149501Y-101922123D01*
X142149500Y-101922135D01*
X142149500Y-103717870D01*
X142149501Y-103717876D01*
X142155908Y-103777483D01*
X142206202Y-103912328D01*
X142206206Y-103912335D01*
X142292452Y-104027544D01*
X142292455Y-104027547D01*
X142407664Y-104113793D01*
X142407671Y-104113797D01*
X142539081Y-104162810D01*
X142595015Y-104204681D01*
X142619432Y-104270145D01*
X142604580Y-104338418D01*
X142583430Y-104366673D01*
X142461503Y-104488600D01*
X142325965Y-104682169D01*
X142325964Y-104682171D01*
X142226098Y-104896335D01*
X142226094Y-104896344D01*
X142164938Y-105124586D01*
X142164936Y-105124596D01*
X142144341Y-105359999D01*
X142144341Y-105360000D01*
X142164936Y-105595403D01*
X142164938Y-105595413D01*
X142226094Y-105823655D01*
X142226096Y-105823659D01*
X142226097Y-105823663D01*
X142261694Y-105900000D01*
X142325965Y-106037830D01*
X142325967Y-106037834D01*
X142461501Y-106231395D01*
X142461506Y-106231402D01*
X142628597Y-106398493D01*
X142628603Y-106398498D01*
X142814158Y-106528425D01*
X142857783Y-106583002D01*
X142864977Y-106652500D01*
X142833454Y-106714855D01*
X142814158Y-106731575D01*
X142628597Y-106861505D01*
X142461505Y-107028597D01*
X142325965Y-107222169D01*
X142325964Y-107222171D01*
X142226098Y-107436335D01*
X142226094Y-107436344D01*
X142164938Y-107664586D01*
X142164936Y-107664596D01*
X142144341Y-107899999D01*
X142144341Y-107900000D01*
X142164936Y-108135403D01*
X142164938Y-108135413D01*
X142226094Y-108363655D01*
X142226096Y-108363659D01*
X142226097Y-108363663D01*
X142279381Y-108477930D01*
X142325965Y-108577830D01*
X142325967Y-108577834D01*
X142461501Y-108771395D01*
X142461506Y-108771402D01*
X142628597Y-108938493D01*
X142628603Y-108938498D01*
X142814158Y-109068425D01*
X142857783Y-109123002D01*
X142864977Y-109192500D01*
X142833454Y-109254855D01*
X142814158Y-109271575D01*
X142628597Y-109401505D01*
X142461505Y-109568597D01*
X142325965Y-109762169D01*
X142325964Y-109762171D01*
X142226098Y-109976335D01*
X142226094Y-109976344D01*
X142164938Y-110204586D01*
X142164936Y-110204596D01*
X142144341Y-110439999D01*
X142144341Y-110440000D01*
X142164936Y-110675403D01*
X142164938Y-110675413D01*
X142226094Y-110903655D01*
X142226096Y-110903659D01*
X142226097Y-110903663D01*
X142312174Y-111088256D01*
X142325965Y-111117830D01*
X142325967Y-111117834D01*
X142461501Y-111311395D01*
X142461506Y-111311402D01*
X142628597Y-111478493D01*
X142628603Y-111478498D01*
X142814158Y-111608425D01*
X142857783Y-111663002D01*
X142864977Y-111732500D01*
X142833454Y-111794855D01*
X142814158Y-111811575D01*
X142628597Y-111941505D01*
X142461505Y-112108597D01*
X142325965Y-112302169D01*
X142325964Y-112302171D01*
X142226098Y-112516335D01*
X142226094Y-112516344D01*
X142164938Y-112744586D01*
X142164936Y-112744596D01*
X142144341Y-112979999D01*
X142144341Y-112980000D01*
X142164936Y-113215403D01*
X142164938Y-113215413D01*
X142226094Y-113443655D01*
X142226096Y-113443659D01*
X142226097Y-113443663D01*
X142275683Y-113550000D01*
X142325965Y-113657830D01*
X142325967Y-113657834D01*
X142461501Y-113851395D01*
X142461506Y-113851402D01*
X142628597Y-114018493D01*
X142628603Y-114018498D01*
X142814158Y-114148425D01*
X142857783Y-114203002D01*
X142864977Y-114272500D01*
X142833454Y-114334855D01*
X142814158Y-114351575D01*
X142628597Y-114481505D01*
X142461505Y-114648597D01*
X142325965Y-114842169D01*
X142325964Y-114842171D01*
X142226098Y-115056335D01*
X142226094Y-115056344D01*
X142164938Y-115284586D01*
X142164936Y-115284596D01*
X142144341Y-115519999D01*
X142144341Y-115520000D01*
X142164936Y-115755403D01*
X142164938Y-115755413D01*
X142226094Y-115983655D01*
X142226096Y-115983659D01*
X142226097Y-115983663D01*
X142266742Y-116070826D01*
X142325965Y-116197830D01*
X142325967Y-116197834D01*
X142461501Y-116391395D01*
X142461506Y-116391402D01*
X142628597Y-116558493D01*
X142628603Y-116558498D01*
X142814158Y-116688425D01*
X142857783Y-116743002D01*
X142864977Y-116812500D01*
X142833454Y-116874855D01*
X142814158Y-116891575D01*
X142628597Y-117021505D01*
X142461505Y-117188597D01*
X142325965Y-117382169D01*
X142325964Y-117382171D01*
X142226098Y-117596335D01*
X142226094Y-117596344D01*
X142164938Y-117824586D01*
X142164936Y-117824596D01*
X142144341Y-118059999D01*
X142144341Y-118060000D01*
X142164936Y-118295403D01*
X142164938Y-118295413D01*
X142226094Y-118523655D01*
X142226096Y-118523659D01*
X142226097Y-118523663D01*
X142254302Y-118584148D01*
X142325965Y-118737830D01*
X142325967Y-118737834D01*
X142461501Y-118931395D01*
X142461506Y-118931402D01*
X142628597Y-119098493D01*
X142628603Y-119098498D01*
X142814158Y-119228425D01*
X142857783Y-119283002D01*
X142864977Y-119352500D01*
X142833454Y-119414855D01*
X142814158Y-119431575D01*
X142628597Y-119561505D01*
X142461505Y-119728597D01*
X142325965Y-119922169D01*
X142325964Y-119922171D01*
X142226098Y-120136335D01*
X142226094Y-120136344D01*
X142164938Y-120364586D01*
X142164936Y-120364596D01*
X142144341Y-120599999D01*
X142144341Y-120600000D01*
X142164936Y-120835403D01*
X142164938Y-120835413D01*
X142226094Y-121063655D01*
X142226096Y-121063659D01*
X142226097Y-121063663D01*
X142289672Y-121200000D01*
X142325965Y-121277830D01*
X142325967Y-121277834D01*
X142461501Y-121471395D01*
X142461506Y-121471402D01*
X142628597Y-121638493D01*
X142628603Y-121638498D01*
X142814158Y-121768425D01*
X142857783Y-121823002D01*
X142864977Y-121892500D01*
X142833454Y-121954855D01*
X142814158Y-121971575D01*
X142628597Y-122101505D01*
X142461505Y-122268597D01*
X142325965Y-122462169D01*
X142325964Y-122462171D01*
X142226098Y-122676335D01*
X142226094Y-122676344D01*
X142164938Y-122904586D01*
X142164936Y-122904596D01*
X142144341Y-123139999D01*
X142144341Y-123140000D01*
X135835484Y-123140000D01*
X135932533Y-123032216D01*
X136027179Y-122868284D01*
X136085674Y-122688256D01*
X136105460Y-122500000D01*
X136085674Y-122311744D01*
X136027179Y-122131716D01*
X135932533Y-121967784D01*
X135805871Y-121827112D01*
X135800214Y-121823002D01*
X135652734Y-121715851D01*
X135652729Y-121715848D01*
X135479807Y-121638857D01*
X135479802Y-121638855D01*
X135334001Y-121607865D01*
X135294646Y-121599500D01*
X135105354Y-121599500D01*
X135072897Y-121606398D01*
X134920197Y-121638855D01*
X134920192Y-121638857D01*
X134747270Y-121715848D01*
X134747265Y-121715851D01*
X134594129Y-121827111D01*
X134467466Y-121967785D01*
X134372821Y-122131715D01*
X134372818Y-122131722D01*
X134314327Y-122311740D01*
X134314326Y-122311744D01*
X134294540Y-122500000D01*
X132581858Y-122500000D01*
X132527179Y-122331716D01*
X132432533Y-122167784D01*
X132305871Y-122027112D01*
X132305870Y-122027111D01*
X132152734Y-121915851D01*
X132152729Y-121915848D01*
X131979807Y-121838857D01*
X131979802Y-121838855D01*
X131834001Y-121807865D01*
X131794646Y-121799500D01*
X131605354Y-121799500D01*
X131572897Y-121806398D01*
X131420197Y-121838855D01*
X131420192Y-121838857D01*
X131247270Y-121915848D01*
X131247265Y-121915851D01*
X131094129Y-122027111D01*
X130967466Y-122167785D01*
X130872821Y-122331715D01*
X130872818Y-122331722D01*
X130830433Y-122462171D01*
X130814326Y-122511744D01*
X130794540Y-122700000D01*
X127000243Y-122700000D01*
X126993905Y-122676344D01*
X126993904Y-122676343D01*
X126993903Y-122676337D01*
X126894035Y-122462171D01*
X126802690Y-122331715D01*
X126758494Y-122268597D01*
X126591402Y-122101506D01*
X126591396Y-122101501D01*
X126405842Y-121971575D01*
X126362217Y-121916998D01*
X126355023Y-121847500D01*
X126386546Y-121785145D01*
X126405842Y-121768425D01*
X126457554Y-121732216D01*
X126591401Y-121638495D01*
X126758495Y-121471401D01*
X126894035Y-121277830D01*
X126930328Y-121200000D01*
X128394540Y-121200000D01*
X128414326Y-121388256D01*
X128414327Y-121388259D01*
X128472818Y-121568277D01*
X128472821Y-121568284D01*
X128567467Y-121732216D01*
X128691529Y-121870000D01*
X128694129Y-121872888D01*
X128847265Y-121984148D01*
X128847270Y-121984151D01*
X129020192Y-122061142D01*
X129020197Y-122061144D01*
X129205354Y-122100500D01*
X129205355Y-122100500D01*
X129394644Y-122100500D01*
X129394646Y-122100500D01*
X129579803Y-122061144D01*
X129752730Y-121984151D01*
X129905871Y-121872888D01*
X130032533Y-121732216D01*
X130127179Y-121568284D01*
X130185674Y-121388256D01*
X130205460Y-121200000D01*
X130185674Y-121011744D01*
X130127179Y-120831716D01*
X130032533Y-120667784D01*
X129905871Y-120527112D01*
X129905870Y-120527111D01*
X129752734Y-120415851D01*
X129752729Y-120415848D01*
X129579807Y-120338857D01*
X129579802Y-120338855D01*
X129434001Y-120307865D01*
X129394646Y-120299500D01*
X129205354Y-120299500D01*
X129172897Y-120306398D01*
X129020197Y-120338855D01*
X129020192Y-120338857D01*
X128847270Y-120415848D01*
X128847265Y-120415851D01*
X128694129Y-120527111D01*
X128567466Y-120667785D01*
X128472821Y-120831715D01*
X128472818Y-120831722D01*
X128414327Y-121011740D01*
X128414326Y-121011744D01*
X128394540Y-121200000D01*
X126930328Y-121200000D01*
X126993903Y-121063663D01*
X127055063Y-120835408D01*
X127075659Y-120600000D01*
X127055063Y-120364592D01*
X127008626Y-120191285D01*
X126993905Y-120136344D01*
X126993904Y-120136343D01*
X126993903Y-120136337D01*
X126894035Y-119922171D01*
X126826895Y-119826284D01*
X126758494Y-119728597D01*
X126591402Y-119561506D01*
X126591396Y-119561501D01*
X126405842Y-119431575D01*
X126362217Y-119376998D01*
X126355023Y-119307500D01*
X126386546Y-119245145D01*
X126405842Y-119228425D01*
X126580951Y-119105812D01*
X126591401Y-119098495D01*
X126758495Y-118931401D01*
X126894035Y-118737830D01*
X126993903Y-118523663D01*
X127055063Y-118295408D01*
X127075659Y-118060000D01*
X127055063Y-117824592D01*
X127048474Y-117800000D01*
X131794540Y-117800000D01*
X131814326Y-117988256D01*
X131814327Y-117988259D01*
X131872818Y-118168277D01*
X131872821Y-118168284D01*
X131967467Y-118332216D01*
X132076261Y-118453044D01*
X132094129Y-118472888D01*
X132247265Y-118584148D01*
X132247270Y-118584151D01*
X132420192Y-118661142D01*
X132420197Y-118661144D01*
X132605354Y-118700500D01*
X132682942Y-118700500D01*
X132749981Y-118720185D01*
X132795736Y-118772989D01*
X132806263Y-118811539D01*
X132814325Y-118888254D01*
X132872818Y-119068277D01*
X132872821Y-119068284D01*
X132967467Y-119232216D01*
X133075772Y-119352500D01*
X133094129Y-119372888D01*
X133247265Y-119484148D01*
X133247270Y-119484151D01*
X133420192Y-119561142D01*
X133420197Y-119561144D01*
X133605354Y-119600500D01*
X133605355Y-119600500D01*
X133794644Y-119600500D01*
X133794646Y-119600500D01*
X133979803Y-119561144D01*
X134152730Y-119484151D01*
X134305871Y-119372888D01*
X134432533Y-119232216D01*
X134527179Y-119068284D01*
X134585674Y-118888256D01*
X134605460Y-118700000D01*
X134585674Y-118511744D01*
X134539301Y-118369026D01*
X134537307Y-118299187D01*
X134573387Y-118239354D01*
X134631452Y-118209420D01*
X134719351Y-118190737D01*
X134822272Y-118144912D01*
X134891521Y-118135628D01*
X134954798Y-118165256D01*
X134992012Y-118224390D01*
X134996029Y-118271151D01*
X134993564Y-118294609D01*
X135013350Y-118482865D01*
X135013351Y-118482868D01*
X135071845Y-118662894D01*
X135116566Y-118740354D01*
X135133039Y-118808255D01*
X135116567Y-118864352D01*
X135081101Y-118925781D01*
X135081100Y-118925785D01*
X135024984Y-119098493D01*
X135022606Y-119105812D01*
X135002820Y-119294068D01*
X135022606Y-119482324D01*
X135022607Y-119482327D01*
X135081098Y-119662345D01*
X135081101Y-119662352D01*
X135175747Y-119826284D01*
X135302409Y-119966956D01*
X135455545Y-120078216D01*
X135455550Y-120078219D01*
X135628472Y-120155210D01*
X135628477Y-120155212D01*
X135813634Y-120194568D01*
X135813635Y-120194568D01*
X136002924Y-120194568D01*
X136002926Y-120194568D01*
X136188083Y-120155212D01*
X136361010Y-120078219D01*
X136514151Y-119966956D01*
X136640813Y-119826284D01*
X136735459Y-119662352D01*
X136793954Y-119482324D01*
X136813740Y-119294068D01*
X136793954Y-119105812D01*
X136735459Y-118925784D01*
X136690735Y-118848320D01*
X136674263Y-118780422D01*
X136690734Y-118724325D01*
X136726203Y-118662893D01*
X136784698Y-118482865D01*
X136804484Y-118294609D01*
X136784698Y-118106353D01*
X136726203Y-117926325D01*
X136631557Y-117762393D01*
X136504895Y-117621721D01*
X136491163Y-117611744D01*
X136351758Y-117510460D01*
X136351753Y-117510457D01*
X136178831Y-117433466D01*
X136178826Y-117433464D01*
X136033025Y-117402474D01*
X135993670Y-117394109D01*
X135804378Y-117394109D01*
X135771921Y-117401007D01*
X135619221Y-117433464D01*
X135516298Y-117479289D01*
X135447048Y-117488573D01*
X135383772Y-117458945D01*
X135346559Y-117399809D01*
X135342542Y-117353051D01*
X135345008Y-117329593D01*
X135325222Y-117141337D01*
X135266727Y-116961309D01*
X135194956Y-116836998D01*
X135172083Y-116797380D01*
X135172082Y-116797379D01*
X135172081Y-116797377D01*
X135136148Y-116757470D01*
X135105920Y-116694481D01*
X135114545Y-116625146D01*
X135159286Y-116571480D01*
X135225939Y-116550522D01*
X135228300Y-116550500D01*
X135294644Y-116550500D01*
X135294646Y-116550500D01*
X135479803Y-116511144D01*
X135652730Y-116434151D01*
X135726165Y-116380796D01*
X135791968Y-116357317D01*
X135849483Y-116367835D01*
X135945631Y-116410644D01*
X136130788Y-116450000D01*
X136130789Y-116450000D01*
X136320078Y-116450000D01*
X136320080Y-116450000D01*
X136463648Y-116419484D01*
X136511594Y-116409293D01*
X136511854Y-116410518D01*
X136574858Y-116408709D01*
X136634696Y-116444781D01*
X136650739Y-116466640D01*
X136717465Y-116582214D01*
X136844129Y-116722888D01*
X136997265Y-116834148D01*
X136997270Y-116834151D01*
X137170192Y-116911142D01*
X137170197Y-116911144D01*
X137355354Y-116950500D01*
X137355355Y-116950500D01*
X137544644Y-116950500D01*
X137544646Y-116950500D01*
X137729803Y-116911144D01*
X137729806Y-116911142D01*
X137732853Y-116910495D01*
X137802520Y-116915811D01*
X137850784Y-116948813D01*
X137853382Y-116951698D01*
X137853383Y-116951700D01*
X137916236Y-117021505D01*
X137980045Y-117092372D01*
X138133181Y-117203632D01*
X138133186Y-117203635D01*
X138306108Y-117280626D01*
X138306113Y-117280628D01*
X138491270Y-117319984D01*
X138491271Y-117319984D01*
X138680560Y-117319984D01*
X138680562Y-117319984D01*
X138865719Y-117280628D01*
X139038646Y-117203635D01*
X139191787Y-117092372D01*
X139318449Y-116951700D01*
X139413095Y-116787768D01*
X139471590Y-116607740D01*
X139491376Y-116419484D01*
X139471590Y-116231228D01*
X139413095Y-116051200D01*
X139318449Y-115887268D01*
X139191787Y-115746596D01*
X139191786Y-115746595D01*
X139038650Y-115635335D01*
X139038645Y-115635332D01*
X138865723Y-115558341D01*
X138865718Y-115558339D01*
X138719917Y-115527349D01*
X138680562Y-115518984D01*
X138491270Y-115518984D01*
X138491269Y-115518984D01*
X138303061Y-115558988D01*
X138233394Y-115553672D01*
X138185131Y-115520670D01*
X138182534Y-115517785D01*
X138182533Y-115517784D01*
X138055871Y-115377112D01*
X138049010Y-115372127D01*
X137902734Y-115265851D01*
X137902729Y-115265848D01*
X137729807Y-115188857D01*
X137729802Y-115188855D01*
X137584001Y-115157865D01*
X137544646Y-115149500D01*
X137355354Y-115149500D01*
X137201436Y-115182216D01*
X137163841Y-115190207D01*
X137163581Y-115188987D01*
X137100545Y-115190782D01*
X137040716Y-115154695D01*
X137024694Y-115132859D01*
X136957967Y-115017284D01*
X136831305Y-114876612D01*
X136783901Y-114842171D01*
X136678168Y-114765351D01*
X136678163Y-114765348D01*
X136505241Y-114688357D01*
X136505236Y-114688355D01*
X136359435Y-114657365D01*
X136320080Y-114649000D01*
X136130788Y-114649000D01*
X136098331Y-114655898D01*
X135945631Y-114688355D01*
X135875485Y-114719587D01*
X135806235Y-114728871D01*
X135742959Y-114699243D01*
X135705746Y-114640108D01*
X135701731Y-114619279D01*
X135689277Y-114500787D01*
X135701847Y-114432060D01*
X135749579Y-114381037D01*
X135812598Y-114363829D01*
X135844644Y-114363829D01*
X135844646Y-114363829D01*
X136029803Y-114324473D01*
X136202730Y-114247480D01*
X136355871Y-114136217D01*
X136482533Y-113995545D01*
X136577179Y-113831613D01*
X136635674Y-113651585D01*
X136646351Y-113550000D01*
X139694540Y-113550000D01*
X139714326Y-113738256D01*
X139714327Y-113738259D01*
X139772818Y-113918277D01*
X139772821Y-113918284D01*
X139867467Y-114082216D01*
X139942137Y-114165145D01*
X139994129Y-114222888D01*
X140147265Y-114334148D01*
X140147270Y-114334151D01*
X140320192Y-114411142D01*
X140320197Y-114411144D01*
X140505354Y-114450500D01*
X140505355Y-114450500D01*
X140694644Y-114450500D01*
X140694646Y-114450500D01*
X140879803Y-114411144D01*
X141052730Y-114334151D01*
X141205871Y-114222888D01*
X141332533Y-114082216D01*
X141427179Y-113918284D01*
X141485674Y-113738256D01*
X141505460Y-113550000D01*
X141485674Y-113361744D01*
X141427179Y-113181716D01*
X141332533Y-113017784D01*
X141205871Y-112877112D01*
X141190266Y-112865774D01*
X141052734Y-112765851D01*
X141052729Y-112765848D01*
X140879807Y-112688857D01*
X140879802Y-112688855D01*
X140734001Y-112657865D01*
X140694646Y-112649500D01*
X140505354Y-112649500D01*
X140472897Y-112656398D01*
X140320197Y-112688855D01*
X140320192Y-112688857D01*
X140147270Y-112765848D01*
X140147265Y-112765851D01*
X139994129Y-112877111D01*
X139867466Y-113017785D01*
X139772821Y-113181715D01*
X139772818Y-113181722D01*
X139722427Y-113336811D01*
X139714326Y-113361744D01*
X139694540Y-113550000D01*
X136646351Y-113550000D01*
X136655460Y-113463329D01*
X136635674Y-113275073D01*
X136577179Y-113095045D01*
X136482533Y-112931113D01*
X136355871Y-112790441D01*
X136292771Y-112744596D01*
X136202734Y-112679180D01*
X136202729Y-112679177D01*
X136029807Y-112602186D01*
X136029802Y-112602184D01*
X135884001Y-112571194D01*
X135844646Y-112562829D01*
X135655354Y-112562829D01*
X135622897Y-112569727D01*
X135470197Y-112602184D01*
X135470192Y-112602186D01*
X135297270Y-112679177D01*
X135297265Y-112679180D01*
X135144129Y-112790440D01*
X135017466Y-112931114D01*
X134922821Y-113095044D01*
X134922818Y-113095051D01*
X134864327Y-113275069D01*
X134864326Y-113275073D01*
X134844540Y-113463329D01*
X134860222Y-113612541D01*
X134847654Y-113681268D01*
X134799922Y-113732292D01*
X134736902Y-113749500D01*
X134704854Y-113749500D01*
X134672397Y-113756398D01*
X134519697Y-113788855D01*
X134519692Y-113788857D01*
X134346770Y-113865848D01*
X134346765Y-113865851D01*
X134193629Y-113977111D01*
X134066966Y-114117785D01*
X133972321Y-114281715D01*
X133972318Y-114281722D01*
X133930267Y-114411144D01*
X133913826Y-114461744D01*
X133894040Y-114650000D01*
X133913826Y-114838256D01*
X133913827Y-114838259D01*
X133972318Y-115018277D01*
X133972321Y-115018284D01*
X134066967Y-115182216D01*
X134079989Y-115196678D01*
X134193629Y-115322888D01*
X134193633Y-115322892D01*
X134261401Y-115372127D01*
X134304068Y-115427457D01*
X134311838Y-115485406D01*
X134296081Y-115635335D01*
X134294540Y-115650000D01*
X134314326Y-115838256D01*
X134314327Y-115838259D01*
X134372818Y-116018277D01*
X134372821Y-116018284D01*
X134403157Y-116070828D01*
X134425351Y-116109268D01*
X134441824Y-116177168D01*
X134418971Y-116243195D01*
X134364050Y-116286386D01*
X134294497Y-116293027D01*
X134232394Y-116261011D01*
X134225815Y-116254241D01*
X134160848Y-116182089D01*
X134160847Y-116182088D01*
X134007711Y-116070828D01*
X134007706Y-116070825D01*
X133834784Y-115993834D01*
X133834779Y-115993832D01*
X133688978Y-115962842D01*
X133649623Y-115954477D01*
X133460331Y-115954477D01*
X133427874Y-115961375D01*
X133275174Y-115993832D01*
X133275169Y-115993834D01*
X133102247Y-116070825D01*
X133102242Y-116070828D01*
X132949106Y-116182088D01*
X132822443Y-116322762D01*
X132727798Y-116486692D01*
X132727795Y-116486699D01*
X132672557Y-116656705D01*
X132669303Y-116666721D01*
X132665265Y-116705145D01*
X132655156Y-116801318D01*
X132628571Y-116865933D01*
X132571273Y-116905917D01*
X132557616Y-116909646D01*
X132420197Y-116938855D01*
X132420192Y-116938857D01*
X132247270Y-117015848D01*
X132247265Y-117015851D01*
X132094129Y-117127111D01*
X131967466Y-117267785D01*
X131872821Y-117431715D01*
X131872818Y-117431722D01*
X131814327Y-117611740D01*
X131814326Y-117611744D01*
X131794540Y-117800000D01*
X127048474Y-117800000D01*
X126993903Y-117596337D01*
X126894035Y-117382171D01*
X126859057Y-117332216D01*
X126758494Y-117188597D01*
X126591402Y-117021506D01*
X126591396Y-117021501D01*
X126405842Y-116891575D01*
X126362217Y-116836998D01*
X126355023Y-116767500D01*
X126386546Y-116705145D01*
X126405842Y-116688425D01*
X126451143Y-116656705D01*
X126591401Y-116558495D01*
X126758495Y-116391401D01*
X126894035Y-116197830D01*
X126993903Y-115983663D01*
X127055063Y-115755408D01*
X127075659Y-115520000D01*
X127055063Y-115284592D01*
X126993903Y-115056337D01*
X126894035Y-114842171D01*
X126840246Y-114765351D01*
X126758494Y-114648597D01*
X126591402Y-114481506D01*
X126591396Y-114481501D01*
X126405842Y-114351575D01*
X126362217Y-114296998D01*
X126355023Y-114227500D01*
X126386546Y-114165145D01*
X126405842Y-114148425D01*
X126500401Y-114082214D01*
X126591401Y-114018495D01*
X126758495Y-113851401D01*
X126894035Y-113657830D01*
X126993903Y-113443663D01*
X127055063Y-113215408D01*
X127075659Y-112980000D01*
X127072798Y-112947305D01*
X127056923Y-112765851D01*
X127055063Y-112744592D01*
X126993903Y-112516337D01*
X126894035Y-112302171D01*
X126758495Y-112108599D01*
X126758494Y-112108597D01*
X126591402Y-111941506D01*
X126591396Y-111941501D01*
X126405842Y-111811575D01*
X126362217Y-111756998D01*
X126355023Y-111687500D01*
X126386546Y-111625145D01*
X126405842Y-111608425D01*
X126456594Y-111572888D01*
X126591401Y-111478495D01*
X126758495Y-111311401D01*
X126894035Y-111117830D01*
X126993903Y-110903663D01*
X127055063Y-110675408D01*
X127070410Y-110500000D01*
X131344540Y-110500000D01*
X131364326Y-110688256D01*
X131364327Y-110688259D01*
X131422818Y-110868277D01*
X131422821Y-110868284D01*
X131517467Y-111032216D01*
X131594558Y-111117834D01*
X131644129Y-111172888D01*
X131797265Y-111284148D01*
X131797270Y-111284151D01*
X131970192Y-111361142D01*
X131970197Y-111361144D01*
X132155354Y-111400500D01*
X132155355Y-111400500D01*
X132344644Y-111400500D01*
X132344646Y-111400500D01*
X132529803Y-111361144D01*
X132702730Y-111284151D01*
X132855871Y-111172888D01*
X132982533Y-111032216D01*
X133058868Y-110900000D01*
X134994540Y-110900000D01*
X135014326Y-111088256D01*
X135014327Y-111088259D01*
X135072818Y-111268277D01*
X135072821Y-111268284D01*
X135167467Y-111432216D01*
X135209137Y-111478495D01*
X135294129Y-111572888D01*
X135447265Y-111684148D01*
X135447270Y-111684151D01*
X135620192Y-111761142D01*
X135620197Y-111761144D01*
X135805354Y-111800500D01*
X135805355Y-111800500D01*
X135994644Y-111800500D01*
X135994646Y-111800500D01*
X136179803Y-111761144D01*
X136352730Y-111684151D01*
X136505871Y-111572888D01*
X136632533Y-111432216D01*
X136727179Y-111268284D01*
X136785674Y-111088256D01*
X136805460Y-110900000D01*
X136785674Y-110711744D01*
X136727179Y-110531716D01*
X136632533Y-110367784D01*
X136505871Y-110227112D01*
X136505870Y-110227111D01*
X136352734Y-110115851D01*
X136352729Y-110115848D01*
X136179807Y-110038857D01*
X136179802Y-110038855D01*
X136034001Y-110007865D01*
X135994646Y-109999500D01*
X135805354Y-109999500D01*
X135772897Y-110006398D01*
X135620197Y-110038855D01*
X135620192Y-110038857D01*
X135447270Y-110115848D01*
X135447265Y-110115851D01*
X135294129Y-110227111D01*
X135167466Y-110367785D01*
X135072821Y-110531715D01*
X135072818Y-110531722D01*
X135014327Y-110711740D01*
X135014326Y-110711744D01*
X134994540Y-110900000D01*
X133058868Y-110900000D01*
X133077179Y-110868284D01*
X133135674Y-110688256D01*
X133155460Y-110500000D01*
X133135674Y-110311744D01*
X133081112Y-110143823D01*
X133077181Y-110131722D01*
X133077180Y-110131721D01*
X133077179Y-110131716D01*
X132982533Y-109967784D01*
X132855871Y-109827112D01*
X132855870Y-109827111D01*
X132702734Y-109715851D01*
X132702729Y-109715848D01*
X132529807Y-109638857D01*
X132529802Y-109638855D01*
X132384001Y-109607865D01*
X132344646Y-109599500D01*
X132155354Y-109599500D01*
X132122897Y-109606398D01*
X131970197Y-109638855D01*
X131970192Y-109638857D01*
X131797270Y-109715848D01*
X131797265Y-109715851D01*
X131644129Y-109827111D01*
X131517466Y-109967785D01*
X131422821Y-110131715D01*
X131422818Y-110131722D01*
X131376951Y-110272888D01*
X131364326Y-110311744D01*
X131344540Y-110500000D01*
X127070410Y-110500000D01*
X127075659Y-110440000D01*
X127055063Y-110204592D01*
X127008626Y-110031285D01*
X126993905Y-109976344D01*
X126993904Y-109976343D01*
X126993903Y-109976337D01*
X126894035Y-109762171D01*
X126861601Y-109715849D01*
X126758494Y-109568597D01*
X126591402Y-109401506D01*
X126591401Y-109401505D01*
X126405405Y-109271269D01*
X126361781Y-109216692D01*
X126354588Y-109147193D01*
X126386110Y-109084839D01*
X126405405Y-109068119D01*
X126591082Y-108938105D01*
X126758105Y-108771082D01*
X126893600Y-108577578D01*
X126993429Y-108363492D01*
X126993432Y-108363486D01*
X127050636Y-108150000D01*
X136044355Y-108150000D01*
X136064859Y-108318869D01*
X136064860Y-108318874D01*
X136125182Y-108477931D01*
X136187475Y-108568177D01*
X136221817Y-108617929D01*
X136313892Y-108699500D01*
X136349150Y-108730736D01*
X136499773Y-108809789D01*
X136499775Y-108809790D01*
X136664944Y-108850500D01*
X136835056Y-108850500D01*
X137000225Y-108809790D01*
X137079692Y-108768081D01*
X137150849Y-108730736D01*
X137150850Y-108730734D01*
X137150852Y-108730734D01*
X137278183Y-108617929D01*
X137374818Y-108477930D01*
X137435140Y-108318872D01*
X137455645Y-108150000D01*
X137435140Y-107981128D01*
X137374818Y-107822070D01*
X137278183Y-107682071D01*
X137150852Y-107569266D01*
X137150849Y-107569263D01*
X137000226Y-107490210D01*
X136835056Y-107449500D01*
X136664944Y-107449500D01*
X136499773Y-107490210D01*
X136349150Y-107569263D01*
X136221816Y-107682072D01*
X136125182Y-107822068D01*
X136064860Y-107981125D01*
X136064859Y-107981130D01*
X136044355Y-108150000D01*
X127050636Y-108150000D01*
X126153686Y-108150000D01*
X126179493Y-108109844D01*
X126220000Y-107971889D01*
X126220000Y-107828111D01*
X126179493Y-107690156D01*
X126153686Y-107650000D01*
X127050636Y-107650000D01*
X127050635Y-107649999D01*
X126993432Y-107436513D01*
X126993429Y-107436507D01*
X126893600Y-107222422D01*
X126893599Y-107222420D01*
X126758113Y-107028926D01*
X126758108Y-107028920D01*
X126591082Y-106861894D01*
X126404968Y-106731575D01*
X126361344Y-106676998D01*
X126354151Y-106607499D01*
X126385673Y-106545145D01*
X126404968Y-106528425D01*
X126591082Y-106398105D01*
X126758105Y-106231082D01*
X126893600Y-106037578D01*
X126957753Y-105900000D01*
X132594355Y-105900000D01*
X132614859Y-106068869D01*
X132614860Y-106068874D01*
X132675182Y-106227931D01*
X132737475Y-106318177D01*
X132771817Y-106367929D01*
X132877505Y-106461560D01*
X132899150Y-106480736D01*
X133049773Y-106559789D01*
X133049775Y-106559790D01*
X133214944Y-106600500D01*
X133385056Y-106600500D01*
X133550225Y-106559790D01*
X133629692Y-106518081D01*
X133700849Y-106480736D01*
X133700850Y-106480734D01*
X133700852Y-106480734D01*
X133828183Y-106367929D01*
X133924818Y-106227930D01*
X133985140Y-106068872D01*
X134005645Y-105900000D01*
X133985140Y-105731128D01*
X133924818Y-105572070D01*
X133923281Y-105569844D01*
X133890476Y-105522318D01*
X133828183Y-105432071D01*
X133700852Y-105319266D01*
X133700849Y-105319263D01*
X133550226Y-105240210D01*
X133385056Y-105199500D01*
X133214944Y-105199500D01*
X133049773Y-105240210D01*
X132899150Y-105319263D01*
X132782638Y-105422484D01*
X132772023Y-105431889D01*
X132771816Y-105432072D01*
X132675182Y-105572068D01*
X132614860Y-105731125D01*
X132614859Y-105731130D01*
X132594355Y-105900000D01*
X126957753Y-105900000D01*
X126993429Y-105823492D01*
X126993432Y-105823486D01*
X127050636Y-105610000D01*
X126153686Y-105610000D01*
X126179493Y-105569844D01*
X126220000Y-105431889D01*
X126220000Y-105288111D01*
X126179493Y-105150156D01*
X126153686Y-105110000D01*
X127050636Y-105110000D01*
X127050635Y-105109999D01*
X126993432Y-104896513D01*
X126993429Y-104896507D01*
X126893600Y-104682422D01*
X126893599Y-104682420D01*
X126758113Y-104488926D01*
X126758108Y-104488920D01*
X126636053Y-104366865D01*
X126602568Y-104305542D01*
X126607552Y-104235850D01*
X126649424Y-104179917D01*
X126680400Y-104163002D01*
X126812331Y-104113796D01*
X126927546Y-104027546D01*
X127013796Y-103912331D01*
X127064091Y-103777483D01*
X127070500Y-103717873D01*
X127070500Y-102980000D01*
X136704540Y-102980000D01*
X136724326Y-103168256D01*
X136724327Y-103168259D01*
X136782818Y-103348277D01*
X136782821Y-103348284D01*
X136877467Y-103512216D01*
X136980135Y-103626240D01*
X137004129Y-103652888D01*
X137157265Y-103764148D01*
X137157270Y-103764151D01*
X137330192Y-103841142D01*
X137330197Y-103841144D01*
X137515354Y-103880500D01*
X137515355Y-103880500D01*
X137704644Y-103880500D01*
X137704646Y-103880500D01*
X137889803Y-103841144D01*
X138062730Y-103764151D01*
X138215871Y-103652888D01*
X138342533Y-103512216D01*
X138437179Y-103348284D01*
X138495674Y-103168256D01*
X138515460Y-102980000D01*
X138495674Y-102791744D01*
X138437179Y-102611716D01*
X138342533Y-102447784D01*
X138215871Y-102307112D01*
X138173451Y-102276292D01*
X138062734Y-102195851D01*
X138062729Y-102195848D01*
X137889807Y-102118857D01*
X137889802Y-102118855D01*
X137744001Y-102087865D01*
X137704646Y-102079500D01*
X137515354Y-102079500D01*
X137482897Y-102086398D01*
X137330197Y-102118855D01*
X137330192Y-102118857D01*
X137157270Y-102195848D01*
X137157265Y-102195851D01*
X137004129Y-102307111D01*
X136877466Y-102447785D01*
X136782821Y-102611715D01*
X136782818Y-102611722D01*
X136731012Y-102771167D01*
X136724326Y-102791744D01*
X136704540Y-102980000D01*
X127070500Y-102980000D01*
X127070499Y-101922128D01*
X127064091Y-101862517D01*
X127052423Y-101831234D01*
X127013797Y-101727671D01*
X127013793Y-101727664D01*
X126927547Y-101612455D01*
X126927544Y-101612452D01*
X126812335Y-101526206D01*
X126812328Y-101526202D01*
X126677482Y-101475908D01*
X126677483Y-101475908D01*
X126617883Y-101469501D01*
X126617881Y-101469500D01*
X126617873Y-101469500D01*
X126617864Y-101469500D01*
X124822129Y-101469500D01*
X124822123Y-101469501D01*
X124762516Y-101475908D01*
X124627671Y-101526202D01*
X124627664Y-101526206D01*
X124512455Y-101612452D01*
X124512452Y-101612455D01*
X124426206Y-101727664D01*
X124426202Y-101727671D01*
X124375908Y-101862517D01*
X124369501Y-101922116D01*
X124369501Y-101922123D01*
X124369500Y-101922135D01*
X124369500Y-103717870D01*
X124369501Y-103717876D01*
X124375908Y-103777483D01*
X124426202Y-103912328D01*
X124426206Y-103912335D01*
X124512452Y-104027544D01*
X124512455Y-104027547D01*
X124627664Y-104113793D01*
X124627671Y-104113797D01*
X124627674Y-104113798D01*
X124759598Y-104163002D01*
X124815531Y-104204873D01*
X124839949Y-104270337D01*
X124825098Y-104338610D01*
X124803947Y-104366865D01*
X124681886Y-104488926D01*
X124546400Y-104682420D01*
X124546399Y-104682422D01*
X124446570Y-104896507D01*
X124446567Y-104896513D01*
X124389364Y-105109999D01*
X124389364Y-105110000D01*
X125286314Y-105110000D01*
X125260507Y-105150156D01*
X125220000Y-105288111D01*
X125220000Y-105431889D01*
X125260507Y-105569844D01*
X125286314Y-105610000D01*
X124389364Y-105610000D01*
X124446567Y-105823486D01*
X124446570Y-105823492D01*
X124546399Y-106037578D01*
X124681894Y-106231082D01*
X124848917Y-106398105D01*
X125035031Y-106528425D01*
X125078656Y-106583003D01*
X125085848Y-106652501D01*
X125054326Y-106714856D01*
X125035031Y-106731575D01*
X124848922Y-106861890D01*
X124848920Y-106861891D01*
X124681891Y-107028920D01*
X124681886Y-107028926D01*
X124546400Y-107222420D01*
X124546399Y-107222422D01*
X124446570Y-107436507D01*
X124446567Y-107436513D01*
X124389364Y-107649999D01*
X124389364Y-107650000D01*
X125286314Y-107650000D01*
X125260507Y-107690156D01*
X125220000Y-107828111D01*
X125220000Y-107971889D01*
X125260507Y-108109844D01*
X125286314Y-108150000D01*
X124389364Y-108150000D01*
X124446567Y-108363486D01*
X124446570Y-108363492D01*
X124546399Y-108577578D01*
X124681894Y-108771082D01*
X124848917Y-108938105D01*
X125034595Y-109068119D01*
X125078219Y-109122696D01*
X125085412Y-109192195D01*
X125053890Y-109254549D01*
X125034595Y-109271269D01*
X124848594Y-109401508D01*
X124681505Y-109568597D01*
X124545965Y-109762169D01*
X124545964Y-109762171D01*
X124446098Y-109976335D01*
X124446094Y-109976344D01*
X124384938Y-110204586D01*
X124384936Y-110204596D01*
X124364341Y-110439999D01*
X124364341Y-110440000D01*
X124384936Y-110675403D01*
X124384938Y-110675413D01*
X124446094Y-110903655D01*
X124446096Y-110903659D01*
X124446097Y-110903663D01*
X124532174Y-111088256D01*
X124545965Y-111117830D01*
X124545967Y-111117834D01*
X124681501Y-111311395D01*
X124681506Y-111311402D01*
X124848597Y-111478493D01*
X124848603Y-111478498D01*
X125034158Y-111608425D01*
X125077783Y-111663002D01*
X125084977Y-111732500D01*
X125053454Y-111794855D01*
X125034158Y-111811575D01*
X124848597Y-111941505D01*
X124681505Y-112108597D01*
X124545965Y-112302169D01*
X124545964Y-112302171D01*
X124446098Y-112516335D01*
X124446094Y-112516344D01*
X124384938Y-112744586D01*
X124384936Y-112744596D01*
X124364341Y-112979999D01*
X124364341Y-112980000D01*
X124384936Y-113215403D01*
X124384938Y-113215413D01*
X124446094Y-113443655D01*
X124446096Y-113443659D01*
X124446097Y-113443663D01*
X124495683Y-113550000D01*
X124545965Y-113657830D01*
X124545967Y-113657834D01*
X124681501Y-113851395D01*
X124681506Y-113851402D01*
X124848597Y-114018493D01*
X124848603Y-114018498D01*
X125034158Y-114148425D01*
X125077783Y-114203002D01*
X125084977Y-114272500D01*
X125053454Y-114334855D01*
X125034158Y-114351575D01*
X124848597Y-114481505D01*
X124681505Y-114648597D01*
X124545965Y-114842169D01*
X124545964Y-114842171D01*
X124446098Y-115056335D01*
X124446094Y-115056344D01*
X124384938Y-115284586D01*
X124384936Y-115284596D01*
X124364341Y-115519999D01*
X124364341Y-115520000D01*
X124384936Y-115755403D01*
X124384938Y-115755413D01*
X124446094Y-115983655D01*
X124446096Y-115983659D01*
X124446097Y-115983663D01*
X124486742Y-116070826D01*
X124545965Y-116197830D01*
X124545967Y-116197834D01*
X124681501Y-116391395D01*
X124681506Y-116391402D01*
X124848597Y-116558493D01*
X124848603Y-116558498D01*
X125034158Y-116688425D01*
X125077783Y-116743002D01*
X125084977Y-116812500D01*
X125053454Y-116874855D01*
X125034158Y-116891575D01*
X124848597Y-117021505D01*
X124681505Y-117188597D01*
X124545965Y-117382169D01*
X124545964Y-117382171D01*
X124446098Y-117596335D01*
X124446094Y-117596344D01*
X124384938Y-117824586D01*
X124384936Y-117824596D01*
X124364341Y-118059999D01*
X124364341Y-118060000D01*
X124384936Y-118295403D01*
X124384938Y-118295413D01*
X124446094Y-118523655D01*
X124446096Y-118523659D01*
X124446097Y-118523663D01*
X124474302Y-118584148D01*
X124545965Y-118737830D01*
X124545967Y-118737834D01*
X124681501Y-118931395D01*
X124681506Y-118931402D01*
X124848597Y-119098493D01*
X124848603Y-119098498D01*
X125034158Y-119228425D01*
X125077783Y-119283002D01*
X125084977Y-119352500D01*
X125053454Y-119414855D01*
X125034158Y-119431575D01*
X124848597Y-119561505D01*
X124681505Y-119728597D01*
X124545965Y-119922169D01*
X124545964Y-119922171D01*
X124446098Y-120136335D01*
X124446094Y-120136344D01*
X124384938Y-120364586D01*
X124384936Y-120364596D01*
X124364341Y-120599999D01*
X124364341Y-120600000D01*
X124384936Y-120835403D01*
X124384938Y-120835413D01*
X124446094Y-121063655D01*
X124446096Y-121063659D01*
X124446097Y-121063663D01*
X124509672Y-121200000D01*
X124545965Y-121277830D01*
X124545967Y-121277834D01*
X124681501Y-121471395D01*
X124681506Y-121471402D01*
X124848597Y-121638493D01*
X124848603Y-121638498D01*
X125034158Y-121768425D01*
X125077783Y-121823002D01*
X125084977Y-121892500D01*
X125053454Y-121954855D01*
X125034158Y-121971575D01*
X124848597Y-122101505D01*
X124681505Y-122268597D01*
X124545965Y-122462169D01*
X124545964Y-122462171D01*
X124446098Y-122676335D01*
X124446094Y-122676344D01*
X124384938Y-122904586D01*
X124384936Y-122904596D01*
X124364341Y-123139999D01*
X124364341Y-123140000D01*
X124384936Y-123375403D01*
X124384938Y-123375413D01*
X124446094Y-123603655D01*
X124446096Y-123603659D01*
X124446097Y-123603663D01*
X124545965Y-123817830D01*
X124545967Y-123817834D01*
X124681501Y-124011395D01*
X124681506Y-124011402D01*
X124848597Y-124178493D01*
X124848603Y-124178498D01*
X125034158Y-124308425D01*
X125077783Y-124363002D01*
X125084977Y-124432500D01*
X125053454Y-124494855D01*
X125034158Y-124511575D01*
X124848597Y-124641505D01*
X124681505Y-124808597D01*
X124545965Y-125002169D01*
X124545964Y-125002171D01*
X124446098Y-125216335D01*
X124446094Y-125216344D01*
X124384938Y-125444586D01*
X124384936Y-125444596D01*
X124364341Y-125679999D01*
X124364341Y-125680000D01*
X117727512Y-125680000D01*
X117560542Y-124911176D01*
X117501803Y-124640709D01*
X117501778Y-124640644D01*
X116238276Y-118837712D01*
X116237741Y-118834947D01*
X115893042Y-116800000D01*
X120694540Y-116800000D01*
X120714326Y-116988256D01*
X120714327Y-116988259D01*
X120772818Y-117168277D01*
X120772821Y-117168284D01*
X120867467Y-117332216D01*
X120958632Y-117433465D01*
X120994129Y-117472888D01*
X121147265Y-117584148D01*
X121147270Y-117584151D01*
X121320192Y-117661142D01*
X121320197Y-117661144D01*
X121505354Y-117700500D01*
X121505355Y-117700500D01*
X121694644Y-117700500D01*
X121694646Y-117700500D01*
X121879803Y-117661144D01*
X122052730Y-117584151D01*
X122205871Y-117472888D01*
X122332533Y-117332216D01*
X122427179Y-117168284D01*
X122485674Y-116988256D01*
X122505460Y-116800000D01*
X122485674Y-116611744D01*
X122427179Y-116431716D01*
X122332533Y-116267784D01*
X122205871Y-116127112D01*
X122181311Y-116109268D01*
X122052734Y-116015851D01*
X122052729Y-116015848D01*
X121879807Y-115938857D01*
X121879802Y-115938855D01*
X121734001Y-115907865D01*
X121694646Y-115899500D01*
X121505354Y-115899500D01*
X121472897Y-115906398D01*
X121320197Y-115938855D01*
X121320192Y-115938857D01*
X121147270Y-116015848D01*
X121147265Y-116015851D01*
X120994129Y-116127111D01*
X120867466Y-116267785D01*
X120772821Y-116431715D01*
X120772818Y-116431722D01*
X120723921Y-116582214D01*
X120714326Y-116611744D01*
X120694540Y-116800000D01*
X115893042Y-116800000D01*
X115621448Y-115196627D01*
X115621022Y-115193666D01*
X115620609Y-115190207D01*
X115606436Y-115071383D01*
X115600319Y-115018284D01*
X115513990Y-114268964D01*
X115480907Y-113920415D01*
X115429265Y-113296573D01*
X115404579Y-112947236D01*
X115363821Y-112140442D01*
X115358038Y-112016057D01*
X115324131Y-108200000D01*
X120294540Y-108200000D01*
X120314326Y-108388256D01*
X120314327Y-108388259D01*
X120372818Y-108568277D01*
X120372821Y-108568284D01*
X120467467Y-108732216D01*
X120542770Y-108815848D01*
X120594129Y-108872888D01*
X120747265Y-108984148D01*
X120747270Y-108984151D01*
X120920192Y-109061142D01*
X120920197Y-109061144D01*
X121105354Y-109100500D01*
X121105355Y-109100500D01*
X121294644Y-109100500D01*
X121294646Y-109100500D01*
X121479803Y-109061144D01*
X121652730Y-108984151D01*
X121805871Y-108872888D01*
X121932533Y-108732216D01*
X122027179Y-108568284D01*
X122085674Y-108388256D01*
X122105460Y-108200000D01*
X122085674Y-108011744D01*
X122027179Y-107831716D01*
X121932533Y-107667784D01*
X121805871Y-107527112D01*
X121755080Y-107490210D01*
X121652734Y-107415851D01*
X121652729Y-107415848D01*
X121479807Y-107338857D01*
X121479802Y-107338855D01*
X121334001Y-107307865D01*
X121294646Y-107299500D01*
X121105354Y-107299500D01*
X121072897Y-107306398D01*
X120920197Y-107338855D01*
X120920192Y-107338857D01*
X120747270Y-107415848D01*
X120747265Y-107415851D01*
X120594129Y-107527111D01*
X120467466Y-107667785D01*
X120372821Y-107831715D01*
X120372818Y-107831722D01*
X120324273Y-107981130D01*
X120314326Y-108011744D01*
X120294540Y-108200000D01*
X115324131Y-108200000D01*
X115322899Y-108061294D01*
X115423014Y-104720000D01*
X120534540Y-104720000D01*
X120554326Y-104908256D01*
X120554327Y-104908259D01*
X120612818Y-105088277D01*
X120612821Y-105088284D01*
X120707467Y-105252216D01*
X120834129Y-105392888D01*
X120987265Y-105504148D01*
X120987270Y-105504151D01*
X121160192Y-105581142D01*
X121160197Y-105581144D01*
X121345354Y-105620500D01*
X121345355Y-105620500D01*
X121534644Y-105620500D01*
X121534646Y-105620500D01*
X121719803Y-105581144D01*
X121892730Y-105504151D01*
X122045871Y-105392888D01*
X122172533Y-105252216D01*
X122267179Y-105088284D01*
X122325674Y-104908256D01*
X122345460Y-104720000D01*
X122325674Y-104531744D01*
X122267179Y-104351716D01*
X122172533Y-104187784D01*
X122045871Y-104047112D01*
X122045870Y-104047111D01*
X121892734Y-103935851D01*
X121892729Y-103935848D01*
X121719807Y-103858857D01*
X121719802Y-103858855D01*
X121574001Y-103827865D01*
X121534646Y-103819500D01*
X121345354Y-103819500D01*
X121312897Y-103826398D01*
X121160197Y-103858855D01*
X121160192Y-103858857D01*
X120987270Y-103935848D01*
X120987265Y-103935851D01*
X120834129Y-104047111D01*
X120707466Y-104187785D01*
X120612821Y-104351715D01*
X120612818Y-104351722D01*
X120568344Y-104488600D01*
X120554326Y-104531744D01*
X120534540Y-104720000D01*
X115423014Y-104720000D01*
X115431360Y-104441460D01*
X115570884Y-102021427D01*
X115932868Y-102021427D01*
X115964354Y-102209230D01*
X115964358Y-102209244D01*
X116035475Y-102385877D01*
X116035481Y-102385887D01*
X116142917Y-102543119D01*
X116281634Y-102673573D01*
X116281638Y-102673577D01*
X116281642Y-102673580D01*
X116445169Y-102771167D01*
X116625852Y-102831321D01*
X117513644Y-102924631D01*
X117656331Y-102924116D01*
X117842162Y-102882507D01*
X118014705Y-102801923D01*
X118165889Y-102686132D01*
X118288647Y-102540547D01*
X118377240Y-102371976D01*
X118427523Y-102188302D01*
X118437146Y-101998113D01*
X118424407Y-101922128D01*
X118405659Y-101810303D01*
X118405658Y-101810300D01*
X118387445Y-101765065D01*
X119035047Y-101765065D01*
X119074402Y-101950222D01*
X119074404Y-101950227D01*
X119151394Y-102123148D01*
X119213937Y-102209230D01*
X119262660Y-102276291D01*
X119403332Y-102402952D01*
X119567264Y-102497599D01*
X119567266Y-102497600D01*
X119625863Y-102516638D01*
X119747293Y-102556093D01*
X119935548Y-102575879D01*
X120123804Y-102556093D01*
X120303832Y-102497597D01*
X120467764Y-102402951D01*
X120608436Y-102276289D01*
X120719699Y-102123148D01*
X120796691Y-101950221D01*
X120826181Y-101811479D01*
X120919669Y-100921995D01*
X120919669Y-100780154D01*
X120881375Y-100600000D01*
X126694540Y-100600000D01*
X126714326Y-100788256D01*
X126714327Y-100788259D01*
X126772818Y-100968277D01*
X126772821Y-100968284D01*
X126867467Y-101132216D01*
X126871801Y-101137029D01*
X126994129Y-101272888D01*
X127147265Y-101384148D01*
X127147270Y-101384151D01*
X127320192Y-101461142D01*
X127320197Y-101461144D01*
X127505354Y-101500500D01*
X127505355Y-101500500D01*
X127694644Y-101500500D01*
X127694646Y-101500500D01*
X127879803Y-101461144D01*
X128052730Y-101384151D01*
X128205871Y-101272888D01*
X128332533Y-101132216D01*
X128427179Y-100968284D01*
X128485674Y-100788256D01*
X128505460Y-100600000D01*
X128485674Y-100411744D01*
X128427179Y-100231716D01*
X128408868Y-100200000D01*
X130616186Y-100200000D01*
X130636601Y-100433346D01*
X130636603Y-100433356D01*
X130697225Y-100659603D01*
X130697227Y-100659607D01*
X130697228Y-100659611D01*
X130796223Y-100871907D01*
X130930579Y-101063787D01*
X131096213Y-101229421D01*
X131288093Y-101363777D01*
X131500389Y-101462772D01*
X131726649Y-101523398D01*
X131913329Y-101539730D01*
X131959999Y-101543814D01*
X131960000Y-101543814D01*
X131960001Y-101543814D01*
X131998891Y-101540411D01*
X132193351Y-101523398D01*
X132419611Y-101462772D01*
X132631907Y-101363777D01*
X132823787Y-101229421D01*
X132989421Y-101063787D01*
X133123777Y-100871907D01*
X133123777Y-100871905D01*
X133126882Y-100867472D01*
X133128323Y-100868481D01*
X133173172Y-100825712D01*
X133241778Y-100812484D01*
X133306645Y-100838447D01*
X133332294Y-100868048D01*
X133333118Y-100867472D01*
X133336222Y-100871905D01*
X133336223Y-100871907D01*
X133470579Y-101063787D01*
X133636213Y-101229421D01*
X133828093Y-101363777D01*
X134040389Y-101462772D01*
X134266649Y-101523398D01*
X134453329Y-101539730D01*
X134499999Y-101543814D01*
X134500000Y-101543814D01*
X134500001Y-101543814D01*
X134538891Y-101540411D01*
X134733351Y-101523398D01*
X134959611Y-101462772D01*
X135171907Y-101363777D01*
X135363787Y-101229421D01*
X135529421Y-101063787D01*
X135663777Y-100871907D01*
X135663777Y-100871905D01*
X135666882Y-100867472D01*
X135668323Y-100868481D01*
X135713172Y-100825712D01*
X135781778Y-100812484D01*
X135846645Y-100838447D01*
X135872294Y-100868048D01*
X135873118Y-100867472D01*
X135876222Y-100871905D01*
X135876223Y-100871907D01*
X136010579Y-101063787D01*
X136176213Y-101229421D01*
X136368093Y-101363777D01*
X136580389Y-101462772D01*
X136806649Y-101523398D01*
X136993329Y-101539730D01*
X137039999Y-101543814D01*
X137040000Y-101543814D01*
X137040001Y-101543814D01*
X137078891Y-101540411D01*
X137273351Y-101523398D01*
X137499611Y-101462772D01*
X137711907Y-101363777D01*
X137903787Y-101229421D01*
X138069421Y-101063787D01*
X138203777Y-100871907D01*
X138302772Y-100659611D01*
X138363398Y-100433351D01*
X138383814Y-100200000D01*
X138363398Y-99966649D01*
X138302772Y-99740389D01*
X138203777Y-99528093D01*
X138069421Y-99336213D01*
X137903787Y-99170579D01*
X137711907Y-99036223D01*
X137499611Y-98937228D01*
X137499607Y-98937227D01*
X137499603Y-98937225D01*
X137273356Y-98876603D01*
X137273346Y-98876601D01*
X137040001Y-98856186D01*
X137039999Y-98856186D01*
X136806653Y-98876601D01*
X136806643Y-98876603D01*
X136580396Y-98937225D01*
X136580389Y-98937227D01*
X136580389Y-98937228D01*
X136368093Y-99036223D01*
X136176213Y-99170579D01*
X136176211Y-99170580D01*
X136176208Y-99170583D01*
X136010583Y-99336208D01*
X135873118Y-99532528D01*
X135871680Y-99531521D01*
X135826810Y-99574297D01*
X135758202Y-99587513D01*
X135693340Y-99561540D01*
X135667702Y-99531953D01*
X135666882Y-99532528D01*
X135663777Y-99528093D01*
X135529421Y-99336213D01*
X135363787Y-99170579D01*
X135171907Y-99036223D01*
X134959611Y-98937228D01*
X134959607Y-98937227D01*
X134959603Y-98937225D01*
X134733356Y-98876603D01*
X134733346Y-98876601D01*
X134500001Y-98856186D01*
X134499999Y-98856186D01*
X134266653Y-98876601D01*
X134266643Y-98876603D01*
X134040396Y-98937225D01*
X134040389Y-98937227D01*
X134040389Y-98937228D01*
X133828093Y-99036223D01*
X133636213Y-99170579D01*
X133636211Y-99170580D01*
X133636208Y-99170583D01*
X133470583Y-99336208D01*
X133333118Y-99532528D01*
X133331680Y-99531521D01*
X133286810Y-99574297D01*
X133218202Y-99587513D01*
X133153340Y-99561540D01*
X133127702Y-99531953D01*
X133126882Y-99532528D01*
X133123777Y-99528093D01*
X132989421Y-99336213D01*
X132823787Y-99170579D01*
X132631907Y-99036223D01*
X132419611Y-98937228D01*
X132419607Y-98937227D01*
X132419603Y-98937225D01*
X132193356Y-98876603D01*
X132193346Y-98876601D01*
X131960001Y-98856186D01*
X131959999Y-98856186D01*
X131726653Y-98876601D01*
X131726643Y-98876603D01*
X131500396Y-98937225D01*
X131500389Y-98937227D01*
X131500389Y-98937228D01*
X131288093Y-99036223D01*
X131096213Y-99170579D01*
X131096211Y-99170580D01*
X131096208Y-99170583D01*
X130930583Y-99336208D01*
X130796223Y-99528093D01*
X130697229Y-99740387D01*
X130697225Y-99740396D01*
X130636603Y-99966643D01*
X130636601Y-99966653D01*
X130616186Y-100199999D01*
X130616186Y-100200000D01*
X128408868Y-100200000D01*
X128332533Y-100067784D01*
X128205871Y-99927112D01*
X128169243Y-99900500D01*
X128052734Y-99815851D01*
X128052729Y-99815848D01*
X127879807Y-99738857D01*
X127879802Y-99738855D01*
X127734001Y-99707865D01*
X127694646Y-99699500D01*
X127505354Y-99699500D01*
X127472897Y-99706398D01*
X127320197Y-99738855D01*
X127320192Y-99738857D01*
X127147270Y-99815848D01*
X127147265Y-99815851D01*
X126994129Y-99927111D01*
X126867466Y-100067785D01*
X126772821Y-100231715D01*
X126772818Y-100231722D01*
X126714327Y-100411740D01*
X126714326Y-100411744D01*
X126694540Y-100600000D01*
X120881375Y-100600000D01*
X120880312Y-100594998D01*
X120803320Y-100422071D01*
X120692056Y-100268930D01*
X120551384Y-100142269D01*
X120387452Y-100047622D01*
X120387446Y-100047619D01*
X120207426Y-99989128D01*
X120207423Y-99989127D01*
X120019168Y-99969341D01*
X120019167Y-99969341D01*
X119830910Y-99989128D01*
X119830907Y-99989129D01*
X119650890Y-100047620D01*
X119650883Y-100047623D01*
X119486953Y-100142268D01*
X119346279Y-100268931D01*
X119235019Y-100422067D01*
X119158024Y-100595000D01*
X119128536Y-100733736D01*
X119128535Y-100733737D01*
X119090575Y-101094905D01*
X119036180Y-101612452D01*
X119035047Y-101623229D01*
X119035047Y-101765065D01*
X118387445Y-101765065D01*
X118334534Y-101633649D01*
X118243553Y-101500500D01*
X118227100Y-101476421D01*
X118227098Y-101476419D01*
X118227097Y-101476417D01*
X118212585Y-101462770D01*
X118088372Y-101345957D01*
X117924845Y-101248369D01*
X117744166Y-101188216D01*
X117744164Y-101188215D01*
X117744162Y-101188215D01*
X116856370Y-101094905D01*
X116856369Y-101094905D01*
X116713685Y-101095419D01*
X116527853Y-101137028D01*
X116527847Y-101137030D01*
X116355310Y-101217612D01*
X116355308Y-101217613D01*
X116204124Y-101333403D01*
X116204121Y-101333406D01*
X116081368Y-101478987D01*
X116081367Y-101478988D01*
X116056554Y-101526202D01*
X115992774Y-101647560D01*
X115992773Y-101647562D01*
X115992772Y-101647565D01*
X115942492Y-101831233D01*
X115932868Y-102021427D01*
X115570884Y-102021427D01*
X115634703Y-100914493D01*
X115800411Y-99000000D01*
X121894540Y-99000000D01*
X121914326Y-99188256D01*
X121914327Y-99188259D01*
X121972818Y-99368277D01*
X121972821Y-99368284D01*
X122067467Y-99532216D01*
X122117257Y-99587513D01*
X122194129Y-99672888D01*
X122347265Y-99784148D01*
X122347270Y-99784151D01*
X122520192Y-99861142D01*
X122520197Y-99861144D01*
X122705354Y-99900500D01*
X122705355Y-99900500D01*
X122894644Y-99900500D01*
X122894646Y-99900500D01*
X123079803Y-99861144D01*
X123252730Y-99784151D01*
X123405871Y-99672888D01*
X123532533Y-99532216D01*
X123627179Y-99368284D01*
X123685674Y-99188256D01*
X123705460Y-99000000D01*
X123685674Y-98811744D01*
X123627179Y-98631716D01*
X123532533Y-98467784D01*
X123405871Y-98327112D01*
X123405870Y-98327111D01*
X123252734Y-98215851D01*
X123252729Y-98215848D01*
X123079807Y-98138857D01*
X123079802Y-98138855D01*
X122934001Y-98107865D01*
X122894646Y-98099500D01*
X122705354Y-98099500D01*
X122672897Y-98106398D01*
X122520197Y-98138855D01*
X122520192Y-98138857D01*
X122347270Y-98215848D01*
X122347265Y-98215851D01*
X122194129Y-98327111D01*
X122067466Y-98467785D01*
X121972821Y-98631715D01*
X121972818Y-98631722D01*
X121914327Y-98811740D01*
X121914326Y-98811744D01*
X121894540Y-99000000D01*
X115800411Y-99000000D01*
X115912931Y-97700000D01*
X129194540Y-97700000D01*
X129214326Y-97888256D01*
X129214327Y-97888259D01*
X129272818Y-98068277D01*
X129272821Y-98068284D01*
X129367467Y-98232216D01*
X129452911Y-98327111D01*
X129494129Y-98372888D01*
X129647265Y-98484148D01*
X129647270Y-98484151D01*
X129820192Y-98561142D01*
X129820197Y-98561144D01*
X130005354Y-98600500D01*
X130005355Y-98600500D01*
X130194644Y-98600500D01*
X130194646Y-98600500D01*
X130379803Y-98561144D01*
X130552730Y-98484151D01*
X130705871Y-98372888D01*
X130832533Y-98232216D01*
X130927179Y-98068284D01*
X130985674Y-97888256D01*
X131005460Y-97700000D01*
X130985674Y-97511744D01*
X130927179Y-97331716D01*
X130832533Y-97167784D01*
X130705871Y-97027112D01*
X130637747Y-96977617D01*
X130552734Y-96915851D01*
X130552729Y-96915848D01*
X130379807Y-96838857D01*
X130379802Y-96838855D01*
X130234001Y-96807865D01*
X130194646Y-96799500D01*
X130005354Y-96799500D01*
X129972897Y-96806398D01*
X129820197Y-96838855D01*
X129820192Y-96838857D01*
X129647270Y-96915848D01*
X129647265Y-96915851D01*
X129494129Y-97027111D01*
X129367466Y-97167785D01*
X129272821Y-97331715D01*
X129272818Y-97331722D01*
X129240775Y-97430342D01*
X129214326Y-97511744D01*
X129194540Y-97700000D01*
X115912931Y-97700000D01*
X115937585Y-97415165D01*
X116009266Y-96792455D01*
X119557689Y-96792455D01*
X119597044Y-96977612D01*
X119597046Y-96977617D01*
X119674036Y-97150538D01*
X119686567Y-97167785D01*
X119785302Y-97303681D01*
X119925974Y-97430342D01*
X120089906Y-97524989D01*
X120089908Y-97524990D01*
X120148505Y-97544028D01*
X120269935Y-97583483D01*
X120458190Y-97603269D01*
X120646446Y-97583483D01*
X120826474Y-97524987D01*
X120990406Y-97430341D01*
X121131078Y-97303679D01*
X121242341Y-97150538D01*
X121319333Y-96977611D01*
X121348823Y-96838869D01*
X121442311Y-95949385D01*
X121442311Y-95807544D01*
X121402954Y-95622388D01*
X121325962Y-95449461D01*
X121214698Y-95296320D01*
X121074026Y-95169659D01*
X120910094Y-95075012D01*
X120910088Y-95075009D01*
X120730068Y-95016518D01*
X120730065Y-95016517D01*
X120541810Y-94996731D01*
X120541809Y-94996731D01*
X120353552Y-95016518D01*
X120353549Y-95016519D01*
X120173532Y-95075010D01*
X120173525Y-95075013D01*
X120009595Y-95169658D01*
X119868921Y-95296321D01*
X119757661Y-95449457D01*
X119680666Y-95622390D01*
X119651178Y-95761126D01*
X119651177Y-95761127D01*
X119557689Y-96650619D01*
X119557689Y-96792455D01*
X116009266Y-96792455D01*
X116214441Y-95010047D01*
X116669794Y-95010047D01*
X116701280Y-95197850D01*
X116701284Y-95197864D01*
X116772401Y-95374497D01*
X116772407Y-95374507D01*
X116879843Y-95531739D01*
X117018560Y-95662193D01*
X117018564Y-95662197D01*
X117018568Y-95662200D01*
X117182095Y-95759787D01*
X117362778Y-95819941D01*
X118250570Y-95913251D01*
X118393257Y-95912736D01*
X118579088Y-95871127D01*
X118751631Y-95790543D01*
X118902815Y-95674752D01*
X119025573Y-95529167D01*
X119114166Y-95360596D01*
X119164449Y-95176922D01*
X119174072Y-94986733D01*
X119157712Y-94889151D01*
X119142585Y-94798923D01*
X119134116Y-94777888D01*
X119071460Y-94622269D01*
X118969658Y-94473284D01*
X118964026Y-94465041D01*
X118964024Y-94465039D01*
X118964023Y-94465037D01*
X118825298Y-94334577D01*
X118661771Y-94236989D01*
X118481092Y-94176836D01*
X118481090Y-94176835D01*
X118481088Y-94176835D01*
X117797619Y-94105000D01*
X137739540Y-94105000D01*
X137759326Y-94293256D01*
X137759327Y-94293259D01*
X137817818Y-94473277D01*
X137817821Y-94473284D01*
X137912467Y-94637216D01*
X137931437Y-94658284D01*
X138039129Y-94777888D01*
X138192265Y-94889148D01*
X138192270Y-94889151D01*
X138365192Y-94966142D01*
X138365197Y-94966144D01*
X138550354Y-95005500D01*
X138550355Y-95005500D01*
X138739644Y-95005500D01*
X138739646Y-95005500D01*
X138924803Y-94966144D01*
X139097730Y-94889151D01*
X139250871Y-94777888D01*
X139377533Y-94637216D01*
X139472179Y-94473284D01*
X139530674Y-94293256D01*
X139531016Y-94290000D01*
X142354540Y-94290000D01*
X142374326Y-94478256D01*
X142374327Y-94478259D01*
X142432818Y-94658277D01*
X142432821Y-94658284D01*
X142527467Y-94822216D01*
X142587733Y-94889148D01*
X142654129Y-94962888D01*
X142807265Y-95074148D01*
X142807270Y-95074151D01*
X142980192Y-95151142D01*
X142980197Y-95151144D01*
X143165354Y-95190500D01*
X143165355Y-95190500D01*
X143354644Y-95190500D01*
X143354646Y-95190500D01*
X143539803Y-95151144D01*
X143712730Y-95074151D01*
X143865871Y-94962888D01*
X143992533Y-94822216D01*
X144087179Y-94658284D01*
X144145674Y-94478256D01*
X144165460Y-94290000D01*
X144145674Y-94101744D01*
X144087179Y-93921716D01*
X143992533Y-93757784D01*
X143865871Y-93617112D01*
X143865870Y-93617111D01*
X143712734Y-93505851D01*
X143712729Y-93505848D01*
X143539807Y-93428857D01*
X143539802Y-93428855D01*
X143394001Y-93397865D01*
X143354646Y-93389500D01*
X143165354Y-93389500D01*
X143132897Y-93396398D01*
X142980197Y-93428855D01*
X142980192Y-93428857D01*
X142807270Y-93505848D01*
X142807265Y-93505851D01*
X142654129Y-93617111D01*
X142527466Y-93757785D01*
X142432821Y-93921715D01*
X142432818Y-93921722D01*
X142380078Y-94084040D01*
X142374326Y-94101744D01*
X142354540Y-94290000D01*
X139531016Y-94290000D01*
X139550460Y-94105000D01*
X139530674Y-93916744D01*
X139472179Y-93736716D01*
X139377533Y-93572784D01*
X139250871Y-93432112D01*
X139246391Y-93428857D01*
X139097734Y-93320851D01*
X139097729Y-93320848D01*
X138924807Y-93243857D01*
X138924802Y-93243855D01*
X138779001Y-93212865D01*
X138739646Y-93204500D01*
X138550354Y-93204500D01*
X138517897Y-93211398D01*
X138365197Y-93243855D01*
X138365192Y-93243857D01*
X138192270Y-93320848D01*
X138192265Y-93320851D01*
X138039129Y-93432111D01*
X137912466Y-93572785D01*
X137817821Y-93736715D01*
X137817818Y-93736722D01*
X137771739Y-93878540D01*
X137759326Y-93916744D01*
X137739540Y-94105000D01*
X117797619Y-94105000D01*
X117593296Y-94083525D01*
X117593295Y-94083525D01*
X117450611Y-94084039D01*
X117264779Y-94125648D01*
X117264773Y-94125650D01*
X117092236Y-94206232D01*
X117092234Y-94206233D01*
X116941050Y-94322023D01*
X116941047Y-94322026D01*
X116818294Y-94467607D01*
X116818293Y-94467608D01*
X116777921Y-94544426D01*
X116729700Y-94636180D01*
X116729699Y-94636182D01*
X116729698Y-94636185D01*
X116690906Y-94777888D01*
X116679418Y-94819854D01*
X116672016Y-94966144D01*
X116669794Y-95010047D01*
X116214441Y-95010047D01*
X116344690Y-93878538D01*
X116359559Y-93757784D01*
X116435134Y-93144030D01*
X116435608Y-93141925D01*
X116436661Y-93131616D01*
X116438548Y-93118404D01*
X116438456Y-93114944D01*
X116447416Y-93031715D01*
X116503629Y-92509535D01*
X116504245Y-92507329D01*
X116505836Y-92489039D01*
X116507247Y-92476254D01*
X116507214Y-92474596D01*
X116508774Y-92458251D01*
X116552785Y-91997101D01*
X116553047Y-91996448D01*
X116556988Y-91953785D01*
X116560180Y-91919557D01*
X116560180Y-91919555D01*
X116557183Y-91895333D01*
X116549076Y-91872313D01*
X116542713Y-91862040D01*
X116542651Y-91861940D01*
X116542650Y-91861939D01*
X116542387Y-91861514D01*
X116542386Y-91861514D01*
X116530708Y-91842642D01*
X116529384Y-91844182D01*
X116524549Y-91840021D01*
X116508923Y-91829151D01*
X116506682Y-91827910D01*
X116500249Y-91825442D01*
X116500163Y-91825409D01*
X116499714Y-91825218D01*
X116499713Y-91825218D01*
X116469868Y-91812522D01*
X116454855Y-91808213D01*
X116449478Y-91806172D01*
X116442831Y-91801136D01*
X116438739Y-91799770D01*
X116438577Y-91799657D01*
X116391922Y-91784140D01*
X116364664Y-91775039D01*
X116317737Y-91760885D01*
X116312229Y-91759398D01*
X116270417Y-91748110D01*
X116266204Y-91747103D01*
X116250456Y-91743342D01*
X116249100Y-91742927D01*
X116246567Y-91742415D01*
X116212899Y-91734368D01*
X116199035Y-91732735D01*
X116138017Y-91720309D01*
X116133309Y-91717819D01*
X116090599Y-91710595D01*
X116087245Y-91709932D01*
X116062499Y-91704328D01*
X115877748Y-91658894D01*
X115872262Y-91657274D01*
X115799802Y-91632180D01*
X115796591Y-91630968D01*
X115661874Y-91575790D01*
X115658735Y-91574402D01*
X115589501Y-91541462D01*
X115584455Y-91538769D01*
X115420973Y-91441588D01*
X115400029Y-91428609D01*
X115395822Y-91425757D01*
X115367659Y-91404931D01*
X115028845Y-91147348D01*
X115018266Y-91138618D01*
X144701389Y-91138618D01*
X144703918Y-91173976D01*
X144703919Y-91173983D01*
X144764727Y-91453513D01*
X144864709Y-91721576D01*
X145001809Y-91972656D01*
X145001810Y-91972657D01*
X145173257Y-92201683D01*
X145173267Y-92201695D01*
X145375540Y-92403968D01*
X145378895Y-92406875D01*
X145377742Y-92408205D01*
X145415210Y-92458251D01*
X145420199Y-92527942D01*
X145386717Y-92589267D01*
X145352857Y-92612542D01*
X145352893Y-92612603D01*
X145352119Y-92613049D01*
X145349477Y-92614866D01*
X145347271Y-92615848D01*
X145347265Y-92615851D01*
X145194129Y-92727111D01*
X145067466Y-92867785D01*
X144972821Y-93031715D01*
X144972818Y-93031722D01*
X144914327Y-93211740D01*
X144914326Y-93211744D01*
X144894540Y-93400000D01*
X144914326Y-93588256D01*
X144914327Y-93588259D01*
X144972818Y-93768277D01*
X144972821Y-93768284D01*
X145067467Y-93932216D01*
X145194129Y-94072888D01*
X145347265Y-94184148D01*
X145347270Y-94184151D01*
X145520192Y-94261142D01*
X145520197Y-94261144D01*
X145705354Y-94300500D01*
X145705355Y-94300500D01*
X145894644Y-94300500D01*
X145894646Y-94300500D01*
X146079803Y-94261144D01*
X146252730Y-94184151D01*
X146405871Y-94072888D01*
X146532533Y-93932216D01*
X146627179Y-93768284D01*
X146685674Y-93588256D01*
X146705460Y-93400000D01*
X146685674Y-93211744D01*
X146627179Y-93031716D01*
X146532533Y-92867784D01*
X146470468Y-92798853D01*
X146440238Y-92735861D01*
X146438618Y-92715881D01*
X146438618Y-91600143D01*
X146600956Y-91638618D01*
X146732302Y-91638618D01*
X146862757Y-91623370D01*
X146938618Y-91595758D01*
X146938618Y-92875846D01*
X146973979Y-92873317D01*
X147253513Y-92812508D01*
X147521576Y-92712526D01*
X147772656Y-92575426D01*
X147772657Y-92575425D01*
X148001683Y-92403978D01*
X148001695Y-92403968D01*
X148203968Y-92201695D01*
X148203978Y-92201683D01*
X148375425Y-91972657D01*
X148375426Y-91972656D01*
X148512526Y-91721576D01*
X148612508Y-91453513D01*
X148673316Y-91173983D01*
X148673317Y-91173976D01*
X148675847Y-91138618D01*
X147396662Y-91138618D01*
X147432252Y-91019741D01*
X147442446Y-90844712D01*
X147412002Y-90672051D01*
X147397580Y-90638618D01*
X148675847Y-90638618D01*
X148675846Y-90638617D01*
X148673317Y-90603259D01*
X148673316Y-90603252D01*
X148612508Y-90323722D01*
X148512526Y-90055659D01*
X148375426Y-89804579D01*
X148375425Y-89804578D01*
X148203978Y-89575552D01*
X148203968Y-89575540D01*
X148001695Y-89373267D01*
X148001683Y-89373257D01*
X147772657Y-89201810D01*
X147772656Y-89201809D01*
X147521575Y-89064709D01*
X147521576Y-89064709D01*
X147253513Y-88964727D01*
X146973983Y-88903919D01*
X146973976Y-88903918D01*
X146938618Y-88901389D01*
X146938618Y-90177092D01*
X146776280Y-90138618D01*
X146644934Y-90138618D01*
X146514479Y-90153866D01*
X146438618Y-90181477D01*
X146438618Y-88901389D01*
X146438617Y-88901389D01*
X146403259Y-88903918D01*
X146403252Y-88903919D01*
X146123722Y-88964727D01*
X145855659Y-89064709D01*
X145604579Y-89201809D01*
X145604578Y-89201810D01*
X145375552Y-89373257D01*
X145375540Y-89373267D01*
X145173267Y-89575540D01*
X145173257Y-89575552D01*
X145001810Y-89804578D01*
X145001809Y-89804579D01*
X144864709Y-90055659D01*
X144764727Y-90323722D01*
X144703919Y-90603252D01*
X144703918Y-90603259D01*
X144701389Y-90638617D01*
X144701389Y-90638618D01*
X145980574Y-90638618D01*
X145944984Y-90757495D01*
X145934790Y-90932524D01*
X145965234Y-91105185D01*
X145979656Y-91138618D01*
X144701389Y-91138618D01*
X115018266Y-91138618D01*
X114991855Y-91116822D01*
X114917795Y-91055702D01*
X114600359Y-90771684D01*
X114574161Y-90747609D01*
X114571845Y-90745368D01*
X114545305Y-90718305D01*
X114469114Y-90638617D01*
X114212179Y-90369890D01*
X114106117Y-90250164D01*
X113800248Y-89877244D01*
X113795750Y-89871616D01*
X113776866Y-89847990D01*
X113774894Y-89845382D01*
X113754848Y-89817371D01*
X113603471Y-89599516D01*
X113486371Y-89430991D01*
X113404054Y-89301312D01*
X113168889Y-88894323D01*
X113151926Y-88864002D01*
X113150273Y-88860836D01*
X113122283Y-88803183D01*
X112949274Y-88439850D01*
X112947965Y-88436904D01*
X112892472Y-88302429D01*
X112879460Y-88270895D01*
X112771207Y-87990672D01*
X112720066Y-87841744D01*
X112708158Y-87807068D01*
X112706026Y-87800000D01*
X127894540Y-87800000D01*
X127914326Y-87988256D01*
X127914327Y-87988259D01*
X127972818Y-88168277D01*
X127972821Y-88168284D01*
X128067467Y-88332216D01*
X128194129Y-88472888D01*
X128347265Y-88584148D01*
X128347270Y-88584151D01*
X128520192Y-88661142D01*
X128520197Y-88661144D01*
X128705354Y-88700500D01*
X128705355Y-88700500D01*
X128894644Y-88700500D01*
X128894646Y-88700500D01*
X129079803Y-88661144D01*
X129252730Y-88584151D01*
X129405871Y-88472888D01*
X129532533Y-88332216D01*
X129627179Y-88168284D01*
X129672110Y-88030000D01*
X147714540Y-88030000D01*
X147734326Y-88218256D01*
X147734327Y-88218259D01*
X147792818Y-88398277D01*
X147792821Y-88398284D01*
X147887467Y-88562216D01*
X147990843Y-88677026D01*
X148014129Y-88702888D01*
X148167265Y-88814148D01*
X148167270Y-88814151D01*
X148340192Y-88891142D01*
X148340197Y-88891144D01*
X148525354Y-88930500D01*
X148525355Y-88930500D01*
X148714644Y-88930500D01*
X148714646Y-88930500D01*
X148899803Y-88891144D01*
X149072730Y-88814151D01*
X149225871Y-88702888D01*
X149352533Y-88562216D01*
X149447179Y-88398284D01*
X149505674Y-88218256D01*
X149510220Y-88175000D01*
X150619540Y-88175000D01*
X150639326Y-88363256D01*
X150639327Y-88363259D01*
X150697818Y-88543277D01*
X150697821Y-88543284D01*
X150792467Y-88707216D01*
X150888749Y-88814148D01*
X150919129Y-88847888D01*
X151072265Y-88959148D01*
X151072270Y-88959151D01*
X151245192Y-89036142D01*
X151245197Y-89036144D01*
X151430354Y-89075500D01*
X151430355Y-89075500D01*
X151619644Y-89075500D01*
X151619646Y-89075500D01*
X151804803Y-89036144D01*
X151977730Y-88959151D01*
X152130871Y-88847888D01*
X152257533Y-88707216D01*
X152352179Y-88543284D01*
X152410674Y-88363256D01*
X152430460Y-88175000D01*
X152410674Y-87986744D01*
X152352179Y-87806716D01*
X152257533Y-87642784D01*
X152130871Y-87502112D01*
X152128321Y-87500259D01*
X151977734Y-87390851D01*
X151977729Y-87390848D01*
X151804807Y-87313857D01*
X151804802Y-87313855D01*
X151659001Y-87282865D01*
X151619646Y-87274500D01*
X151430354Y-87274500D01*
X151397897Y-87281398D01*
X151245197Y-87313855D01*
X151245192Y-87313857D01*
X151072270Y-87390848D01*
X151072265Y-87390851D01*
X150919129Y-87502111D01*
X150792466Y-87642785D01*
X150697821Y-87806715D01*
X150697818Y-87806722D01*
X150639327Y-87986740D01*
X150639326Y-87986744D01*
X150619540Y-88175000D01*
X149510220Y-88175000D01*
X149525460Y-88030000D01*
X149505674Y-87841744D01*
X149447179Y-87661716D01*
X149352533Y-87497784D01*
X149225871Y-87357112D01*
X149225870Y-87357111D01*
X149072734Y-87245851D01*
X149072729Y-87245848D01*
X148899807Y-87168857D01*
X148899802Y-87168855D01*
X148744262Y-87135795D01*
X148714646Y-87129500D01*
X148525354Y-87129500D01*
X148495738Y-87135795D01*
X148340197Y-87168855D01*
X148340192Y-87168857D01*
X148167270Y-87245848D01*
X148167265Y-87245851D01*
X148014129Y-87357111D01*
X147887466Y-87497785D01*
X147792821Y-87661715D01*
X147792818Y-87661722D01*
X147745707Y-87806716D01*
X147734326Y-87841744D01*
X147714540Y-88030000D01*
X129672110Y-88030000D01*
X129685674Y-87988256D01*
X129705460Y-87800000D01*
X129685674Y-87611744D01*
X129627179Y-87431716D01*
X129532533Y-87267784D01*
X129405871Y-87127112D01*
X129405870Y-87127111D01*
X129252734Y-87015851D01*
X129252729Y-87015848D01*
X129079807Y-86938857D01*
X129079802Y-86938855D01*
X128934001Y-86907865D01*
X128894646Y-86899500D01*
X128705354Y-86899500D01*
X128672897Y-86906398D01*
X128520197Y-86938855D01*
X128520192Y-86938857D01*
X128347270Y-87015848D01*
X128347265Y-87015851D01*
X128194129Y-87127111D01*
X128067466Y-87267785D01*
X127972821Y-87431715D01*
X127972818Y-87431722D01*
X127914327Y-87611740D01*
X127914326Y-87611744D01*
X127894540Y-87800000D01*
X112706026Y-87800000D01*
X112695337Y-87764554D01*
X112621424Y-87519460D01*
X112620850Y-87517388D01*
X112573492Y-87346387D01*
X112572717Y-87343266D01*
X112485879Y-86949645D01*
X112472691Y-86887643D01*
X112472040Y-86884075D01*
X112461848Y-86816889D01*
X112403681Y-86413997D01*
X112403326Y-86411013D01*
X112386187Y-86227563D01*
X112364394Y-85923826D01*
X112357291Y-85725217D01*
X112357329Y-85420723D01*
X112361319Y-85236528D01*
X112361459Y-85233526D01*
X112390640Y-84828217D01*
X112396067Y-84759716D01*
X112396442Y-84756242D01*
X112405711Y-84688716D01*
X112464025Y-84285340D01*
X112464521Y-84282427D01*
X112500059Y-84101263D01*
X112565177Y-83803346D01*
X112614626Y-83610492D01*
X112700906Y-83317965D01*
X112756911Y-83142097D01*
X112757882Y-83139292D01*
X112900885Y-82757561D01*
X112925245Y-82693924D01*
X112926619Y-82690629D01*
X112953362Y-82631418D01*
X113122284Y-82264767D01*
X113123673Y-82261948D01*
X113182010Y-82151038D01*
X113207778Y-82102051D01*
X113246261Y-82032717D01*
X113354076Y-81838471D01*
X113455149Y-81671453D01*
X113620799Y-81419553D01*
X113723416Y-81270898D01*
X113725237Y-81268405D01*
X113973028Y-80946954D01*
X114011673Y-80897588D01*
X114013732Y-80895099D01*
X114040458Y-80864510D01*
X114290421Y-80585218D01*
X114384408Y-80487494D01*
X114653666Y-80226905D01*
X114683221Y-80198978D01*
X114685245Y-80197151D01*
X114719706Y-80167422D01*
X115013627Y-79919289D01*
X115125842Y-79830552D01*
X115434614Y-79602063D01*
X115473005Y-79574285D01*
X115473004Y-79574284D01*
X115473082Y-79574227D01*
X115511599Y-79548809D01*
X115829064Y-79344215D01*
X115949716Y-79271902D01*
X116279463Y-79088574D01*
X116319236Y-79067023D01*
X116321887Y-79065669D01*
X116341043Y-79056469D01*
X116353665Y-79050408D01*
X116467652Y-78997552D01*
X116678867Y-78899613D01*
X116795644Y-78851139D01*
X117132628Y-78727086D01*
X117166507Y-78715133D01*
X117166714Y-78715066D01*
X117166715Y-78715067D01*
X117166744Y-78715057D01*
X117166808Y-78715036D01*
X117166809Y-78715037D01*
X117167285Y-78714883D01*
X117673277Y-78551662D01*
X117680119Y-78550573D01*
X117689097Y-78546819D01*
X117692067Y-78545741D01*
X117692206Y-78545614D01*
X117692237Y-78545547D01*
X117692343Y-78542833D01*
X117693168Y-78532217D01*
X117692156Y-78525709D01*
X117692156Y-77816070D01*
X117692184Y-77815180D01*
X117693155Y-77785388D01*
X117714683Y-77345026D01*
X117714897Y-77342104D01*
X117728389Y-77204436D01*
X117728741Y-77201569D01*
X117793108Y-76765437D01*
X117793750Y-76761524D01*
X117797829Y-76736693D01*
X117798450Y-76733461D01*
X117808094Y-76689695D01*
X117811877Y-76673371D01*
X117875212Y-76400000D01*
X129573033Y-76400000D01*
X129593514Y-76542456D01*
X129653302Y-76673372D01*
X129653305Y-76673377D01*
X129690918Y-76720053D01*
X129690925Y-76720061D01*
X131515712Y-78544845D01*
X131879944Y-78909077D01*
X131926627Y-78946697D01*
X132057543Y-79006485D01*
X132057542Y-79006485D01*
X132075449Y-79009059D01*
X132200000Y-79026967D01*
X132342457Y-79006485D01*
X132473373Y-78946697D01*
X132520056Y-78909079D01*
X134709077Y-76720056D01*
X134746697Y-76673373D01*
X134806485Y-76542457D01*
X134826967Y-76400000D01*
X134806485Y-76257543D01*
X134746697Y-76126627D01*
X134746694Y-76126622D01*
X134709081Y-76079946D01*
X134709074Y-76079938D01*
X132520063Y-73890930D01*
X132520056Y-73890923D01*
X132473373Y-73853303D01*
X132342457Y-73793515D01*
X132342455Y-73793514D01*
X132342457Y-73793514D01*
X132200000Y-73773033D01*
X132057543Y-73793514D01*
X131926627Y-73853302D01*
X131926622Y-73853305D01*
X131879946Y-73890918D01*
X131879938Y-73890925D01*
X129690930Y-76079936D01*
X129690924Y-76079942D01*
X129690923Y-76079944D01*
X129672113Y-76103285D01*
X129653302Y-76126628D01*
X129653301Y-76126630D01*
X129593514Y-76257543D01*
X129573033Y-76400000D01*
X117875212Y-76400000D01*
X117919466Y-76208990D01*
X117963122Y-76044858D01*
X118105224Y-75572563D01*
X118119152Y-75528019D01*
X118119150Y-75528018D01*
X118119155Y-75528003D01*
X118135335Y-75483047D01*
X118314112Y-75002197D01*
X118380619Y-74839185D01*
X118589517Y-74369897D01*
X118608498Y-74328428D01*
X118609719Y-74325912D01*
X118627836Y-74290660D01*
X118858407Y-73855225D01*
X118940419Y-73713228D01*
X118952986Y-73693209D01*
X119202471Y-73295742D01*
X119223674Y-73262864D01*
X119225369Y-73260374D01*
X119248303Y-73228371D01*
X119486959Y-72903824D01*
X119574967Y-72792921D01*
X119836812Y-72486772D01*
X119863744Y-72456053D01*
X119902514Y-72415437D01*
X120204732Y-72104439D01*
X120322559Y-71989510D01*
X120640920Y-71695190D01*
X120682542Y-71657395D01*
X120725444Y-71621144D01*
X121059151Y-71344241D01*
X121188614Y-71242543D01*
X121379797Y-71100472D01*
X121536633Y-70983924D01*
X121553102Y-70971911D01*
X121582042Y-70950804D01*
X121582041Y-70950803D01*
X121582069Y-70950782D01*
X121615976Y-70928188D01*
X121711891Y-70865953D01*
X121954033Y-70708836D01*
X122075538Y-70636194D01*
X122231438Y-70550600D01*
X122428578Y-70442363D01*
X122463446Y-70423771D01*
X122466191Y-70422393D01*
X122536687Y-70389190D01*
X122929694Y-70207107D01*
X123116167Y-70130506D01*
X123418477Y-70012949D01*
X123621359Y-69941325D01*
X123930474Y-69843031D01*
X124123723Y-69785579D01*
X124543627Y-69680646D01*
X124619727Y-69662138D01*
X124622728Y-69661488D01*
X124698965Y-69646976D01*
X125124668Y-69568732D01*
X125324039Y-69541143D01*
X125645798Y-69502823D01*
X125859795Y-69484176D01*
X126183376Y-69466263D01*
X126384497Y-69458953D01*
X126816467Y-69462375D01*
X126895048Y-69463495D01*
X126898135Y-69463618D01*
X126974801Y-69468612D01*
X127403516Y-69499286D01*
X127601815Y-69522404D01*
X127920684Y-69565772D01*
X128130916Y-69601223D01*
X128446347Y-69664814D01*
X128641351Y-69708024D01*
X128858605Y-69766440D01*
X129055048Y-69819261D01*
X129130694Y-69840120D01*
X129133755Y-69841050D01*
X129203974Y-69864393D01*
X129606931Y-70001311D01*
X129609549Y-70002269D01*
X129734701Y-70051350D01*
X129791229Y-70073519D01*
X129927993Y-70130301D01*
X130085880Y-70195854D01*
X130276384Y-70282423D01*
X130277149Y-70282771D01*
X130563071Y-70424260D01*
X130736216Y-70514250D01*
X130738702Y-70515615D01*
X131107536Y-70729506D01*
X131158181Y-70759324D01*
X131171997Y-70767458D01*
X131172083Y-70767512D01*
X131172086Y-70767515D01*
X131172140Y-70767547D01*
X131172166Y-70767563D01*
X131172166Y-70767564D01*
X131172590Y-70767829D01*
X131172590Y-70767828D01*
X131217965Y-70796189D01*
X131221400Y-70797648D01*
X131409438Y-70912544D01*
X131411445Y-70914029D01*
X131418933Y-70918346D01*
X131429955Y-70925094D01*
X131432423Y-70926135D01*
X131483864Y-70955834D01*
X131634692Y-71042914D01*
X131635522Y-71043463D01*
X131637996Y-71044822D01*
X131649084Y-71051209D01*
X131651205Y-71052059D01*
X131780107Y-71122696D01*
X131780959Y-71123550D01*
X131787508Y-71127085D01*
X131787555Y-71127132D01*
X131806601Y-71137390D01*
X131832497Y-71151368D01*
X131832499Y-71151368D01*
X131832505Y-71151372D01*
X131848074Y-71156376D01*
X131853494Y-71158118D01*
X131853199Y-71159032D01*
X131861494Y-71158594D01*
X131861901Y-71158590D01*
X131864291Y-71158455D01*
X131864295Y-71158456D01*
X131867022Y-71158301D01*
X131878020Y-71157719D01*
X131880150Y-71157607D01*
X131894852Y-71153014D01*
X131907975Y-71144950D01*
X131907983Y-71144940D01*
X131908724Y-71144347D01*
X131913272Y-71139487D01*
X131913274Y-71139487D01*
X131913347Y-71139409D01*
X131913685Y-71139062D01*
X131913684Y-71139061D01*
X131946416Y-71105460D01*
X131950109Y-71100477D01*
X132017184Y-71029447D01*
X132020337Y-71026631D01*
X132023105Y-71023352D01*
X132025995Y-71020158D01*
X132030083Y-71015944D01*
X132032643Y-71012336D01*
X132057353Y-70983924D01*
X132145141Y-70882982D01*
X132148157Y-70880113D01*
X132151745Y-70875537D01*
X132154168Y-70872632D01*
X132157128Y-70869295D01*
X132159364Y-70865962D01*
X132259293Y-70740727D01*
X132261772Y-70738989D01*
X132291746Y-70700070D01*
X132291747Y-70700071D01*
X132292052Y-70699675D01*
X132313884Y-70672971D01*
X132489093Y-70464902D01*
X132558456Y-70389446D01*
X132750970Y-70197470D01*
X132752633Y-70195859D01*
X132774353Y-70174818D01*
X132777512Y-70171964D01*
X132912844Y-70057848D01*
X133486754Y-69573910D01*
X133490607Y-69570914D01*
X134280334Y-69005986D01*
X134283303Y-69003991D01*
X134325668Y-68977310D01*
X134591759Y-68813293D01*
X134704345Y-68748315D01*
X134979906Y-68599745D01*
X135023878Y-68576582D01*
X135026794Y-68575143D01*
X135409717Y-68398707D01*
X135412650Y-68397449D01*
X135888467Y-68208072D01*
X136375552Y-68035553D01*
X136378434Y-68034613D01*
X136796713Y-67909796D01*
X136800131Y-67908883D01*
X137373860Y-67773373D01*
X137376603Y-67772793D01*
X137425724Y-67763569D01*
X137557112Y-67740221D01*
X137640901Y-67727846D01*
X137773705Y-67712185D01*
X137820299Y-67707150D01*
X137824461Y-67706700D01*
X137824490Y-67706698D01*
X137839872Y-67705576D01*
X137889633Y-67701948D01*
X138031887Y-67692673D01*
X138132641Y-67688429D01*
X138139209Y-67688304D01*
X138274866Y-67685715D01*
X138302639Y-67685397D01*
X138340395Y-67684967D01*
X138340395Y-67684965D01*
X138340527Y-67684964D01*
X139191637Y-67697857D01*
G37*
%TD.AperFunction*%
%TD*%
M02*
