M48
; DRILL file {KiCad 7.0.8} date Thu Jun  6 10:31:25 2024
; FORMAT={-:-/ absolute / metric / decimal}
; #@! TF.CreationDate,2024-06-06T10:31:25+02:00
; #@! TF.GenerationSoftware,Kicad,Pcbnew,7.0.8
; #@! TF.FileFunction,MixedPlating,1,4
FMAT,2
METRIC
; #@! TA.AperFunction,Plated,PTH,ViaDrill
T1C0.400
; #@! TA.AperFunction,Plated,PTH,ComponentDrill
T2C0.550
; #@! TA.AperFunction,Plated,PTH,ComponentDrill
T3C0.600
; #@! TA.AperFunction,Plated,PTH,ComponentDrill
T4C0.900
; #@! TA.AperFunction,Plated,PTH,ComponentDrill
T5C1.000
; #@! TA.AperFunction,Plated,PTH,ComponentDrill
T6C1.500
%
G90
G05
T1
X113.0Y-86.0
X113.1Y-84.7
X113.3Y-87.3
X113.5Y-83.3
X113.7Y-88.5
X114.1Y-82.1
X114.6Y-89.6
X115.1Y-81.0
X115.6Y-90.6
X115.9Y-110.5
X115.9Y-113.1
X116.0Y-107.7
X116.0Y-109.0
X116.1Y-106.3
X116.2Y-104.8
X116.2Y-115.4
X116.3Y-103.4
X116.4Y-80.0
X116.5Y-117.2
X116.8Y-91.1
X117.1Y-93.5
X117.2Y-92.3
X117.4Y-120.7
X117.6Y-104.6
X117.6Y-106.8
X117.9Y-79.3
X117.9Y-122.6
X118.2Y-124.3
X118.7Y-78.0
X118.7Y-125.9
X118.8Y-76.4
X119.1Y-127.6
X119.1Y-156.6
X119.2Y-74.9
X119.2Y-155.1
X119.3Y-90.4
X119.3Y-91.6
X119.3Y-158.2
X119.5Y-129.3
X119.5Y-153.5
X119.6Y-152.0
X119.7Y-131.0
X119.7Y-150.6
X119.9Y-132.7
X119.9Y-148.9
X119.9Y-159.3
X120.0Y-73.5
X120.0Y-146.9
X120.1Y-124.3
X120.1Y-134.3
X120.2Y-144.9
X120.3Y-136.1
X120.3Y-137.9
X120.3Y-139.5
X120.3Y-141.2
X120.3Y-143.0
X120.5Y-92.7
X120.8Y-157.2
X121.0Y-160.4
X121.1Y-72.5
X121.2Y-131.7
X121.44Y-104.72
X121.6Y-116.8
X121.7Y-92.7
X121.8Y-119.2
X122.1Y-94.2
X122.3Y-71.5
X122.4Y-161.2
X122.69Y-158.79
X122.8Y-99.0
X122.8Y-121.8
X122.9Y-142.2
X123.0Y-93.4
X123.0Y-116.8
X123.0Y-132.1
X123.0Y-137.2
X123.0Y-147.4
X123.2Y-152.3
X123.7Y-70.7
X124.0Y-108.5
X124.0Y-161.3
X125.3Y-70.2
X125.6Y-161.3
X126.35Y-128.17
X127.0Y-70.1
X127.1Y-161.3
X127.6Y-100.6
X128.5Y-106.6
X128.6Y-70.4
X128.7Y-161.3
X128.8Y-73.5
X128.8Y-87.8
X128.9Y-99.5
X128.9Y-101.3
X128.9Y-103.7
X129.0Y-86.0
X129.0Y-151.0
X129.3Y-121.2
X130.0Y-70.9
X130.1Y-97.7
X130.3Y-161.3
X131.2Y-71.6
X131.4Y-84.2
X131.7Y-122.7
X131.8Y-161.3
X131.9Y-105.0
X131.9Y-116.3
X132.0Y-133.9
X132.0Y-135.7
X132.25Y-110.5
X132.4Y-90.4
X132.5Y-71.7
X132.6Y-134.8
X132.7Y-117.8
X133.0Y-126.2
X133.1Y-133.9
X133.5Y-161.3
X133.555Y-116.855
X133.6Y-70.7
X133.7Y-118.7
X133.8Y-92.6
X133.9Y-95.4
X134.0Y-87.4
X134.255Y-126.105
X134.44Y-117.33
X134.799Y-114.65
X134.8Y-69.7
X135.1Y-161.3
X135.2Y-115.65
X135.35Y-126.1
X135.75Y-113.463
X135.899Y-118.295
X135.9Y-94.3
X135.9Y-110.9
X135.908Y-119.294
X136.1Y-69.0
X136.225Y-115.549
X136.6Y-161.3
X137.381Y-125.031
X137.4Y-71.2
X137.45Y-116.05
X137.61Y-102.98
X137.7Y-68.5
X138.1Y-77.3
X138.2Y-75.8
X138.2Y-161.3
X138.3Y-86.1
X138.586Y-116.419
X138.6Y-95.3
X138.645Y-94.105
X139.2Y-88.4
X139.3Y-68.4
X139.8Y-161.3
X140.4Y-97.6
X140.5Y-101.8
X140.6Y-113.55
X140.9Y-155.1
X140.9Y-157.7
X141.0Y-68.6
X141.0Y-90.3
X141.3Y-161.3
X141.6Y-99.0
X141.7Y-83.0
X142.1Y-75.4
X142.5Y-69.1
X142.53Y-129.91
X143.0Y-161.3
X143.26Y-94.29
X143.7Y-69.9
X144.2Y-88.6
X144.6Y-161.3
X144.7Y-70.9
X144.8Y-82.2
X145.4Y-71.9
X145.4Y-87.0
X145.8Y-93.4
X145.9Y-152.3
X145.95Y-157.55
X146.0Y-73.0
X146.1Y-78.2
X146.1Y-161.3
X146.4Y-74.4
X146.5Y-76.8
X146.8Y-137.2
X146.9Y-142.2
X147.0Y-147.3
X147.1Y-121.9
X147.1Y-124.5
X147.3Y-159.1
X147.6Y-161.1
X147.9Y-75.5
X148.0Y-119.4
X148.4Y-110.4
X148.5Y-113.5
X148.62Y-88.03
X148.78Y-125.43
X148.9Y-138.3
X148.9Y-139.8
X148.9Y-160.3
X149.0Y-136.7
X149.0Y-141.5
X149.1Y-135.0
X149.1Y-143.1
X149.2Y-144.9
X149.2Y-155.2
X149.3Y-133.3
X149.4Y-75.5
X149.4Y-146.6
X149.4Y-157.3
X149.6Y-131.6
X149.6Y-148.3
X149.8Y-149.9
X149.9Y-130.0
X150.0Y-83.6
X150.0Y-159.3
X150.1Y-151.5
X150.2Y-80.6
X150.2Y-128.5
X150.4Y-153.2
X150.5Y-127.1
X150.6Y-154.9
X150.7Y-158.0
X150.8Y-75.6
X150.8Y-156.5
X150.9Y-125.5
X151.3Y-123.8
X151.525Y-88.175
X151.6Y-122.3
X151.9Y-92.1
X152.0Y-120.7
X152.1Y-93.5
X152.2Y-75.9
X152.3Y-94.9
X152.3Y-119.2
X152.5Y-90.9
X152.5Y-96.6
X152.7Y-98.2
X152.7Y-116.9
X152.9Y-99.7
X153.0Y-101.4
X153.1Y-103.1
X153.2Y-104.7
X153.4Y-76.6
X153.4Y-109.6
X153.6Y-90.3
X154.6Y-77.5
X154.7Y-89.5
X155.5Y-78.5
X155.7Y-88.4
X156.4Y-79.8
X156.4Y-87.1
X156.9Y-81.1
X156.9Y-85.8
X157.1Y-84.3
X157.2Y-82.7
T4
X131.96Y-100.2
X134.5Y-100.2
X137.04Y-100.2
T5
X125.72Y-102.82
X125.72Y-105.36
X125.72Y-107.9
X125.72Y-110.44
X125.72Y-112.98
X125.72Y-115.52
X125.72Y-118.06
X125.72Y-120.6
X125.72Y-123.14
X125.72Y-125.68
X125.72Y-133.3
X125.72Y-135.84
X125.72Y-138.38
X125.72Y-140.92
X125.72Y-143.46
X125.72Y-146.0
X125.72Y-148.54
X125.72Y-151.08
X125.72Y-153.62
X125.72Y-156.16
X130.8Y-155.23
X130.8Y-157.77
X133.34Y-155.23
X133.34Y-157.77
X135.88Y-155.23
X135.88Y-157.77
X138.42Y-155.23
X138.42Y-157.77
X143.5Y-102.82
X143.5Y-105.36
X143.5Y-107.9
X143.5Y-110.44
X143.5Y-112.98
X143.5Y-115.52
X143.5Y-118.06
X143.5Y-120.6
X143.5Y-123.14
X143.5Y-125.68
X143.5Y-133.3
X143.5Y-135.84
X143.5Y-138.38
X143.5Y-140.92
X143.5Y-143.46
X143.5Y-146.0
X143.5Y-148.54
X143.5Y-151.08
X143.5Y-153.62
X143.5Y-156.16
T6
X132.2Y-76.4
X146.689Y-90.889
T2
G00X117.508Y-102.044
M15
G01X116.862Y-101.976
M16
G05
G00X118.245Y-95.032
M15
G01X117.599Y-94.964
M16
G05
T3
G00X119.993Y-101.123
M15
G01X119.962Y-101.422
M16
G05
G00X120.516Y-96.151
M15
G01X120.484Y-96.449
M16
G05
T0
M30
