%TF.GenerationSoftware,KiCad,Pcbnew,7.0.8*%
%TF.CreationDate,2024-06-06T10:31:46+02:00*%
%TF.ProjectId,BeerBoard,42656572-426f-4617-9264-2e6b69636164,rev?*%
%TF.SameCoordinates,Original*%
%TF.FileFunction,Paste,Top*%
%TF.FilePolarity,Positive*%
%FSLAX46Y46*%
G04 Gerber Fmt 4.6, Leading zero omitted, Abs format (unit mm)*
G04 Created by KiCad (PCBNEW 7.0.8) date 2024-06-06 10:31:46*
%MOMM*%
%LPD*%
G01*
G04 APERTURE LIST*
G04 Aperture macros list*
%AMRoundRect*
0 Rectangle with rounded corners*
0 $1 Rounding radius*
0 $2 $3 $4 $5 $6 $7 $8 $9 X,Y pos of 4 corners*
0 Add a 4 corners polygon primitive as box body*
4,1,4,$2,$3,$4,$5,$6,$7,$8,$9,$2,$3,0*
0 Add four circle primitives for the rounded corners*
1,1,$1+$1,$2,$3*
1,1,$1+$1,$4,$5*
1,1,$1+$1,$6,$7*
1,1,$1+$1,$8,$9*
0 Add four rect primitives between the rounded corners*
20,1,$1+$1,$2,$3,$4,$5,0*
20,1,$1+$1,$4,$5,$6,$7,0*
20,1,$1+$1,$6,$7,$8,$9,0*
20,1,$1+$1,$8,$9,$2,$3,0*%
%AMRotRect*
0 Rectangle, with rotation*
0 The origin of the aperture is its center*
0 $1 length*
0 $2 width*
0 $3 Rotation angle, in degrees counterclockwise*
0 Add horizontal line*
21,1,$1,$2,0,0,$3*%
G04 Aperture macros list end*
%ADD10C,0.010000*%
%ADD11RoundRect,0.250000X-0.250000X0.500000X-0.250000X-0.500000X0.250000X-0.500000X0.250000X0.500000X0*%
%ADD12RoundRect,0.225000X-0.225000X-0.250000X0.225000X-0.250000X0.225000X0.250000X-0.225000X0.250000X0*%
%ADD13RoundRect,0.225000X0.225000X0.250000X-0.225000X0.250000X-0.225000X-0.250000X0.225000X-0.250000X0*%
%ADD14RoundRect,0.225000X-0.017678X0.335876X-0.335876X0.017678X0.017678X-0.335876X0.335876X-0.017678X0*%
%ADD15RoundRect,0.200000X-0.275000X0.200000X-0.275000X-0.200000X0.275000X-0.200000X0.275000X0.200000X0*%
%ADD16RoundRect,0.250000X0.262500X0.450000X-0.262500X0.450000X-0.262500X-0.450000X0.262500X-0.450000X0*%
%ADD17RoundRect,0.250000X0.450000X-0.262500X0.450000X0.262500X-0.450000X0.262500X-0.450000X-0.262500X0*%
%ADD18RoundRect,0.250000X-0.500000X-0.250000X0.500000X-0.250000X0.500000X0.250000X-0.500000X0.250000X0*%
%ADD19RotRect,0.400000X1.350000X264.000000*%
%ADD20RotRect,1.500000X1.550000X264.000000*%
%ADD21RoundRect,0.075000X-0.521491X0.415425X0.415425X-0.521491X0.521491X-0.415425X-0.415425X0.521491X0*%
%ADD22RoundRect,0.075000X-0.521491X-0.415425X-0.415425X-0.521491X0.521491X0.415425X0.415425X0.521491X0*%
%ADD23RoundRect,0.218750X-0.114905X0.424264X-0.424264X0.114905X0.114905X-0.424264X0.424264X-0.114905X0*%
%ADD24RoundRect,0.200000X0.200000X0.275000X-0.200000X0.275000X-0.200000X-0.275000X0.200000X-0.275000X0*%
%ADD25R,1.500000X2.000000*%
%ADD26R,3.800000X2.000000*%
%ADD27RoundRect,0.250000X0.159099X-0.512652X0.512652X-0.159099X-0.159099X0.512652X-0.512652X0.159099X0*%
%ADD28RoundRect,0.250000X-0.475000X0.250000X-0.475000X-0.250000X0.475000X-0.250000X0.475000X0.250000X0*%
%ADD29R,1.400000X1.200000*%
%ADD30RoundRect,0.250000X-0.503814X-0.132583X-0.132583X-0.503814X0.503814X0.132583X0.132583X0.503814X0*%
%ADD31RoundRect,0.250000X0.325000X0.650000X-0.325000X0.650000X-0.325000X-0.650000X0.325000X-0.650000X0*%
%ADD32RoundRect,0.200000X-0.200000X-0.275000X0.200000X-0.275000X0.200000X0.275000X-0.200000X0.275000X0*%
%ADD33RoundRect,0.225000X0.017678X-0.335876X0.335876X-0.017678X-0.017678X0.335876X-0.335876X0.017678X0*%
%ADD34RoundRect,0.250000X0.475000X-0.250000X0.475000X0.250000X-0.475000X0.250000X-0.475000X-0.250000X0*%
%ADD35RoundRect,0.250000X-0.250000X-0.475000X0.250000X-0.475000X0.250000X0.475000X-0.250000X0.475000X0*%
G04 APERTURE END LIST*
%TO.C,J3*%
D10*
X117666379Y-94550221D02*
X117692341Y-94551944D01*
X118239328Y-94609434D01*
X118265081Y-94613147D01*
X118290730Y-94617853D01*
X118316274Y-94623555D01*
X118341609Y-94631245D01*
X118365845Y-94639825D01*
X118390971Y-94649505D01*
X118413898Y-94660964D01*
X118436722Y-94673418D01*
X118459440Y-94686867D01*
X118480955Y-94702200D01*
X118501371Y-94718422D01*
X118521788Y-94734645D01*
X118541000Y-94752753D01*
X118559114Y-94771750D01*
X118576128Y-94791638D01*
X118592043Y-94812415D01*
X118606860Y-94834083D01*
X118620577Y-94856640D01*
X118632200Y-94879983D01*
X118643824Y-94903326D01*
X118654349Y-94927559D01*
X118662780Y-94952577D01*
X118670216Y-94977491D01*
X118676658Y-95002300D01*
X118680902Y-95028889D01*
X118684256Y-95054380D01*
X118686511Y-95080760D01*
X118686777Y-95106931D01*
X118686048Y-95132998D01*
X118684325Y-95158960D01*
X118564640Y-96297687D01*
X117023131Y-96135668D01*
X117142816Y-94996941D01*
X117146528Y-94971187D01*
X117151235Y-94945539D01*
X117156936Y-94919995D01*
X117164627Y-94894660D01*
X117173207Y-94870424D01*
X117182887Y-94845298D01*
X117194346Y-94822371D01*
X117206800Y-94799547D01*
X117220248Y-94776829D01*
X117235581Y-94755313D01*
X117251804Y-94734897D01*
X117268027Y-94714481D01*
X117286134Y-94695269D01*
X117305132Y-94677155D01*
X117325019Y-94660141D01*
X117345797Y-94644226D01*
X117367464Y-94629409D01*
X117390022Y-94615692D01*
X117413365Y-94604068D01*
X117436707Y-94592445D01*
X117460940Y-94581920D01*
X117485959Y-94573489D01*
X117510872Y-94566052D01*
X117535682Y-94559610D01*
X117562271Y-94555366D01*
X117587761Y-94552013D01*
X117614141Y-94549758D01*
X117640313Y-94549492D01*
X117666379Y-94550221D01*
G36*
X117666379Y-94550221D02*
G01*
X117692341Y-94551944D01*
X118239328Y-94609434D01*
X118265081Y-94613147D01*
X118290730Y-94617853D01*
X118316274Y-94623555D01*
X118341609Y-94631245D01*
X118365845Y-94639825D01*
X118390971Y-94649505D01*
X118413898Y-94660964D01*
X118436722Y-94673418D01*
X118459440Y-94686867D01*
X118480955Y-94702200D01*
X118501371Y-94718422D01*
X118521788Y-94734645D01*
X118541000Y-94752753D01*
X118559114Y-94771750D01*
X118576128Y-94791638D01*
X118592043Y-94812415D01*
X118606860Y-94834083D01*
X118620577Y-94856640D01*
X118632200Y-94879983D01*
X118643824Y-94903326D01*
X118654349Y-94927559D01*
X118662780Y-94952577D01*
X118670216Y-94977491D01*
X118676658Y-95002300D01*
X118680902Y-95028889D01*
X118684256Y-95054380D01*
X118686511Y-95080760D01*
X118686777Y-95106931D01*
X118686048Y-95132998D01*
X118684325Y-95158960D01*
X118564640Y-96297687D01*
X117023131Y-96135668D01*
X117142816Y-94996941D01*
X117146528Y-94971187D01*
X117151235Y-94945539D01*
X117156936Y-94919995D01*
X117164627Y-94894660D01*
X117173207Y-94870424D01*
X117182887Y-94845298D01*
X117194346Y-94822371D01*
X117206800Y-94799547D01*
X117220248Y-94776829D01*
X117235581Y-94755313D01*
X117251804Y-94734897D01*
X117268027Y-94714481D01*
X117286134Y-94695269D01*
X117305132Y-94677155D01*
X117325019Y-94660141D01*
X117345797Y-94644226D01*
X117367464Y-94629409D01*
X117390022Y-94615692D01*
X117413365Y-94604068D01*
X117436707Y-94592445D01*
X117460940Y-94581920D01*
X117485959Y-94573489D01*
X117510872Y-94566052D01*
X117535682Y-94559610D01*
X117562271Y-94555366D01*
X117587761Y-94552013D01*
X117614141Y-94549758D01*
X117640313Y-94549492D01*
X117666379Y-94550221D01*
G37*
X118083809Y-100872488D02*
X117964124Y-102011215D01*
X117960412Y-102036969D01*
X117955705Y-102062617D01*
X117950004Y-102088161D01*
X117942313Y-102113496D01*
X117933733Y-102137732D01*
X117924053Y-102162858D01*
X117912594Y-102185785D01*
X117900140Y-102208609D01*
X117886692Y-102231327D01*
X117871359Y-102252843D01*
X117855136Y-102273259D01*
X117838913Y-102293675D01*
X117820806Y-102312887D01*
X117801808Y-102331001D01*
X117781921Y-102348015D01*
X117761143Y-102363930D01*
X117739476Y-102378747D01*
X117716918Y-102392464D01*
X117693575Y-102404088D01*
X117670233Y-102415711D01*
X117646000Y-102426236D01*
X117620981Y-102434667D01*
X117596068Y-102442104D01*
X117571258Y-102448546D01*
X117544669Y-102452790D01*
X117519179Y-102456143D01*
X117492799Y-102458398D01*
X117466627Y-102458664D01*
X117440561Y-102457935D01*
X117414599Y-102456212D01*
X116867612Y-102398722D01*
X116841859Y-102395009D01*
X116816210Y-102390303D01*
X116790666Y-102384601D01*
X116765331Y-102376911D01*
X116741095Y-102368331D01*
X116715969Y-102358651D01*
X116693042Y-102347192D01*
X116670218Y-102334738D01*
X116647500Y-102321289D01*
X116625985Y-102305956D01*
X116605569Y-102289734D01*
X116585152Y-102273511D01*
X116565940Y-102255403D01*
X116547826Y-102236406D01*
X116530812Y-102216518D01*
X116514897Y-102195741D01*
X116500080Y-102174073D01*
X116486363Y-102151516D01*
X116474740Y-102128173D01*
X116463116Y-102104830D01*
X116452591Y-102080597D01*
X116444160Y-102055579D01*
X116436724Y-102030665D01*
X116430282Y-102005856D01*
X116426038Y-101979267D01*
X116422684Y-101953776D01*
X116420429Y-101927396D01*
X116420163Y-101901225D01*
X116420892Y-101875158D01*
X116422615Y-101849196D01*
X116542300Y-100710469D01*
X118083809Y-100872488D01*
G36*
X118083809Y-100872488D02*
G01*
X117964124Y-102011215D01*
X117960412Y-102036969D01*
X117955705Y-102062617D01*
X117950004Y-102088161D01*
X117942313Y-102113496D01*
X117933733Y-102137732D01*
X117924053Y-102162858D01*
X117912594Y-102185785D01*
X117900140Y-102208609D01*
X117886692Y-102231327D01*
X117871359Y-102252843D01*
X117855136Y-102273259D01*
X117838913Y-102293675D01*
X117820806Y-102312887D01*
X117801808Y-102331001D01*
X117781921Y-102348015D01*
X117761143Y-102363930D01*
X117739476Y-102378747D01*
X117716918Y-102392464D01*
X117693575Y-102404088D01*
X117670233Y-102415711D01*
X117646000Y-102426236D01*
X117620981Y-102434667D01*
X117596068Y-102442104D01*
X117571258Y-102448546D01*
X117544669Y-102452790D01*
X117519179Y-102456143D01*
X117492799Y-102458398D01*
X117466627Y-102458664D01*
X117440561Y-102457935D01*
X117414599Y-102456212D01*
X116867612Y-102398722D01*
X116841859Y-102395009D01*
X116816210Y-102390303D01*
X116790666Y-102384601D01*
X116765331Y-102376911D01*
X116741095Y-102368331D01*
X116715969Y-102358651D01*
X116693042Y-102347192D01*
X116670218Y-102334738D01*
X116647500Y-102321289D01*
X116625985Y-102305956D01*
X116605569Y-102289734D01*
X116585152Y-102273511D01*
X116565940Y-102255403D01*
X116547826Y-102236406D01*
X116530812Y-102216518D01*
X116514897Y-102195741D01*
X116500080Y-102174073D01*
X116486363Y-102151516D01*
X116474740Y-102128173D01*
X116463116Y-102104830D01*
X116452591Y-102080597D01*
X116444160Y-102055579D01*
X116436724Y-102030665D01*
X116430282Y-102005856D01*
X116426038Y-101979267D01*
X116422684Y-101953776D01*
X116420429Y-101927396D01*
X116420163Y-101901225D01*
X116420892Y-101875158D01*
X116422615Y-101849196D01*
X116542300Y-100710469D01*
X118083809Y-100872488D01*
G37*
%TD*%
D11*
%TO.C,SW1*%
X152200000Y-107350000D03*
X152200000Y-111850000D03*
X150200000Y-107350000D03*
X150200000Y-111850000D03*
%TD*%
D12*
%TO.C,C13*%
X135525000Y-128062500D03*
X137075000Y-128062500D03*
%TD*%
%TO.C,C6*%
X133347500Y-109590000D03*
X134897500Y-109590000D03*
%TD*%
D13*
%TO.C,C14*%
X133700000Y-128062500D03*
X132150000Y-128062500D03*
%TD*%
D12*
%TO.C,C1*%
X150125000Y-114000000D03*
X151675000Y-114000000D03*
%TD*%
D14*
%TO.C,C8*%
X134384008Y-123303992D03*
X133287992Y-124400008D03*
%TD*%
D15*
%TO.C,R16*%
X146290000Y-130375000D03*
X146290000Y-132025000D03*
%TD*%
D16*
%TO.C,R3*%
X140362500Y-150200000D03*
X138537500Y-150200000D03*
%TD*%
D17*
%TO.C,R1*%
X150400000Y-117812500D03*
X150400000Y-115987500D03*
%TD*%
D18*
%TO.C,SW4*%
X120650000Y-79800000D03*
X125150000Y-79800000D03*
X120650000Y-81800000D03*
X125150000Y-81800000D03*
%TD*%
D19*
%TO.C,J3*%
X120349703Y-97490813D03*
X120281760Y-98137252D03*
X120213816Y-98783692D03*
X120145873Y-99430131D03*
X120077929Y-100076570D03*
D20*
X117657998Y-97509556D03*
X117448942Y-99498600D03*
%TD*%
D13*
%TO.C,C11*%
X125775000Y-93400000D03*
X124225000Y-93400000D03*
%TD*%
D21*
%TO.C,U1*%
X134361212Y-111852124D03*
X134007658Y-112205678D03*
X133654105Y-112559231D03*
X133300551Y-112912785D03*
X132946998Y-113266338D03*
X132593445Y-113619891D03*
X132239891Y-113973445D03*
X131886338Y-114326998D03*
X131532785Y-114680551D03*
X131179231Y-115034105D03*
X130825678Y-115387658D03*
X130472124Y-115741212D03*
D22*
X130472124Y-117738788D03*
X130825678Y-118092342D03*
X131179231Y-118445895D03*
X131532785Y-118799449D03*
X131886338Y-119153002D03*
X132239891Y-119506555D03*
X132593445Y-119860109D03*
X132946998Y-120213662D03*
X133300551Y-120567215D03*
X133654105Y-120920769D03*
X134007658Y-121274322D03*
X134361212Y-121627876D03*
D21*
X136358788Y-121627876D03*
X136712342Y-121274322D03*
X137065895Y-120920769D03*
X137419449Y-120567215D03*
X137773002Y-120213662D03*
X138126555Y-119860109D03*
X138480109Y-119506555D03*
X138833662Y-119153002D03*
X139187215Y-118799449D03*
X139540769Y-118445895D03*
X139894322Y-118092342D03*
X140247876Y-117738788D03*
D22*
X140247876Y-115741212D03*
X139894322Y-115387658D03*
X139540769Y-115034105D03*
X139187215Y-114680551D03*
X138833662Y-114326998D03*
X138480109Y-113973445D03*
X138126555Y-113619891D03*
X137773002Y-113266338D03*
X137419449Y-112912785D03*
X137065895Y-112559231D03*
X136712342Y-112205678D03*
X136358788Y-111852124D03*
%TD*%
D23*
%TO.C,FB1*%
X130377856Y-106968590D03*
X128875254Y-108471192D03*
%TD*%
D24*
%TO.C,R17*%
X144515000Y-158760000D03*
X142865000Y-158760000D03*
%TD*%
%TO.C,R13*%
X123005000Y-127760000D03*
X121355000Y-127760000D03*
%TD*%
D13*
%TO.C,C2*%
X119975000Y-111932000D03*
X118425000Y-111932000D03*
%TD*%
D15*
%TO.C,R12*%
X119390000Y-104765000D03*
X119390000Y-106415000D03*
%TD*%
D25*
%TO.C,U2*%
X121200000Y-90900000D03*
X123500000Y-90900000D03*
D26*
X123500000Y-84600000D03*
D25*
X125800000Y-90900000D03*
%TD*%
D27*
%TO.C,C10*%
X129454804Y-110791642D03*
X130798306Y-109448140D03*
%TD*%
D15*
%TO.C,R7*%
X148990000Y-98275000D03*
X148990000Y-99925000D03*
%TD*%
D28*
%TO.C,C4*%
X128725000Y-91250000D03*
X128725000Y-93150000D03*
%TD*%
D29*
%TO.C,Y1*%
X135225000Y-129962500D03*
X133025000Y-129962500D03*
X133025000Y-131662500D03*
X135225000Y-131662500D03*
%TD*%
D15*
%TO.C,R15*%
X147980000Y-130385000D03*
X147980000Y-132035000D03*
%TD*%
D30*
%TO.C,R18*%
X127754765Y-80154765D03*
X129045235Y-81445235D03*
%TD*%
D17*
%TO.C,R2*%
X119700000Y-110044500D03*
X119700000Y-108219500D03*
%TD*%
D15*
%TO.C,R9*%
X151260000Y-102535000D03*
X151260000Y-104185000D03*
%TD*%
D31*
%TO.C,C12*%
X131975000Y-95900000D03*
X129025000Y-95900000D03*
%TD*%
D12*
%TO.C,C15*%
X124225000Y-77600000D03*
X125775000Y-77600000D03*
%TD*%
D16*
%TO.C,R4*%
X140362500Y-145500000D03*
X138537500Y-145500000D03*
%TD*%
D32*
%TO.C,R14*%
X124945000Y-158800000D03*
X126595000Y-158800000D03*
%TD*%
D12*
%TO.C,C7*%
X136747500Y-109590000D03*
X138297500Y-109590000D03*
%TD*%
D15*
%TO.C,R5*%
X145240000Y-98250000D03*
X145240000Y-99900000D03*
%TD*%
D11*
%TO.C,SW2*%
X119950000Y-114082000D03*
X119950000Y-118582000D03*
X117950000Y-114082000D03*
X117950000Y-118582000D03*
%TD*%
D33*
%TO.C,C9*%
X130378547Y-112667899D03*
X131474563Y-111571883D03*
%TD*%
D15*
%TO.C,R8*%
X149320000Y-102505000D03*
X149320000Y-104155000D03*
%TD*%
%TO.C,R11*%
X122810000Y-104705000D03*
X122810000Y-106355000D03*
%TD*%
D34*
%TO.C,C3*%
X123300000Y-97350000D03*
X123300000Y-95450000D03*
%TD*%
D15*
%TO.C,R6*%
X147150000Y-98270000D03*
X147150000Y-99920000D03*
%TD*%
D24*
%TO.C,R10*%
X135365000Y-103320000D03*
X133715000Y-103320000D03*
%TD*%
D35*
%TO.C,C5*%
X133272500Y-107490000D03*
X135172500Y-107490000D03*
%TD*%
M02*
