%TF.GenerationSoftware,KiCad,Pcbnew,7.0.8*%
%TF.CreationDate,2024-06-06T10:31:46+02:00*%
%TF.ProjectId,BeerBoard,42656572-426f-4617-9264-2e6b69636164,rev?*%
%TF.SameCoordinates,Original*%
%TF.FileFunction,Legend,Top*%
%TF.FilePolarity,Positive*%
%FSLAX46Y46*%
G04 Gerber Fmt 4.6, Leading zero omitted, Abs format (unit mm)*
G04 Created by KiCad (PCBNEW 7.0.8) date 2024-06-06 10:31:46*
%MOMM*%
%LPD*%
G01*
G04 APERTURE LIST*
%ADD10C,0.150000*%
%ADD11C,0.080000*%
%ADD12C,0.200000*%
%ADD13C,0.100000*%
%ADD14C,0.120000*%
%ADD15C,0.127000*%
G04 APERTURE END LIST*
D10*
X133568211Y-110990000D02*
G75*
G03*
X133568211Y-110990000I-70711J0D01*
G01*
X145323160Y-146452295D02*
X145323160Y-145652295D01*
X145323160Y-145652295D02*
X145627922Y-145652295D01*
X145627922Y-145652295D02*
X145704112Y-145690390D01*
X145704112Y-145690390D02*
X145742207Y-145728485D01*
X145742207Y-145728485D02*
X145780303Y-145804676D01*
X145780303Y-145804676D02*
X145780303Y-145918961D01*
X145780303Y-145918961D02*
X145742207Y-145995152D01*
X145742207Y-145995152D02*
X145704112Y-146033247D01*
X145704112Y-146033247D02*
X145627922Y-146071342D01*
X145627922Y-146071342D02*
X145323160Y-146071342D01*
X146389826Y-146033247D02*
X146504112Y-146071342D01*
X146504112Y-146071342D02*
X146542207Y-146109438D01*
X146542207Y-146109438D02*
X146580303Y-146185628D01*
X146580303Y-146185628D02*
X146580303Y-146299914D01*
X146580303Y-146299914D02*
X146542207Y-146376104D01*
X146542207Y-146376104D02*
X146504112Y-146414200D01*
X146504112Y-146414200D02*
X146427922Y-146452295D01*
X146427922Y-146452295D02*
X146123160Y-146452295D01*
X146123160Y-146452295D02*
X146123160Y-145652295D01*
X146123160Y-145652295D02*
X146389826Y-145652295D01*
X146389826Y-145652295D02*
X146466017Y-145690390D01*
X146466017Y-145690390D02*
X146504112Y-145728485D01*
X146504112Y-145728485D02*
X146542207Y-145804676D01*
X146542207Y-145804676D02*
X146542207Y-145880866D01*
X146542207Y-145880866D02*
X146504112Y-145957057D01*
X146504112Y-145957057D02*
X146466017Y-145995152D01*
X146466017Y-145995152D02*
X146389826Y-146033247D01*
X146389826Y-146033247D02*
X146123160Y-146033247D01*
X146846969Y-145652295D02*
X147380303Y-145652295D01*
X147380303Y-145652295D02*
X147037445Y-146452295D01*
X122374207Y-153310390D02*
X122298017Y-153272295D01*
X122298017Y-153272295D02*
X122183731Y-153272295D01*
X122183731Y-153272295D02*
X122069445Y-153310390D01*
X122069445Y-153310390D02*
X121993255Y-153386580D01*
X121993255Y-153386580D02*
X121955160Y-153462771D01*
X121955160Y-153462771D02*
X121917064Y-153615152D01*
X121917064Y-153615152D02*
X121917064Y-153729438D01*
X121917064Y-153729438D02*
X121955160Y-153881819D01*
X121955160Y-153881819D02*
X121993255Y-153958009D01*
X121993255Y-153958009D02*
X122069445Y-154034200D01*
X122069445Y-154034200D02*
X122183731Y-154072295D01*
X122183731Y-154072295D02*
X122259922Y-154072295D01*
X122259922Y-154072295D02*
X122374207Y-154034200D01*
X122374207Y-154034200D02*
X122412303Y-153996104D01*
X122412303Y-153996104D02*
X122412303Y-153729438D01*
X122412303Y-153729438D02*
X122259922Y-153729438D01*
X122755160Y-154072295D02*
X122755160Y-153272295D01*
X122755160Y-153272295D02*
X123212303Y-154072295D01*
X123212303Y-154072295D02*
X123212303Y-153272295D01*
X123593255Y-154072295D02*
X123593255Y-153272295D01*
X123593255Y-153272295D02*
X123783731Y-153272295D01*
X123783731Y-153272295D02*
X123898017Y-153310390D01*
X123898017Y-153310390D02*
X123974207Y-153386580D01*
X123974207Y-153386580D02*
X124012302Y-153462771D01*
X124012302Y-153462771D02*
X124050398Y-153615152D01*
X124050398Y-153615152D02*
X124050398Y-153729438D01*
X124050398Y-153729438D02*
X124012302Y-153881819D01*
X124012302Y-153881819D02*
X123974207Y-153958009D01*
X123974207Y-153958009D02*
X123898017Y-154034200D01*
X123898017Y-154034200D02*
X123783731Y-154072295D01*
X123783731Y-154072295D02*
X123593255Y-154072295D01*
X121955160Y-121052295D02*
X121955160Y-120252295D01*
X121955160Y-120252295D02*
X122259922Y-120252295D01*
X122259922Y-120252295D02*
X122336112Y-120290390D01*
X122336112Y-120290390D02*
X122374207Y-120328485D01*
X122374207Y-120328485D02*
X122412303Y-120404676D01*
X122412303Y-120404676D02*
X122412303Y-120518961D01*
X122412303Y-120518961D02*
X122374207Y-120595152D01*
X122374207Y-120595152D02*
X122336112Y-120633247D01*
X122336112Y-120633247D02*
X122259922Y-120671342D01*
X122259922Y-120671342D02*
X121955160Y-120671342D01*
X122717064Y-120823723D02*
X123098017Y-120823723D01*
X122640874Y-121052295D02*
X122907541Y-120252295D01*
X122907541Y-120252295D02*
X123174207Y-121052295D01*
X123364683Y-120252295D02*
X123859921Y-120252295D01*
X123859921Y-120252295D02*
X123593255Y-120557057D01*
X123593255Y-120557057D02*
X123707540Y-120557057D01*
X123707540Y-120557057D02*
X123783731Y-120595152D01*
X123783731Y-120595152D02*
X123821826Y-120633247D01*
X123821826Y-120633247D02*
X123859921Y-120709438D01*
X123859921Y-120709438D02*
X123859921Y-120899914D01*
X123859921Y-120899914D02*
X123821826Y-120976104D01*
X123821826Y-120976104D02*
X123783731Y-121014200D01*
X123783731Y-121014200D02*
X123707540Y-121052295D01*
X123707540Y-121052295D02*
X123478969Y-121052295D01*
X123478969Y-121052295D02*
X123402778Y-121014200D01*
X123402778Y-121014200D02*
X123364683Y-120976104D01*
D11*
X136323583Y-160547840D02*
X135980726Y-161062125D01*
X136399774Y-160566887D02*
X136628345Y-160566887D01*
X136514059Y-160966887D02*
X136514059Y-160566887D01*
X136723583Y-160566887D02*
X136990250Y-160966887D01*
X136990250Y-160566887D02*
X136723583Y-160966887D01*
D10*
X145323160Y-148992295D02*
X145323160Y-148192295D01*
X145323160Y-148192295D02*
X145627922Y-148192295D01*
X145627922Y-148192295D02*
X145704112Y-148230390D01*
X145704112Y-148230390D02*
X145742207Y-148268485D01*
X145742207Y-148268485D02*
X145780303Y-148344676D01*
X145780303Y-148344676D02*
X145780303Y-148458961D01*
X145780303Y-148458961D02*
X145742207Y-148535152D01*
X145742207Y-148535152D02*
X145704112Y-148573247D01*
X145704112Y-148573247D02*
X145627922Y-148611342D01*
X145627922Y-148611342D02*
X145323160Y-148611342D01*
X146389826Y-148573247D02*
X146123160Y-148573247D01*
X146123160Y-148992295D02*
X146123160Y-148192295D01*
X146123160Y-148192295D02*
X146504112Y-148192295D01*
X146732683Y-148192295D02*
X147266017Y-148192295D01*
X147266017Y-148192295D02*
X146923159Y-148992295D01*
X121955160Y-110892295D02*
X121955160Y-110092295D01*
X121955160Y-110092295D02*
X122259922Y-110092295D01*
X122259922Y-110092295D02*
X122336112Y-110130390D01*
X122336112Y-110130390D02*
X122374207Y-110168485D01*
X122374207Y-110168485D02*
X122412303Y-110244676D01*
X122412303Y-110244676D02*
X122412303Y-110358961D01*
X122412303Y-110358961D02*
X122374207Y-110435152D01*
X122374207Y-110435152D02*
X122336112Y-110473247D01*
X122336112Y-110473247D02*
X122259922Y-110511342D01*
X122259922Y-110511342D02*
X121955160Y-110511342D01*
X122717064Y-110663723D02*
X123098017Y-110663723D01*
X122640874Y-110892295D02*
X122907541Y-110092295D01*
X122907541Y-110092295D02*
X123174207Y-110892295D01*
X123593255Y-110092295D02*
X123669445Y-110092295D01*
X123669445Y-110092295D02*
X123745636Y-110130390D01*
X123745636Y-110130390D02*
X123783731Y-110168485D01*
X123783731Y-110168485D02*
X123821826Y-110244676D01*
X123821826Y-110244676D02*
X123859921Y-110397057D01*
X123859921Y-110397057D02*
X123859921Y-110587533D01*
X123859921Y-110587533D02*
X123821826Y-110739914D01*
X123821826Y-110739914D02*
X123783731Y-110816104D01*
X123783731Y-110816104D02*
X123745636Y-110854200D01*
X123745636Y-110854200D02*
X123669445Y-110892295D01*
X123669445Y-110892295D02*
X123593255Y-110892295D01*
X123593255Y-110892295D02*
X123517064Y-110854200D01*
X123517064Y-110854200D02*
X123478969Y-110816104D01*
X123478969Y-110816104D02*
X123440874Y-110739914D01*
X123440874Y-110739914D02*
X123402778Y-110587533D01*
X123402778Y-110587533D02*
X123402778Y-110397057D01*
X123402778Y-110397057D02*
X123440874Y-110244676D01*
X123440874Y-110244676D02*
X123478969Y-110168485D01*
X123478969Y-110168485D02*
X123517064Y-110130390D01*
X123517064Y-110130390D02*
X123593255Y-110092295D01*
X145285064Y-123554200D02*
X145399350Y-123592295D01*
X145399350Y-123592295D02*
X145589826Y-123592295D01*
X145589826Y-123592295D02*
X145666017Y-123554200D01*
X145666017Y-123554200D02*
X145704112Y-123516104D01*
X145704112Y-123516104D02*
X145742207Y-123439914D01*
X145742207Y-123439914D02*
X145742207Y-123363723D01*
X145742207Y-123363723D02*
X145704112Y-123287533D01*
X145704112Y-123287533D02*
X145666017Y-123249438D01*
X145666017Y-123249438D02*
X145589826Y-123211342D01*
X145589826Y-123211342D02*
X145437445Y-123173247D01*
X145437445Y-123173247D02*
X145361255Y-123135152D01*
X145361255Y-123135152D02*
X145323160Y-123097057D01*
X145323160Y-123097057D02*
X145285064Y-123020866D01*
X145285064Y-123020866D02*
X145285064Y-122944676D01*
X145285064Y-122944676D02*
X145323160Y-122868485D01*
X145323160Y-122868485D02*
X145361255Y-122830390D01*
X145361255Y-122830390D02*
X145437445Y-122792295D01*
X145437445Y-122792295D02*
X145627922Y-122792295D01*
X145627922Y-122792295D02*
X145742207Y-122830390D01*
X146008874Y-122792295D02*
X146199350Y-123592295D01*
X146199350Y-123592295D02*
X146351731Y-123020866D01*
X146351731Y-123020866D02*
X146504112Y-123592295D01*
X146504112Y-123592295D02*
X146694589Y-122792295D01*
X146999351Y-123592295D02*
X146999351Y-122792295D01*
X146999351Y-122792295D02*
X147189827Y-122792295D01*
X147189827Y-122792295D02*
X147304113Y-122830390D01*
X147304113Y-122830390D02*
X147380303Y-122906580D01*
X147380303Y-122906580D02*
X147418398Y-122982771D01*
X147418398Y-122982771D02*
X147456494Y-123135152D01*
X147456494Y-123135152D02*
X147456494Y-123249438D01*
X147456494Y-123249438D02*
X147418398Y-123401819D01*
X147418398Y-123401819D02*
X147380303Y-123478009D01*
X147380303Y-123478009D02*
X147304113Y-123554200D01*
X147304113Y-123554200D02*
X147189827Y-123592295D01*
X147189827Y-123592295D02*
X146999351Y-123592295D01*
X147799351Y-123592295D02*
X147799351Y-122792295D01*
X148332684Y-122792295D02*
X148485065Y-122792295D01*
X148485065Y-122792295D02*
X148561255Y-122830390D01*
X148561255Y-122830390D02*
X148637446Y-122906580D01*
X148637446Y-122906580D02*
X148675541Y-123058961D01*
X148675541Y-123058961D02*
X148675541Y-123325628D01*
X148675541Y-123325628D02*
X148637446Y-123478009D01*
X148637446Y-123478009D02*
X148561255Y-123554200D01*
X148561255Y-123554200D02*
X148485065Y-123592295D01*
X148485065Y-123592295D02*
X148332684Y-123592295D01*
X148332684Y-123592295D02*
X148256493Y-123554200D01*
X148256493Y-123554200D02*
X148180303Y-123478009D01*
X148180303Y-123478009D02*
X148142207Y-123325628D01*
X148142207Y-123325628D02*
X148142207Y-123058961D01*
X148142207Y-123058961D02*
X148180303Y-122906580D01*
X148180303Y-122906580D02*
X148256493Y-122830390D01*
X148256493Y-122830390D02*
X148332684Y-122792295D01*
X121955160Y-133752295D02*
X121955160Y-132952295D01*
X121955160Y-132952295D02*
X122259922Y-132952295D01*
X122259922Y-132952295D02*
X122336112Y-132990390D01*
X122336112Y-132990390D02*
X122374207Y-133028485D01*
X122374207Y-133028485D02*
X122412303Y-133104676D01*
X122412303Y-133104676D02*
X122412303Y-133218961D01*
X122412303Y-133218961D02*
X122374207Y-133295152D01*
X122374207Y-133295152D02*
X122336112Y-133333247D01*
X122336112Y-133333247D02*
X122259922Y-133371342D01*
X122259922Y-133371342D02*
X121955160Y-133371342D01*
X122717064Y-133523723D02*
X123098017Y-133523723D01*
X122640874Y-133752295D02*
X122907541Y-132952295D01*
X122907541Y-132952295D02*
X123174207Y-133752295D01*
X123783731Y-132952295D02*
X123631350Y-132952295D01*
X123631350Y-132952295D02*
X123555159Y-132990390D01*
X123555159Y-132990390D02*
X123517064Y-133028485D01*
X123517064Y-133028485D02*
X123440874Y-133142771D01*
X123440874Y-133142771D02*
X123402778Y-133295152D01*
X123402778Y-133295152D02*
X123402778Y-133599914D01*
X123402778Y-133599914D02*
X123440874Y-133676104D01*
X123440874Y-133676104D02*
X123478969Y-133714200D01*
X123478969Y-133714200D02*
X123555159Y-133752295D01*
X123555159Y-133752295D02*
X123707540Y-133752295D01*
X123707540Y-133752295D02*
X123783731Y-133714200D01*
X123783731Y-133714200D02*
X123821826Y-133676104D01*
X123821826Y-133676104D02*
X123859921Y-133599914D01*
X123859921Y-133599914D02*
X123859921Y-133409438D01*
X123859921Y-133409438D02*
X123821826Y-133333247D01*
X123821826Y-133333247D02*
X123783731Y-133295152D01*
X123783731Y-133295152D02*
X123707540Y-133257057D01*
X123707540Y-133257057D02*
X123555159Y-133257057D01*
X123555159Y-133257057D02*
X123478969Y-133295152D01*
X123478969Y-133295152D02*
X123440874Y-133333247D01*
X123440874Y-133333247D02*
X123402778Y-133409438D01*
D11*
X120257869Y-123366887D02*
X120257869Y-122966887D01*
X120257869Y-122966887D02*
X120486440Y-123366887D01*
X120486440Y-123366887D02*
X120486440Y-122966887D01*
X120657869Y-123347840D02*
X120715012Y-123366887D01*
X120715012Y-123366887D02*
X120810250Y-123366887D01*
X120810250Y-123366887D02*
X120848345Y-123347840D01*
X120848345Y-123347840D02*
X120867393Y-123328792D01*
X120867393Y-123328792D02*
X120886440Y-123290697D01*
X120886440Y-123290697D02*
X120886440Y-123252601D01*
X120886440Y-123252601D02*
X120867393Y-123214506D01*
X120867393Y-123214506D02*
X120848345Y-123195459D01*
X120848345Y-123195459D02*
X120810250Y-123176411D01*
X120810250Y-123176411D02*
X120734059Y-123157363D01*
X120734059Y-123157363D02*
X120695964Y-123138316D01*
X120695964Y-123138316D02*
X120676917Y-123119268D01*
X120676917Y-123119268D02*
X120657869Y-123081173D01*
X120657869Y-123081173D02*
X120657869Y-123043078D01*
X120657869Y-123043078D02*
X120676917Y-123004982D01*
X120676917Y-123004982D02*
X120695964Y-122985935D01*
X120695964Y-122985935D02*
X120734059Y-122966887D01*
X120734059Y-122966887D02*
X120829298Y-122966887D01*
X120829298Y-122966887D02*
X120886440Y-122985935D01*
X121038821Y-123347840D02*
X121095964Y-123366887D01*
X121095964Y-123366887D02*
X121191202Y-123366887D01*
X121191202Y-123366887D02*
X121229297Y-123347840D01*
X121229297Y-123347840D02*
X121248345Y-123328792D01*
X121248345Y-123328792D02*
X121267392Y-123290697D01*
X121267392Y-123290697D02*
X121267392Y-123252601D01*
X121267392Y-123252601D02*
X121248345Y-123214506D01*
X121248345Y-123214506D02*
X121229297Y-123195459D01*
X121229297Y-123195459D02*
X121191202Y-123176411D01*
X121191202Y-123176411D02*
X121115011Y-123157363D01*
X121115011Y-123157363D02*
X121076916Y-123138316D01*
X121076916Y-123138316D02*
X121057869Y-123119268D01*
X121057869Y-123119268D02*
X121038821Y-123081173D01*
X121038821Y-123081173D02*
X121038821Y-123043078D01*
X121038821Y-123043078D02*
X121057869Y-123004982D01*
X121057869Y-123004982D02*
X121076916Y-122985935D01*
X121076916Y-122985935D02*
X121115011Y-122966887D01*
X121115011Y-122966887D02*
X121210250Y-122966887D01*
X121210250Y-122966887D02*
X121267392Y-122985935D01*
X121724535Y-122947840D02*
X121381678Y-123462125D01*
D10*
X121955160Y-143912295D02*
X121955160Y-143112295D01*
X121955160Y-143112295D02*
X122259922Y-143112295D01*
X122259922Y-143112295D02*
X122336112Y-143150390D01*
X122336112Y-143150390D02*
X122374207Y-143188485D01*
X122374207Y-143188485D02*
X122412303Y-143264676D01*
X122412303Y-143264676D02*
X122412303Y-143378961D01*
X122412303Y-143378961D02*
X122374207Y-143455152D01*
X122374207Y-143455152D02*
X122336112Y-143493247D01*
X122336112Y-143493247D02*
X122259922Y-143531342D01*
X122259922Y-143531342D02*
X121955160Y-143531342D01*
X123021826Y-143493247D02*
X123136112Y-143531342D01*
X123136112Y-143531342D02*
X123174207Y-143569438D01*
X123174207Y-143569438D02*
X123212303Y-143645628D01*
X123212303Y-143645628D02*
X123212303Y-143759914D01*
X123212303Y-143759914D02*
X123174207Y-143836104D01*
X123174207Y-143836104D02*
X123136112Y-143874200D01*
X123136112Y-143874200D02*
X123059922Y-143912295D01*
X123059922Y-143912295D02*
X122755160Y-143912295D01*
X122755160Y-143912295D02*
X122755160Y-143112295D01*
X122755160Y-143112295D02*
X123021826Y-143112295D01*
X123021826Y-143112295D02*
X123098017Y-143150390D01*
X123098017Y-143150390D02*
X123136112Y-143188485D01*
X123136112Y-143188485D02*
X123174207Y-143264676D01*
X123174207Y-143264676D02*
X123174207Y-143340866D01*
X123174207Y-143340866D02*
X123136112Y-143417057D01*
X123136112Y-143417057D02*
X123098017Y-143455152D01*
X123098017Y-143455152D02*
X123021826Y-143493247D01*
X123021826Y-143493247D02*
X122755160Y-143493247D01*
X123517064Y-143188485D02*
X123555160Y-143150390D01*
X123555160Y-143150390D02*
X123631350Y-143112295D01*
X123631350Y-143112295D02*
X123821826Y-143112295D01*
X123821826Y-143112295D02*
X123898017Y-143150390D01*
X123898017Y-143150390D02*
X123936112Y-143188485D01*
X123936112Y-143188485D02*
X123974207Y-143264676D01*
X123974207Y-143264676D02*
X123974207Y-143340866D01*
X123974207Y-143340866D02*
X123936112Y-143455152D01*
X123936112Y-143455152D02*
X123478969Y-143912295D01*
X123478969Y-143912295D02*
X123974207Y-143912295D01*
X121955160Y-136292295D02*
X121955160Y-135492295D01*
X121955160Y-135492295D02*
X122259922Y-135492295D01*
X122259922Y-135492295D02*
X122336112Y-135530390D01*
X122336112Y-135530390D02*
X122374207Y-135568485D01*
X122374207Y-135568485D02*
X122412303Y-135644676D01*
X122412303Y-135644676D02*
X122412303Y-135758961D01*
X122412303Y-135758961D02*
X122374207Y-135835152D01*
X122374207Y-135835152D02*
X122336112Y-135873247D01*
X122336112Y-135873247D02*
X122259922Y-135911342D01*
X122259922Y-135911342D02*
X121955160Y-135911342D01*
X122717064Y-136063723D02*
X123098017Y-136063723D01*
X122640874Y-136292295D02*
X122907541Y-135492295D01*
X122907541Y-135492295D02*
X123174207Y-136292295D01*
X123364683Y-135492295D02*
X123898017Y-135492295D01*
X123898017Y-135492295D02*
X123555159Y-136292295D01*
X145323160Y-156612295D02*
X145323160Y-155812295D01*
X145323160Y-155812295D02*
X145627922Y-155812295D01*
X145627922Y-155812295D02*
X145704112Y-155850390D01*
X145704112Y-155850390D02*
X145742207Y-155888485D01*
X145742207Y-155888485D02*
X145780303Y-155964676D01*
X145780303Y-155964676D02*
X145780303Y-156078961D01*
X145780303Y-156078961D02*
X145742207Y-156155152D01*
X145742207Y-156155152D02*
X145704112Y-156193247D01*
X145704112Y-156193247D02*
X145627922Y-156231342D01*
X145627922Y-156231342D02*
X145323160Y-156231342D01*
X146085064Y-156383723D02*
X146466017Y-156383723D01*
X146008874Y-156612295D02*
X146275541Y-155812295D01*
X146275541Y-155812295D02*
X146542207Y-156612295D01*
X147227921Y-156612295D02*
X146770778Y-156612295D01*
X146999350Y-156612295D02*
X146999350Y-155812295D01*
X146999350Y-155812295D02*
X146923159Y-155926580D01*
X146923159Y-155926580D02*
X146846969Y-156002771D01*
X146846969Y-156002771D02*
X146770778Y-156040866D01*
X147989826Y-156612295D02*
X147532683Y-156612295D01*
X147761255Y-156612295D02*
X147761255Y-155812295D01*
X147761255Y-155812295D02*
X147685064Y-155926580D01*
X147685064Y-155926580D02*
X147608874Y-156002771D01*
X147608874Y-156002771D02*
X147532683Y-156040866D01*
X145208874Y-117712295D02*
X145475541Y-118512295D01*
X145475541Y-118512295D02*
X145742207Y-117712295D01*
X146008874Y-118512295D02*
X146008874Y-117712295D01*
X146008874Y-117712295D02*
X146199350Y-117712295D01*
X146199350Y-117712295D02*
X146313636Y-117750390D01*
X146313636Y-117750390D02*
X146389826Y-117826580D01*
X146389826Y-117826580D02*
X146427921Y-117902771D01*
X146427921Y-117902771D02*
X146466017Y-118055152D01*
X146466017Y-118055152D02*
X146466017Y-118169438D01*
X146466017Y-118169438D02*
X146427921Y-118321819D01*
X146427921Y-118321819D02*
X146389826Y-118398009D01*
X146389826Y-118398009D02*
X146313636Y-118474200D01*
X146313636Y-118474200D02*
X146199350Y-118512295D01*
X146199350Y-118512295D02*
X146008874Y-118512295D01*
X146808874Y-118512295D02*
X146808874Y-117712295D01*
X146808874Y-117712295D02*
X146999350Y-117712295D01*
X146999350Y-117712295D02*
X147113636Y-117750390D01*
X147113636Y-117750390D02*
X147189826Y-117826580D01*
X147189826Y-117826580D02*
X147227921Y-117902771D01*
X147227921Y-117902771D02*
X147266017Y-118055152D01*
X147266017Y-118055152D02*
X147266017Y-118169438D01*
X147266017Y-118169438D02*
X147227921Y-118321819D01*
X147227921Y-118321819D02*
X147189826Y-118398009D01*
X147189826Y-118398009D02*
X147113636Y-118474200D01*
X147113636Y-118474200D02*
X146999350Y-118512295D01*
X146999350Y-118512295D02*
X146808874Y-118512295D01*
X121955160Y-141372295D02*
X121955160Y-140572295D01*
X121955160Y-140572295D02*
X122259922Y-140572295D01*
X122259922Y-140572295D02*
X122336112Y-140610390D01*
X122336112Y-140610390D02*
X122374207Y-140648485D01*
X122374207Y-140648485D02*
X122412303Y-140724676D01*
X122412303Y-140724676D02*
X122412303Y-140838961D01*
X122412303Y-140838961D02*
X122374207Y-140915152D01*
X122374207Y-140915152D02*
X122336112Y-140953247D01*
X122336112Y-140953247D02*
X122259922Y-140991342D01*
X122259922Y-140991342D02*
X121955160Y-140991342D01*
X123021826Y-140953247D02*
X123136112Y-140991342D01*
X123136112Y-140991342D02*
X123174207Y-141029438D01*
X123174207Y-141029438D02*
X123212303Y-141105628D01*
X123212303Y-141105628D02*
X123212303Y-141219914D01*
X123212303Y-141219914D02*
X123174207Y-141296104D01*
X123174207Y-141296104D02*
X123136112Y-141334200D01*
X123136112Y-141334200D02*
X123059922Y-141372295D01*
X123059922Y-141372295D02*
X122755160Y-141372295D01*
X122755160Y-141372295D02*
X122755160Y-140572295D01*
X122755160Y-140572295D02*
X123021826Y-140572295D01*
X123021826Y-140572295D02*
X123098017Y-140610390D01*
X123098017Y-140610390D02*
X123136112Y-140648485D01*
X123136112Y-140648485D02*
X123174207Y-140724676D01*
X123174207Y-140724676D02*
X123174207Y-140800866D01*
X123174207Y-140800866D02*
X123136112Y-140877057D01*
X123136112Y-140877057D02*
X123098017Y-140915152D01*
X123098017Y-140915152D02*
X123021826Y-140953247D01*
X123021826Y-140953247D02*
X122755160Y-140953247D01*
X123974207Y-141372295D02*
X123517064Y-141372295D01*
X123745636Y-141372295D02*
X123745636Y-140572295D01*
X123745636Y-140572295D02*
X123669445Y-140686580D01*
X123669445Y-140686580D02*
X123593255Y-140762771D01*
X123593255Y-140762771D02*
X123517064Y-140800866D01*
D11*
X147673583Y-148387840D02*
X147330726Y-148902125D01*
X147787869Y-148787840D02*
X147845012Y-148806887D01*
X147845012Y-148806887D02*
X147940250Y-148806887D01*
X147940250Y-148806887D02*
X147978345Y-148787840D01*
X147978345Y-148787840D02*
X147997393Y-148768792D01*
X147997393Y-148768792D02*
X148016440Y-148730697D01*
X148016440Y-148730697D02*
X148016440Y-148692601D01*
X148016440Y-148692601D02*
X147997393Y-148654506D01*
X147997393Y-148654506D02*
X147978345Y-148635459D01*
X147978345Y-148635459D02*
X147940250Y-148616411D01*
X147940250Y-148616411D02*
X147864059Y-148597363D01*
X147864059Y-148597363D02*
X147825964Y-148578316D01*
X147825964Y-148578316D02*
X147806917Y-148559268D01*
X147806917Y-148559268D02*
X147787869Y-148521173D01*
X147787869Y-148521173D02*
X147787869Y-148483078D01*
X147787869Y-148483078D02*
X147806917Y-148444982D01*
X147806917Y-148444982D02*
X147825964Y-148425935D01*
X147825964Y-148425935D02*
X147864059Y-148406887D01*
X147864059Y-148406887D02*
X147959298Y-148406887D01*
X147959298Y-148406887D02*
X148016440Y-148425935D01*
X148187869Y-148806887D02*
X148187869Y-148406887D01*
X148187869Y-148406887D02*
X148283107Y-148406887D01*
X148283107Y-148406887D02*
X148340250Y-148425935D01*
X148340250Y-148425935D02*
X148378345Y-148464030D01*
X148378345Y-148464030D02*
X148397392Y-148502125D01*
X148397392Y-148502125D02*
X148416440Y-148578316D01*
X148416440Y-148578316D02*
X148416440Y-148635459D01*
X148416440Y-148635459D02*
X148397392Y-148711649D01*
X148397392Y-148711649D02*
X148378345Y-148749744D01*
X148378345Y-148749744D02*
X148340250Y-148787840D01*
X148340250Y-148787840D02*
X148283107Y-148806887D01*
X148283107Y-148806887D02*
X148187869Y-148806887D01*
X148568821Y-148692601D02*
X148759297Y-148692601D01*
X148530726Y-148806887D02*
X148664059Y-148406887D01*
X148664059Y-148406887D02*
X148797392Y-148806887D01*
X119957869Y-133646887D02*
X119957869Y-133246887D01*
X119957869Y-133246887D02*
X120091202Y-133532601D01*
X120091202Y-133532601D02*
X120224535Y-133246887D01*
X120224535Y-133246887D02*
X120224535Y-133646887D01*
X120415012Y-133646887D02*
X120415012Y-133246887D01*
X120586440Y-133627840D02*
X120643583Y-133646887D01*
X120643583Y-133646887D02*
X120738821Y-133646887D01*
X120738821Y-133646887D02*
X120776916Y-133627840D01*
X120776916Y-133627840D02*
X120795964Y-133608792D01*
X120795964Y-133608792D02*
X120815011Y-133570697D01*
X120815011Y-133570697D02*
X120815011Y-133532601D01*
X120815011Y-133532601D02*
X120795964Y-133494506D01*
X120795964Y-133494506D02*
X120776916Y-133475459D01*
X120776916Y-133475459D02*
X120738821Y-133456411D01*
X120738821Y-133456411D02*
X120662630Y-133437363D01*
X120662630Y-133437363D02*
X120624535Y-133418316D01*
X120624535Y-133418316D02*
X120605488Y-133399268D01*
X120605488Y-133399268D02*
X120586440Y-133361173D01*
X120586440Y-133361173D02*
X120586440Y-133323078D01*
X120586440Y-133323078D02*
X120605488Y-133284982D01*
X120605488Y-133284982D02*
X120624535Y-133265935D01*
X120624535Y-133265935D02*
X120662630Y-133246887D01*
X120662630Y-133246887D02*
X120757869Y-133246887D01*
X120757869Y-133246887D02*
X120815011Y-133265935D01*
X121062630Y-133246887D02*
X121138821Y-133246887D01*
X121138821Y-133246887D02*
X121176916Y-133265935D01*
X121176916Y-133265935D02*
X121215011Y-133304030D01*
X121215011Y-133304030D02*
X121234059Y-133380220D01*
X121234059Y-133380220D02*
X121234059Y-133513554D01*
X121234059Y-133513554D02*
X121215011Y-133589744D01*
X121215011Y-133589744D02*
X121176916Y-133627840D01*
X121176916Y-133627840D02*
X121138821Y-133646887D01*
X121138821Y-133646887D02*
X121062630Y-133646887D01*
X121062630Y-133646887D02*
X121024535Y-133627840D01*
X121024535Y-133627840D02*
X120986440Y-133589744D01*
X120986440Y-133589744D02*
X120967392Y-133513554D01*
X120967392Y-133513554D02*
X120967392Y-133380220D01*
X120967392Y-133380220D02*
X120986440Y-133304030D01*
X120986440Y-133304030D02*
X121024535Y-133265935D01*
X121024535Y-133265935D02*
X121062630Y-133246887D01*
X121691202Y-133227840D02*
X121348345Y-133742125D01*
D10*
X145323160Y-154072295D02*
X145323160Y-153272295D01*
X145323160Y-153272295D02*
X145627922Y-153272295D01*
X145627922Y-153272295D02*
X145704112Y-153310390D01*
X145704112Y-153310390D02*
X145742207Y-153348485D01*
X145742207Y-153348485D02*
X145780303Y-153424676D01*
X145780303Y-153424676D02*
X145780303Y-153538961D01*
X145780303Y-153538961D02*
X145742207Y-153615152D01*
X145742207Y-153615152D02*
X145704112Y-153653247D01*
X145704112Y-153653247D02*
X145627922Y-153691342D01*
X145627922Y-153691342D02*
X145323160Y-153691342D01*
X146085064Y-153843723D02*
X146466017Y-153843723D01*
X146008874Y-154072295D02*
X146275541Y-153272295D01*
X146275541Y-153272295D02*
X146542207Y-154072295D01*
X147227921Y-154072295D02*
X146770778Y-154072295D01*
X146999350Y-154072295D02*
X146999350Y-153272295D01*
X146999350Y-153272295D02*
X146923159Y-153386580D01*
X146923159Y-153386580D02*
X146846969Y-153462771D01*
X146846969Y-153462771D02*
X146770778Y-153500866D01*
X147532683Y-153348485D02*
X147570779Y-153310390D01*
X147570779Y-153310390D02*
X147646969Y-153272295D01*
X147646969Y-153272295D02*
X147837445Y-153272295D01*
X147837445Y-153272295D02*
X147913636Y-153310390D01*
X147913636Y-153310390D02*
X147951731Y-153348485D01*
X147951731Y-153348485D02*
X147989826Y-153424676D01*
X147989826Y-153424676D02*
X147989826Y-153500866D01*
X147989826Y-153500866D02*
X147951731Y-153615152D01*
X147951731Y-153615152D02*
X147494588Y-154072295D01*
X147494588Y-154072295D02*
X147989826Y-154072295D01*
X127916874Y-159552295D02*
X128183541Y-160352295D01*
X128183541Y-160352295D02*
X128450207Y-159552295D01*
X128716874Y-160352295D02*
X128716874Y-159552295D01*
X128716874Y-159552295D02*
X128907350Y-159552295D01*
X128907350Y-159552295D02*
X129021636Y-159590390D01*
X129021636Y-159590390D02*
X129097826Y-159666580D01*
X129097826Y-159666580D02*
X129135921Y-159742771D01*
X129135921Y-159742771D02*
X129174017Y-159895152D01*
X129174017Y-159895152D02*
X129174017Y-160009438D01*
X129174017Y-160009438D02*
X129135921Y-160161819D01*
X129135921Y-160161819D02*
X129097826Y-160238009D01*
X129097826Y-160238009D02*
X129021636Y-160314200D01*
X129021636Y-160314200D02*
X128907350Y-160352295D01*
X128907350Y-160352295D02*
X128716874Y-160352295D01*
X129516874Y-160352295D02*
X129516874Y-159552295D01*
X129516874Y-159552295D02*
X129707350Y-159552295D01*
X129707350Y-159552295D02*
X129821636Y-159590390D01*
X129821636Y-159590390D02*
X129897826Y-159666580D01*
X129897826Y-159666580D02*
X129935921Y-159742771D01*
X129935921Y-159742771D02*
X129974017Y-159895152D01*
X129974017Y-159895152D02*
X129974017Y-160009438D01*
X129974017Y-160009438D02*
X129935921Y-160161819D01*
X129935921Y-160161819D02*
X129897826Y-160238009D01*
X129897826Y-160238009D02*
X129821636Y-160314200D01*
X129821636Y-160314200D02*
X129707350Y-160352295D01*
X129707350Y-160352295D02*
X129516874Y-160352295D01*
X127777160Y-153494295D02*
X127777160Y-152694295D01*
X127777160Y-152694295D02*
X128081922Y-152694295D01*
X128081922Y-152694295D02*
X128158112Y-152732390D01*
X128158112Y-152732390D02*
X128196207Y-152770485D01*
X128196207Y-152770485D02*
X128234303Y-152846676D01*
X128234303Y-152846676D02*
X128234303Y-152960961D01*
X128234303Y-152960961D02*
X128196207Y-153037152D01*
X128196207Y-153037152D02*
X128158112Y-153075247D01*
X128158112Y-153075247D02*
X128081922Y-153113342D01*
X128081922Y-153113342D02*
X127777160Y-153113342D01*
X128843826Y-153075247D02*
X128958112Y-153113342D01*
X128958112Y-153113342D02*
X128996207Y-153151438D01*
X128996207Y-153151438D02*
X129034303Y-153227628D01*
X129034303Y-153227628D02*
X129034303Y-153341914D01*
X129034303Y-153341914D02*
X128996207Y-153418104D01*
X128996207Y-153418104D02*
X128958112Y-153456200D01*
X128958112Y-153456200D02*
X128881922Y-153494295D01*
X128881922Y-153494295D02*
X128577160Y-153494295D01*
X128577160Y-153494295D02*
X128577160Y-152694295D01*
X128577160Y-152694295D02*
X128843826Y-152694295D01*
X128843826Y-152694295D02*
X128920017Y-152732390D01*
X128920017Y-152732390D02*
X128958112Y-152770485D01*
X128958112Y-152770485D02*
X128996207Y-152846676D01*
X128996207Y-152846676D02*
X128996207Y-152922866D01*
X128996207Y-152922866D02*
X128958112Y-152999057D01*
X128958112Y-152999057D02*
X128920017Y-153037152D01*
X128920017Y-153037152D02*
X128843826Y-153075247D01*
X128843826Y-153075247D02*
X128577160Y-153075247D01*
X129796207Y-153494295D02*
X129339064Y-153494295D01*
X129567636Y-153494295D02*
X129567636Y-152694295D01*
X129567636Y-152694295D02*
X129491445Y-152808580D01*
X129491445Y-152808580D02*
X129415255Y-152884771D01*
X129415255Y-152884771D02*
X129339064Y-152922866D01*
X130062874Y-152694295D02*
X130558112Y-152694295D01*
X130558112Y-152694295D02*
X130291446Y-152999057D01*
X130291446Y-152999057D02*
X130405731Y-152999057D01*
X130405731Y-152999057D02*
X130481922Y-153037152D01*
X130481922Y-153037152D02*
X130520017Y-153075247D01*
X130520017Y-153075247D02*
X130558112Y-153151438D01*
X130558112Y-153151438D02*
X130558112Y-153341914D01*
X130558112Y-153341914D02*
X130520017Y-153418104D01*
X130520017Y-153418104D02*
X130481922Y-153456200D01*
X130481922Y-153456200D02*
X130405731Y-153494295D01*
X130405731Y-153494295D02*
X130177160Y-153494295D01*
X130177160Y-153494295D02*
X130100969Y-153456200D01*
X130100969Y-153456200D02*
X130062874Y-153418104D01*
D11*
X119937869Y-136086887D02*
X119937869Y-135686887D01*
X119937869Y-135686887D02*
X120071202Y-135972601D01*
X120071202Y-135972601D02*
X120204535Y-135686887D01*
X120204535Y-135686887D02*
X120204535Y-136086887D01*
X120471202Y-135686887D02*
X120547393Y-135686887D01*
X120547393Y-135686887D02*
X120585488Y-135705935D01*
X120585488Y-135705935D02*
X120623583Y-135744030D01*
X120623583Y-135744030D02*
X120642631Y-135820220D01*
X120642631Y-135820220D02*
X120642631Y-135953554D01*
X120642631Y-135953554D02*
X120623583Y-136029744D01*
X120623583Y-136029744D02*
X120585488Y-136067840D01*
X120585488Y-136067840D02*
X120547393Y-136086887D01*
X120547393Y-136086887D02*
X120471202Y-136086887D01*
X120471202Y-136086887D02*
X120433107Y-136067840D01*
X120433107Y-136067840D02*
X120395012Y-136029744D01*
X120395012Y-136029744D02*
X120375964Y-135953554D01*
X120375964Y-135953554D02*
X120375964Y-135820220D01*
X120375964Y-135820220D02*
X120395012Y-135744030D01*
X120395012Y-135744030D02*
X120433107Y-135705935D01*
X120433107Y-135705935D02*
X120471202Y-135686887D01*
X120795012Y-136067840D02*
X120852155Y-136086887D01*
X120852155Y-136086887D02*
X120947393Y-136086887D01*
X120947393Y-136086887D02*
X120985488Y-136067840D01*
X120985488Y-136067840D02*
X121004536Y-136048792D01*
X121004536Y-136048792D02*
X121023583Y-136010697D01*
X121023583Y-136010697D02*
X121023583Y-135972601D01*
X121023583Y-135972601D02*
X121004536Y-135934506D01*
X121004536Y-135934506D02*
X120985488Y-135915459D01*
X120985488Y-135915459D02*
X120947393Y-135896411D01*
X120947393Y-135896411D02*
X120871202Y-135877363D01*
X120871202Y-135877363D02*
X120833107Y-135858316D01*
X120833107Y-135858316D02*
X120814060Y-135839268D01*
X120814060Y-135839268D02*
X120795012Y-135801173D01*
X120795012Y-135801173D02*
X120795012Y-135763078D01*
X120795012Y-135763078D02*
X120814060Y-135724982D01*
X120814060Y-135724982D02*
X120833107Y-135705935D01*
X120833107Y-135705935D02*
X120871202Y-135686887D01*
X120871202Y-135686887D02*
X120966441Y-135686887D01*
X120966441Y-135686887D02*
X121023583Y-135705935D01*
X121195012Y-136086887D02*
X121195012Y-135686887D01*
X121671202Y-135667840D02*
X121328345Y-136182125D01*
D10*
X121193160Y-118512295D02*
X121193160Y-117712295D01*
X121193160Y-117712295D02*
X121650303Y-118512295D01*
X121650303Y-118512295D02*
X121650303Y-117712295D01*
X122488398Y-118512295D02*
X122221731Y-118131342D01*
X122031255Y-118512295D02*
X122031255Y-117712295D01*
X122031255Y-117712295D02*
X122336017Y-117712295D01*
X122336017Y-117712295D02*
X122412207Y-117750390D01*
X122412207Y-117750390D02*
X122450302Y-117788485D01*
X122450302Y-117788485D02*
X122488398Y-117864676D01*
X122488398Y-117864676D02*
X122488398Y-117978961D01*
X122488398Y-117978961D02*
X122450302Y-118055152D01*
X122450302Y-118055152D02*
X122412207Y-118093247D01*
X122412207Y-118093247D02*
X122336017Y-118131342D01*
X122336017Y-118131342D02*
X122031255Y-118131342D01*
X122793159Y-118474200D02*
X122907445Y-118512295D01*
X122907445Y-118512295D02*
X123097921Y-118512295D01*
X123097921Y-118512295D02*
X123174112Y-118474200D01*
X123174112Y-118474200D02*
X123212207Y-118436104D01*
X123212207Y-118436104D02*
X123250302Y-118359914D01*
X123250302Y-118359914D02*
X123250302Y-118283723D01*
X123250302Y-118283723D02*
X123212207Y-118207533D01*
X123212207Y-118207533D02*
X123174112Y-118169438D01*
X123174112Y-118169438D02*
X123097921Y-118131342D01*
X123097921Y-118131342D02*
X122945540Y-118093247D01*
X122945540Y-118093247D02*
X122869350Y-118055152D01*
X122869350Y-118055152D02*
X122831255Y-118017057D01*
X122831255Y-118017057D02*
X122793159Y-117940866D01*
X122793159Y-117940866D02*
X122793159Y-117864676D01*
X122793159Y-117864676D02*
X122831255Y-117788485D01*
X122831255Y-117788485D02*
X122869350Y-117750390D01*
X122869350Y-117750390D02*
X122945540Y-117712295D01*
X122945540Y-117712295D02*
X123136017Y-117712295D01*
X123136017Y-117712295D02*
X123250302Y-117750390D01*
X123478874Y-117712295D02*
X123936017Y-117712295D01*
X123707445Y-118512295D02*
X123707445Y-117712295D01*
X145742207Y-125370390D02*
X145666017Y-125332295D01*
X145666017Y-125332295D02*
X145551731Y-125332295D01*
X145551731Y-125332295D02*
X145437445Y-125370390D01*
X145437445Y-125370390D02*
X145361255Y-125446580D01*
X145361255Y-125446580D02*
X145323160Y-125522771D01*
X145323160Y-125522771D02*
X145285064Y-125675152D01*
X145285064Y-125675152D02*
X145285064Y-125789438D01*
X145285064Y-125789438D02*
X145323160Y-125941819D01*
X145323160Y-125941819D02*
X145361255Y-126018009D01*
X145361255Y-126018009D02*
X145437445Y-126094200D01*
X145437445Y-126094200D02*
X145551731Y-126132295D01*
X145551731Y-126132295D02*
X145627922Y-126132295D01*
X145627922Y-126132295D02*
X145742207Y-126094200D01*
X145742207Y-126094200D02*
X145780303Y-126056104D01*
X145780303Y-126056104D02*
X145780303Y-125789438D01*
X145780303Y-125789438D02*
X145627922Y-125789438D01*
X146123160Y-126132295D02*
X146123160Y-125332295D01*
X146123160Y-125332295D02*
X146580303Y-126132295D01*
X146580303Y-126132295D02*
X146580303Y-125332295D01*
X146961255Y-126132295D02*
X146961255Y-125332295D01*
X146961255Y-125332295D02*
X147151731Y-125332295D01*
X147151731Y-125332295D02*
X147266017Y-125370390D01*
X147266017Y-125370390D02*
X147342207Y-125446580D01*
X147342207Y-125446580D02*
X147380302Y-125522771D01*
X147380302Y-125522771D02*
X147418398Y-125675152D01*
X147418398Y-125675152D02*
X147418398Y-125789438D01*
X147418398Y-125789438D02*
X147380302Y-125941819D01*
X147380302Y-125941819D02*
X147342207Y-126018009D01*
X147342207Y-126018009D02*
X147266017Y-126094200D01*
X147266017Y-126094200D02*
X147151731Y-126132295D01*
X147151731Y-126132295D02*
X146961255Y-126132295D01*
X121840874Y-155812295D02*
X122107541Y-156612295D01*
X122107541Y-156612295D02*
X122374207Y-155812295D01*
X122640874Y-156612295D02*
X122640874Y-155812295D01*
X122640874Y-155812295D02*
X122831350Y-155812295D01*
X122831350Y-155812295D02*
X122945636Y-155850390D01*
X122945636Y-155850390D02*
X123021826Y-155926580D01*
X123021826Y-155926580D02*
X123059921Y-156002771D01*
X123059921Y-156002771D02*
X123098017Y-156155152D01*
X123098017Y-156155152D02*
X123098017Y-156269438D01*
X123098017Y-156269438D02*
X123059921Y-156421819D01*
X123059921Y-156421819D02*
X123021826Y-156498009D01*
X123021826Y-156498009D02*
X122945636Y-156574200D01*
X122945636Y-156574200D02*
X122831350Y-156612295D01*
X122831350Y-156612295D02*
X122640874Y-156612295D01*
X123440874Y-156612295D02*
X123440874Y-155812295D01*
X123440874Y-155812295D02*
X123631350Y-155812295D01*
X123631350Y-155812295D02*
X123745636Y-155850390D01*
X123745636Y-155850390D02*
X123821826Y-155926580D01*
X123821826Y-155926580D02*
X123859921Y-156002771D01*
X123859921Y-156002771D02*
X123898017Y-156155152D01*
X123898017Y-156155152D02*
X123898017Y-156269438D01*
X123898017Y-156269438D02*
X123859921Y-156421819D01*
X123859921Y-156421819D02*
X123821826Y-156498009D01*
X123821826Y-156498009D02*
X123745636Y-156574200D01*
X123745636Y-156574200D02*
X123631350Y-156612295D01*
X123631350Y-156612295D02*
X123440874Y-156612295D01*
X121955160Y-113432295D02*
X121955160Y-112632295D01*
X121955160Y-112632295D02*
X122259922Y-112632295D01*
X122259922Y-112632295D02*
X122336112Y-112670390D01*
X122336112Y-112670390D02*
X122374207Y-112708485D01*
X122374207Y-112708485D02*
X122412303Y-112784676D01*
X122412303Y-112784676D02*
X122412303Y-112898961D01*
X122412303Y-112898961D02*
X122374207Y-112975152D01*
X122374207Y-112975152D02*
X122336112Y-113013247D01*
X122336112Y-113013247D02*
X122259922Y-113051342D01*
X122259922Y-113051342D02*
X121955160Y-113051342D01*
X122717064Y-113203723D02*
X123098017Y-113203723D01*
X122640874Y-113432295D02*
X122907541Y-112632295D01*
X122907541Y-112632295D02*
X123174207Y-113432295D01*
X123859921Y-113432295D02*
X123402778Y-113432295D01*
X123631350Y-113432295D02*
X123631350Y-112632295D01*
X123631350Y-112632295D02*
X123555159Y-112746580D01*
X123555159Y-112746580D02*
X123478969Y-112822771D01*
X123478969Y-112822771D02*
X123402778Y-112860866D01*
X145323160Y-138832295D02*
X145323160Y-138032295D01*
X145323160Y-138032295D02*
X145627922Y-138032295D01*
X145627922Y-138032295D02*
X145704112Y-138070390D01*
X145704112Y-138070390D02*
X145742207Y-138108485D01*
X145742207Y-138108485D02*
X145780303Y-138184676D01*
X145780303Y-138184676D02*
X145780303Y-138298961D01*
X145780303Y-138298961D02*
X145742207Y-138375152D01*
X145742207Y-138375152D02*
X145704112Y-138413247D01*
X145704112Y-138413247D02*
X145627922Y-138451342D01*
X145627922Y-138451342D02*
X145323160Y-138451342D01*
X146389826Y-138413247D02*
X146504112Y-138451342D01*
X146504112Y-138451342D02*
X146542207Y-138489438D01*
X146542207Y-138489438D02*
X146580303Y-138565628D01*
X146580303Y-138565628D02*
X146580303Y-138679914D01*
X146580303Y-138679914D02*
X146542207Y-138756104D01*
X146542207Y-138756104D02*
X146504112Y-138794200D01*
X146504112Y-138794200D02*
X146427922Y-138832295D01*
X146427922Y-138832295D02*
X146123160Y-138832295D01*
X146123160Y-138832295D02*
X146123160Y-138032295D01*
X146123160Y-138032295D02*
X146389826Y-138032295D01*
X146389826Y-138032295D02*
X146466017Y-138070390D01*
X146466017Y-138070390D02*
X146504112Y-138108485D01*
X146504112Y-138108485D02*
X146542207Y-138184676D01*
X146542207Y-138184676D02*
X146542207Y-138260866D01*
X146542207Y-138260866D02*
X146504112Y-138337057D01*
X146504112Y-138337057D02*
X146466017Y-138375152D01*
X146466017Y-138375152D02*
X146389826Y-138413247D01*
X146389826Y-138413247D02*
X146123160Y-138413247D01*
X147266017Y-138298961D02*
X147266017Y-138832295D01*
X147075541Y-137994200D02*
X146885064Y-138565628D01*
X146885064Y-138565628D02*
X147380303Y-138565628D01*
X121193160Y-148992295D02*
X121193160Y-148192295D01*
X121193160Y-148192295D02*
X121497922Y-148192295D01*
X121497922Y-148192295D02*
X121574112Y-148230390D01*
X121574112Y-148230390D02*
X121612207Y-148268485D01*
X121612207Y-148268485D02*
X121650303Y-148344676D01*
X121650303Y-148344676D02*
X121650303Y-148458961D01*
X121650303Y-148458961D02*
X121612207Y-148535152D01*
X121612207Y-148535152D02*
X121574112Y-148573247D01*
X121574112Y-148573247D02*
X121497922Y-148611342D01*
X121497922Y-148611342D02*
X121193160Y-148611342D01*
X122259826Y-148573247D02*
X122374112Y-148611342D01*
X122374112Y-148611342D02*
X122412207Y-148649438D01*
X122412207Y-148649438D02*
X122450303Y-148725628D01*
X122450303Y-148725628D02*
X122450303Y-148839914D01*
X122450303Y-148839914D02*
X122412207Y-148916104D01*
X122412207Y-148916104D02*
X122374112Y-148954200D01*
X122374112Y-148954200D02*
X122297922Y-148992295D01*
X122297922Y-148992295D02*
X121993160Y-148992295D01*
X121993160Y-148992295D02*
X121993160Y-148192295D01*
X121993160Y-148192295D02*
X122259826Y-148192295D01*
X122259826Y-148192295D02*
X122336017Y-148230390D01*
X122336017Y-148230390D02*
X122374112Y-148268485D01*
X122374112Y-148268485D02*
X122412207Y-148344676D01*
X122412207Y-148344676D02*
X122412207Y-148420866D01*
X122412207Y-148420866D02*
X122374112Y-148497057D01*
X122374112Y-148497057D02*
X122336017Y-148535152D01*
X122336017Y-148535152D02*
X122259826Y-148573247D01*
X122259826Y-148573247D02*
X121993160Y-148573247D01*
X123212207Y-148992295D02*
X122755064Y-148992295D01*
X122983636Y-148992295D02*
X122983636Y-148192295D01*
X122983636Y-148192295D02*
X122907445Y-148306580D01*
X122907445Y-148306580D02*
X122831255Y-148382771D01*
X122831255Y-148382771D02*
X122755064Y-148420866D01*
X123974112Y-148992295D02*
X123516969Y-148992295D01*
X123745541Y-148992295D02*
X123745541Y-148192295D01*
X123745541Y-148192295D02*
X123669350Y-148306580D01*
X123669350Y-148306580D02*
X123593160Y-148382771D01*
X123593160Y-148382771D02*
X123516969Y-148420866D01*
X135651160Y-160352295D02*
X135651160Y-159552295D01*
X135651160Y-159552295D02*
X135955922Y-159552295D01*
X135955922Y-159552295D02*
X136032112Y-159590390D01*
X136032112Y-159590390D02*
X136070207Y-159628485D01*
X136070207Y-159628485D02*
X136108303Y-159704676D01*
X136108303Y-159704676D02*
X136108303Y-159818961D01*
X136108303Y-159818961D02*
X136070207Y-159895152D01*
X136070207Y-159895152D02*
X136032112Y-159933247D01*
X136032112Y-159933247D02*
X135955922Y-159971342D01*
X135955922Y-159971342D02*
X135651160Y-159971342D01*
X136413064Y-160123723D02*
X136794017Y-160123723D01*
X136336874Y-160352295D02*
X136603541Y-159552295D01*
X136603541Y-159552295D02*
X136870207Y-160352295D01*
X137174969Y-160352295D02*
X137327350Y-160352295D01*
X137327350Y-160352295D02*
X137403540Y-160314200D01*
X137403540Y-160314200D02*
X137441636Y-160276104D01*
X137441636Y-160276104D02*
X137517826Y-160161819D01*
X137517826Y-160161819D02*
X137555921Y-160009438D01*
X137555921Y-160009438D02*
X137555921Y-159704676D01*
X137555921Y-159704676D02*
X137517826Y-159628485D01*
X137517826Y-159628485D02*
X137479731Y-159590390D01*
X137479731Y-159590390D02*
X137403540Y-159552295D01*
X137403540Y-159552295D02*
X137251159Y-159552295D01*
X137251159Y-159552295D02*
X137174969Y-159590390D01*
X137174969Y-159590390D02*
X137136874Y-159628485D01*
X137136874Y-159628485D02*
X137098778Y-159704676D01*
X137098778Y-159704676D02*
X137098778Y-159895152D01*
X137098778Y-159895152D02*
X137136874Y-159971342D01*
X137136874Y-159971342D02*
X137174969Y-160009438D01*
X137174969Y-160009438D02*
X137251159Y-160047533D01*
X137251159Y-160047533D02*
X137403540Y-160047533D01*
X137403540Y-160047533D02*
X137479731Y-160009438D01*
X137479731Y-160009438D02*
X137517826Y-159971342D01*
X137517826Y-159971342D02*
X137555921Y-159895152D01*
X121193160Y-146452295D02*
X121193160Y-145652295D01*
X121193160Y-145652295D02*
X121497922Y-145652295D01*
X121497922Y-145652295D02*
X121574112Y-145690390D01*
X121574112Y-145690390D02*
X121612207Y-145728485D01*
X121612207Y-145728485D02*
X121650303Y-145804676D01*
X121650303Y-145804676D02*
X121650303Y-145918961D01*
X121650303Y-145918961D02*
X121612207Y-145995152D01*
X121612207Y-145995152D02*
X121574112Y-146033247D01*
X121574112Y-146033247D02*
X121497922Y-146071342D01*
X121497922Y-146071342D02*
X121193160Y-146071342D01*
X122259826Y-146033247D02*
X122374112Y-146071342D01*
X122374112Y-146071342D02*
X122412207Y-146109438D01*
X122412207Y-146109438D02*
X122450303Y-146185628D01*
X122450303Y-146185628D02*
X122450303Y-146299914D01*
X122450303Y-146299914D02*
X122412207Y-146376104D01*
X122412207Y-146376104D02*
X122374112Y-146414200D01*
X122374112Y-146414200D02*
X122297922Y-146452295D01*
X122297922Y-146452295D02*
X121993160Y-146452295D01*
X121993160Y-146452295D02*
X121993160Y-145652295D01*
X121993160Y-145652295D02*
X122259826Y-145652295D01*
X122259826Y-145652295D02*
X122336017Y-145690390D01*
X122336017Y-145690390D02*
X122374112Y-145728485D01*
X122374112Y-145728485D02*
X122412207Y-145804676D01*
X122412207Y-145804676D02*
X122412207Y-145880866D01*
X122412207Y-145880866D02*
X122374112Y-145957057D01*
X122374112Y-145957057D02*
X122336017Y-145995152D01*
X122336017Y-145995152D02*
X122259826Y-146033247D01*
X122259826Y-146033247D02*
X121993160Y-146033247D01*
X123212207Y-146452295D02*
X122755064Y-146452295D01*
X122983636Y-146452295D02*
X122983636Y-145652295D01*
X122983636Y-145652295D02*
X122907445Y-145766580D01*
X122907445Y-145766580D02*
X122831255Y-145842771D01*
X122831255Y-145842771D02*
X122755064Y-145880866D01*
X123707446Y-145652295D02*
X123783636Y-145652295D01*
X123783636Y-145652295D02*
X123859827Y-145690390D01*
X123859827Y-145690390D02*
X123897922Y-145728485D01*
X123897922Y-145728485D02*
X123936017Y-145804676D01*
X123936017Y-145804676D02*
X123974112Y-145957057D01*
X123974112Y-145957057D02*
X123974112Y-146147533D01*
X123974112Y-146147533D02*
X123936017Y-146299914D01*
X123936017Y-146299914D02*
X123897922Y-146376104D01*
X123897922Y-146376104D02*
X123859827Y-146414200D01*
X123859827Y-146414200D02*
X123783636Y-146452295D01*
X123783636Y-146452295D02*
X123707446Y-146452295D01*
X123707446Y-146452295D02*
X123631255Y-146414200D01*
X123631255Y-146414200D02*
X123593160Y-146376104D01*
X123593160Y-146376104D02*
X123555065Y-146299914D01*
X123555065Y-146299914D02*
X123516969Y-146147533D01*
X123516969Y-146147533D02*
X123516969Y-145957057D01*
X123516969Y-145957057D02*
X123555065Y-145804676D01*
X123555065Y-145804676D02*
X123593160Y-145728485D01*
X123593160Y-145728485D02*
X123631255Y-145690390D01*
X123631255Y-145690390D02*
X123707446Y-145652295D01*
X145323160Y-136292295D02*
X145323160Y-135492295D01*
X145323160Y-135492295D02*
X145627922Y-135492295D01*
X145627922Y-135492295D02*
X145704112Y-135530390D01*
X145704112Y-135530390D02*
X145742207Y-135568485D01*
X145742207Y-135568485D02*
X145780303Y-135644676D01*
X145780303Y-135644676D02*
X145780303Y-135758961D01*
X145780303Y-135758961D02*
X145742207Y-135835152D01*
X145742207Y-135835152D02*
X145704112Y-135873247D01*
X145704112Y-135873247D02*
X145627922Y-135911342D01*
X145627922Y-135911342D02*
X145323160Y-135911342D01*
X146389826Y-135873247D02*
X146504112Y-135911342D01*
X146504112Y-135911342D02*
X146542207Y-135949438D01*
X146542207Y-135949438D02*
X146580303Y-136025628D01*
X146580303Y-136025628D02*
X146580303Y-136139914D01*
X146580303Y-136139914D02*
X146542207Y-136216104D01*
X146542207Y-136216104D02*
X146504112Y-136254200D01*
X146504112Y-136254200D02*
X146427922Y-136292295D01*
X146427922Y-136292295D02*
X146123160Y-136292295D01*
X146123160Y-136292295D02*
X146123160Y-135492295D01*
X146123160Y-135492295D02*
X146389826Y-135492295D01*
X146389826Y-135492295D02*
X146466017Y-135530390D01*
X146466017Y-135530390D02*
X146504112Y-135568485D01*
X146504112Y-135568485D02*
X146542207Y-135644676D01*
X146542207Y-135644676D02*
X146542207Y-135720866D01*
X146542207Y-135720866D02*
X146504112Y-135797057D01*
X146504112Y-135797057D02*
X146466017Y-135835152D01*
X146466017Y-135835152D02*
X146389826Y-135873247D01*
X146389826Y-135873247D02*
X146123160Y-135873247D01*
X146846969Y-135492295D02*
X147342207Y-135492295D01*
X147342207Y-135492295D02*
X147075541Y-135797057D01*
X147075541Y-135797057D02*
X147189826Y-135797057D01*
X147189826Y-135797057D02*
X147266017Y-135835152D01*
X147266017Y-135835152D02*
X147304112Y-135873247D01*
X147304112Y-135873247D02*
X147342207Y-135949438D01*
X147342207Y-135949438D02*
X147342207Y-136139914D01*
X147342207Y-136139914D02*
X147304112Y-136216104D01*
X147304112Y-136216104D02*
X147266017Y-136254200D01*
X147266017Y-136254200D02*
X147189826Y-136292295D01*
X147189826Y-136292295D02*
X146961255Y-136292295D01*
X146961255Y-136292295D02*
X146885064Y-136254200D01*
X146885064Y-136254200D02*
X146846969Y-136216104D01*
X145323160Y-133752295D02*
X145323160Y-132952295D01*
X145323160Y-132952295D02*
X145627922Y-132952295D01*
X145627922Y-132952295D02*
X145704112Y-132990390D01*
X145704112Y-132990390D02*
X145742207Y-133028485D01*
X145742207Y-133028485D02*
X145780303Y-133104676D01*
X145780303Y-133104676D02*
X145780303Y-133218961D01*
X145780303Y-133218961D02*
X145742207Y-133295152D01*
X145742207Y-133295152D02*
X145704112Y-133333247D01*
X145704112Y-133333247D02*
X145627922Y-133371342D01*
X145627922Y-133371342D02*
X145323160Y-133371342D01*
X146085064Y-133523723D02*
X146466017Y-133523723D01*
X146008874Y-133752295D02*
X146275541Y-132952295D01*
X146275541Y-132952295D02*
X146542207Y-133752295D01*
X147227921Y-133752295D02*
X146770778Y-133752295D01*
X146999350Y-133752295D02*
X146999350Y-132952295D01*
X146999350Y-132952295D02*
X146923159Y-133066580D01*
X146923159Y-133066580D02*
X146846969Y-133142771D01*
X146846969Y-133142771D02*
X146770778Y-133180866D01*
X147951731Y-132952295D02*
X147570779Y-132952295D01*
X147570779Y-132952295D02*
X147532683Y-133333247D01*
X147532683Y-133333247D02*
X147570779Y-133295152D01*
X147570779Y-133295152D02*
X147646969Y-133257057D01*
X147646969Y-133257057D02*
X147837445Y-133257057D01*
X147837445Y-133257057D02*
X147913636Y-133295152D01*
X147913636Y-133295152D02*
X147951731Y-133333247D01*
X147951731Y-133333247D02*
X147989826Y-133409438D01*
X147989826Y-133409438D02*
X147989826Y-133599914D01*
X147989826Y-133599914D02*
X147951731Y-133676104D01*
X147951731Y-133676104D02*
X147913636Y-133714200D01*
X147913636Y-133714200D02*
X147837445Y-133752295D01*
X147837445Y-133752295D02*
X147646969Y-133752295D01*
X147646969Y-133752295D02*
X147570779Y-133714200D01*
X147570779Y-133714200D02*
X147532683Y-133676104D01*
X145323160Y-108352295D02*
X145323160Y-107552295D01*
X145323160Y-107552295D02*
X145627922Y-107552295D01*
X145627922Y-107552295D02*
X145704112Y-107590390D01*
X145704112Y-107590390D02*
X145742207Y-107628485D01*
X145742207Y-107628485D02*
X145780303Y-107704676D01*
X145780303Y-107704676D02*
X145780303Y-107818961D01*
X145780303Y-107818961D02*
X145742207Y-107895152D01*
X145742207Y-107895152D02*
X145704112Y-107933247D01*
X145704112Y-107933247D02*
X145627922Y-107971342D01*
X145627922Y-107971342D02*
X145323160Y-107971342D01*
X146580303Y-108276104D02*
X146542207Y-108314200D01*
X146542207Y-108314200D02*
X146427922Y-108352295D01*
X146427922Y-108352295D02*
X146351731Y-108352295D01*
X146351731Y-108352295D02*
X146237445Y-108314200D01*
X146237445Y-108314200D02*
X146161255Y-108238009D01*
X146161255Y-108238009D02*
X146123160Y-108161819D01*
X146123160Y-108161819D02*
X146085064Y-108009438D01*
X146085064Y-108009438D02*
X146085064Y-107895152D01*
X146085064Y-107895152D02*
X146123160Y-107742771D01*
X146123160Y-107742771D02*
X146161255Y-107666580D01*
X146161255Y-107666580D02*
X146237445Y-107590390D01*
X146237445Y-107590390D02*
X146351731Y-107552295D01*
X146351731Y-107552295D02*
X146427922Y-107552295D01*
X146427922Y-107552295D02*
X146542207Y-107590390D01*
X146542207Y-107590390D02*
X146580303Y-107628485D01*
X147342207Y-108352295D02*
X146885064Y-108352295D01*
X147113636Y-108352295D02*
X147113636Y-107552295D01*
X147113636Y-107552295D02*
X147037445Y-107666580D01*
X147037445Y-107666580D02*
X146961255Y-107742771D01*
X146961255Y-107742771D02*
X146885064Y-107780866D01*
X148066017Y-107552295D02*
X147685065Y-107552295D01*
X147685065Y-107552295D02*
X147646969Y-107933247D01*
X147646969Y-107933247D02*
X147685065Y-107895152D01*
X147685065Y-107895152D02*
X147761255Y-107857057D01*
X147761255Y-107857057D02*
X147951731Y-107857057D01*
X147951731Y-107857057D02*
X148027922Y-107895152D01*
X148027922Y-107895152D02*
X148066017Y-107933247D01*
X148066017Y-107933247D02*
X148104112Y-108009438D01*
X148104112Y-108009438D02*
X148104112Y-108199914D01*
X148104112Y-108199914D02*
X148066017Y-108276104D01*
X148066017Y-108276104D02*
X148027922Y-108314200D01*
X148027922Y-108314200D02*
X147951731Y-108352295D01*
X147951731Y-108352295D02*
X147761255Y-108352295D01*
X147761255Y-108352295D02*
X147685065Y-108314200D01*
X147685065Y-108314200D02*
X147646969Y-108276104D01*
X145589826Y-115553247D02*
X145704112Y-115591342D01*
X145704112Y-115591342D02*
X145742207Y-115629438D01*
X145742207Y-115629438D02*
X145780303Y-115705628D01*
X145780303Y-115705628D02*
X145780303Y-115819914D01*
X145780303Y-115819914D02*
X145742207Y-115896104D01*
X145742207Y-115896104D02*
X145704112Y-115934200D01*
X145704112Y-115934200D02*
X145627922Y-115972295D01*
X145627922Y-115972295D02*
X145323160Y-115972295D01*
X145323160Y-115972295D02*
X145323160Y-115172295D01*
X145323160Y-115172295D02*
X145589826Y-115172295D01*
X145589826Y-115172295D02*
X145666017Y-115210390D01*
X145666017Y-115210390D02*
X145704112Y-115248485D01*
X145704112Y-115248485D02*
X145742207Y-115324676D01*
X145742207Y-115324676D02*
X145742207Y-115400866D01*
X145742207Y-115400866D02*
X145704112Y-115477057D01*
X145704112Y-115477057D02*
X145666017Y-115515152D01*
X145666017Y-115515152D02*
X145589826Y-115553247D01*
X145589826Y-115553247D02*
X145323160Y-115553247D01*
X146275541Y-115172295D02*
X146427922Y-115172295D01*
X146427922Y-115172295D02*
X146504112Y-115210390D01*
X146504112Y-115210390D02*
X146580303Y-115286580D01*
X146580303Y-115286580D02*
X146618398Y-115438961D01*
X146618398Y-115438961D02*
X146618398Y-115705628D01*
X146618398Y-115705628D02*
X146580303Y-115858009D01*
X146580303Y-115858009D02*
X146504112Y-115934200D01*
X146504112Y-115934200D02*
X146427922Y-115972295D01*
X146427922Y-115972295D02*
X146275541Y-115972295D01*
X146275541Y-115972295D02*
X146199350Y-115934200D01*
X146199350Y-115934200D02*
X146123160Y-115858009D01*
X146123160Y-115858009D02*
X146085064Y-115705628D01*
X146085064Y-115705628D02*
X146085064Y-115438961D01*
X146085064Y-115438961D02*
X146123160Y-115286580D01*
X146123160Y-115286580D02*
X146199350Y-115210390D01*
X146199350Y-115210390D02*
X146275541Y-115172295D01*
X147113636Y-115172295D02*
X147266017Y-115172295D01*
X147266017Y-115172295D02*
X147342207Y-115210390D01*
X147342207Y-115210390D02*
X147418398Y-115286580D01*
X147418398Y-115286580D02*
X147456493Y-115438961D01*
X147456493Y-115438961D02*
X147456493Y-115705628D01*
X147456493Y-115705628D02*
X147418398Y-115858009D01*
X147418398Y-115858009D02*
X147342207Y-115934200D01*
X147342207Y-115934200D02*
X147266017Y-115972295D01*
X147266017Y-115972295D02*
X147113636Y-115972295D01*
X147113636Y-115972295D02*
X147037445Y-115934200D01*
X147037445Y-115934200D02*
X146961255Y-115858009D01*
X146961255Y-115858009D02*
X146923159Y-115705628D01*
X146923159Y-115705628D02*
X146923159Y-115438961D01*
X146923159Y-115438961D02*
X146961255Y-115286580D01*
X146961255Y-115286580D02*
X147037445Y-115210390D01*
X147037445Y-115210390D02*
X147113636Y-115172295D01*
X147685064Y-115172295D02*
X148142207Y-115172295D01*
X147913635Y-115972295D02*
X147913635Y-115172295D01*
X148561255Y-115172295D02*
X148637445Y-115172295D01*
X148637445Y-115172295D02*
X148713636Y-115210390D01*
X148713636Y-115210390D02*
X148751731Y-115248485D01*
X148751731Y-115248485D02*
X148789826Y-115324676D01*
X148789826Y-115324676D02*
X148827921Y-115477057D01*
X148827921Y-115477057D02*
X148827921Y-115667533D01*
X148827921Y-115667533D02*
X148789826Y-115819914D01*
X148789826Y-115819914D02*
X148751731Y-115896104D01*
X148751731Y-115896104D02*
X148713636Y-115934200D01*
X148713636Y-115934200D02*
X148637445Y-115972295D01*
X148637445Y-115972295D02*
X148561255Y-115972295D01*
X148561255Y-115972295D02*
X148485064Y-115934200D01*
X148485064Y-115934200D02*
X148446969Y-115896104D01*
X148446969Y-115896104D02*
X148408874Y-115819914D01*
X148408874Y-115819914D02*
X148370778Y-115667533D01*
X148370778Y-115667533D02*
X148370778Y-115477057D01*
X148370778Y-115477057D02*
X148408874Y-115324676D01*
X148408874Y-115324676D02*
X148446969Y-115248485D01*
X148446969Y-115248485D02*
X148485064Y-115210390D01*
X148485064Y-115210390D02*
X148561255Y-115172295D01*
X145323160Y-105812295D02*
X145323160Y-105012295D01*
X145323160Y-105012295D02*
X145627922Y-105012295D01*
X145627922Y-105012295D02*
X145704112Y-105050390D01*
X145704112Y-105050390D02*
X145742207Y-105088485D01*
X145742207Y-105088485D02*
X145780303Y-105164676D01*
X145780303Y-105164676D02*
X145780303Y-105278961D01*
X145780303Y-105278961D02*
X145742207Y-105355152D01*
X145742207Y-105355152D02*
X145704112Y-105393247D01*
X145704112Y-105393247D02*
X145627922Y-105431342D01*
X145627922Y-105431342D02*
X145323160Y-105431342D01*
X146580303Y-105736104D02*
X146542207Y-105774200D01*
X146542207Y-105774200D02*
X146427922Y-105812295D01*
X146427922Y-105812295D02*
X146351731Y-105812295D01*
X146351731Y-105812295D02*
X146237445Y-105774200D01*
X146237445Y-105774200D02*
X146161255Y-105698009D01*
X146161255Y-105698009D02*
X146123160Y-105621819D01*
X146123160Y-105621819D02*
X146085064Y-105469438D01*
X146085064Y-105469438D02*
X146085064Y-105355152D01*
X146085064Y-105355152D02*
X146123160Y-105202771D01*
X146123160Y-105202771D02*
X146161255Y-105126580D01*
X146161255Y-105126580D02*
X146237445Y-105050390D01*
X146237445Y-105050390D02*
X146351731Y-105012295D01*
X146351731Y-105012295D02*
X146427922Y-105012295D01*
X146427922Y-105012295D02*
X146542207Y-105050390D01*
X146542207Y-105050390D02*
X146580303Y-105088485D01*
X147342207Y-105812295D02*
X146885064Y-105812295D01*
X147113636Y-105812295D02*
X147113636Y-105012295D01*
X147113636Y-105012295D02*
X147037445Y-105126580D01*
X147037445Y-105126580D02*
X146961255Y-105202771D01*
X146961255Y-105202771D02*
X146885064Y-105240866D01*
X148027922Y-105278961D02*
X148027922Y-105812295D01*
X147837446Y-104974200D02*
X147646969Y-105545628D01*
X147646969Y-105545628D02*
X148142208Y-105545628D01*
X131333160Y-160352295D02*
X131333160Y-159552295D01*
X131333160Y-159552295D02*
X131637922Y-159552295D01*
X131637922Y-159552295D02*
X131714112Y-159590390D01*
X131714112Y-159590390D02*
X131752207Y-159628485D01*
X131752207Y-159628485D02*
X131790303Y-159704676D01*
X131790303Y-159704676D02*
X131790303Y-159818961D01*
X131790303Y-159818961D02*
X131752207Y-159895152D01*
X131752207Y-159895152D02*
X131714112Y-159933247D01*
X131714112Y-159933247D02*
X131637922Y-159971342D01*
X131637922Y-159971342D02*
X131333160Y-159971342D01*
X132399826Y-159933247D02*
X132514112Y-159971342D01*
X132514112Y-159971342D02*
X132552207Y-160009438D01*
X132552207Y-160009438D02*
X132590303Y-160085628D01*
X132590303Y-160085628D02*
X132590303Y-160199914D01*
X132590303Y-160199914D02*
X132552207Y-160276104D01*
X132552207Y-160276104D02*
X132514112Y-160314200D01*
X132514112Y-160314200D02*
X132437922Y-160352295D01*
X132437922Y-160352295D02*
X132133160Y-160352295D01*
X132133160Y-160352295D02*
X132133160Y-159552295D01*
X132133160Y-159552295D02*
X132399826Y-159552295D01*
X132399826Y-159552295D02*
X132476017Y-159590390D01*
X132476017Y-159590390D02*
X132514112Y-159628485D01*
X132514112Y-159628485D02*
X132552207Y-159704676D01*
X132552207Y-159704676D02*
X132552207Y-159780866D01*
X132552207Y-159780866D02*
X132514112Y-159857057D01*
X132514112Y-159857057D02*
X132476017Y-159895152D01*
X132476017Y-159895152D02*
X132399826Y-159933247D01*
X132399826Y-159933247D02*
X132133160Y-159933247D01*
X133352207Y-160352295D02*
X132895064Y-160352295D01*
X133123636Y-160352295D02*
X133123636Y-159552295D01*
X133123636Y-159552295D02*
X133047445Y-159666580D01*
X133047445Y-159666580D02*
X132971255Y-159742771D01*
X132971255Y-159742771D02*
X132895064Y-159780866D01*
X134076017Y-159552295D02*
X133695065Y-159552295D01*
X133695065Y-159552295D02*
X133656969Y-159933247D01*
X133656969Y-159933247D02*
X133695065Y-159895152D01*
X133695065Y-159895152D02*
X133771255Y-159857057D01*
X133771255Y-159857057D02*
X133961731Y-159857057D01*
X133961731Y-159857057D02*
X134037922Y-159895152D01*
X134037922Y-159895152D02*
X134076017Y-159933247D01*
X134076017Y-159933247D02*
X134114112Y-160009438D01*
X134114112Y-160009438D02*
X134114112Y-160199914D01*
X134114112Y-160199914D02*
X134076017Y-160276104D01*
X134076017Y-160276104D02*
X134037922Y-160314200D01*
X134037922Y-160314200D02*
X133961731Y-160352295D01*
X133961731Y-160352295D02*
X133771255Y-160352295D01*
X133771255Y-160352295D02*
X133695065Y-160314200D01*
X133695065Y-160314200D02*
X133656969Y-160276104D01*
X121955160Y-126132295D02*
X121955160Y-125332295D01*
X121955160Y-125332295D02*
X122259922Y-125332295D01*
X122259922Y-125332295D02*
X122336112Y-125370390D01*
X122336112Y-125370390D02*
X122374207Y-125408485D01*
X122374207Y-125408485D02*
X122412303Y-125484676D01*
X122412303Y-125484676D02*
X122412303Y-125598961D01*
X122412303Y-125598961D02*
X122374207Y-125675152D01*
X122374207Y-125675152D02*
X122336112Y-125713247D01*
X122336112Y-125713247D02*
X122259922Y-125751342D01*
X122259922Y-125751342D02*
X121955160Y-125751342D01*
X122717064Y-125903723D02*
X123098017Y-125903723D01*
X122640874Y-126132295D02*
X122907541Y-125332295D01*
X122907541Y-125332295D02*
X123174207Y-126132295D01*
X123821826Y-125332295D02*
X123440874Y-125332295D01*
X123440874Y-125332295D02*
X123402778Y-125713247D01*
X123402778Y-125713247D02*
X123440874Y-125675152D01*
X123440874Y-125675152D02*
X123517064Y-125637057D01*
X123517064Y-125637057D02*
X123707540Y-125637057D01*
X123707540Y-125637057D02*
X123783731Y-125675152D01*
X123783731Y-125675152D02*
X123821826Y-125713247D01*
X123821826Y-125713247D02*
X123859921Y-125789438D01*
X123859921Y-125789438D02*
X123859921Y-125979914D01*
X123859921Y-125979914D02*
X123821826Y-126056104D01*
X123821826Y-126056104D02*
X123783731Y-126094200D01*
X123783731Y-126094200D02*
X123707540Y-126132295D01*
X123707540Y-126132295D02*
X123517064Y-126132295D01*
X123517064Y-126132295D02*
X123440874Y-126094200D01*
X123440874Y-126094200D02*
X123402778Y-126056104D01*
X135651160Y-153494295D02*
X135651160Y-152694295D01*
X135651160Y-152694295D02*
X135955922Y-152694295D01*
X135955922Y-152694295D02*
X136032112Y-152732390D01*
X136032112Y-152732390D02*
X136070207Y-152770485D01*
X136070207Y-152770485D02*
X136108303Y-152846676D01*
X136108303Y-152846676D02*
X136108303Y-152960961D01*
X136108303Y-152960961D02*
X136070207Y-153037152D01*
X136070207Y-153037152D02*
X136032112Y-153075247D01*
X136032112Y-153075247D02*
X135955922Y-153113342D01*
X135955922Y-153113342D02*
X135651160Y-153113342D01*
X136413064Y-153265723D02*
X136794017Y-153265723D01*
X136336874Y-153494295D02*
X136603541Y-152694295D01*
X136603541Y-152694295D02*
X136870207Y-153494295D01*
X137251159Y-153037152D02*
X137174969Y-152999057D01*
X137174969Y-152999057D02*
X137136874Y-152960961D01*
X137136874Y-152960961D02*
X137098778Y-152884771D01*
X137098778Y-152884771D02*
X137098778Y-152846676D01*
X137098778Y-152846676D02*
X137136874Y-152770485D01*
X137136874Y-152770485D02*
X137174969Y-152732390D01*
X137174969Y-152732390D02*
X137251159Y-152694295D01*
X137251159Y-152694295D02*
X137403540Y-152694295D01*
X137403540Y-152694295D02*
X137479731Y-152732390D01*
X137479731Y-152732390D02*
X137517826Y-152770485D01*
X137517826Y-152770485D02*
X137555921Y-152846676D01*
X137555921Y-152846676D02*
X137555921Y-152884771D01*
X137555921Y-152884771D02*
X137517826Y-152960961D01*
X137517826Y-152960961D02*
X137479731Y-152999057D01*
X137479731Y-152999057D02*
X137403540Y-153037152D01*
X137403540Y-153037152D02*
X137251159Y-153037152D01*
X137251159Y-153037152D02*
X137174969Y-153075247D01*
X137174969Y-153075247D02*
X137136874Y-153113342D01*
X137136874Y-153113342D02*
X137098778Y-153189533D01*
X137098778Y-153189533D02*
X137098778Y-153341914D01*
X137098778Y-153341914D02*
X137136874Y-153418104D01*
X137136874Y-153418104D02*
X137174969Y-153456200D01*
X137174969Y-153456200D02*
X137251159Y-153494295D01*
X137251159Y-153494295D02*
X137403540Y-153494295D01*
X137403540Y-153494295D02*
X137479731Y-153456200D01*
X137479731Y-153456200D02*
X137517826Y-153418104D01*
X137517826Y-153418104D02*
X137555921Y-153341914D01*
X137555921Y-153341914D02*
X137555921Y-153189533D01*
X137555921Y-153189533D02*
X137517826Y-153113342D01*
X137517826Y-153113342D02*
X137479731Y-153075247D01*
X137479731Y-153075247D02*
X137403540Y-153037152D01*
X145323160Y-113432295D02*
X145323160Y-112632295D01*
X145323160Y-112632295D02*
X145627922Y-112632295D01*
X145627922Y-112632295D02*
X145704112Y-112670390D01*
X145704112Y-112670390D02*
X145742207Y-112708485D01*
X145742207Y-112708485D02*
X145780303Y-112784676D01*
X145780303Y-112784676D02*
X145780303Y-112898961D01*
X145780303Y-112898961D02*
X145742207Y-112975152D01*
X145742207Y-112975152D02*
X145704112Y-113013247D01*
X145704112Y-113013247D02*
X145627922Y-113051342D01*
X145627922Y-113051342D02*
X145323160Y-113051342D01*
X146389826Y-113013247D02*
X146504112Y-113051342D01*
X146504112Y-113051342D02*
X146542207Y-113089438D01*
X146542207Y-113089438D02*
X146580303Y-113165628D01*
X146580303Y-113165628D02*
X146580303Y-113279914D01*
X146580303Y-113279914D02*
X146542207Y-113356104D01*
X146542207Y-113356104D02*
X146504112Y-113394200D01*
X146504112Y-113394200D02*
X146427922Y-113432295D01*
X146427922Y-113432295D02*
X146123160Y-113432295D01*
X146123160Y-113432295D02*
X146123160Y-112632295D01*
X146123160Y-112632295D02*
X146389826Y-112632295D01*
X146389826Y-112632295D02*
X146466017Y-112670390D01*
X146466017Y-112670390D02*
X146504112Y-112708485D01*
X146504112Y-112708485D02*
X146542207Y-112784676D01*
X146542207Y-112784676D02*
X146542207Y-112860866D01*
X146542207Y-112860866D02*
X146504112Y-112937057D01*
X146504112Y-112937057D02*
X146466017Y-112975152D01*
X146466017Y-112975152D02*
X146389826Y-113013247D01*
X146389826Y-113013247D02*
X146123160Y-113013247D01*
X147037445Y-112975152D02*
X146961255Y-112937057D01*
X146961255Y-112937057D02*
X146923160Y-112898961D01*
X146923160Y-112898961D02*
X146885064Y-112822771D01*
X146885064Y-112822771D02*
X146885064Y-112784676D01*
X146885064Y-112784676D02*
X146923160Y-112708485D01*
X146923160Y-112708485D02*
X146961255Y-112670390D01*
X146961255Y-112670390D02*
X147037445Y-112632295D01*
X147037445Y-112632295D02*
X147189826Y-112632295D01*
X147189826Y-112632295D02*
X147266017Y-112670390D01*
X147266017Y-112670390D02*
X147304112Y-112708485D01*
X147304112Y-112708485D02*
X147342207Y-112784676D01*
X147342207Y-112784676D02*
X147342207Y-112822771D01*
X147342207Y-112822771D02*
X147304112Y-112898961D01*
X147304112Y-112898961D02*
X147266017Y-112937057D01*
X147266017Y-112937057D02*
X147189826Y-112975152D01*
X147189826Y-112975152D02*
X147037445Y-112975152D01*
X147037445Y-112975152D02*
X146961255Y-113013247D01*
X146961255Y-113013247D02*
X146923160Y-113051342D01*
X146923160Y-113051342D02*
X146885064Y-113127533D01*
X146885064Y-113127533D02*
X146885064Y-113279914D01*
X146885064Y-113279914D02*
X146923160Y-113356104D01*
X146923160Y-113356104D02*
X146961255Y-113394200D01*
X146961255Y-113394200D02*
X147037445Y-113432295D01*
X147037445Y-113432295D02*
X147189826Y-113432295D01*
X147189826Y-113432295D02*
X147266017Y-113394200D01*
X147266017Y-113394200D02*
X147304112Y-113356104D01*
X147304112Y-113356104D02*
X147342207Y-113279914D01*
X147342207Y-113279914D02*
X147342207Y-113127533D01*
X147342207Y-113127533D02*
X147304112Y-113051342D01*
X147304112Y-113051342D02*
X147266017Y-113013247D01*
X147266017Y-113013247D02*
X147189826Y-112975152D01*
D11*
X120516440Y-125878792D02*
X120497392Y-125897840D01*
X120497392Y-125897840D02*
X120440250Y-125916887D01*
X120440250Y-125916887D02*
X120402154Y-125916887D01*
X120402154Y-125916887D02*
X120345011Y-125897840D01*
X120345011Y-125897840D02*
X120306916Y-125859744D01*
X120306916Y-125859744D02*
X120287869Y-125821649D01*
X120287869Y-125821649D02*
X120268821Y-125745459D01*
X120268821Y-125745459D02*
X120268821Y-125688316D01*
X120268821Y-125688316D02*
X120287869Y-125612125D01*
X120287869Y-125612125D02*
X120306916Y-125574030D01*
X120306916Y-125574030D02*
X120345011Y-125535935D01*
X120345011Y-125535935D02*
X120402154Y-125516887D01*
X120402154Y-125516887D02*
X120440250Y-125516887D01*
X120440250Y-125516887D02*
X120497392Y-125535935D01*
X120497392Y-125535935D02*
X120516440Y-125554982D01*
X120878345Y-125916887D02*
X120687869Y-125916887D01*
X120687869Y-125916887D02*
X120687869Y-125516887D01*
X121011679Y-125916887D02*
X121011679Y-125516887D01*
X121240250Y-125916887D02*
X121068821Y-125688316D01*
X121240250Y-125516887D02*
X121011679Y-125745459D01*
X121697393Y-125497840D02*
X121354536Y-126012125D01*
D10*
X121955160Y-115972295D02*
X121955160Y-115172295D01*
X121955160Y-115172295D02*
X122259922Y-115172295D01*
X122259922Y-115172295D02*
X122336112Y-115210390D01*
X122336112Y-115210390D02*
X122374207Y-115248485D01*
X122374207Y-115248485D02*
X122412303Y-115324676D01*
X122412303Y-115324676D02*
X122412303Y-115438961D01*
X122412303Y-115438961D02*
X122374207Y-115515152D01*
X122374207Y-115515152D02*
X122336112Y-115553247D01*
X122336112Y-115553247D02*
X122259922Y-115591342D01*
X122259922Y-115591342D02*
X121955160Y-115591342D01*
X122717064Y-115743723D02*
X123098017Y-115743723D01*
X122640874Y-115972295D02*
X122907541Y-115172295D01*
X122907541Y-115172295D02*
X123174207Y-115972295D01*
X123402778Y-115248485D02*
X123440874Y-115210390D01*
X123440874Y-115210390D02*
X123517064Y-115172295D01*
X123517064Y-115172295D02*
X123707540Y-115172295D01*
X123707540Y-115172295D02*
X123783731Y-115210390D01*
X123783731Y-115210390D02*
X123821826Y-115248485D01*
X123821826Y-115248485D02*
X123859921Y-115324676D01*
X123859921Y-115324676D02*
X123859921Y-115400866D01*
X123859921Y-115400866D02*
X123821826Y-115515152D01*
X123821826Y-115515152D02*
X123364683Y-115972295D01*
X123364683Y-115972295D02*
X123859921Y-115972295D01*
X145285064Y-121014200D02*
X145399350Y-121052295D01*
X145399350Y-121052295D02*
X145589826Y-121052295D01*
X145589826Y-121052295D02*
X145666017Y-121014200D01*
X145666017Y-121014200D02*
X145704112Y-120976104D01*
X145704112Y-120976104D02*
X145742207Y-120899914D01*
X145742207Y-120899914D02*
X145742207Y-120823723D01*
X145742207Y-120823723D02*
X145704112Y-120747533D01*
X145704112Y-120747533D02*
X145666017Y-120709438D01*
X145666017Y-120709438D02*
X145589826Y-120671342D01*
X145589826Y-120671342D02*
X145437445Y-120633247D01*
X145437445Y-120633247D02*
X145361255Y-120595152D01*
X145361255Y-120595152D02*
X145323160Y-120557057D01*
X145323160Y-120557057D02*
X145285064Y-120480866D01*
X145285064Y-120480866D02*
X145285064Y-120404676D01*
X145285064Y-120404676D02*
X145323160Y-120328485D01*
X145323160Y-120328485D02*
X145361255Y-120290390D01*
X145361255Y-120290390D02*
X145437445Y-120252295D01*
X145437445Y-120252295D02*
X145627922Y-120252295D01*
X145627922Y-120252295D02*
X145742207Y-120290390D01*
X146008874Y-120252295D02*
X146199350Y-121052295D01*
X146199350Y-121052295D02*
X146351731Y-120480866D01*
X146351731Y-120480866D02*
X146504112Y-121052295D01*
X146504112Y-121052295D02*
X146694589Y-120252295D01*
X147456494Y-120976104D02*
X147418398Y-121014200D01*
X147418398Y-121014200D02*
X147304113Y-121052295D01*
X147304113Y-121052295D02*
X147227922Y-121052295D01*
X147227922Y-121052295D02*
X147113636Y-121014200D01*
X147113636Y-121014200D02*
X147037446Y-120938009D01*
X147037446Y-120938009D02*
X146999351Y-120861819D01*
X146999351Y-120861819D02*
X146961255Y-120709438D01*
X146961255Y-120709438D02*
X146961255Y-120595152D01*
X146961255Y-120595152D02*
X146999351Y-120442771D01*
X146999351Y-120442771D02*
X147037446Y-120366580D01*
X147037446Y-120366580D02*
X147113636Y-120290390D01*
X147113636Y-120290390D02*
X147227922Y-120252295D01*
X147227922Y-120252295D02*
X147304113Y-120252295D01*
X147304113Y-120252295D02*
X147418398Y-120290390D01*
X147418398Y-120290390D02*
X147456494Y-120328485D01*
X148180303Y-121052295D02*
X147799351Y-121052295D01*
X147799351Y-121052295D02*
X147799351Y-120252295D01*
X148446970Y-121052295D02*
X148446970Y-120252295D01*
X148904113Y-121052295D02*
X148561255Y-120595152D01*
X148904113Y-120252295D02*
X148446970Y-120709438D01*
X145323160Y-110892295D02*
X145323160Y-110092295D01*
X145323160Y-110092295D02*
X145627922Y-110092295D01*
X145627922Y-110092295D02*
X145704112Y-110130390D01*
X145704112Y-110130390D02*
X145742207Y-110168485D01*
X145742207Y-110168485D02*
X145780303Y-110244676D01*
X145780303Y-110244676D02*
X145780303Y-110358961D01*
X145780303Y-110358961D02*
X145742207Y-110435152D01*
X145742207Y-110435152D02*
X145704112Y-110473247D01*
X145704112Y-110473247D02*
X145627922Y-110511342D01*
X145627922Y-110511342D02*
X145323160Y-110511342D01*
X146389826Y-110473247D02*
X146504112Y-110511342D01*
X146504112Y-110511342D02*
X146542207Y-110549438D01*
X146542207Y-110549438D02*
X146580303Y-110625628D01*
X146580303Y-110625628D02*
X146580303Y-110739914D01*
X146580303Y-110739914D02*
X146542207Y-110816104D01*
X146542207Y-110816104D02*
X146504112Y-110854200D01*
X146504112Y-110854200D02*
X146427922Y-110892295D01*
X146427922Y-110892295D02*
X146123160Y-110892295D01*
X146123160Y-110892295D02*
X146123160Y-110092295D01*
X146123160Y-110092295D02*
X146389826Y-110092295D01*
X146389826Y-110092295D02*
X146466017Y-110130390D01*
X146466017Y-110130390D02*
X146504112Y-110168485D01*
X146504112Y-110168485D02*
X146542207Y-110244676D01*
X146542207Y-110244676D02*
X146542207Y-110320866D01*
X146542207Y-110320866D02*
X146504112Y-110397057D01*
X146504112Y-110397057D02*
X146466017Y-110435152D01*
X146466017Y-110435152D02*
X146389826Y-110473247D01*
X146389826Y-110473247D02*
X146123160Y-110473247D01*
X146961255Y-110892295D02*
X147113636Y-110892295D01*
X147113636Y-110892295D02*
X147189826Y-110854200D01*
X147189826Y-110854200D02*
X147227922Y-110816104D01*
X147227922Y-110816104D02*
X147304112Y-110701819D01*
X147304112Y-110701819D02*
X147342207Y-110549438D01*
X147342207Y-110549438D02*
X147342207Y-110244676D01*
X147342207Y-110244676D02*
X147304112Y-110168485D01*
X147304112Y-110168485D02*
X147266017Y-110130390D01*
X147266017Y-110130390D02*
X147189826Y-110092295D01*
X147189826Y-110092295D02*
X147037445Y-110092295D01*
X147037445Y-110092295D02*
X146961255Y-110130390D01*
X146961255Y-110130390D02*
X146923160Y-110168485D01*
X146923160Y-110168485D02*
X146885064Y-110244676D01*
X146885064Y-110244676D02*
X146885064Y-110435152D01*
X146885064Y-110435152D02*
X146923160Y-110511342D01*
X146923160Y-110511342D02*
X146961255Y-110549438D01*
X146961255Y-110549438D02*
X147037445Y-110587533D01*
X147037445Y-110587533D02*
X147189826Y-110587533D01*
X147189826Y-110587533D02*
X147266017Y-110549438D01*
X147266017Y-110549438D02*
X147304112Y-110511342D01*
X147304112Y-110511342D02*
X147342207Y-110435152D01*
D11*
X139636440Y-152456887D02*
X139503107Y-152266411D01*
X139407869Y-152456887D02*
X139407869Y-152056887D01*
X139407869Y-152056887D02*
X139560250Y-152056887D01*
X139560250Y-152056887D02*
X139598345Y-152075935D01*
X139598345Y-152075935D02*
X139617392Y-152094982D01*
X139617392Y-152094982D02*
X139636440Y-152133078D01*
X139636440Y-152133078D02*
X139636440Y-152190220D01*
X139636440Y-152190220D02*
X139617392Y-152228316D01*
X139617392Y-152228316D02*
X139598345Y-152247363D01*
X139598345Y-152247363D02*
X139560250Y-152266411D01*
X139560250Y-152266411D02*
X139407869Y-152266411D01*
X139769773Y-152056887D02*
X140036440Y-152456887D01*
X140036440Y-152056887D02*
X139769773Y-152456887D01*
X140474535Y-152037840D02*
X140131678Y-152552125D01*
D10*
X138699160Y-153494295D02*
X138699160Y-152694295D01*
X138699160Y-152694295D02*
X139003922Y-152694295D01*
X139003922Y-152694295D02*
X139080112Y-152732390D01*
X139080112Y-152732390D02*
X139118207Y-152770485D01*
X139118207Y-152770485D02*
X139156303Y-152846676D01*
X139156303Y-152846676D02*
X139156303Y-152960961D01*
X139156303Y-152960961D02*
X139118207Y-153037152D01*
X139118207Y-153037152D02*
X139080112Y-153075247D01*
X139080112Y-153075247D02*
X139003922Y-153113342D01*
X139003922Y-153113342D02*
X138699160Y-153113342D01*
X139461064Y-153265723D02*
X139842017Y-153265723D01*
X139384874Y-153494295D02*
X139651541Y-152694295D01*
X139651541Y-152694295D02*
X139918207Y-153494295D01*
X140603921Y-153494295D02*
X140146778Y-153494295D01*
X140375350Y-153494295D02*
X140375350Y-152694295D01*
X140375350Y-152694295D02*
X140299159Y-152808580D01*
X140299159Y-152808580D02*
X140222969Y-152884771D01*
X140222969Y-152884771D02*
X140146778Y-152922866D01*
X141099160Y-152694295D02*
X141175350Y-152694295D01*
X141175350Y-152694295D02*
X141251541Y-152732390D01*
X141251541Y-152732390D02*
X141289636Y-152770485D01*
X141289636Y-152770485D02*
X141327731Y-152846676D01*
X141327731Y-152846676D02*
X141365826Y-152999057D01*
X141365826Y-152999057D02*
X141365826Y-153189533D01*
X141365826Y-153189533D02*
X141327731Y-153341914D01*
X141327731Y-153341914D02*
X141289636Y-153418104D01*
X141289636Y-153418104D02*
X141251541Y-153456200D01*
X141251541Y-153456200D02*
X141175350Y-153494295D01*
X141175350Y-153494295D02*
X141099160Y-153494295D01*
X141099160Y-153494295D02*
X141022969Y-153456200D01*
X141022969Y-153456200D02*
X140984874Y-153418104D01*
X140984874Y-153418104D02*
X140946779Y-153341914D01*
X140946779Y-153341914D02*
X140908683Y-153189533D01*
X140908683Y-153189533D02*
X140908683Y-152999057D01*
X140908683Y-152999057D02*
X140946779Y-152846676D01*
X140946779Y-152846676D02*
X140984874Y-152770485D01*
X140984874Y-152770485D02*
X141022969Y-152732390D01*
X141022969Y-152732390D02*
X141099160Y-152694295D01*
X131333160Y-153494295D02*
X131333160Y-152694295D01*
X131333160Y-152694295D02*
X131637922Y-152694295D01*
X131637922Y-152694295D02*
X131714112Y-152732390D01*
X131714112Y-152732390D02*
X131752207Y-152770485D01*
X131752207Y-152770485D02*
X131790303Y-152846676D01*
X131790303Y-152846676D02*
X131790303Y-152960961D01*
X131790303Y-152960961D02*
X131752207Y-153037152D01*
X131752207Y-153037152D02*
X131714112Y-153075247D01*
X131714112Y-153075247D02*
X131637922Y-153113342D01*
X131637922Y-153113342D02*
X131333160Y-153113342D01*
X132399826Y-153075247D02*
X132514112Y-153113342D01*
X132514112Y-153113342D02*
X132552207Y-153151438D01*
X132552207Y-153151438D02*
X132590303Y-153227628D01*
X132590303Y-153227628D02*
X132590303Y-153341914D01*
X132590303Y-153341914D02*
X132552207Y-153418104D01*
X132552207Y-153418104D02*
X132514112Y-153456200D01*
X132514112Y-153456200D02*
X132437922Y-153494295D01*
X132437922Y-153494295D02*
X132133160Y-153494295D01*
X132133160Y-153494295D02*
X132133160Y-152694295D01*
X132133160Y-152694295D02*
X132399826Y-152694295D01*
X132399826Y-152694295D02*
X132476017Y-152732390D01*
X132476017Y-152732390D02*
X132514112Y-152770485D01*
X132514112Y-152770485D02*
X132552207Y-152846676D01*
X132552207Y-152846676D02*
X132552207Y-152922866D01*
X132552207Y-152922866D02*
X132514112Y-152999057D01*
X132514112Y-152999057D02*
X132476017Y-153037152D01*
X132476017Y-153037152D02*
X132399826Y-153075247D01*
X132399826Y-153075247D02*
X132133160Y-153075247D01*
X133352207Y-153494295D02*
X132895064Y-153494295D01*
X133123636Y-153494295D02*
X133123636Y-152694295D01*
X133123636Y-152694295D02*
X133047445Y-152808580D01*
X133047445Y-152808580D02*
X132971255Y-152884771D01*
X132971255Y-152884771D02*
X132895064Y-152922866D01*
X134037922Y-152960961D02*
X134037922Y-153494295D01*
X133847446Y-152656200D02*
X133656969Y-153227628D01*
X133656969Y-153227628D02*
X134152208Y-153227628D01*
X121955160Y-138832295D02*
X121955160Y-138032295D01*
X121955160Y-138032295D02*
X122259922Y-138032295D01*
X122259922Y-138032295D02*
X122336112Y-138070390D01*
X122336112Y-138070390D02*
X122374207Y-138108485D01*
X122374207Y-138108485D02*
X122412303Y-138184676D01*
X122412303Y-138184676D02*
X122412303Y-138298961D01*
X122412303Y-138298961D02*
X122374207Y-138375152D01*
X122374207Y-138375152D02*
X122336112Y-138413247D01*
X122336112Y-138413247D02*
X122259922Y-138451342D01*
X122259922Y-138451342D02*
X121955160Y-138451342D01*
X123021826Y-138413247D02*
X123136112Y-138451342D01*
X123136112Y-138451342D02*
X123174207Y-138489438D01*
X123174207Y-138489438D02*
X123212303Y-138565628D01*
X123212303Y-138565628D02*
X123212303Y-138679914D01*
X123212303Y-138679914D02*
X123174207Y-138756104D01*
X123174207Y-138756104D02*
X123136112Y-138794200D01*
X123136112Y-138794200D02*
X123059922Y-138832295D01*
X123059922Y-138832295D02*
X122755160Y-138832295D01*
X122755160Y-138832295D02*
X122755160Y-138032295D01*
X122755160Y-138032295D02*
X123021826Y-138032295D01*
X123021826Y-138032295D02*
X123098017Y-138070390D01*
X123098017Y-138070390D02*
X123136112Y-138108485D01*
X123136112Y-138108485D02*
X123174207Y-138184676D01*
X123174207Y-138184676D02*
X123174207Y-138260866D01*
X123174207Y-138260866D02*
X123136112Y-138337057D01*
X123136112Y-138337057D02*
X123098017Y-138375152D01*
X123098017Y-138375152D02*
X123021826Y-138413247D01*
X123021826Y-138413247D02*
X122755160Y-138413247D01*
X123707541Y-138032295D02*
X123783731Y-138032295D01*
X123783731Y-138032295D02*
X123859922Y-138070390D01*
X123859922Y-138070390D02*
X123898017Y-138108485D01*
X123898017Y-138108485D02*
X123936112Y-138184676D01*
X123936112Y-138184676D02*
X123974207Y-138337057D01*
X123974207Y-138337057D02*
X123974207Y-138527533D01*
X123974207Y-138527533D02*
X123936112Y-138679914D01*
X123936112Y-138679914D02*
X123898017Y-138756104D01*
X123898017Y-138756104D02*
X123859922Y-138794200D01*
X123859922Y-138794200D02*
X123783731Y-138832295D01*
X123783731Y-138832295D02*
X123707541Y-138832295D01*
X123707541Y-138832295D02*
X123631350Y-138794200D01*
X123631350Y-138794200D02*
X123593255Y-138756104D01*
X123593255Y-138756104D02*
X123555160Y-138679914D01*
X123555160Y-138679914D02*
X123517064Y-138527533D01*
X123517064Y-138527533D02*
X123517064Y-138337057D01*
X123517064Y-138337057D02*
X123555160Y-138184676D01*
X123555160Y-138184676D02*
X123593255Y-138108485D01*
X123593255Y-138108485D02*
X123631350Y-138070390D01*
X123631350Y-138070390D02*
X123707541Y-138032295D01*
X145323160Y-103272295D02*
X145323160Y-102472295D01*
X145323160Y-102472295D02*
X145627922Y-102472295D01*
X145627922Y-102472295D02*
X145704112Y-102510390D01*
X145704112Y-102510390D02*
X145742207Y-102548485D01*
X145742207Y-102548485D02*
X145780303Y-102624676D01*
X145780303Y-102624676D02*
X145780303Y-102738961D01*
X145780303Y-102738961D02*
X145742207Y-102815152D01*
X145742207Y-102815152D02*
X145704112Y-102853247D01*
X145704112Y-102853247D02*
X145627922Y-102891342D01*
X145627922Y-102891342D02*
X145323160Y-102891342D01*
X146580303Y-103196104D02*
X146542207Y-103234200D01*
X146542207Y-103234200D02*
X146427922Y-103272295D01*
X146427922Y-103272295D02*
X146351731Y-103272295D01*
X146351731Y-103272295D02*
X146237445Y-103234200D01*
X146237445Y-103234200D02*
X146161255Y-103158009D01*
X146161255Y-103158009D02*
X146123160Y-103081819D01*
X146123160Y-103081819D02*
X146085064Y-102929438D01*
X146085064Y-102929438D02*
X146085064Y-102815152D01*
X146085064Y-102815152D02*
X146123160Y-102662771D01*
X146123160Y-102662771D02*
X146161255Y-102586580D01*
X146161255Y-102586580D02*
X146237445Y-102510390D01*
X146237445Y-102510390D02*
X146351731Y-102472295D01*
X146351731Y-102472295D02*
X146427922Y-102472295D01*
X146427922Y-102472295D02*
X146542207Y-102510390D01*
X146542207Y-102510390D02*
X146580303Y-102548485D01*
X147342207Y-103272295D02*
X146885064Y-103272295D01*
X147113636Y-103272295D02*
X147113636Y-102472295D01*
X147113636Y-102472295D02*
X147037445Y-102586580D01*
X147037445Y-102586580D02*
X146961255Y-102662771D01*
X146961255Y-102662771D02*
X146885064Y-102700866D01*
X147608874Y-102472295D02*
X148104112Y-102472295D01*
X148104112Y-102472295D02*
X147837446Y-102777057D01*
X147837446Y-102777057D02*
X147951731Y-102777057D01*
X147951731Y-102777057D02*
X148027922Y-102815152D01*
X148027922Y-102815152D02*
X148066017Y-102853247D01*
X148066017Y-102853247D02*
X148104112Y-102929438D01*
X148104112Y-102929438D02*
X148104112Y-103119914D01*
X148104112Y-103119914D02*
X148066017Y-103196104D01*
X148066017Y-103196104D02*
X148027922Y-103234200D01*
X148027922Y-103234200D02*
X147951731Y-103272295D01*
X147951731Y-103272295D02*
X147723160Y-103272295D01*
X147723160Y-103272295D02*
X147646969Y-103234200D01*
X147646969Y-103234200D02*
X147608874Y-103196104D01*
X145323160Y-151532295D02*
X145323160Y-150732295D01*
X145323160Y-150732295D02*
X145627922Y-150732295D01*
X145627922Y-150732295D02*
X145704112Y-150770390D01*
X145704112Y-150770390D02*
X145742207Y-150808485D01*
X145742207Y-150808485D02*
X145780303Y-150884676D01*
X145780303Y-150884676D02*
X145780303Y-150998961D01*
X145780303Y-150998961D02*
X145742207Y-151075152D01*
X145742207Y-151075152D02*
X145704112Y-151113247D01*
X145704112Y-151113247D02*
X145627922Y-151151342D01*
X145627922Y-151151342D02*
X145323160Y-151151342D01*
X146389826Y-151113247D02*
X146123160Y-151113247D01*
X146123160Y-151532295D02*
X146123160Y-150732295D01*
X146123160Y-150732295D02*
X146504112Y-150732295D01*
X147151731Y-150732295D02*
X146999350Y-150732295D01*
X146999350Y-150732295D02*
X146923159Y-150770390D01*
X146923159Y-150770390D02*
X146885064Y-150808485D01*
X146885064Y-150808485D02*
X146808874Y-150922771D01*
X146808874Y-150922771D02*
X146770778Y-151075152D01*
X146770778Y-151075152D02*
X146770778Y-151379914D01*
X146770778Y-151379914D02*
X146808874Y-151456104D01*
X146808874Y-151456104D02*
X146846969Y-151494200D01*
X146846969Y-151494200D02*
X146923159Y-151532295D01*
X146923159Y-151532295D02*
X147075540Y-151532295D01*
X147075540Y-151532295D02*
X147151731Y-151494200D01*
X147151731Y-151494200D02*
X147189826Y-151456104D01*
X147189826Y-151456104D02*
X147227921Y-151379914D01*
X147227921Y-151379914D02*
X147227921Y-151189438D01*
X147227921Y-151189438D02*
X147189826Y-151113247D01*
X147189826Y-151113247D02*
X147151731Y-151075152D01*
X147151731Y-151075152D02*
X147075540Y-151037057D01*
X147075540Y-151037057D02*
X146923159Y-151037057D01*
X146923159Y-151037057D02*
X146846969Y-151075152D01*
X146846969Y-151075152D02*
X146808874Y-151113247D01*
X146808874Y-151113247D02*
X146770778Y-151189438D01*
D11*
X147773583Y-150877840D02*
X147430726Y-151392125D01*
X147887869Y-151277840D02*
X147945012Y-151296887D01*
X147945012Y-151296887D02*
X148040250Y-151296887D01*
X148040250Y-151296887D02*
X148078345Y-151277840D01*
X148078345Y-151277840D02*
X148097393Y-151258792D01*
X148097393Y-151258792D02*
X148116440Y-151220697D01*
X148116440Y-151220697D02*
X148116440Y-151182601D01*
X148116440Y-151182601D02*
X148097393Y-151144506D01*
X148097393Y-151144506D02*
X148078345Y-151125459D01*
X148078345Y-151125459D02*
X148040250Y-151106411D01*
X148040250Y-151106411D02*
X147964059Y-151087363D01*
X147964059Y-151087363D02*
X147925964Y-151068316D01*
X147925964Y-151068316D02*
X147906917Y-151049268D01*
X147906917Y-151049268D02*
X147887869Y-151011173D01*
X147887869Y-151011173D02*
X147887869Y-150973078D01*
X147887869Y-150973078D02*
X147906917Y-150934982D01*
X147906917Y-150934982D02*
X147925964Y-150915935D01*
X147925964Y-150915935D02*
X147964059Y-150896887D01*
X147964059Y-150896887D02*
X148059298Y-150896887D01*
X148059298Y-150896887D02*
X148116440Y-150915935D01*
X148516440Y-151258792D02*
X148497392Y-151277840D01*
X148497392Y-151277840D02*
X148440250Y-151296887D01*
X148440250Y-151296887D02*
X148402154Y-151296887D01*
X148402154Y-151296887D02*
X148345011Y-151277840D01*
X148345011Y-151277840D02*
X148306916Y-151239744D01*
X148306916Y-151239744D02*
X148287869Y-151201649D01*
X148287869Y-151201649D02*
X148268821Y-151125459D01*
X148268821Y-151125459D02*
X148268821Y-151068316D01*
X148268821Y-151068316D02*
X148287869Y-150992125D01*
X148287869Y-150992125D02*
X148306916Y-150954030D01*
X148306916Y-150954030D02*
X148345011Y-150915935D01*
X148345011Y-150915935D02*
X148402154Y-150896887D01*
X148402154Y-150896887D02*
X148440250Y-150896887D01*
X148440250Y-150896887D02*
X148497392Y-150915935D01*
X148497392Y-150915935D02*
X148516440Y-150934982D01*
X148878345Y-151296887D02*
X148687869Y-151296887D01*
X148687869Y-151296887D02*
X148687869Y-150896887D01*
D10*
X121193160Y-151532295D02*
X121193160Y-150732295D01*
X121193160Y-150732295D02*
X121497922Y-150732295D01*
X121497922Y-150732295D02*
X121574112Y-150770390D01*
X121574112Y-150770390D02*
X121612207Y-150808485D01*
X121612207Y-150808485D02*
X121650303Y-150884676D01*
X121650303Y-150884676D02*
X121650303Y-150998961D01*
X121650303Y-150998961D02*
X121612207Y-151075152D01*
X121612207Y-151075152D02*
X121574112Y-151113247D01*
X121574112Y-151113247D02*
X121497922Y-151151342D01*
X121497922Y-151151342D02*
X121193160Y-151151342D01*
X122259826Y-151113247D02*
X122374112Y-151151342D01*
X122374112Y-151151342D02*
X122412207Y-151189438D01*
X122412207Y-151189438D02*
X122450303Y-151265628D01*
X122450303Y-151265628D02*
X122450303Y-151379914D01*
X122450303Y-151379914D02*
X122412207Y-151456104D01*
X122412207Y-151456104D02*
X122374112Y-151494200D01*
X122374112Y-151494200D02*
X122297922Y-151532295D01*
X122297922Y-151532295D02*
X121993160Y-151532295D01*
X121993160Y-151532295D02*
X121993160Y-150732295D01*
X121993160Y-150732295D02*
X122259826Y-150732295D01*
X122259826Y-150732295D02*
X122336017Y-150770390D01*
X122336017Y-150770390D02*
X122374112Y-150808485D01*
X122374112Y-150808485D02*
X122412207Y-150884676D01*
X122412207Y-150884676D02*
X122412207Y-150960866D01*
X122412207Y-150960866D02*
X122374112Y-151037057D01*
X122374112Y-151037057D02*
X122336017Y-151075152D01*
X122336017Y-151075152D02*
X122259826Y-151113247D01*
X122259826Y-151113247D02*
X121993160Y-151113247D01*
X123212207Y-151532295D02*
X122755064Y-151532295D01*
X122983636Y-151532295D02*
X122983636Y-150732295D01*
X122983636Y-150732295D02*
X122907445Y-150846580D01*
X122907445Y-150846580D02*
X122831255Y-150922771D01*
X122831255Y-150922771D02*
X122755064Y-150960866D01*
X123516969Y-150808485D02*
X123555065Y-150770390D01*
X123555065Y-150770390D02*
X123631255Y-150732295D01*
X123631255Y-150732295D02*
X123821731Y-150732295D01*
X123821731Y-150732295D02*
X123897922Y-150770390D01*
X123897922Y-150770390D02*
X123936017Y-150808485D01*
X123936017Y-150808485D02*
X123974112Y-150884676D01*
X123974112Y-150884676D02*
X123974112Y-150960866D01*
X123974112Y-150960866D02*
X123936017Y-151075152D01*
X123936017Y-151075152D02*
X123478874Y-151532295D01*
X123478874Y-151532295D02*
X123974112Y-151532295D01*
X145323160Y-141372295D02*
X145323160Y-140572295D01*
X145323160Y-140572295D02*
X145627922Y-140572295D01*
X145627922Y-140572295D02*
X145704112Y-140610390D01*
X145704112Y-140610390D02*
X145742207Y-140648485D01*
X145742207Y-140648485D02*
X145780303Y-140724676D01*
X145780303Y-140724676D02*
X145780303Y-140838961D01*
X145780303Y-140838961D02*
X145742207Y-140915152D01*
X145742207Y-140915152D02*
X145704112Y-140953247D01*
X145704112Y-140953247D02*
X145627922Y-140991342D01*
X145627922Y-140991342D02*
X145323160Y-140991342D01*
X146389826Y-140953247D02*
X146504112Y-140991342D01*
X146504112Y-140991342D02*
X146542207Y-141029438D01*
X146542207Y-141029438D02*
X146580303Y-141105628D01*
X146580303Y-141105628D02*
X146580303Y-141219914D01*
X146580303Y-141219914D02*
X146542207Y-141296104D01*
X146542207Y-141296104D02*
X146504112Y-141334200D01*
X146504112Y-141334200D02*
X146427922Y-141372295D01*
X146427922Y-141372295D02*
X146123160Y-141372295D01*
X146123160Y-141372295D02*
X146123160Y-140572295D01*
X146123160Y-140572295D02*
X146389826Y-140572295D01*
X146389826Y-140572295D02*
X146466017Y-140610390D01*
X146466017Y-140610390D02*
X146504112Y-140648485D01*
X146504112Y-140648485D02*
X146542207Y-140724676D01*
X146542207Y-140724676D02*
X146542207Y-140800866D01*
X146542207Y-140800866D02*
X146504112Y-140877057D01*
X146504112Y-140877057D02*
X146466017Y-140915152D01*
X146466017Y-140915152D02*
X146389826Y-140953247D01*
X146389826Y-140953247D02*
X146123160Y-140953247D01*
X147304112Y-140572295D02*
X146923160Y-140572295D01*
X146923160Y-140572295D02*
X146885064Y-140953247D01*
X146885064Y-140953247D02*
X146923160Y-140915152D01*
X146923160Y-140915152D02*
X146999350Y-140877057D01*
X146999350Y-140877057D02*
X147189826Y-140877057D01*
X147189826Y-140877057D02*
X147266017Y-140915152D01*
X147266017Y-140915152D02*
X147304112Y-140953247D01*
X147304112Y-140953247D02*
X147342207Y-141029438D01*
X147342207Y-141029438D02*
X147342207Y-141219914D01*
X147342207Y-141219914D02*
X147304112Y-141296104D01*
X147304112Y-141296104D02*
X147266017Y-141334200D01*
X147266017Y-141334200D02*
X147189826Y-141372295D01*
X147189826Y-141372295D02*
X146999350Y-141372295D01*
X146999350Y-141372295D02*
X146923160Y-141334200D01*
X146923160Y-141334200D02*
X146885064Y-141296104D01*
X145323160Y-143912295D02*
X145323160Y-143112295D01*
X145323160Y-143112295D02*
X145627922Y-143112295D01*
X145627922Y-143112295D02*
X145704112Y-143150390D01*
X145704112Y-143150390D02*
X145742207Y-143188485D01*
X145742207Y-143188485D02*
X145780303Y-143264676D01*
X145780303Y-143264676D02*
X145780303Y-143378961D01*
X145780303Y-143378961D02*
X145742207Y-143455152D01*
X145742207Y-143455152D02*
X145704112Y-143493247D01*
X145704112Y-143493247D02*
X145627922Y-143531342D01*
X145627922Y-143531342D02*
X145323160Y-143531342D01*
X146389826Y-143493247D02*
X146504112Y-143531342D01*
X146504112Y-143531342D02*
X146542207Y-143569438D01*
X146542207Y-143569438D02*
X146580303Y-143645628D01*
X146580303Y-143645628D02*
X146580303Y-143759914D01*
X146580303Y-143759914D02*
X146542207Y-143836104D01*
X146542207Y-143836104D02*
X146504112Y-143874200D01*
X146504112Y-143874200D02*
X146427922Y-143912295D01*
X146427922Y-143912295D02*
X146123160Y-143912295D01*
X146123160Y-143912295D02*
X146123160Y-143112295D01*
X146123160Y-143112295D02*
X146389826Y-143112295D01*
X146389826Y-143112295D02*
X146466017Y-143150390D01*
X146466017Y-143150390D02*
X146504112Y-143188485D01*
X146504112Y-143188485D02*
X146542207Y-143264676D01*
X146542207Y-143264676D02*
X146542207Y-143340866D01*
X146542207Y-143340866D02*
X146504112Y-143417057D01*
X146504112Y-143417057D02*
X146466017Y-143455152D01*
X146466017Y-143455152D02*
X146389826Y-143493247D01*
X146389826Y-143493247D02*
X146123160Y-143493247D01*
X147266017Y-143112295D02*
X147113636Y-143112295D01*
X147113636Y-143112295D02*
X147037445Y-143150390D01*
X147037445Y-143150390D02*
X146999350Y-143188485D01*
X146999350Y-143188485D02*
X146923160Y-143302771D01*
X146923160Y-143302771D02*
X146885064Y-143455152D01*
X146885064Y-143455152D02*
X146885064Y-143759914D01*
X146885064Y-143759914D02*
X146923160Y-143836104D01*
X146923160Y-143836104D02*
X146961255Y-143874200D01*
X146961255Y-143874200D02*
X147037445Y-143912295D01*
X147037445Y-143912295D02*
X147189826Y-143912295D01*
X147189826Y-143912295D02*
X147266017Y-143874200D01*
X147266017Y-143874200D02*
X147304112Y-143836104D01*
X147304112Y-143836104D02*
X147342207Y-143759914D01*
X147342207Y-143759914D02*
X147342207Y-143569438D01*
X147342207Y-143569438D02*
X147304112Y-143493247D01*
X147304112Y-143493247D02*
X147266017Y-143455152D01*
X147266017Y-143455152D02*
X147189826Y-143417057D01*
X147189826Y-143417057D02*
X147037445Y-143417057D01*
X147037445Y-143417057D02*
X146961255Y-143455152D01*
X146961255Y-143455152D02*
X146923160Y-143493247D01*
X146923160Y-143493247D02*
X146885064Y-143569438D01*
X121955160Y-123592295D02*
X121955160Y-122792295D01*
X121955160Y-122792295D02*
X122259922Y-122792295D01*
X122259922Y-122792295D02*
X122336112Y-122830390D01*
X122336112Y-122830390D02*
X122374207Y-122868485D01*
X122374207Y-122868485D02*
X122412303Y-122944676D01*
X122412303Y-122944676D02*
X122412303Y-123058961D01*
X122412303Y-123058961D02*
X122374207Y-123135152D01*
X122374207Y-123135152D02*
X122336112Y-123173247D01*
X122336112Y-123173247D02*
X122259922Y-123211342D01*
X122259922Y-123211342D02*
X121955160Y-123211342D01*
X122717064Y-123363723D02*
X123098017Y-123363723D01*
X122640874Y-123592295D02*
X122907541Y-122792295D01*
X122907541Y-122792295D02*
X123174207Y-123592295D01*
X123783731Y-123058961D02*
X123783731Y-123592295D01*
X123593255Y-122754200D02*
X123402778Y-123325628D01*
X123402778Y-123325628D02*
X123898017Y-123325628D01*
X139372207Y-159590390D02*
X139296017Y-159552295D01*
X139296017Y-159552295D02*
X139181731Y-159552295D01*
X139181731Y-159552295D02*
X139067445Y-159590390D01*
X139067445Y-159590390D02*
X138991255Y-159666580D01*
X138991255Y-159666580D02*
X138953160Y-159742771D01*
X138953160Y-159742771D02*
X138915064Y-159895152D01*
X138915064Y-159895152D02*
X138915064Y-160009438D01*
X138915064Y-160009438D02*
X138953160Y-160161819D01*
X138953160Y-160161819D02*
X138991255Y-160238009D01*
X138991255Y-160238009D02*
X139067445Y-160314200D01*
X139067445Y-160314200D02*
X139181731Y-160352295D01*
X139181731Y-160352295D02*
X139257922Y-160352295D01*
X139257922Y-160352295D02*
X139372207Y-160314200D01*
X139372207Y-160314200D02*
X139410303Y-160276104D01*
X139410303Y-160276104D02*
X139410303Y-160009438D01*
X139410303Y-160009438D02*
X139257922Y-160009438D01*
X139753160Y-160352295D02*
X139753160Y-159552295D01*
X139753160Y-159552295D02*
X140210303Y-160352295D01*
X140210303Y-160352295D02*
X140210303Y-159552295D01*
X140591255Y-160352295D02*
X140591255Y-159552295D01*
X140591255Y-159552295D02*
X140781731Y-159552295D01*
X140781731Y-159552295D02*
X140896017Y-159590390D01*
X140896017Y-159590390D02*
X140972207Y-159666580D01*
X140972207Y-159666580D02*
X141010302Y-159742771D01*
X141010302Y-159742771D02*
X141048398Y-159895152D01*
X141048398Y-159895152D02*
X141048398Y-160009438D01*
X141048398Y-160009438D02*
X141010302Y-160161819D01*
X141010302Y-160161819D02*
X140972207Y-160238009D01*
X140972207Y-160238009D02*
X140896017Y-160314200D01*
X140896017Y-160314200D02*
X140781731Y-160352295D01*
X140781731Y-160352295D02*
X140591255Y-160352295D01*
D12*
X149866667Y-106104600D02*
X150009524Y-106152219D01*
X150009524Y-106152219D02*
X150247619Y-106152219D01*
X150247619Y-106152219D02*
X150342857Y-106104600D01*
X150342857Y-106104600D02*
X150390476Y-106056980D01*
X150390476Y-106056980D02*
X150438095Y-105961742D01*
X150438095Y-105961742D02*
X150438095Y-105866504D01*
X150438095Y-105866504D02*
X150390476Y-105771266D01*
X150390476Y-105771266D02*
X150342857Y-105723647D01*
X150342857Y-105723647D02*
X150247619Y-105676028D01*
X150247619Y-105676028D02*
X150057143Y-105628409D01*
X150057143Y-105628409D02*
X149961905Y-105580790D01*
X149961905Y-105580790D02*
X149914286Y-105533171D01*
X149914286Y-105533171D02*
X149866667Y-105437933D01*
X149866667Y-105437933D02*
X149866667Y-105342695D01*
X149866667Y-105342695D02*
X149914286Y-105247457D01*
X149914286Y-105247457D02*
X149961905Y-105199838D01*
X149961905Y-105199838D02*
X150057143Y-105152219D01*
X150057143Y-105152219D02*
X150295238Y-105152219D01*
X150295238Y-105152219D02*
X150438095Y-105199838D01*
X150771429Y-105152219D02*
X151009524Y-106152219D01*
X151009524Y-106152219D02*
X151200000Y-105437933D01*
X151200000Y-105437933D02*
X151390476Y-106152219D01*
X151390476Y-106152219D02*
X151628572Y-105152219D01*
X152533333Y-106152219D02*
X151961905Y-106152219D01*
X152247619Y-106152219D02*
X152247619Y-105152219D01*
X152247619Y-105152219D02*
X152152381Y-105295076D01*
X152152381Y-105295076D02*
X152057143Y-105390314D01*
X152057143Y-105390314D02*
X151961905Y-105437933D01*
D10*
X135557142Y-127059580D02*
X135509523Y-127107200D01*
X135509523Y-127107200D02*
X135366666Y-127154819D01*
X135366666Y-127154819D02*
X135271428Y-127154819D01*
X135271428Y-127154819D02*
X135128571Y-127107200D01*
X135128571Y-127107200D02*
X135033333Y-127011961D01*
X135033333Y-127011961D02*
X134985714Y-126916723D01*
X134985714Y-126916723D02*
X134938095Y-126726247D01*
X134938095Y-126726247D02*
X134938095Y-126583390D01*
X134938095Y-126583390D02*
X134985714Y-126392914D01*
X134985714Y-126392914D02*
X135033333Y-126297676D01*
X135033333Y-126297676D02*
X135128571Y-126202438D01*
X135128571Y-126202438D02*
X135271428Y-126154819D01*
X135271428Y-126154819D02*
X135366666Y-126154819D01*
X135366666Y-126154819D02*
X135509523Y-126202438D01*
X135509523Y-126202438D02*
X135557142Y-126250057D01*
X136509523Y-127154819D02*
X135938095Y-127154819D01*
X136223809Y-127154819D02*
X136223809Y-126154819D01*
X136223809Y-126154819D02*
X136128571Y-126297676D01*
X136128571Y-126297676D02*
X136033333Y-126392914D01*
X136033333Y-126392914D02*
X135938095Y-126440533D01*
X136842857Y-126154819D02*
X137461904Y-126154819D01*
X137461904Y-126154819D02*
X137128571Y-126535771D01*
X137128571Y-126535771D02*
X137271428Y-126535771D01*
X137271428Y-126535771D02*
X137366666Y-126583390D01*
X137366666Y-126583390D02*
X137414285Y-126631009D01*
X137414285Y-126631009D02*
X137461904Y-126726247D01*
X137461904Y-126726247D02*
X137461904Y-126964342D01*
X137461904Y-126964342D02*
X137414285Y-127059580D01*
X137414285Y-127059580D02*
X137366666Y-127107200D01*
X137366666Y-127107200D02*
X137271428Y-127154819D01*
X137271428Y-127154819D02*
X136985714Y-127154819D01*
X136985714Y-127154819D02*
X136890476Y-127107200D01*
X136890476Y-127107200D02*
X136842857Y-127059580D01*
X132157142Y-126959580D02*
X132109523Y-127007200D01*
X132109523Y-127007200D02*
X131966666Y-127054819D01*
X131966666Y-127054819D02*
X131871428Y-127054819D01*
X131871428Y-127054819D02*
X131728571Y-127007200D01*
X131728571Y-127007200D02*
X131633333Y-126911961D01*
X131633333Y-126911961D02*
X131585714Y-126816723D01*
X131585714Y-126816723D02*
X131538095Y-126626247D01*
X131538095Y-126626247D02*
X131538095Y-126483390D01*
X131538095Y-126483390D02*
X131585714Y-126292914D01*
X131585714Y-126292914D02*
X131633333Y-126197676D01*
X131633333Y-126197676D02*
X131728571Y-126102438D01*
X131728571Y-126102438D02*
X131871428Y-126054819D01*
X131871428Y-126054819D02*
X131966666Y-126054819D01*
X131966666Y-126054819D02*
X132109523Y-126102438D01*
X132109523Y-126102438D02*
X132157142Y-126150057D01*
X133109523Y-127054819D02*
X132538095Y-127054819D01*
X132823809Y-127054819D02*
X132823809Y-126054819D01*
X132823809Y-126054819D02*
X132728571Y-126197676D01*
X132728571Y-126197676D02*
X132633333Y-126292914D01*
X132633333Y-126292914D02*
X132538095Y-126340533D01*
X133966666Y-126388152D02*
X133966666Y-127054819D01*
X133728571Y-126007200D02*
X133490476Y-126721485D01*
X133490476Y-126721485D02*
X134109523Y-126721485D01*
X132714834Y-72877044D02*
X133522956Y-73685166D01*
X132714834Y-73685166D02*
X133522956Y-72877044D01*
X152233333Y-115859580D02*
X152185714Y-115907200D01*
X152185714Y-115907200D02*
X152042857Y-115954819D01*
X152042857Y-115954819D02*
X151947619Y-115954819D01*
X151947619Y-115954819D02*
X151804762Y-115907200D01*
X151804762Y-115907200D02*
X151709524Y-115811961D01*
X151709524Y-115811961D02*
X151661905Y-115716723D01*
X151661905Y-115716723D02*
X151614286Y-115526247D01*
X151614286Y-115526247D02*
X151614286Y-115383390D01*
X151614286Y-115383390D02*
X151661905Y-115192914D01*
X151661905Y-115192914D02*
X151709524Y-115097676D01*
X151709524Y-115097676D02*
X151804762Y-115002438D01*
X151804762Y-115002438D02*
X151947619Y-114954819D01*
X151947619Y-114954819D02*
X152042857Y-114954819D01*
X152042857Y-114954819D02*
X152185714Y-115002438D01*
X152185714Y-115002438D02*
X152233333Y-115050057D01*
X153185714Y-115954819D02*
X152614286Y-115954819D01*
X152900000Y-115954819D02*
X152900000Y-114954819D01*
X152900000Y-114954819D02*
X152804762Y-115097676D01*
X152804762Y-115097676D02*
X152709524Y-115192914D01*
X152709524Y-115192914D02*
X152614286Y-115240533D01*
X136333333Y-123659581D02*
X136285714Y-123707201D01*
X136285714Y-123707201D02*
X136142857Y-123754820D01*
X136142857Y-123754820D02*
X136047619Y-123754820D01*
X136047619Y-123754820D02*
X135904762Y-123707201D01*
X135904762Y-123707201D02*
X135809524Y-123611962D01*
X135809524Y-123611962D02*
X135761905Y-123516724D01*
X135761905Y-123516724D02*
X135714286Y-123326248D01*
X135714286Y-123326248D02*
X135714286Y-123183391D01*
X135714286Y-123183391D02*
X135761905Y-122992915D01*
X135761905Y-122992915D02*
X135809524Y-122897677D01*
X135809524Y-122897677D02*
X135904762Y-122802439D01*
X135904762Y-122802439D02*
X136047619Y-122754820D01*
X136047619Y-122754820D02*
X136142857Y-122754820D01*
X136142857Y-122754820D02*
X136285714Y-122802439D01*
X136285714Y-122802439D02*
X136333333Y-122850058D01*
X136904762Y-123183391D02*
X136809524Y-123135772D01*
X136809524Y-123135772D02*
X136761905Y-123088153D01*
X136761905Y-123088153D02*
X136714286Y-122992915D01*
X136714286Y-122992915D02*
X136714286Y-122945296D01*
X136714286Y-122945296D02*
X136761905Y-122850058D01*
X136761905Y-122850058D02*
X136809524Y-122802439D01*
X136809524Y-122802439D02*
X136904762Y-122754820D01*
X136904762Y-122754820D02*
X137095238Y-122754820D01*
X137095238Y-122754820D02*
X137190476Y-122802439D01*
X137190476Y-122802439D02*
X137238095Y-122850058D01*
X137238095Y-122850058D02*
X137285714Y-122945296D01*
X137285714Y-122945296D02*
X137285714Y-122992915D01*
X137285714Y-122992915D02*
X137238095Y-123088153D01*
X137238095Y-123088153D02*
X137190476Y-123135772D01*
X137190476Y-123135772D02*
X137095238Y-123183391D01*
X137095238Y-123183391D02*
X136904762Y-123183391D01*
X136904762Y-123183391D02*
X136809524Y-123231010D01*
X136809524Y-123231010D02*
X136761905Y-123278629D01*
X136761905Y-123278629D02*
X136714286Y-123373867D01*
X136714286Y-123373867D02*
X136714286Y-123564343D01*
X136714286Y-123564343D02*
X136761905Y-123659581D01*
X136761905Y-123659581D02*
X136809524Y-123707201D01*
X136809524Y-123707201D02*
X136904762Y-123754820D01*
X136904762Y-123754820D02*
X137095238Y-123754820D01*
X137095238Y-123754820D02*
X137190476Y-123707201D01*
X137190476Y-123707201D02*
X137238095Y-123659581D01*
X137238095Y-123659581D02*
X137285714Y-123564343D01*
X137285714Y-123564343D02*
X137285714Y-123373867D01*
X137285714Y-123373867D02*
X137238095Y-123278629D01*
X137238095Y-123278629D02*
X137190476Y-123231010D01*
X137190476Y-123231010D02*
X137095238Y-123183391D01*
X144457142Y-129554819D02*
X144123809Y-129078628D01*
X143885714Y-129554819D02*
X143885714Y-128554819D01*
X143885714Y-128554819D02*
X144266666Y-128554819D01*
X144266666Y-128554819D02*
X144361904Y-128602438D01*
X144361904Y-128602438D02*
X144409523Y-128650057D01*
X144409523Y-128650057D02*
X144457142Y-128745295D01*
X144457142Y-128745295D02*
X144457142Y-128888152D01*
X144457142Y-128888152D02*
X144409523Y-128983390D01*
X144409523Y-128983390D02*
X144361904Y-129031009D01*
X144361904Y-129031009D02*
X144266666Y-129078628D01*
X144266666Y-129078628D02*
X143885714Y-129078628D01*
X145409523Y-129554819D02*
X144838095Y-129554819D01*
X145123809Y-129554819D02*
X145123809Y-128554819D01*
X145123809Y-128554819D02*
X145028571Y-128697676D01*
X145028571Y-128697676D02*
X144933333Y-128792914D01*
X144933333Y-128792914D02*
X144838095Y-128840533D01*
X146266666Y-128554819D02*
X146076190Y-128554819D01*
X146076190Y-128554819D02*
X145980952Y-128602438D01*
X145980952Y-128602438D02*
X145933333Y-128650057D01*
X145933333Y-128650057D02*
X145838095Y-128792914D01*
X145838095Y-128792914D02*
X145790476Y-128983390D01*
X145790476Y-128983390D02*
X145790476Y-129364342D01*
X145790476Y-129364342D02*
X145838095Y-129459580D01*
X145838095Y-129459580D02*
X145885714Y-129507200D01*
X145885714Y-129507200D02*
X145980952Y-129554819D01*
X145980952Y-129554819D02*
X146171428Y-129554819D01*
X146171428Y-129554819D02*
X146266666Y-129507200D01*
X146266666Y-129507200D02*
X146314285Y-129459580D01*
X146314285Y-129459580D02*
X146361904Y-129364342D01*
X146361904Y-129364342D02*
X146361904Y-129126247D01*
X146361904Y-129126247D02*
X146314285Y-129031009D01*
X146314285Y-129031009D02*
X146266666Y-128983390D01*
X146266666Y-128983390D02*
X146171428Y-128935771D01*
X146171428Y-128935771D02*
X145980952Y-128935771D01*
X145980952Y-128935771D02*
X145885714Y-128983390D01*
X145885714Y-128983390D02*
X145838095Y-129031009D01*
X145838095Y-129031009D02*
X145790476Y-129126247D01*
X139233333Y-149054819D02*
X138900000Y-148578628D01*
X138661905Y-149054819D02*
X138661905Y-148054819D01*
X138661905Y-148054819D02*
X139042857Y-148054819D01*
X139042857Y-148054819D02*
X139138095Y-148102438D01*
X139138095Y-148102438D02*
X139185714Y-148150057D01*
X139185714Y-148150057D02*
X139233333Y-148245295D01*
X139233333Y-148245295D02*
X139233333Y-148388152D01*
X139233333Y-148388152D02*
X139185714Y-148483390D01*
X139185714Y-148483390D02*
X139138095Y-148531009D01*
X139138095Y-148531009D02*
X139042857Y-148578628D01*
X139042857Y-148578628D02*
X138661905Y-148578628D01*
X139566667Y-148054819D02*
X140185714Y-148054819D01*
X140185714Y-148054819D02*
X139852381Y-148435771D01*
X139852381Y-148435771D02*
X139995238Y-148435771D01*
X139995238Y-148435771D02*
X140090476Y-148483390D01*
X140090476Y-148483390D02*
X140138095Y-148531009D01*
X140138095Y-148531009D02*
X140185714Y-148626247D01*
X140185714Y-148626247D02*
X140185714Y-148864342D01*
X140185714Y-148864342D02*
X140138095Y-148959580D01*
X140138095Y-148959580D02*
X140090476Y-149007200D01*
X140090476Y-149007200D02*
X139995238Y-149054819D01*
X139995238Y-149054819D02*
X139709524Y-149054819D01*
X139709524Y-149054819D02*
X139614286Y-149007200D01*
X139614286Y-149007200D02*
X139566667Y-148959580D01*
X150333333Y-119854819D02*
X150000000Y-119378628D01*
X149761905Y-119854819D02*
X149761905Y-118854819D01*
X149761905Y-118854819D02*
X150142857Y-118854819D01*
X150142857Y-118854819D02*
X150238095Y-118902438D01*
X150238095Y-118902438D02*
X150285714Y-118950057D01*
X150285714Y-118950057D02*
X150333333Y-119045295D01*
X150333333Y-119045295D02*
X150333333Y-119188152D01*
X150333333Y-119188152D02*
X150285714Y-119283390D01*
X150285714Y-119283390D02*
X150238095Y-119331009D01*
X150238095Y-119331009D02*
X150142857Y-119378628D01*
X150142857Y-119378628D02*
X149761905Y-119378628D01*
X151285714Y-119854819D02*
X150714286Y-119854819D01*
X151000000Y-119854819D02*
X151000000Y-118854819D01*
X151000000Y-118854819D02*
X150904762Y-118997676D01*
X150904762Y-118997676D02*
X150809524Y-119092914D01*
X150809524Y-119092914D02*
X150714286Y-119140533D01*
D12*
X119966667Y-78504600D02*
X120109524Y-78552219D01*
X120109524Y-78552219D02*
X120347619Y-78552219D01*
X120347619Y-78552219D02*
X120442857Y-78504600D01*
X120442857Y-78504600D02*
X120490476Y-78456980D01*
X120490476Y-78456980D02*
X120538095Y-78361742D01*
X120538095Y-78361742D02*
X120538095Y-78266504D01*
X120538095Y-78266504D02*
X120490476Y-78171266D01*
X120490476Y-78171266D02*
X120442857Y-78123647D01*
X120442857Y-78123647D02*
X120347619Y-78076028D01*
X120347619Y-78076028D02*
X120157143Y-78028409D01*
X120157143Y-78028409D02*
X120061905Y-77980790D01*
X120061905Y-77980790D02*
X120014286Y-77933171D01*
X120014286Y-77933171D02*
X119966667Y-77837933D01*
X119966667Y-77837933D02*
X119966667Y-77742695D01*
X119966667Y-77742695D02*
X120014286Y-77647457D01*
X120014286Y-77647457D02*
X120061905Y-77599838D01*
X120061905Y-77599838D02*
X120157143Y-77552219D01*
X120157143Y-77552219D02*
X120395238Y-77552219D01*
X120395238Y-77552219D02*
X120538095Y-77599838D01*
X120871429Y-77552219D02*
X121109524Y-78552219D01*
X121109524Y-78552219D02*
X121300000Y-77837933D01*
X121300000Y-77837933D02*
X121490476Y-78552219D01*
X121490476Y-78552219D02*
X121728572Y-77552219D01*
X122538095Y-77885552D02*
X122538095Y-78552219D01*
X122300000Y-77504600D02*
X122061905Y-78218885D01*
X122061905Y-78218885D02*
X122680952Y-78218885D01*
D10*
X124286779Y-98440887D02*
X124997152Y-98515550D01*
X124997152Y-98515550D02*
X125134249Y-98577841D01*
X125134249Y-98577841D02*
X125219010Y-98682512D01*
X125219010Y-98682512D02*
X125251436Y-98829565D01*
X125251436Y-98829565D02*
X125241481Y-98924281D01*
X124326600Y-98062021D02*
X124391308Y-97446365D01*
X124391308Y-97446365D02*
X124735330Y-97817693D01*
X124735330Y-97817693D02*
X124750263Y-97675618D01*
X124750263Y-97675618D02*
X124807576Y-97585879D01*
X124807576Y-97585879D02*
X124859912Y-97543499D01*
X124859912Y-97543499D02*
X124959606Y-97506095D01*
X124959606Y-97506095D02*
X125196397Y-97530983D01*
X125196397Y-97530983D02*
X125286136Y-97588296D01*
X125286136Y-97588296D02*
X125328516Y-97640632D01*
X125328516Y-97640632D02*
X125365919Y-97740326D01*
X125365919Y-97740326D02*
X125336054Y-98024475D01*
X125336054Y-98024475D02*
X125278741Y-98114214D01*
X125278741Y-98114214D02*
X125226405Y-98156595D01*
X125357142Y-95359580D02*
X125309523Y-95407200D01*
X125309523Y-95407200D02*
X125166666Y-95454819D01*
X125166666Y-95454819D02*
X125071428Y-95454819D01*
X125071428Y-95454819D02*
X124928571Y-95407200D01*
X124928571Y-95407200D02*
X124833333Y-95311961D01*
X124833333Y-95311961D02*
X124785714Y-95216723D01*
X124785714Y-95216723D02*
X124738095Y-95026247D01*
X124738095Y-95026247D02*
X124738095Y-94883390D01*
X124738095Y-94883390D02*
X124785714Y-94692914D01*
X124785714Y-94692914D02*
X124833333Y-94597676D01*
X124833333Y-94597676D02*
X124928571Y-94502438D01*
X124928571Y-94502438D02*
X125071428Y-94454819D01*
X125071428Y-94454819D02*
X125166666Y-94454819D01*
X125166666Y-94454819D02*
X125309523Y-94502438D01*
X125309523Y-94502438D02*
X125357142Y-94550057D01*
X126309523Y-95454819D02*
X125738095Y-95454819D01*
X126023809Y-95454819D02*
X126023809Y-94454819D01*
X126023809Y-94454819D02*
X125928571Y-94597676D01*
X125928571Y-94597676D02*
X125833333Y-94692914D01*
X125833333Y-94692914D02*
X125738095Y-94740533D01*
X127261904Y-95454819D02*
X126690476Y-95454819D01*
X126976190Y-95454819D02*
X126976190Y-94454819D01*
X126976190Y-94454819D02*
X126880952Y-94597676D01*
X126880952Y-94597676D02*
X126785714Y-94692914D01*
X126785714Y-94692914D02*
X126690476Y-94740533D01*
X143166666Y-130424819D02*
X143166666Y-131139104D01*
X143166666Y-131139104D02*
X143119047Y-131281961D01*
X143119047Y-131281961D02*
X143023809Y-131377200D01*
X143023809Y-131377200D02*
X142880952Y-131424819D01*
X142880952Y-131424819D02*
X142785714Y-131424819D01*
X144119047Y-130424819D02*
X143642857Y-130424819D01*
X143642857Y-130424819D02*
X143595238Y-130901009D01*
X143595238Y-130901009D02*
X143642857Y-130853390D01*
X143642857Y-130853390D02*
X143738095Y-130805771D01*
X143738095Y-130805771D02*
X143976190Y-130805771D01*
X143976190Y-130805771D02*
X144071428Y-130853390D01*
X144071428Y-130853390D02*
X144119047Y-130901009D01*
X144119047Y-130901009D02*
X144166666Y-130996247D01*
X144166666Y-130996247D02*
X144166666Y-131234342D01*
X144166666Y-131234342D02*
X144119047Y-131329580D01*
X144119047Y-131329580D02*
X144071428Y-131377200D01*
X144071428Y-131377200D02*
X143976190Y-131424819D01*
X143976190Y-131424819D02*
X143738095Y-131424819D01*
X143738095Y-131424819D02*
X143642857Y-131377200D01*
X143642857Y-131377200D02*
X143595238Y-131329580D01*
X128438095Y-116168481D02*
X128438095Y-116978004D01*
X128438095Y-116978004D02*
X128485714Y-117073242D01*
X128485714Y-117073242D02*
X128533333Y-117120862D01*
X128533333Y-117120862D02*
X128628571Y-117168481D01*
X128628571Y-117168481D02*
X128819047Y-117168481D01*
X128819047Y-117168481D02*
X128914285Y-117120862D01*
X128914285Y-117120862D02*
X128961904Y-117073242D01*
X128961904Y-117073242D02*
X129009523Y-116978004D01*
X129009523Y-116978004D02*
X129009523Y-116168481D01*
X130009523Y-117168481D02*
X129438095Y-117168481D01*
X129723809Y-117168481D02*
X129723809Y-116168481D01*
X129723809Y-116168481D02*
X129628571Y-116311338D01*
X129628571Y-116311338D02*
X129533333Y-116406576D01*
X129533333Y-116406576D02*
X129438095Y-116454195D01*
X128814666Y-105487009D02*
X128481333Y-105487009D01*
X128481333Y-106010819D02*
X128481333Y-105010819D01*
X128481333Y-105010819D02*
X128957523Y-105010819D01*
X129671809Y-105487009D02*
X129814666Y-105534628D01*
X129814666Y-105534628D02*
X129862285Y-105582247D01*
X129862285Y-105582247D02*
X129909904Y-105677485D01*
X129909904Y-105677485D02*
X129909904Y-105820342D01*
X129909904Y-105820342D02*
X129862285Y-105915580D01*
X129862285Y-105915580D02*
X129814666Y-105963200D01*
X129814666Y-105963200D02*
X129719428Y-106010819D01*
X129719428Y-106010819D02*
X129338476Y-106010819D01*
X129338476Y-106010819D02*
X129338476Y-105010819D01*
X129338476Y-105010819D02*
X129671809Y-105010819D01*
X129671809Y-105010819D02*
X129767047Y-105058438D01*
X129767047Y-105058438D02*
X129814666Y-105106057D01*
X129814666Y-105106057D02*
X129862285Y-105201295D01*
X129862285Y-105201295D02*
X129862285Y-105296533D01*
X129862285Y-105296533D02*
X129814666Y-105391771D01*
X129814666Y-105391771D02*
X129767047Y-105439390D01*
X129767047Y-105439390D02*
X129671809Y-105487009D01*
X129671809Y-105487009D02*
X129338476Y-105487009D01*
X130862285Y-106010819D02*
X130290857Y-106010819D01*
X130576571Y-106010819D02*
X130576571Y-105010819D01*
X130576571Y-105010819D02*
X130481333Y-105153676D01*
X130481333Y-105153676D02*
X130386095Y-105248914D01*
X130386095Y-105248914D02*
X130290857Y-105296533D01*
X143047142Y-160644819D02*
X142713809Y-160168628D01*
X142475714Y-160644819D02*
X142475714Y-159644819D01*
X142475714Y-159644819D02*
X142856666Y-159644819D01*
X142856666Y-159644819D02*
X142951904Y-159692438D01*
X142951904Y-159692438D02*
X142999523Y-159740057D01*
X142999523Y-159740057D02*
X143047142Y-159835295D01*
X143047142Y-159835295D02*
X143047142Y-159978152D01*
X143047142Y-159978152D02*
X142999523Y-160073390D01*
X142999523Y-160073390D02*
X142951904Y-160121009D01*
X142951904Y-160121009D02*
X142856666Y-160168628D01*
X142856666Y-160168628D02*
X142475714Y-160168628D01*
X143999523Y-160644819D02*
X143428095Y-160644819D01*
X143713809Y-160644819D02*
X143713809Y-159644819D01*
X143713809Y-159644819D02*
X143618571Y-159787676D01*
X143618571Y-159787676D02*
X143523333Y-159882914D01*
X143523333Y-159882914D02*
X143428095Y-159930533D01*
X144332857Y-159644819D02*
X144999523Y-159644819D01*
X144999523Y-159644819D02*
X144570952Y-160644819D01*
X133547667Y-97432200D02*
X133690524Y-97479819D01*
X133690524Y-97479819D02*
X133928619Y-97479819D01*
X133928619Y-97479819D02*
X134023857Y-97432200D01*
X134023857Y-97432200D02*
X134071476Y-97384580D01*
X134071476Y-97384580D02*
X134119095Y-97289342D01*
X134119095Y-97289342D02*
X134119095Y-97194104D01*
X134119095Y-97194104D02*
X134071476Y-97098866D01*
X134071476Y-97098866D02*
X134023857Y-97051247D01*
X134023857Y-97051247D02*
X133928619Y-97003628D01*
X133928619Y-97003628D02*
X133738143Y-96956009D01*
X133738143Y-96956009D02*
X133642905Y-96908390D01*
X133642905Y-96908390D02*
X133595286Y-96860771D01*
X133595286Y-96860771D02*
X133547667Y-96765533D01*
X133547667Y-96765533D02*
X133547667Y-96670295D01*
X133547667Y-96670295D02*
X133595286Y-96575057D01*
X133595286Y-96575057D02*
X133642905Y-96527438D01*
X133642905Y-96527438D02*
X133738143Y-96479819D01*
X133738143Y-96479819D02*
X133976238Y-96479819D01*
X133976238Y-96479819D02*
X134119095Y-96527438D01*
X134452429Y-96479819D02*
X134690524Y-97479819D01*
X134690524Y-97479819D02*
X134881000Y-96765533D01*
X134881000Y-96765533D02*
X135071476Y-97479819D01*
X135071476Y-97479819D02*
X135309572Y-96479819D01*
X135595286Y-96479819D02*
X136214333Y-96479819D01*
X136214333Y-96479819D02*
X135881000Y-96860771D01*
X135881000Y-96860771D02*
X136023857Y-96860771D01*
X136023857Y-96860771D02*
X136119095Y-96908390D01*
X136119095Y-96908390D02*
X136166714Y-96956009D01*
X136166714Y-96956009D02*
X136214333Y-97051247D01*
X136214333Y-97051247D02*
X136214333Y-97289342D01*
X136214333Y-97289342D02*
X136166714Y-97384580D01*
X136166714Y-97384580D02*
X136119095Y-97432200D01*
X136119095Y-97432200D02*
X136023857Y-97479819D01*
X136023857Y-97479819D02*
X135738143Y-97479819D01*
X135738143Y-97479819D02*
X135642905Y-97432200D01*
X135642905Y-97432200D02*
X135595286Y-97384580D01*
X121537142Y-129644819D02*
X121203809Y-129168628D01*
X120965714Y-129644819D02*
X120965714Y-128644819D01*
X120965714Y-128644819D02*
X121346666Y-128644819D01*
X121346666Y-128644819D02*
X121441904Y-128692438D01*
X121441904Y-128692438D02*
X121489523Y-128740057D01*
X121489523Y-128740057D02*
X121537142Y-128835295D01*
X121537142Y-128835295D02*
X121537142Y-128978152D01*
X121537142Y-128978152D02*
X121489523Y-129073390D01*
X121489523Y-129073390D02*
X121441904Y-129121009D01*
X121441904Y-129121009D02*
X121346666Y-129168628D01*
X121346666Y-129168628D02*
X120965714Y-129168628D01*
X122489523Y-129644819D02*
X121918095Y-129644819D01*
X122203809Y-129644819D02*
X122203809Y-128644819D01*
X122203809Y-128644819D02*
X122108571Y-128787676D01*
X122108571Y-128787676D02*
X122013333Y-128882914D01*
X122013333Y-128882914D02*
X121918095Y-128930533D01*
X122822857Y-128644819D02*
X123441904Y-128644819D01*
X123441904Y-128644819D02*
X123108571Y-129025771D01*
X123108571Y-129025771D02*
X123251428Y-129025771D01*
X123251428Y-129025771D02*
X123346666Y-129073390D01*
X123346666Y-129073390D02*
X123394285Y-129121009D01*
X123394285Y-129121009D02*
X123441904Y-129216247D01*
X123441904Y-129216247D02*
X123441904Y-129454342D01*
X123441904Y-129454342D02*
X123394285Y-129549580D01*
X123394285Y-129549580D02*
X123346666Y-129597200D01*
X123346666Y-129597200D02*
X123251428Y-129644819D01*
X123251428Y-129644819D02*
X122965714Y-129644819D01*
X122965714Y-129644819D02*
X122870476Y-129597200D01*
X122870476Y-129597200D02*
X122822857Y-129549580D01*
X116533333Y-112391580D02*
X116485714Y-112439200D01*
X116485714Y-112439200D02*
X116342857Y-112486819D01*
X116342857Y-112486819D02*
X116247619Y-112486819D01*
X116247619Y-112486819D02*
X116104762Y-112439200D01*
X116104762Y-112439200D02*
X116009524Y-112343961D01*
X116009524Y-112343961D02*
X115961905Y-112248723D01*
X115961905Y-112248723D02*
X115914286Y-112058247D01*
X115914286Y-112058247D02*
X115914286Y-111915390D01*
X115914286Y-111915390D02*
X115961905Y-111724914D01*
X115961905Y-111724914D02*
X116009524Y-111629676D01*
X116009524Y-111629676D02*
X116104762Y-111534438D01*
X116104762Y-111534438D02*
X116247619Y-111486819D01*
X116247619Y-111486819D02*
X116342857Y-111486819D01*
X116342857Y-111486819D02*
X116485714Y-111534438D01*
X116485714Y-111534438D02*
X116533333Y-111582057D01*
X116914286Y-111582057D02*
X116961905Y-111534438D01*
X116961905Y-111534438D02*
X117057143Y-111486819D01*
X117057143Y-111486819D02*
X117295238Y-111486819D01*
X117295238Y-111486819D02*
X117390476Y-111534438D01*
X117390476Y-111534438D02*
X117438095Y-111582057D01*
X117438095Y-111582057D02*
X117485714Y-111677295D01*
X117485714Y-111677295D02*
X117485714Y-111772533D01*
X117485714Y-111772533D02*
X117438095Y-111915390D01*
X117438095Y-111915390D02*
X116866667Y-112486819D01*
X116866667Y-112486819D02*
X117485714Y-112486819D01*
X118747142Y-103914819D02*
X118413809Y-103438628D01*
X118175714Y-103914819D02*
X118175714Y-102914819D01*
X118175714Y-102914819D02*
X118556666Y-102914819D01*
X118556666Y-102914819D02*
X118651904Y-102962438D01*
X118651904Y-102962438D02*
X118699523Y-103010057D01*
X118699523Y-103010057D02*
X118747142Y-103105295D01*
X118747142Y-103105295D02*
X118747142Y-103248152D01*
X118747142Y-103248152D02*
X118699523Y-103343390D01*
X118699523Y-103343390D02*
X118651904Y-103391009D01*
X118651904Y-103391009D02*
X118556666Y-103438628D01*
X118556666Y-103438628D02*
X118175714Y-103438628D01*
X119699523Y-103914819D02*
X119128095Y-103914819D01*
X119413809Y-103914819D02*
X119413809Y-102914819D01*
X119413809Y-102914819D02*
X119318571Y-103057676D01*
X119318571Y-103057676D02*
X119223333Y-103152914D01*
X119223333Y-103152914D02*
X119128095Y-103200533D01*
X120080476Y-103010057D02*
X120128095Y-102962438D01*
X120128095Y-102962438D02*
X120223333Y-102914819D01*
X120223333Y-102914819D02*
X120461428Y-102914819D01*
X120461428Y-102914819D02*
X120556666Y-102962438D01*
X120556666Y-102962438D02*
X120604285Y-103010057D01*
X120604285Y-103010057D02*
X120651904Y-103105295D01*
X120651904Y-103105295D02*
X120651904Y-103200533D01*
X120651904Y-103200533D02*
X120604285Y-103343390D01*
X120604285Y-103343390D02*
X120032857Y-103914819D01*
X120032857Y-103914819D02*
X120651904Y-103914819D01*
X117838095Y-86004819D02*
X117838095Y-86814342D01*
X117838095Y-86814342D02*
X117885714Y-86909580D01*
X117885714Y-86909580D02*
X117933333Y-86957200D01*
X117933333Y-86957200D02*
X118028571Y-87004819D01*
X118028571Y-87004819D02*
X118219047Y-87004819D01*
X118219047Y-87004819D02*
X118314285Y-86957200D01*
X118314285Y-86957200D02*
X118361904Y-86909580D01*
X118361904Y-86909580D02*
X118409523Y-86814342D01*
X118409523Y-86814342D02*
X118409523Y-86004819D01*
X118838095Y-86100057D02*
X118885714Y-86052438D01*
X118885714Y-86052438D02*
X118980952Y-86004819D01*
X118980952Y-86004819D02*
X119219047Y-86004819D01*
X119219047Y-86004819D02*
X119314285Y-86052438D01*
X119314285Y-86052438D02*
X119361904Y-86100057D01*
X119361904Y-86100057D02*
X119409523Y-86195295D01*
X119409523Y-86195295D02*
X119409523Y-86290533D01*
X119409523Y-86290533D02*
X119361904Y-86433390D01*
X119361904Y-86433390D02*
X118790476Y-87004819D01*
X118790476Y-87004819D02*
X119409523Y-87004819D01*
X127859142Y-112615580D02*
X127811523Y-112663200D01*
X127811523Y-112663200D02*
X127668666Y-112710819D01*
X127668666Y-112710819D02*
X127573428Y-112710819D01*
X127573428Y-112710819D02*
X127430571Y-112663200D01*
X127430571Y-112663200D02*
X127335333Y-112567961D01*
X127335333Y-112567961D02*
X127287714Y-112472723D01*
X127287714Y-112472723D02*
X127240095Y-112282247D01*
X127240095Y-112282247D02*
X127240095Y-112139390D01*
X127240095Y-112139390D02*
X127287714Y-111948914D01*
X127287714Y-111948914D02*
X127335333Y-111853676D01*
X127335333Y-111853676D02*
X127430571Y-111758438D01*
X127430571Y-111758438D02*
X127573428Y-111710819D01*
X127573428Y-111710819D02*
X127668666Y-111710819D01*
X127668666Y-111710819D02*
X127811523Y-111758438D01*
X127811523Y-111758438D02*
X127859142Y-111806057D01*
X128811523Y-112710819D02*
X128240095Y-112710819D01*
X128525809Y-112710819D02*
X128525809Y-111710819D01*
X128525809Y-111710819D02*
X128430571Y-111853676D01*
X128430571Y-111853676D02*
X128335333Y-111948914D01*
X128335333Y-111948914D02*
X128240095Y-111996533D01*
X129430571Y-111710819D02*
X129525809Y-111710819D01*
X129525809Y-111710819D02*
X129621047Y-111758438D01*
X129621047Y-111758438D02*
X129668666Y-111806057D01*
X129668666Y-111806057D02*
X129716285Y-111901295D01*
X129716285Y-111901295D02*
X129763904Y-112091771D01*
X129763904Y-112091771D02*
X129763904Y-112329866D01*
X129763904Y-112329866D02*
X129716285Y-112520342D01*
X129716285Y-112520342D02*
X129668666Y-112615580D01*
X129668666Y-112615580D02*
X129621047Y-112663200D01*
X129621047Y-112663200D02*
X129525809Y-112710819D01*
X129525809Y-112710819D02*
X129430571Y-112710819D01*
X129430571Y-112710819D02*
X129335333Y-112663200D01*
X129335333Y-112663200D02*
X129287714Y-112615580D01*
X129287714Y-112615580D02*
X129240095Y-112520342D01*
X129240095Y-112520342D02*
X129192476Y-112329866D01*
X129192476Y-112329866D02*
X129192476Y-112091771D01*
X129192476Y-112091771D02*
X129240095Y-111901295D01*
X129240095Y-111901295D02*
X129287714Y-111806057D01*
X129287714Y-111806057D02*
X129335333Y-111758438D01*
X129335333Y-111758438D02*
X129430571Y-111710819D01*
X148863333Y-97454819D02*
X148530000Y-96978628D01*
X148291905Y-97454819D02*
X148291905Y-96454819D01*
X148291905Y-96454819D02*
X148672857Y-96454819D01*
X148672857Y-96454819D02*
X148768095Y-96502438D01*
X148768095Y-96502438D02*
X148815714Y-96550057D01*
X148815714Y-96550057D02*
X148863333Y-96645295D01*
X148863333Y-96645295D02*
X148863333Y-96788152D01*
X148863333Y-96788152D02*
X148815714Y-96883390D01*
X148815714Y-96883390D02*
X148768095Y-96931009D01*
X148768095Y-96931009D02*
X148672857Y-96978628D01*
X148672857Y-96978628D02*
X148291905Y-96978628D01*
X149196667Y-96454819D02*
X149863333Y-96454819D01*
X149863333Y-96454819D02*
X149434762Y-97454819D01*
X128558333Y-89859580D02*
X128510714Y-89907200D01*
X128510714Y-89907200D02*
X128367857Y-89954819D01*
X128367857Y-89954819D02*
X128272619Y-89954819D01*
X128272619Y-89954819D02*
X128129762Y-89907200D01*
X128129762Y-89907200D02*
X128034524Y-89811961D01*
X128034524Y-89811961D02*
X127986905Y-89716723D01*
X127986905Y-89716723D02*
X127939286Y-89526247D01*
X127939286Y-89526247D02*
X127939286Y-89383390D01*
X127939286Y-89383390D02*
X127986905Y-89192914D01*
X127986905Y-89192914D02*
X128034524Y-89097676D01*
X128034524Y-89097676D02*
X128129762Y-89002438D01*
X128129762Y-89002438D02*
X128272619Y-88954819D01*
X128272619Y-88954819D02*
X128367857Y-88954819D01*
X128367857Y-88954819D02*
X128510714Y-89002438D01*
X128510714Y-89002438D02*
X128558333Y-89050057D01*
X129415476Y-89288152D02*
X129415476Y-89954819D01*
X129177381Y-88907200D02*
X128939286Y-89621485D01*
X128939286Y-89621485D02*
X129558333Y-89621485D01*
X136648809Y-130741128D02*
X136648809Y-131217319D01*
X136315476Y-130217319D02*
X136648809Y-130741128D01*
X136648809Y-130741128D02*
X136982142Y-130217319D01*
X137839285Y-131217319D02*
X137267857Y-131217319D01*
X137553571Y-131217319D02*
X137553571Y-130217319D01*
X137553571Y-130217319D02*
X137458333Y-130360176D01*
X137458333Y-130360176D02*
X137363095Y-130455414D01*
X137363095Y-130455414D02*
X137267857Y-130503033D01*
X125266666Y-99854819D02*
X125266666Y-100569104D01*
X125266666Y-100569104D02*
X125219047Y-100711961D01*
X125219047Y-100711961D02*
X125123809Y-100807200D01*
X125123809Y-100807200D02*
X124980952Y-100854819D01*
X124980952Y-100854819D02*
X124885714Y-100854819D01*
X126266666Y-100854819D02*
X125695238Y-100854819D01*
X125980952Y-100854819D02*
X125980952Y-99854819D01*
X125980952Y-99854819D02*
X125885714Y-99997676D01*
X125885714Y-99997676D02*
X125790476Y-100092914D01*
X125790476Y-100092914D02*
X125695238Y-100140533D01*
X147397142Y-129544819D02*
X147063809Y-129068628D01*
X146825714Y-129544819D02*
X146825714Y-128544819D01*
X146825714Y-128544819D02*
X147206666Y-128544819D01*
X147206666Y-128544819D02*
X147301904Y-128592438D01*
X147301904Y-128592438D02*
X147349523Y-128640057D01*
X147349523Y-128640057D02*
X147397142Y-128735295D01*
X147397142Y-128735295D02*
X147397142Y-128878152D01*
X147397142Y-128878152D02*
X147349523Y-128973390D01*
X147349523Y-128973390D02*
X147301904Y-129021009D01*
X147301904Y-129021009D02*
X147206666Y-129068628D01*
X147206666Y-129068628D02*
X146825714Y-129068628D01*
X148349523Y-129544819D02*
X147778095Y-129544819D01*
X148063809Y-129544819D02*
X148063809Y-128544819D01*
X148063809Y-128544819D02*
X147968571Y-128687676D01*
X147968571Y-128687676D02*
X147873333Y-128782914D01*
X147873333Y-128782914D02*
X147778095Y-128830533D01*
X149254285Y-128544819D02*
X148778095Y-128544819D01*
X148778095Y-128544819D02*
X148730476Y-129021009D01*
X148730476Y-129021009D02*
X148778095Y-128973390D01*
X148778095Y-128973390D02*
X148873333Y-128925771D01*
X148873333Y-128925771D02*
X149111428Y-128925771D01*
X149111428Y-128925771D02*
X149206666Y-128973390D01*
X149206666Y-128973390D02*
X149254285Y-129021009D01*
X149254285Y-129021009D02*
X149301904Y-129116247D01*
X149301904Y-129116247D02*
X149301904Y-129354342D01*
X149301904Y-129354342D02*
X149254285Y-129449580D01*
X149254285Y-129449580D02*
X149206666Y-129497200D01*
X149206666Y-129497200D02*
X149111428Y-129544819D01*
X149111428Y-129544819D02*
X148873333Y-129544819D01*
X148873333Y-129544819D02*
X148778095Y-129497200D01*
X148778095Y-129497200D02*
X148730476Y-129449580D01*
X127957142Y-83654819D02*
X127623809Y-83178628D01*
X127385714Y-83654819D02*
X127385714Y-82654819D01*
X127385714Y-82654819D02*
X127766666Y-82654819D01*
X127766666Y-82654819D02*
X127861904Y-82702438D01*
X127861904Y-82702438D02*
X127909523Y-82750057D01*
X127909523Y-82750057D02*
X127957142Y-82845295D01*
X127957142Y-82845295D02*
X127957142Y-82988152D01*
X127957142Y-82988152D02*
X127909523Y-83083390D01*
X127909523Y-83083390D02*
X127861904Y-83131009D01*
X127861904Y-83131009D02*
X127766666Y-83178628D01*
X127766666Y-83178628D02*
X127385714Y-83178628D01*
X128909523Y-83654819D02*
X128338095Y-83654819D01*
X128623809Y-83654819D02*
X128623809Y-82654819D01*
X128623809Y-82654819D02*
X128528571Y-82797676D01*
X128528571Y-82797676D02*
X128433333Y-82892914D01*
X128433333Y-82892914D02*
X128338095Y-82940533D01*
X129480952Y-83083390D02*
X129385714Y-83035771D01*
X129385714Y-83035771D02*
X129338095Y-82988152D01*
X129338095Y-82988152D02*
X129290476Y-82892914D01*
X129290476Y-82892914D02*
X129290476Y-82845295D01*
X129290476Y-82845295D02*
X129338095Y-82750057D01*
X129338095Y-82750057D02*
X129385714Y-82702438D01*
X129385714Y-82702438D02*
X129480952Y-82654819D01*
X129480952Y-82654819D02*
X129671428Y-82654819D01*
X129671428Y-82654819D02*
X129766666Y-82702438D01*
X129766666Y-82702438D02*
X129814285Y-82750057D01*
X129814285Y-82750057D02*
X129861904Y-82845295D01*
X129861904Y-82845295D02*
X129861904Y-82892914D01*
X129861904Y-82892914D02*
X129814285Y-82988152D01*
X129814285Y-82988152D02*
X129766666Y-83035771D01*
X129766666Y-83035771D02*
X129671428Y-83083390D01*
X129671428Y-83083390D02*
X129480952Y-83083390D01*
X129480952Y-83083390D02*
X129385714Y-83131009D01*
X129385714Y-83131009D02*
X129338095Y-83178628D01*
X129338095Y-83178628D02*
X129290476Y-83273866D01*
X129290476Y-83273866D02*
X129290476Y-83464342D01*
X129290476Y-83464342D02*
X129338095Y-83559580D01*
X129338095Y-83559580D02*
X129385714Y-83607200D01*
X129385714Y-83607200D02*
X129480952Y-83654819D01*
X129480952Y-83654819D02*
X129671428Y-83654819D01*
X129671428Y-83654819D02*
X129766666Y-83607200D01*
X129766666Y-83607200D02*
X129814285Y-83559580D01*
X129814285Y-83559580D02*
X129861904Y-83464342D01*
X129861904Y-83464342D02*
X129861904Y-83273866D01*
X129861904Y-83273866D02*
X129814285Y-83178628D01*
X129814285Y-83178628D02*
X129766666Y-83131009D01*
X129766666Y-83131009D02*
X129671428Y-83083390D01*
X117393333Y-109484819D02*
X117060000Y-109008628D01*
X116821905Y-109484819D02*
X116821905Y-108484819D01*
X116821905Y-108484819D02*
X117202857Y-108484819D01*
X117202857Y-108484819D02*
X117298095Y-108532438D01*
X117298095Y-108532438D02*
X117345714Y-108580057D01*
X117345714Y-108580057D02*
X117393333Y-108675295D01*
X117393333Y-108675295D02*
X117393333Y-108818152D01*
X117393333Y-108818152D02*
X117345714Y-108913390D01*
X117345714Y-108913390D02*
X117298095Y-108961009D01*
X117298095Y-108961009D02*
X117202857Y-109008628D01*
X117202857Y-109008628D02*
X116821905Y-109008628D01*
X117774286Y-108580057D02*
X117821905Y-108532438D01*
X117821905Y-108532438D02*
X117917143Y-108484819D01*
X117917143Y-108484819D02*
X118155238Y-108484819D01*
X118155238Y-108484819D02*
X118250476Y-108532438D01*
X118250476Y-108532438D02*
X118298095Y-108580057D01*
X118298095Y-108580057D02*
X118345714Y-108675295D01*
X118345714Y-108675295D02*
X118345714Y-108770533D01*
X118345714Y-108770533D02*
X118298095Y-108913390D01*
X118298095Y-108913390D02*
X117726667Y-109484819D01*
X117726667Y-109484819D02*
X118345714Y-109484819D01*
X151123333Y-101674819D02*
X150790000Y-101198628D01*
X150551905Y-101674819D02*
X150551905Y-100674819D01*
X150551905Y-100674819D02*
X150932857Y-100674819D01*
X150932857Y-100674819D02*
X151028095Y-100722438D01*
X151028095Y-100722438D02*
X151075714Y-100770057D01*
X151075714Y-100770057D02*
X151123333Y-100865295D01*
X151123333Y-100865295D02*
X151123333Y-101008152D01*
X151123333Y-101008152D02*
X151075714Y-101103390D01*
X151075714Y-101103390D02*
X151028095Y-101151009D01*
X151028095Y-101151009D02*
X150932857Y-101198628D01*
X150932857Y-101198628D02*
X150551905Y-101198628D01*
X151599524Y-101674819D02*
X151790000Y-101674819D01*
X151790000Y-101674819D02*
X151885238Y-101627200D01*
X151885238Y-101627200D02*
X151932857Y-101579580D01*
X151932857Y-101579580D02*
X152028095Y-101436723D01*
X152028095Y-101436723D02*
X152075714Y-101246247D01*
X152075714Y-101246247D02*
X152075714Y-100865295D01*
X152075714Y-100865295D02*
X152028095Y-100770057D01*
X152028095Y-100770057D02*
X151980476Y-100722438D01*
X151980476Y-100722438D02*
X151885238Y-100674819D01*
X151885238Y-100674819D02*
X151694762Y-100674819D01*
X151694762Y-100674819D02*
X151599524Y-100722438D01*
X151599524Y-100722438D02*
X151551905Y-100770057D01*
X151551905Y-100770057D02*
X151504286Y-100865295D01*
X151504286Y-100865295D02*
X151504286Y-101103390D01*
X151504286Y-101103390D02*
X151551905Y-101198628D01*
X151551905Y-101198628D02*
X151599524Y-101246247D01*
X151599524Y-101246247D02*
X151694762Y-101293866D01*
X151694762Y-101293866D02*
X151885238Y-101293866D01*
X151885238Y-101293866D02*
X151980476Y-101246247D01*
X151980476Y-101246247D02*
X152028095Y-101198628D01*
X152028095Y-101198628D02*
X152075714Y-101103390D01*
X130857142Y-94059580D02*
X130809523Y-94107200D01*
X130809523Y-94107200D02*
X130666666Y-94154819D01*
X130666666Y-94154819D02*
X130571428Y-94154819D01*
X130571428Y-94154819D02*
X130428571Y-94107200D01*
X130428571Y-94107200D02*
X130333333Y-94011961D01*
X130333333Y-94011961D02*
X130285714Y-93916723D01*
X130285714Y-93916723D02*
X130238095Y-93726247D01*
X130238095Y-93726247D02*
X130238095Y-93583390D01*
X130238095Y-93583390D02*
X130285714Y-93392914D01*
X130285714Y-93392914D02*
X130333333Y-93297676D01*
X130333333Y-93297676D02*
X130428571Y-93202438D01*
X130428571Y-93202438D02*
X130571428Y-93154819D01*
X130571428Y-93154819D02*
X130666666Y-93154819D01*
X130666666Y-93154819D02*
X130809523Y-93202438D01*
X130809523Y-93202438D02*
X130857142Y-93250057D01*
X131809523Y-94154819D02*
X131238095Y-94154819D01*
X131523809Y-94154819D02*
X131523809Y-93154819D01*
X131523809Y-93154819D02*
X131428571Y-93297676D01*
X131428571Y-93297676D02*
X131333333Y-93392914D01*
X131333333Y-93392914D02*
X131238095Y-93440533D01*
X132190476Y-93250057D02*
X132238095Y-93202438D01*
X132238095Y-93202438D02*
X132333333Y-93154819D01*
X132333333Y-93154819D02*
X132571428Y-93154819D01*
X132571428Y-93154819D02*
X132666666Y-93202438D01*
X132666666Y-93202438D02*
X132714285Y-93250057D01*
X132714285Y-93250057D02*
X132761904Y-93345295D01*
X132761904Y-93345295D02*
X132761904Y-93440533D01*
X132761904Y-93440533D02*
X132714285Y-93583390D01*
X132714285Y-93583390D02*
X132142857Y-94154819D01*
X132142857Y-94154819D02*
X132761904Y-94154819D01*
X124357142Y-76529580D02*
X124309523Y-76577200D01*
X124309523Y-76577200D02*
X124166666Y-76624819D01*
X124166666Y-76624819D02*
X124071428Y-76624819D01*
X124071428Y-76624819D02*
X123928571Y-76577200D01*
X123928571Y-76577200D02*
X123833333Y-76481961D01*
X123833333Y-76481961D02*
X123785714Y-76386723D01*
X123785714Y-76386723D02*
X123738095Y-76196247D01*
X123738095Y-76196247D02*
X123738095Y-76053390D01*
X123738095Y-76053390D02*
X123785714Y-75862914D01*
X123785714Y-75862914D02*
X123833333Y-75767676D01*
X123833333Y-75767676D02*
X123928571Y-75672438D01*
X123928571Y-75672438D02*
X124071428Y-75624819D01*
X124071428Y-75624819D02*
X124166666Y-75624819D01*
X124166666Y-75624819D02*
X124309523Y-75672438D01*
X124309523Y-75672438D02*
X124357142Y-75720057D01*
X125309523Y-76624819D02*
X124738095Y-76624819D01*
X125023809Y-76624819D02*
X125023809Y-75624819D01*
X125023809Y-75624819D02*
X124928571Y-75767676D01*
X124928571Y-75767676D02*
X124833333Y-75862914D01*
X124833333Y-75862914D02*
X124738095Y-75910533D01*
X126214285Y-75624819D02*
X125738095Y-75624819D01*
X125738095Y-75624819D02*
X125690476Y-76101009D01*
X125690476Y-76101009D02*
X125738095Y-76053390D01*
X125738095Y-76053390D02*
X125833333Y-76005771D01*
X125833333Y-76005771D02*
X126071428Y-76005771D01*
X126071428Y-76005771D02*
X126166666Y-76053390D01*
X126166666Y-76053390D02*
X126214285Y-76101009D01*
X126214285Y-76101009D02*
X126261904Y-76196247D01*
X126261904Y-76196247D02*
X126261904Y-76434342D01*
X126261904Y-76434342D02*
X126214285Y-76529580D01*
X126214285Y-76529580D02*
X126166666Y-76577200D01*
X126166666Y-76577200D02*
X126071428Y-76624819D01*
X126071428Y-76624819D02*
X125833333Y-76624819D01*
X125833333Y-76624819D02*
X125738095Y-76577200D01*
X125738095Y-76577200D02*
X125690476Y-76529580D01*
X139283333Y-144304819D02*
X138950000Y-143828628D01*
X138711905Y-144304819D02*
X138711905Y-143304819D01*
X138711905Y-143304819D02*
X139092857Y-143304819D01*
X139092857Y-143304819D02*
X139188095Y-143352438D01*
X139188095Y-143352438D02*
X139235714Y-143400057D01*
X139235714Y-143400057D02*
X139283333Y-143495295D01*
X139283333Y-143495295D02*
X139283333Y-143638152D01*
X139283333Y-143638152D02*
X139235714Y-143733390D01*
X139235714Y-143733390D02*
X139188095Y-143781009D01*
X139188095Y-143781009D02*
X139092857Y-143828628D01*
X139092857Y-143828628D02*
X138711905Y-143828628D01*
X140140476Y-143638152D02*
X140140476Y-144304819D01*
X139902381Y-143257200D02*
X139664286Y-143971485D01*
X139664286Y-143971485D02*
X140283333Y-143971485D01*
X125147142Y-160704819D02*
X124813809Y-160228628D01*
X124575714Y-160704819D02*
X124575714Y-159704819D01*
X124575714Y-159704819D02*
X124956666Y-159704819D01*
X124956666Y-159704819D02*
X125051904Y-159752438D01*
X125051904Y-159752438D02*
X125099523Y-159800057D01*
X125099523Y-159800057D02*
X125147142Y-159895295D01*
X125147142Y-159895295D02*
X125147142Y-160038152D01*
X125147142Y-160038152D02*
X125099523Y-160133390D01*
X125099523Y-160133390D02*
X125051904Y-160181009D01*
X125051904Y-160181009D02*
X124956666Y-160228628D01*
X124956666Y-160228628D02*
X124575714Y-160228628D01*
X126099523Y-160704819D02*
X125528095Y-160704819D01*
X125813809Y-160704819D02*
X125813809Y-159704819D01*
X125813809Y-159704819D02*
X125718571Y-159847676D01*
X125718571Y-159847676D02*
X125623333Y-159942914D01*
X125623333Y-159942914D02*
X125528095Y-159990533D01*
X126956666Y-160038152D02*
X126956666Y-160704819D01*
X126718571Y-159657200D02*
X126480476Y-160371485D01*
X126480476Y-160371485D02*
X127099523Y-160371485D01*
X143166666Y-99944819D02*
X143166666Y-100659104D01*
X143166666Y-100659104D02*
X143119047Y-100801961D01*
X143119047Y-100801961D02*
X143023809Y-100897200D01*
X143023809Y-100897200D02*
X142880952Y-100944819D01*
X142880952Y-100944819D02*
X142785714Y-100944819D01*
X144071428Y-100278152D02*
X144071428Y-100944819D01*
X143833333Y-99897200D02*
X143595238Y-100611485D01*
X143595238Y-100611485D02*
X144214285Y-100611485D01*
X138233333Y-108549580D02*
X138185714Y-108597200D01*
X138185714Y-108597200D02*
X138042857Y-108644819D01*
X138042857Y-108644819D02*
X137947619Y-108644819D01*
X137947619Y-108644819D02*
X137804762Y-108597200D01*
X137804762Y-108597200D02*
X137709524Y-108501961D01*
X137709524Y-108501961D02*
X137661905Y-108406723D01*
X137661905Y-108406723D02*
X137614286Y-108216247D01*
X137614286Y-108216247D02*
X137614286Y-108073390D01*
X137614286Y-108073390D02*
X137661905Y-107882914D01*
X137661905Y-107882914D02*
X137709524Y-107787676D01*
X137709524Y-107787676D02*
X137804762Y-107692438D01*
X137804762Y-107692438D02*
X137947619Y-107644819D01*
X137947619Y-107644819D02*
X138042857Y-107644819D01*
X138042857Y-107644819D02*
X138185714Y-107692438D01*
X138185714Y-107692438D02*
X138233333Y-107740057D01*
X138566667Y-107644819D02*
X139233333Y-107644819D01*
X139233333Y-107644819D02*
X138804762Y-108644819D01*
X134286666Y-151092819D02*
X134286666Y-151807104D01*
X134286666Y-151807104D02*
X134239047Y-151949961D01*
X134239047Y-151949961D02*
X134143809Y-152045200D01*
X134143809Y-152045200D02*
X134000952Y-152092819D01*
X134000952Y-152092819D02*
X133905714Y-152092819D01*
X135191428Y-151092819D02*
X135000952Y-151092819D01*
X135000952Y-151092819D02*
X134905714Y-151140438D01*
X134905714Y-151140438D02*
X134858095Y-151188057D01*
X134858095Y-151188057D02*
X134762857Y-151330914D01*
X134762857Y-151330914D02*
X134715238Y-151521390D01*
X134715238Y-151521390D02*
X134715238Y-151902342D01*
X134715238Y-151902342D02*
X134762857Y-151997580D01*
X134762857Y-151997580D02*
X134810476Y-152045200D01*
X134810476Y-152045200D02*
X134905714Y-152092819D01*
X134905714Y-152092819D02*
X135096190Y-152092819D01*
X135096190Y-152092819D02*
X135191428Y-152045200D01*
X135191428Y-152045200D02*
X135239047Y-151997580D01*
X135239047Y-151997580D02*
X135286666Y-151902342D01*
X135286666Y-151902342D02*
X135286666Y-151664247D01*
X135286666Y-151664247D02*
X135239047Y-151569009D01*
X135239047Y-151569009D02*
X135191428Y-151521390D01*
X135191428Y-151521390D02*
X135096190Y-151473771D01*
X135096190Y-151473771D02*
X134905714Y-151473771D01*
X134905714Y-151473771D02*
X134810476Y-151521390D01*
X134810476Y-151521390D02*
X134762857Y-151569009D01*
X134762857Y-151569009D02*
X134715238Y-151664247D01*
X145103333Y-97459819D02*
X144770000Y-96983628D01*
X144531905Y-97459819D02*
X144531905Y-96459819D01*
X144531905Y-96459819D02*
X144912857Y-96459819D01*
X144912857Y-96459819D02*
X145008095Y-96507438D01*
X145008095Y-96507438D02*
X145055714Y-96555057D01*
X145055714Y-96555057D02*
X145103333Y-96650295D01*
X145103333Y-96650295D02*
X145103333Y-96793152D01*
X145103333Y-96793152D02*
X145055714Y-96888390D01*
X145055714Y-96888390D02*
X145008095Y-96936009D01*
X145008095Y-96936009D02*
X144912857Y-96983628D01*
X144912857Y-96983628D02*
X144531905Y-96983628D01*
X146008095Y-96459819D02*
X145531905Y-96459819D01*
X145531905Y-96459819D02*
X145484286Y-96936009D01*
X145484286Y-96936009D02*
X145531905Y-96888390D01*
X145531905Y-96888390D02*
X145627143Y-96840771D01*
X145627143Y-96840771D02*
X145865238Y-96840771D01*
X145865238Y-96840771D02*
X145960476Y-96888390D01*
X145960476Y-96888390D02*
X146008095Y-96936009D01*
X146008095Y-96936009D02*
X146055714Y-97031247D01*
X146055714Y-97031247D02*
X146055714Y-97269342D01*
X146055714Y-97269342D02*
X146008095Y-97364580D01*
X146008095Y-97364580D02*
X145960476Y-97412200D01*
X145960476Y-97412200D02*
X145865238Y-97459819D01*
X145865238Y-97459819D02*
X145627143Y-97459819D01*
X145627143Y-97459819D02*
X145531905Y-97412200D01*
X145531905Y-97412200D02*
X145484286Y-97364580D01*
D12*
X118266667Y-121186600D02*
X118409524Y-121234219D01*
X118409524Y-121234219D02*
X118647619Y-121234219D01*
X118647619Y-121234219D02*
X118742857Y-121186600D01*
X118742857Y-121186600D02*
X118790476Y-121138980D01*
X118790476Y-121138980D02*
X118838095Y-121043742D01*
X118838095Y-121043742D02*
X118838095Y-120948504D01*
X118838095Y-120948504D02*
X118790476Y-120853266D01*
X118790476Y-120853266D02*
X118742857Y-120805647D01*
X118742857Y-120805647D02*
X118647619Y-120758028D01*
X118647619Y-120758028D02*
X118457143Y-120710409D01*
X118457143Y-120710409D02*
X118361905Y-120662790D01*
X118361905Y-120662790D02*
X118314286Y-120615171D01*
X118314286Y-120615171D02*
X118266667Y-120519933D01*
X118266667Y-120519933D02*
X118266667Y-120424695D01*
X118266667Y-120424695D02*
X118314286Y-120329457D01*
X118314286Y-120329457D02*
X118361905Y-120281838D01*
X118361905Y-120281838D02*
X118457143Y-120234219D01*
X118457143Y-120234219D02*
X118695238Y-120234219D01*
X118695238Y-120234219D02*
X118838095Y-120281838D01*
X119171429Y-120234219D02*
X119409524Y-121234219D01*
X119409524Y-121234219D02*
X119600000Y-120519933D01*
X119600000Y-120519933D02*
X119790476Y-121234219D01*
X119790476Y-121234219D02*
X120028572Y-120234219D01*
X120361905Y-120329457D02*
X120409524Y-120281838D01*
X120409524Y-120281838D02*
X120504762Y-120234219D01*
X120504762Y-120234219D02*
X120742857Y-120234219D01*
X120742857Y-120234219D02*
X120838095Y-120281838D01*
X120838095Y-120281838D02*
X120885714Y-120329457D01*
X120885714Y-120329457D02*
X120933333Y-120424695D01*
X120933333Y-120424695D02*
X120933333Y-120519933D01*
X120933333Y-120519933D02*
X120885714Y-120662790D01*
X120885714Y-120662790D02*
X120314286Y-121234219D01*
X120314286Y-121234219D02*
X120933333Y-121234219D01*
D10*
X128981333Y-114215580D02*
X128933714Y-114263200D01*
X128933714Y-114263200D02*
X128790857Y-114310819D01*
X128790857Y-114310819D02*
X128695619Y-114310819D01*
X128695619Y-114310819D02*
X128552762Y-114263200D01*
X128552762Y-114263200D02*
X128457524Y-114167961D01*
X128457524Y-114167961D02*
X128409905Y-114072723D01*
X128409905Y-114072723D02*
X128362286Y-113882247D01*
X128362286Y-113882247D02*
X128362286Y-113739390D01*
X128362286Y-113739390D02*
X128409905Y-113548914D01*
X128409905Y-113548914D02*
X128457524Y-113453676D01*
X128457524Y-113453676D02*
X128552762Y-113358438D01*
X128552762Y-113358438D02*
X128695619Y-113310819D01*
X128695619Y-113310819D02*
X128790857Y-113310819D01*
X128790857Y-113310819D02*
X128933714Y-113358438D01*
X128933714Y-113358438D02*
X128981333Y-113406057D01*
X129457524Y-114310819D02*
X129648000Y-114310819D01*
X129648000Y-114310819D02*
X129743238Y-114263200D01*
X129743238Y-114263200D02*
X129790857Y-114215580D01*
X129790857Y-114215580D02*
X129886095Y-114072723D01*
X129886095Y-114072723D02*
X129933714Y-113882247D01*
X129933714Y-113882247D02*
X129933714Y-113501295D01*
X129933714Y-113501295D02*
X129886095Y-113406057D01*
X129886095Y-113406057D02*
X129838476Y-113358438D01*
X129838476Y-113358438D02*
X129743238Y-113310819D01*
X129743238Y-113310819D02*
X129552762Y-113310819D01*
X129552762Y-113310819D02*
X129457524Y-113358438D01*
X129457524Y-113358438D02*
X129409905Y-113406057D01*
X129409905Y-113406057D02*
X129362286Y-113501295D01*
X129362286Y-113501295D02*
X129362286Y-113739390D01*
X129362286Y-113739390D02*
X129409905Y-113834628D01*
X129409905Y-113834628D02*
X129457524Y-113882247D01*
X129457524Y-113882247D02*
X129552762Y-113929866D01*
X129552762Y-113929866D02*
X129743238Y-113929866D01*
X129743238Y-113929866D02*
X129838476Y-113882247D01*
X129838476Y-113882247D02*
X129886095Y-113834628D01*
X129886095Y-113834628D02*
X129933714Y-113739390D01*
X149233333Y-101704819D02*
X148900000Y-101228628D01*
X148661905Y-101704819D02*
X148661905Y-100704819D01*
X148661905Y-100704819D02*
X149042857Y-100704819D01*
X149042857Y-100704819D02*
X149138095Y-100752438D01*
X149138095Y-100752438D02*
X149185714Y-100800057D01*
X149185714Y-100800057D02*
X149233333Y-100895295D01*
X149233333Y-100895295D02*
X149233333Y-101038152D01*
X149233333Y-101038152D02*
X149185714Y-101133390D01*
X149185714Y-101133390D02*
X149138095Y-101181009D01*
X149138095Y-101181009D02*
X149042857Y-101228628D01*
X149042857Y-101228628D02*
X148661905Y-101228628D01*
X149804762Y-101133390D02*
X149709524Y-101085771D01*
X149709524Y-101085771D02*
X149661905Y-101038152D01*
X149661905Y-101038152D02*
X149614286Y-100942914D01*
X149614286Y-100942914D02*
X149614286Y-100895295D01*
X149614286Y-100895295D02*
X149661905Y-100800057D01*
X149661905Y-100800057D02*
X149709524Y-100752438D01*
X149709524Y-100752438D02*
X149804762Y-100704819D01*
X149804762Y-100704819D02*
X149995238Y-100704819D01*
X149995238Y-100704819D02*
X150090476Y-100752438D01*
X150090476Y-100752438D02*
X150138095Y-100800057D01*
X150138095Y-100800057D02*
X150185714Y-100895295D01*
X150185714Y-100895295D02*
X150185714Y-100942914D01*
X150185714Y-100942914D02*
X150138095Y-101038152D01*
X150138095Y-101038152D02*
X150090476Y-101085771D01*
X150090476Y-101085771D02*
X149995238Y-101133390D01*
X149995238Y-101133390D02*
X149804762Y-101133390D01*
X149804762Y-101133390D02*
X149709524Y-101181009D01*
X149709524Y-101181009D02*
X149661905Y-101228628D01*
X149661905Y-101228628D02*
X149614286Y-101323866D01*
X149614286Y-101323866D02*
X149614286Y-101514342D01*
X149614286Y-101514342D02*
X149661905Y-101609580D01*
X149661905Y-101609580D02*
X149709524Y-101657200D01*
X149709524Y-101657200D02*
X149804762Y-101704819D01*
X149804762Y-101704819D02*
X149995238Y-101704819D01*
X149995238Y-101704819D02*
X150090476Y-101657200D01*
X150090476Y-101657200D02*
X150138095Y-101609580D01*
X150138095Y-101609580D02*
X150185714Y-101514342D01*
X150185714Y-101514342D02*
X150185714Y-101323866D01*
X150185714Y-101323866D02*
X150138095Y-101228628D01*
X150138095Y-101228628D02*
X150090476Y-101181009D01*
X150090476Y-101181009D02*
X149995238Y-101133390D01*
X122177142Y-103874819D02*
X121843809Y-103398628D01*
X121605714Y-103874819D02*
X121605714Y-102874819D01*
X121605714Y-102874819D02*
X121986666Y-102874819D01*
X121986666Y-102874819D02*
X122081904Y-102922438D01*
X122081904Y-102922438D02*
X122129523Y-102970057D01*
X122129523Y-102970057D02*
X122177142Y-103065295D01*
X122177142Y-103065295D02*
X122177142Y-103208152D01*
X122177142Y-103208152D02*
X122129523Y-103303390D01*
X122129523Y-103303390D02*
X122081904Y-103351009D01*
X122081904Y-103351009D02*
X121986666Y-103398628D01*
X121986666Y-103398628D02*
X121605714Y-103398628D01*
X123129523Y-103874819D02*
X122558095Y-103874819D01*
X122843809Y-103874819D02*
X122843809Y-102874819D01*
X122843809Y-102874819D02*
X122748571Y-103017676D01*
X122748571Y-103017676D02*
X122653333Y-103112914D01*
X122653333Y-103112914D02*
X122558095Y-103160533D01*
X124081904Y-103874819D02*
X123510476Y-103874819D01*
X123796190Y-103874819D02*
X123796190Y-102874819D01*
X123796190Y-102874819D02*
X123700952Y-103017676D01*
X123700952Y-103017676D02*
X123605714Y-103112914D01*
X123605714Y-103112914D02*
X123510476Y-103160533D01*
X125233333Y-97734580D02*
X125185714Y-97782200D01*
X125185714Y-97782200D02*
X125042857Y-97829819D01*
X125042857Y-97829819D02*
X124947619Y-97829819D01*
X124947619Y-97829819D02*
X124804762Y-97782200D01*
X124804762Y-97782200D02*
X124709524Y-97686961D01*
X124709524Y-97686961D02*
X124661905Y-97591723D01*
X124661905Y-97591723D02*
X124614286Y-97401247D01*
X124614286Y-97401247D02*
X124614286Y-97258390D01*
X124614286Y-97258390D02*
X124661905Y-97067914D01*
X124661905Y-97067914D02*
X124709524Y-96972676D01*
X124709524Y-96972676D02*
X124804762Y-96877438D01*
X124804762Y-96877438D02*
X124947619Y-96829819D01*
X124947619Y-96829819D02*
X125042857Y-96829819D01*
X125042857Y-96829819D02*
X125185714Y-96877438D01*
X125185714Y-96877438D02*
X125233333Y-96925057D01*
X125566667Y-96829819D02*
X126185714Y-96829819D01*
X126185714Y-96829819D02*
X125852381Y-97210771D01*
X125852381Y-97210771D02*
X125995238Y-97210771D01*
X125995238Y-97210771D02*
X126090476Y-97258390D01*
X126090476Y-97258390D02*
X126138095Y-97306009D01*
X126138095Y-97306009D02*
X126185714Y-97401247D01*
X126185714Y-97401247D02*
X126185714Y-97639342D01*
X126185714Y-97639342D02*
X126138095Y-97734580D01*
X126138095Y-97734580D02*
X126090476Y-97782200D01*
X126090476Y-97782200D02*
X125995238Y-97829819D01*
X125995238Y-97829819D02*
X125709524Y-97829819D01*
X125709524Y-97829819D02*
X125614286Y-97782200D01*
X125614286Y-97782200D02*
X125566667Y-97734580D01*
X125386666Y-130424819D02*
X125386666Y-131139104D01*
X125386666Y-131139104D02*
X125339047Y-131281961D01*
X125339047Y-131281961D02*
X125243809Y-131377200D01*
X125243809Y-131377200D02*
X125100952Y-131424819D01*
X125100952Y-131424819D02*
X125005714Y-131424819D01*
X125815238Y-130520057D02*
X125862857Y-130472438D01*
X125862857Y-130472438D02*
X125958095Y-130424819D01*
X125958095Y-130424819D02*
X126196190Y-130424819D01*
X126196190Y-130424819D02*
X126291428Y-130472438D01*
X126291428Y-130472438D02*
X126339047Y-130520057D01*
X126339047Y-130520057D02*
X126386666Y-130615295D01*
X126386666Y-130615295D02*
X126386666Y-130710533D01*
X126386666Y-130710533D02*
X126339047Y-130853390D01*
X126339047Y-130853390D02*
X125767619Y-131424819D01*
X125767619Y-131424819D02*
X126386666Y-131424819D01*
X147013333Y-97424819D02*
X146680000Y-96948628D01*
X146441905Y-97424819D02*
X146441905Y-96424819D01*
X146441905Y-96424819D02*
X146822857Y-96424819D01*
X146822857Y-96424819D02*
X146918095Y-96472438D01*
X146918095Y-96472438D02*
X146965714Y-96520057D01*
X146965714Y-96520057D02*
X147013333Y-96615295D01*
X147013333Y-96615295D02*
X147013333Y-96758152D01*
X147013333Y-96758152D02*
X146965714Y-96853390D01*
X146965714Y-96853390D02*
X146918095Y-96901009D01*
X146918095Y-96901009D02*
X146822857Y-96948628D01*
X146822857Y-96948628D02*
X146441905Y-96948628D01*
X147870476Y-96424819D02*
X147680000Y-96424819D01*
X147680000Y-96424819D02*
X147584762Y-96472438D01*
X147584762Y-96472438D02*
X147537143Y-96520057D01*
X147537143Y-96520057D02*
X147441905Y-96662914D01*
X147441905Y-96662914D02*
X147394286Y-96853390D01*
X147394286Y-96853390D02*
X147394286Y-97234342D01*
X147394286Y-97234342D02*
X147441905Y-97329580D01*
X147441905Y-97329580D02*
X147489524Y-97377200D01*
X147489524Y-97377200D02*
X147584762Y-97424819D01*
X147584762Y-97424819D02*
X147775238Y-97424819D01*
X147775238Y-97424819D02*
X147870476Y-97377200D01*
X147870476Y-97377200D02*
X147918095Y-97329580D01*
X147918095Y-97329580D02*
X147965714Y-97234342D01*
X147965714Y-97234342D02*
X147965714Y-96996247D01*
X147965714Y-96996247D02*
X147918095Y-96901009D01*
X147918095Y-96901009D02*
X147870476Y-96853390D01*
X147870476Y-96853390D02*
X147775238Y-96805771D01*
X147775238Y-96805771D02*
X147584762Y-96805771D01*
X147584762Y-96805771D02*
X147489524Y-96853390D01*
X147489524Y-96853390D02*
X147441905Y-96901009D01*
X147441905Y-96901009D02*
X147394286Y-96996247D01*
X133897142Y-105184819D02*
X133563809Y-104708628D01*
X133325714Y-105184819D02*
X133325714Y-104184819D01*
X133325714Y-104184819D02*
X133706666Y-104184819D01*
X133706666Y-104184819D02*
X133801904Y-104232438D01*
X133801904Y-104232438D02*
X133849523Y-104280057D01*
X133849523Y-104280057D02*
X133897142Y-104375295D01*
X133897142Y-104375295D02*
X133897142Y-104518152D01*
X133897142Y-104518152D02*
X133849523Y-104613390D01*
X133849523Y-104613390D02*
X133801904Y-104661009D01*
X133801904Y-104661009D02*
X133706666Y-104708628D01*
X133706666Y-104708628D02*
X133325714Y-104708628D01*
X134849523Y-105184819D02*
X134278095Y-105184819D01*
X134563809Y-105184819D02*
X134563809Y-104184819D01*
X134563809Y-104184819D02*
X134468571Y-104327676D01*
X134468571Y-104327676D02*
X134373333Y-104422914D01*
X134373333Y-104422914D02*
X134278095Y-104470533D01*
X135468571Y-104184819D02*
X135563809Y-104184819D01*
X135563809Y-104184819D02*
X135659047Y-104232438D01*
X135659047Y-104232438D02*
X135706666Y-104280057D01*
X135706666Y-104280057D02*
X135754285Y-104375295D01*
X135754285Y-104375295D02*
X135801904Y-104565771D01*
X135801904Y-104565771D02*
X135801904Y-104803866D01*
X135801904Y-104803866D02*
X135754285Y-104994342D01*
X135754285Y-104994342D02*
X135706666Y-105089580D01*
X135706666Y-105089580D02*
X135659047Y-105137200D01*
X135659047Y-105137200D02*
X135563809Y-105184819D01*
X135563809Y-105184819D02*
X135468571Y-105184819D01*
X135468571Y-105184819D02*
X135373333Y-105137200D01*
X135373333Y-105137200D02*
X135325714Y-105089580D01*
X135325714Y-105089580D02*
X135278095Y-104994342D01*
X135278095Y-104994342D02*
X135230476Y-104803866D01*
X135230476Y-104803866D02*
X135230476Y-104565771D01*
X135230476Y-104565771D02*
X135278095Y-104375295D01*
X135278095Y-104375295D02*
X135325714Y-104280057D01*
X135325714Y-104280057D02*
X135373333Y-104232438D01*
X135373333Y-104232438D02*
X135468571Y-104184819D01*
X136733333Y-107259580D02*
X136685714Y-107307200D01*
X136685714Y-107307200D02*
X136542857Y-107354819D01*
X136542857Y-107354819D02*
X136447619Y-107354819D01*
X136447619Y-107354819D02*
X136304762Y-107307200D01*
X136304762Y-107307200D02*
X136209524Y-107211961D01*
X136209524Y-107211961D02*
X136161905Y-107116723D01*
X136161905Y-107116723D02*
X136114286Y-106926247D01*
X136114286Y-106926247D02*
X136114286Y-106783390D01*
X136114286Y-106783390D02*
X136161905Y-106592914D01*
X136161905Y-106592914D02*
X136209524Y-106497676D01*
X136209524Y-106497676D02*
X136304762Y-106402438D01*
X136304762Y-106402438D02*
X136447619Y-106354819D01*
X136447619Y-106354819D02*
X136542857Y-106354819D01*
X136542857Y-106354819D02*
X136685714Y-106402438D01*
X136685714Y-106402438D02*
X136733333Y-106450057D01*
X137638095Y-106354819D02*
X137161905Y-106354819D01*
X137161905Y-106354819D02*
X137114286Y-106831009D01*
X137114286Y-106831009D02*
X137161905Y-106783390D01*
X137161905Y-106783390D02*
X137257143Y-106735771D01*
X137257143Y-106735771D02*
X137495238Y-106735771D01*
X137495238Y-106735771D02*
X137590476Y-106783390D01*
X137590476Y-106783390D02*
X137638095Y-106831009D01*
X137638095Y-106831009D02*
X137685714Y-106926247D01*
X137685714Y-106926247D02*
X137685714Y-107164342D01*
X137685714Y-107164342D02*
X137638095Y-107259580D01*
X137638095Y-107259580D02*
X137590476Y-107307200D01*
X137590476Y-107307200D02*
X137495238Y-107354819D01*
X137495238Y-107354819D02*
X137257143Y-107354819D01*
X137257143Y-107354819D02*
X137161905Y-107307200D01*
X137161905Y-107307200D02*
X137114286Y-107259580D01*
D13*
%TO.C,SW1*%
X150800000Y-107600000D02*
X151600000Y-107600000D01*
X152700000Y-108200000D02*
X152700000Y-111000000D01*
X152200000Y-109100000D02*
X152200000Y-110100000D01*
X150200000Y-110100000D02*
X150200000Y-109100000D01*
X149700000Y-111000000D02*
X149700000Y-108200000D01*
X151600000Y-111600000D02*
X150800000Y-111600000D01*
X152199999Y-109100000D02*
G75*
G03*
X150200001Y-109100000I-999999J-500000D01*
G01*
X150200001Y-110100000D02*
G75*
G03*
X152199999Y-110100000I999999J500000D01*
G01*
D14*
%TO.C,C13*%
X136159420Y-127552500D02*
X136440580Y-127552500D01*
X136159420Y-128572500D02*
X136440580Y-128572500D01*
%TO.C,C6*%
X133981920Y-109080000D02*
X134263080Y-109080000D01*
X133981920Y-110100000D02*
X134263080Y-110100000D01*
%TO.C,C14*%
X133065580Y-128572500D02*
X132784420Y-128572500D01*
X133065580Y-127552500D02*
X132784420Y-127552500D01*
D13*
%TO.C,BT1*%
X134550423Y-73003059D02*
X132918420Y-74603949D01*
X128803059Y-78750423D02*
X130403949Y-77118420D01*
X137049338Y-75501974D02*
X134550423Y-73003059D01*
X131301974Y-81249338D02*
X128803059Y-78750423D01*
X131301974Y-81249338D02*
G75*
G03*
X137049338Y-75501974I10090416J-4343052D01*
G01*
X146342135Y-89127921D02*
G75*
G03*
X144989512Y-90497558I-4949747J3535533D01*
G01*
X147402794Y-89481475D02*
G75*
G03*
X145281475Y-91602794I-6010406J3889087D01*
G01*
D14*
%TO.C,C1*%
X150759420Y-113490000D02*
X151040580Y-113490000D01*
X150759420Y-114510000D02*
X151040580Y-114510000D01*
%TO.C,C8*%
X134296030Y-124113219D02*
X134097219Y-124312030D01*
X133574781Y-123391970D02*
X133375970Y-123590781D01*
%TO.C,R16*%
X146812500Y-130962742D02*
X146812500Y-131437258D01*
X145767500Y-130962742D02*
X145767500Y-131437258D01*
%TO.C,R3*%
X139677064Y-150935000D02*
X139222936Y-150935000D01*
X139677064Y-149465000D02*
X139222936Y-149465000D01*
%TO.C,R1*%
X149665000Y-117127064D02*
X149665000Y-116672936D01*
X151135000Y-117127064D02*
X151135000Y-116672936D01*
D13*
%TO.C,SW4*%
X120900000Y-81200000D02*
X120900000Y-80400000D01*
X121500000Y-79300000D02*
X124300000Y-79300000D01*
X122400000Y-79800000D02*
X123400000Y-79800000D01*
X123400000Y-81800000D02*
X122400000Y-81800000D01*
X124300000Y-82300000D02*
X121500000Y-82300000D01*
X124900000Y-80400000D02*
X124900000Y-81200000D01*
X122400000Y-79800001D02*
G75*
G03*
X122400000Y-81799999I500000J-999999D01*
G01*
X123400000Y-81799999D02*
G75*
G03*
X123400000Y-79800001I-500000J999999D01*
G01*
D15*
%TO.C,J3*%
X120774613Y-95122253D02*
X119029227Y-94938806D01*
X120774613Y-95122253D02*
X120766250Y-95201815D01*
X116498169Y-94672781D02*
X116851224Y-94709888D01*
X116498169Y-94672781D02*
X115724658Y-102032243D01*
X120009464Y-102402153D02*
X120001102Y-102481715D01*
X118255716Y-102298268D02*
X120001102Y-102481715D01*
X115724658Y-102032243D02*
X116077713Y-102069350D01*
D12*
X121872123Y-97590040D02*
G75*
G03*
X121872123Y-97590040I-100000J0D01*
G01*
D14*
%TO.C,C11*%
X125140580Y-93910000D02*
X124859420Y-93910000D01*
X125140580Y-92890000D02*
X124859420Y-92890000D01*
%TO.C,J5*%
X142170000Y-131970000D02*
X143500000Y-131970000D01*
X142170000Y-133300000D02*
X142170000Y-131970000D01*
X142170000Y-134570000D02*
X142170000Y-157490000D01*
X142170000Y-134570000D02*
X144830000Y-134570000D01*
X142170000Y-157490000D02*
X144830000Y-157490000D01*
X144830000Y-134570000D02*
X144830000Y-157490000D01*
%TO.C,U1*%
X135360000Y-111634689D02*
X135041802Y-111952887D01*
X135041802Y-111952887D02*
X134129634Y-111040719D01*
X130254689Y-116740000D02*
X130572887Y-116421802D01*
X135678198Y-111952887D02*
X135360000Y-111634689D01*
X130572887Y-117058198D02*
X130254689Y-116740000D01*
X140147113Y-116421802D02*
X140465311Y-116740000D01*
X135041802Y-121527113D02*
X135360000Y-121845311D01*
X140465311Y-116740000D02*
X140147113Y-117058198D01*
X135360000Y-121845311D02*
X135678198Y-121527113D01*
%TO.C,FB1*%
X130305110Y-107833295D02*
X129739959Y-108398446D01*
X129513151Y-107041336D02*
X128948000Y-107606487D01*
%TO.C,R17*%
X143927258Y-159282500D02*
X143452742Y-159282500D01*
X143927258Y-158237500D02*
X143452742Y-158237500D01*
D12*
%TO.C,SW3*%
X130250000Y-98450000D02*
X138750000Y-98450000D01*
X130250000Y-101950000D02*
X130250000Y-98450000D01*
X138750000Y-98450000D02*
X138750000Y-101950000D01*
X138750000Y-101950000D02*
X130250000Y-101950000D01*
D14*
%TO.C,R13*%
X122417258Y-128282500D02*
X121942742Y-128282500D01*
X122417258Y-127237500D02*
X121942742Y-127237500D01*
%TO.C,C2*%
X119340580Y-112442000D02*
X119059420Y-112442000D01*
X119340580Y-111422000D02*
X119059420Y-111422000D01*
%TO.C,R12*%
X119912500Y-105352742D02*
X119912500Y-105827258D01*
X118867500Y-105352742D02*
X118867500Y-105827258D01*
%TO.C,U2*%
X120090000Y-91850000D02*
X120090000Y-85840000D01*
X126910000Y-89600000D02*
X126910000Y-85840000D01*
X120090000Y-85840000D02*
X121350000Y-85840000D01*
X126910000Y-85840000D02*
X125650000Y-85840000D01*
%TO.C,C10*%
X129422098Y-109784901D02*
X129791565Y-109415434D01*
X130461545Y-110824348D02*
X130831012Y-110454881D01*
%TO.C,R7*%
X149512500Y-98862742D02*
X149512500Y-99337258D01*
X148467500Y-98862742D02*
X148467500Y-99337258D01*
%TO.C,C4*%
X129460000Y-91938748D02*
X129460000Y-92461252D01*
X127990000Y-91938748D02*
X127990000Y-92461252D01*
%TO.C,Y1*%
X136125000Y-132462500D02*
X136125000Y-129162500D01*
X136125000Y-129162500D02*
X132125000Y-129162500D01*
%TO.C,J1*%
X124390000Y-101490000D02*
X125720000Y-101490000D01*
X124390000Y-102820000D02*
X124390000Y-101490000D01*
X124390000Y-104090000D02*
X124390000Y-127010000D01*
X124390000Y-104090000D02*
X127050000Y-104090000D01*
X124390000Y-127010000D02*
X127050000Y-127010000D01*
X127050000Y-104090000D02*
X127050000Y-127010000D01*
%TO.C,R15*%
X148502500Y-130972742D02*
X148502500Y-131447258D01*
X147457500Y-130972742D02*
X147457500Y-131447258D01*
%TO.C,R18*%
X128759165Y-80119718D02*
X129080282Y-80440835D01*
X127719718Y-81159165D02*
X128040835Y-81480282D01*
%TO.C,R2*%
X118965000Y-109359064D02*
X118965000Y-108904936D01*
X120435000Y-109359064D02*
X120435000Y-108904936D01*
%TO.C,R9*%
X151782500Y-103122742D02*
X151782500Y-103597258D01*
X150737500Y-103122742D02*
X150737500Y-103597258D01*
%TO.C,C12*%
X131211252Y-96810000D02*
X129788748Y-96810000D01*
X131211252Y-94990000D02*
X129788748Y-94990000D01*
%TO.C,C15*%
X124859420Y-77090000D02*
X125140580Y-77090000D01*
X124859420Y-78110000D02*
X125140580Y-78110000D01*
%TO.C,R4*%
X139677064Y-146235000D02*
X139222936Y-146235000D01*
X139677064Y-144765000D02*
X139222936Y-144765000D01*
%TO.C,R14*%
X125532742Y-158277500D02*
X126007258Y-158277500D01*
X125532742Y-159322500D02*
X126007258Y-159322500D01*
%TO.C,J4*%
X142170000Y-101490000D02*
X143500000Y-101490000D01*
X142170000Y-102820000D02*
X142170000Y-101490000D01*
X142170000Y-104090000D02*
X142170000Y-127010000D01*
X142170000Y-104090000D02*
X144830000Y-104090000D01*
X142170000Y-127010000D02*
X144830000Y-127010000D01*
X144830000Y-104090000D02*
X144830000Y-127010000D01*
%TO.C,C7*%
X137381920Y-109080000D02*
X137663080Y-109080000D01*
X137381920Y-110100000D02*
X137663080Y-110100000D01*
%TO.C,J6*%
X129470000Y-159100000D02*
X129470000Y-157770000D01*
X130800000Y-159100000D02*
X129470000Y-159100000D01*
X132070000Y-159100000D02*
X139750000Y-159100000D01*
X132070000Y-159100000D02*
X132070000Y-156500000D01*
X139750000Y-159100000D02*
X139750000Y-153900000D01*
X129470000Y-156500000D02*
X129470000Y-153900000D01*
X132070000Y-156500000D02*
X129470000Y-156500000D01*
X129470000Y-153900000D02*
X139750000Y-153900000D01*
%TO.C,R5*%
X145762500Y-98837742D02*
X145762500Y-99312258D01*
X144717500Y-98837742D02*
X144717500Y-99312258D01*
D13*
%TO.C,SW2*%
X118550000Y-114332000D02*
X119350000Y-114332000D01*
X120450000Y-114932000D02*
X120450000Y-117732000D01*
X119950000Y-115832000D02*
X119950000Y-116832000D01*
X117950000Y-116832000D02*
X117950000Y-115832000D01*
X117450000Y-117732000D02*
X117450000Y-114932000D01*
X119350000Y-118332000D02*
X118550000Y-118332000D01*
X119949999Y-115832000D02*
G75*
G03*
X117950001Y-115832000I-999999J-500000D01*
G01*
X117950001Y-116832000D02*
G75*
G03*
X119949999Y-116832000I999999J500000D01*
G01*
D14*
%TO.C,C9*%
X130466525Y-111858672D02*
X130665336Y-111659861D01*
X131187774Y-112579921D02*
X131386585Y-112381110D01*
%TO.C,R8*%
X149842500Y-103092742D02*
X149842500Y-103567258D01*
X148797500Y-103092742D02*
X148797500Y-103567258D01*
%TO.C,R11*%
X123332500Y-105292742D02*
X123332500Y-105767258D01*
X122287500Y-105292742D02*
X122287500Y-105767258D01*
%TO.C,C3*%
X122565000Y-96661252D02*
X122565000Y-96138748D01*
X124035000Y-96661252D02*
X124035000Y-96138748D01*
%TO.C,J2*%
X124390000Y-131970000D02*
X125720000Y-131970000D01*
X124390000Y-133300000D02*
X124390000Y-131970000D01*
X124390000Y-134570000D02*
X124390000Y-157490000D01*
X124390000Y-134570000D02*
X127050000Y-134570000D01*
X124390000Y-157490000D02*
X127050000Y-157490000D01*
X127050000Y-134570000D02*
X127050000Y-157490000D01*
%TO.C,R6*%
X147672500Y-98857742D02*
X147672500Y-99332258D01*
X146627500Y-98857742D02*
X146627500Y-99332258D01*
%TO.C,R10*%
X134777258Y-103842500D02*
X134302742Y-103842500D01*
X134777258Y-102797500D02*
X134302742Y-102797500D01*
%TO.C,C5*%
X133961248Y-106755000D02*
X134483752Y-106755000D01*
X133961248Y-108225000D02*
X134483752Y-108225000D01*
%TD*%
M02*
